<?xml version="1.0" encoding="utf-8" standalone="no"?>
<!DOCTYPE svg PUBLIC "-//W3C//DTD SVG 1.1//EN"
  "http://www.w3.org/Graphics/SVG/1.1/DTD/svg11.dtd">
<svg height="697.68pt" version="1.1" viewBox="0 0 1382.4 697.68" width="1382.4pt" xmlns="http://www.w3.org/2000/svg" xmlns:xlink="http://www.w3.org/1999/xlink">
 <metadata>
  <rdf:RDF xmlns:cc="http://creativecommons.org/ns#" xmlns:dc="http://purl.org/dc/elements/1.1/" xmlns:rdf="http://www.w3.org/1999/02/22-rdf-syntax-ns#">
   <cc:Work>
    <dc:type rdf:resource="http://purl.org/dc/dcmitype/StillImage"/>
    <dc:date>2021-11-03T21:15:41.229055</dc:date>
    <dc:format>image/svg+xml</dc:format>
    <dc:creator>
     <cc:Agent>
      <dc:title>Matplotlib v3.4.3, https://matplotlib.org/</dc:title>
     </cc:Agent>
    </dc:creator>
   </cc:Work>
  </rdf:RDF>
 </metadata>
 <defs>
  <style type="text/css">*{stroke-linecap:butt;stroke-linejoin:round;}</style>
 </defs>
 <g id="figure_1">
  <g id="patch_1">
   <path d="M 0 697.68 
L 1382.4 697.68 
L 1382.4 0 
L 0 0 
z
" style="fill:#ffffff;"/>
  </g>
  <g id="axes_1">
   <g id="patch_2">
    <path d="M 75.702857 208.229143 
L 1369.234286 208.229143 
L 1369.234286 21.594857 
L 75.702857 21.594857 
z
" style="fill:#eaeaf2;"/>
   </g>
   <g id="matplotlib.axis_1">
    <g id="xtick_1">
     <g id="line2d_1">
      <path clip-path="url(#p7533220923)" d="M 134.49974 208.229143 
L 134.49974 21.594857 
" style="fill:none;stroke:#ffffff;stroke-linecap:round;"/>
     </g>
     <g id="text_1">
      <!-- 0 -->
      <g style="fill:#262626;" transform="translate(131.441225 225.602737)scale(0.11 -0.11)">
       <defs>
        <path d="M 266 2259 
Q 266 3072 433 3567 
Q 600 4063 929 4331 
Q 1259 4600 1759 4600 
Q 2128 4600 2406 4451 
Q 2684 4303 2865 4023 
Q 3047 3744 3150 3342 
Q 3253 2941 3253 2259 
Q 3253 1453 3087 958 
Q 2922 463 2592 192 
Q 2263 -78 1759 -78 
Q 1097 -78 719 397 
Q 266 969 266 2259 
z
M 844 2259 
Q 844 1131 1108 757 
Q 1372 384 1759 384 
Q 2147 384 2411 759 
Q 2675 1134 2675 2259 
Q 2675 3391 2411 3762 
Q 2147 4134 1753 4134 
Q 1366 4134 1134 3806 
Q 844 3388 844 2259 
z
" id="ArialMT-30" transform="scale(0.015625)"/>
       </defs>
       <use xlink:href="#ArialMT-30"/>
      </g>
     </g>
    </g>
    <g id="xtick_2">
     <g id="line2d_2">
      <path clip-path="url(#p7533220923)" d="M 250.929212 208.229143 
L 250.929212 21.594857 
" style="fill:none;stroke:#ffffff;stroke-linecap:round;"/>
     </g>
     <g id="text_2">
      <!-- 1 -->
      <g style="fill:#262626;" transform="translate(247.870696 225.602737)scale(0.11 -0.11)">
       <defs>
        <path d="M 2384 0 
L 1822 0 
L 1822 3584 
Q 1619 3391 1289 3197 
Q 959 3003 697 2906 
L 697 3450 
Q 1169 3672 1522 3987 
Q 1875 4303 2022 4600 
L 2384 4600 
L 2384 0 
z
" id="ArialMT-31" transform="scale(0.015625)"/>
       </defs>
       <use xlink:href="#ArialMT-31"/>
      </g>
     </g>
    </g>
    <g id="xtick_3">
     <g id="line2d_3">
      <path clip-path="url(#p7533220923)" d="M 367.358683 208.229143 
L 367.358683 21.594857 
" style="fill:none;stroke:#ffffff;stroke-linecap:round;"/>
     </g>
     <g id="text_3">
      <!-- 2 -->
      <g style="fill:#262626;" transform="translate(364.300168 225.602737)scale(0.11 -0.11)">
       <defs>
        <path d="M 3222 541 
L 3222 0 
L 194 0 
Q 188 203 259 391 
Q 375 700 629 1000 
Q 884 1300 1366 1694 
Q 2113 2306 2375 2664 
Q 2638 3022 2638 3341 
Q 2638 3675 2398 3904 
Q 2159 4134 1775 4134 
Q 1369 4134 1125 3890 
Q 881 3647 878 3216 
L 300 3275 
Q 359 3922 746 4261 
Q 1134 4600 1788 4600 
Q 2447 4600 2831 4234 
Q 3216 3869 3216 3328 
Q 3216 3053 3103 2787 
Q 2991 2522 2730 2228 
Q 2469 1934 1863 1422 
Q 1356 997 1212 845 
Q 1069 694 975 541 
L 3222 541 
z
" id="ArialMT-32" transform="scale(0.015625)"/>
       </defs>
       <use xlink:href="#ArialMT-32"/>
      </g>
     </g>
    </g>
    <g id="xtick_4">
     <g id="line2d_4">
      <path clip-path="url(#p7533220923)" d="M 483.788155 208.229143 
L 483.788155 21.594857 
" style="fill:none;stroke:#ffffff;stroke-linecap:round;"/>
     </g>
     <g id="text_4">
      <!-- 3 -->
      <g style="fill:#262626;" transform="translate(480.729639 225.602737)scale(0.11 -0.11)">
       <defs>
        <path d="M 269 1209 
L 831 1284 
Q 928 806 1161 595 
Q 1394 384 1728 384 
Q 2125 384 2398 659 
Q 2672 934 2672 1341 
Q 2672 1728 2419 1979 
Q 2166 2231 1775 2231 
Q 1616 2231 1378 2169 
L 1441 2663 
Q 1497 2656 1531 2656 
Q 1891 2656 2178 2843 
Q 2466 3031 2466 3422 
Q 2466 3731 2256 3934 
Q 2047 4138 1716 4138 
Q 1388 4138 1169 3931 
Q 950 3725 888 3313 
L 325 3413 
Q 428 3978 793 4289 
Q 1159 4600 1703 4600 
Q 2078 4600 2393 4439 
Q 2709 4278 2876 4000 
Q 3044 3722 3044 3409 
Q 3044 3113 2884 2869 
Q 2725 2625 2413 2481 
Q 2819 2388 3044 2092 
Q 3269 1797 3269 1353 
Q 3269 753 2831 336 
Q 2394 -81 1725 -81 
Q 1122 -81 723 278 
Q 325 638 269 1209 
z
" id="ArialMT-33" transform="scale(0.015625)"/>
       </defs>
       <use xlink:href="#ArialMT-33"/>
      </g>
     </g>
    </g>
    <g id="xtick_5">
     <g id="line2d_5">
      <path clip-path="url(#p7533220923)" d="M 600.217626 208.229143 
L 600.217626 21.594857 
" style="fill:none;stroke:#ffffff;stroke-linecap:round;"/>
     </g>
     <g id="text_5">
      <!-- 4 -->
      <g style="fill:#262626;" transform="translate(597.159111 225.602737)scale(0.11 -0.11)">
       <defs>
        <path d="M 2069 0 
L 2069 1097 
L 81 1097 
L 81 1613 
L 2172 4581 
L 2631 4581 
L 2631 1613 
L 3250 1613 
L 3250 1097 
L 2631 1097 
L 2631 0 
L 2069 0 
z
M 2069 1613 
L 2069 3678 
L 634 1613 
L 2069 1613 
z
" id="ArialMT-34" transform="scale(0.015625)"/>
       </defs>
       <use xlink:href="#ArialMT-34"/>
      </g>
     </g>
    </g>
    <g id="xtick_6">
     <g id="line2d_6">
      <path clip-path="url(#p7533220923)" d="M 716.647098 208.229143 
L 716.647098 21.594857 
" style="fill:none;stroke:#ffffff;stroke-linecap:round;"/>
     </g>
     <g id="text_6">
      <!-- 5 -->
      <g style="fill:#262626;" transform="translate(713.588582 225.602737)scale(0.11 -0.11)">
       <defs>
        <path d="M 266 1200 
L 856 1250 
Q 922 819 1161 601 
Q 1400 384 1738 384 
Q 2144 384 2425 690 
Q 2706 997 2706 1503 
Q 2706 1984 2436 2262 
Q 2166 2541 1728 2541 
Q 1456 2541 1237 2417 
Q 1019 2294 894 2097 
L 366 2166 
L 809 4519 
L 3088 4519 
L 3088 3981 
L 1259 3981 
L 1013 2750 
Q 1425 3038 1878 3038 
Q 2478 3038 2890 2622 
Q 3303 2206 3303 1553 
Q 3303 931 2941 478 
Q 2500 -78 1738 -78 
Q 1113 -78 717 272 
Q 322 622 266 1200 
z
" id="ArialMT-35" transform="scale(0.015625)"/>
       </defs>
       <use xlink:href="#ArialMT-35"/>
      </g>
     </g>
    </g>
    <g id="xtick_7">
     <g id="line2d_7">
      <path clip-path="url(#p7533220923)" d="M 833.076569 208.229143 
L 833.076569 21.594857 
" style="fill:none;stroke:#ffffff;stroke-linecap:round;"/>
     </g>
     <g id="text_7">
      <!-- 6 -->
      <g style="fill:#262626;" transform="translate(830.018054 225.602737)scale(0.11 -0.11)">
       <defs>
        <path d="M 3184 3459 
L 2625 3416 
Q 2550 3747 2413 3897 
Q 2184 4138 1850 4138 
Q 1581 4138 1378 3988 
Q 1113 3794 959 3422 
Q 806 3050 800 2363 
Q 1003 2672 1297 2822 
Q 1591 2972 1913 2972 
Q 2475 2972 2870 2558 
Q 3266 2144 3266 1488 
Q 3266 1056 3080 686 
Q 2894 316 2569 119 
Q 2244 -78 1831 -78 
Q 1128 -78 684 439 
Q 241 956 241 2144 
Q 241 3472 731 4075 
Q 1159 4600 1884 4600 
Q 2425 4600 2770 4297 
Q 3116 3994 3184 3459 
z
M 888 1484 
Q 888 1194 1011 928 
Q 1134 663 1356 523 
Q 1578 384 1822 384 
Q 2178 384 2434 671 
Q 2691 959 2691 1453 
Q 2691 1928 2437 2201 
Q 2184 2475 1800 2475 
Q 1419 2475 1153 2201 
Q 888 1928 888 1484 
z
" id="ArialMT-36" transform="scale(0.015625)"/>
       </defs>
       <use xlink:href="#ArialMT-36"/>
      </g>
     </g>
    </g>
    <g id="xtick_8">
     <g id="line2d_8">
      <path clip-path="url(#p7533220923)" d="M 949.506041 208.229143 
L 949.506041 21.594857 
" style="fill:none;stroke:#ffffff;stroke-linecap:round;"/>
     </g>
     <g id="text_8">
      <!-- 7 -->
      <g style="fill:#262626;" transform="translate(946.447525 225.602737)scale(0.11 -0.11)">
       <defs>
        <path d="M 303 3981 
L 303 4522 
L 3269 4522 
L 3269 4084 
Q 2831 3619 2401 2847 
Q 1972 2075 1738 1259 
Q 1569 684 1522 0 
L 944 0 
Q 953 541 1156 1306 
Q 1359 2072 1739 2783 
Q 2119 3494 2547 3981 
L 303 3981 
z
" id="ArialMT-37" transform="scale(0.015625)"/>
       </defs>
       <use xlink:href="#ArialMT-37"/>
      </g>
     </g>
    </g>
    <g id="xtick_9">
     <g id="line2d_9">
      <path clip-path="url(#p7533220923)" d="M 1065.935512 208.229143 
L 1065.935512 21.594857 
" style="fill:none;stroke:#ffffff;stroke-linecap:round;"/>
     </g>
     <g id="text_9">
      <!-- 8 -->
      <g style="fill:#262626;" transform="translate(1062.876997 225.602737)scale(0.11 -0.11)">
       <defs>
        <path d="M 1131 2484 
Q 781 2613 612 2850 
Q 444 3088 444 3419 
Q 444 3919 803 4259 
Q 1163 4600 1759 4600 
Q 2359 4600 2725 4251 
Q 3091 3903 3091 3403 
Q 3091 3084 2923 2848 
Q 2756 2613 2416 2484 
Q 2838 2347 3058 2040 
Q 3278 1734 3278 1309 
Q 3278 722 2862 322 
Q 2447 -78 1769 -78 
Q 1091 -78 675 323 
Q 259 725 259 1325 
Q 259 1772 486 2073 
Q 713 2375 1131 2484 
z
M 1019 3438 
Q 1019 3113 1228 2906 
Q 1438 2700 1772 2700 
Q 2097 2700 2305 2904 
Q 2513 3109 2513 3406 
Q 2513 3716 2298 3927 
Q 2084 4138 1766 4138 
Q 1444 4138 1231 3931 
Q 1019 3725 1019 3438 
z
M 838 1322 
Q 838 1081 952 856 
Q 1066 631 1291 507 
Q 1516 384 1775 384 
Q 2178 384 2440 643 
Q 2703 903 2703 1303 
Q 2703 1709 2433 1975 
Q 2163 2241 1756 2241 
Q 1359 2241 1098 1978 
Q 838 1716 838 1322 
z
" id="ArialMT-38" transform="scale(0.015625)"/>
       </defs>
       <use xlink:href="#ArialMT-38"/>
      </g>
     </g>
    </g>
    <g id="xtick_10">
     <g id="line2d_10">
      <path clip-path="url(#p7533220923)" d="M 1182.364984 208.229143 
L 1182.364984 21.594857 
" style="fill:none;stroke:#ffffff;stroke-linecap:round;"/>
     </g>
     <g id="text_10">
      <!-- 9 -->
      <g style="fill:#262626;" transform="translate(1179.306468 225.602737)scale(0.11 -0.11)">
       <defs>
        <path d="M 350 1059 
L 891 1109 
Q 959 728 1153 556 
Q 1347 384 1650 384 
Q 1909 384 2104 503 
Q 2300 622 2425 820 
Q 2550 1019 2634 1356 
Q 2719 1694 2719 2044 
Q 2719 2081 2716 2156 
Q 2547 1888 2255 1720 
Q 1963 1553 1622 1553 
Q 1053 1553 659 1965 
Q 266 2378 266 3053 
Q 266 3750 677 4175 
Q 1088 4600 1706 4600 
Q 2153 4600 2523 4359 
Q 2894 4119 3086 3673 
Q 3278 3228 3278 2384 
Q 3278 1506 3087 986 
Q 2897 466 2520 194 
Q 2144 -78 1638 -78 
Q 1100 -78 759 220 
Q 419 519 350 1059 
z
M 2653 3081 
Q 2653 3566 2395 3850 
Q 2138 4134 1775 4134 
Q 1400 4134 1122 3828 
Q 844 3522 844 3034 
Q 844 2597 1108 2323 
Q 1372 2050 1759 2050 
Q 2150 2050 2401 2323 
Q 2653 2597 2653 3081 
z
" id="ArialMT-39" transform="scale(0.015625)"/>
       </defs>
       <use xlink:href="#ArialMT-39"/>
      </g>
     </g>
    </g>
    <g id="xtick_11">
     <g id="line2d_11">
      <path clip-path="url(#p7533220923)" d="M 1298.794455 208.229143 
L 1298.794455 21.594857 
" style="fill:none;stroke:#ffffff;stroke-linecap:round;"/>
     </g>
     <g id="text_11">
      <!-- 10 -->
      <g style="fill:#262626;" transform="translate(1292.677424 225.602737)scale(0.11 -0.11)">
       <use xlink:href="#ArialMT-31"/>
       <use x="55.615234" xlink:href="#ArialMT-30"/>
      </g>
     </g>
    </g>
   </g>
   <g id="matplotlib.axis_2">
    <g id="ytick_1">
     <g id="line2d_12">
      <path clip-path="url(#p7533220923)" d="M 75.702857 208.229143 
L 1369.234286 208.229143 
" style="fill:none;stroke:#ffffff;stroke-linecap:round;"/>
     </g>
     <g id="text_12">
      <!-- −1251.0 -->
      <g style="fill:#262626;" transform="translate(26.137076 212.16594)scale(0.11 -0.11)">
       <defs>
        <path d="M 3381 1997 
L 356 1997 
L 356 2522 
L 3381 2522 
L 3381 1997 
z
" id="ArialMT-2212" transform="scale(0.015625)"/>
        <path d="M 581 0 
L 581 641 
L 1222 641 
L 1222 0 
L 581 0 
z
" id="ArialMT-2e" transform="scale(0.015625)"/>
       </defs>
       <use xlink:href="#ArialMT-2212"/>
       <use x="58.398438" xlink:href="#ArialMT-31"/>
       <use x="114.013672" xlink:href="#ArialMT-32"/>
       <use x="169.628906" xlink:href="#ArialMT-35"/>
       <use x="225.244141" xlink:href="#ArialMT-31"/>
       <use x="280.859375" xlink:href="#ArialMT-2e"/>
       <use x="308.642578" xlink:href="#ArialMT-30"/>
      </g>
     </g>
    </g>
    <g id="ytick_2">
     <g id="line2d_13">
      <path clip-path="url(#p7533220923)" d="M 75.702857 161.570571 
L 1369.234286 161.570571 
" style="fill:none;stroke:#ffffff;stroke-linecap:round;"/>
     </g>
     <g id="text_13">
      <!-- −1250.8 -->
      <g style="fill:#262626;" transform="translate(26.137076 165.507368)scale(0.11 -0.11)">
       <use xlink:href="#ArialMT-2212"/>
       <use x="58.398438" xlink:href="#ArialMT-31"/>
       <use x="114.013672" xlink:href="#ArialMT-32"/>
       <use x="169.628906" xlink:href="#ArialMT-35"/>
       <use x="225.244141" xlink:href="#ArialMT-30"/>
       <use x="280.859375" xlink:href="#ArialMT-2e"/>
       <use x="308.642578" xlink:href="#ArialMT-38"/>
      </g>
     </g>
    </g>
    <g id="ytick_3">
     <g id="line2d_14">
      <path clip-path="url(#p7533220923)" d="M 75.702857 114.912 
L 1369.234286 114.912 
" style="fill:none;stroke:#ffffff;stroke-linecap:round;"/>
     </g>
     <g id="text_14">
      <!-- −1250.6 -->
      <g style="fill:#262626;" transform="translate(26.137076 118.848797)scale(0.11 -0.11)">
       <use xlink:href="#ArialMT-2212"/>
       <use x="58.398438" xlink:href="#ArialMT-31"/>
       <use x="114.013672" xlink:href="#ArialMT-32"/>
       <use x="169.628906" xlink:href="#ArialMT-35"/>
       <use x="225.244141" xlink:href="#ArialMT-30"/>
       <use x="280.859375" xlink:href="#ArialMT-2e"/>
       <use x="308.642578" xlink:href="#ArialMT-36"/>
      </g>
     </g>
    </g>
    <g id="ytick_4">
     <g id="line2d_15">
      <path clip-path="url(#p7533220923)" d="M 75.702857 68.253429 
L 1369.234286 68.253429 
" style="fill:none;stroke:#ffffff;stroke-linecap:round;"/>
     </g>
     <g id="text_15">
      <!-- −1250.4 -->
      <g style="fill:#262626;" transform="translate(26.137076 72.190225)scale(0.11 -0.11)">
       <use xlink:href="#ArialMT-2212"/>
       <use x="58.398438" xlink:href="#ArialMT-31"/>
       <use x="114.013672" xlink:href="#ArialMT-32"/>
       <use x="169.628906" xlink:href="#ArialMT-35"/>
       <use x="225.244141" xlink:href="#ArialMT-30"/>
       <use x="280.859375" xlink:href="#ArialMT-2e"/>
       <use x="308.642578" xlink:href="#ArialMT-34"/>
      </g>
     </g>
    </g>
    <g id="text_16">
     <!-- H [kJ/mol] -->
     <g style="fill:#262626;" transform="translate(19.752076 141.580125)rotate(-90)scale(0.12 -0.12)">
      <defs>
       <path d="M 513 0 
L 513 4581 
L 1119 4581 
L 1119 2700 
L 3500 2700 
L 3500 4581 
L 4106 4581 
L 4106 0 
L 3500 0 
L 3500 2159 
L 1119 2159 
L 1119 0 
L 513 0 
z
" id="ArialMT-48" transform="scale(0.015625)"/>
       <path id="ArialMT-20" transform="scale(0.015625)"/>
       <path d="M 434 -1272 
L 434 4581 
L 1675 4581 
L 1675 4116 
L 997 4116 
L 997 -806 
L 1675 -806 
L 1675 -1272 
L 434 -1272 
z
" id="ArialMT-5b" transform="scale(0.015625)"/>
       <path d="M 425 0 
L 425 4581 
L 988 4581 
L 988 1969 
L 2319 3319 
L 3047 3319 
L 1778 2088 
L 3175 0 
L 2481 0 
L 1384 1697 
L 988 1316 
L 988 0 
L 425 0 
z
" id="ArialMT-6b" transform="scale(0.015625)"/>
       <path d="M 184 1300 
L 731 1375 
Q 753 850 928 656 
Q 1103 463 1413 463 
Q 1641 463 1806 567 
Q 1972 672 2034 851 
Q 2097 1031 2097 1425 
L 2097 4581 
L 2703 4581 
L 2703 1459 
Q 2703 884 2564 568 
Q 2425 253 2123 87 
Q 1822 -78 1416 -78 
Q 813 -78 492 269 
Q 172 616 184 1300 
z
" id="ArialMT-4a" transform="scale(0.015625)"/>
       <path d="M 0 -78 
L 1328 4659 
L 1778 4659 
L 453 -78 
L 0 -78 
z
" id="ArialMT-2f" transform="scale(0.015625)"/>
       <path d="M 422 0 
L 422 3319 
L 925 3319 
L 925 2853 
Q 1081 3097 1340 3245 
Q 1600 3394 1931 3394 
Q 2300 3394 2536 3241 
Q 2772 3088 2869 2813 
Q 3263 3394 3894 3394 
Q 4388 3394 4653 3120 
Q 4919 2847 4919 2278 
L 4919 0 
L 4359 0 
L 4359 2091 
Q 4359 2428 4304 2576 
Q 4250 2725 4106 2815 
Q 3963 2906 3769 2906 
Q 3419 2906 3187 2673 
Q 2956 2441 2956 1928 
L 2956 0 
L 2394 0 
L 2394 2156 
Q 2394 2531 2256 2718 
Q 2119 2906 1806 2906 
Q 1569 2906 1367 2781 
Q 1166 2656 1075 2415 
Q 984 2175 984 1722 
L 984 0 
L 422 0 
z
" id="ArialMT-6d" transform="scale(0.015625)"/>
       <path d="M 213 1659 
Q 213 2581 725 3025 
Q 1153 3394 1769 3394 
Q 2453 3394 2887 2945 
Q 3322 2497 3322 1706 
Q 3322 1066 3130 698 
Q 2938 331 2570 128 
Q 2203 -75 1769 -75 
Q 1072 -75 642 372 
Q 213 819 213 1659 
z
M 791 1659 
Q 791 1022 1069 705 
Q 1347 388 1769 388 
Q 2188 388 2466 706 
Q 2744 1025 2744 1678 
Q 2744 2294 2464 2611 
Q 2184 2928 1769 2928 
Q 1347 2928 1069 2612 
Q 791 2297 791 1659 
z
" id="ArialMT-6f" transform="scale(0.015625)"/>
       <path d="M 409 0 
L 409 4581 
L 972 4581 
L 972 0 
L 409 0 
z
" id="ArialMT-6c" transform="scale(0.015625)"/>
       <path d="M 1363 -1272 
L 122 -1272 
L 122 -806 
L 800 -806 
L 800 4116 
L 122 4116 
L 122 4581 
L 1363 4581 
L 1363 -1272 
z
" id="ArialMT-5d" transform="scale(0.015625)"/>
      </defs>
      <use xlink:href="#ArialMT-48"/>
      <use x="72.216797" xlink:href="#ArialMT-20"/>
      <use x="100" xlink:href="#ArialMT-5b"/>
      <use x="127.783203" xlink:href="#ArialMT-6b"/>
      <use x="177.783203" xlink:href="#ArialMT-4a"/>
      <use x="227.783203" xlink:href="#ArialMT-2f"/>
      <use x="255.566406" xlink:href="#ArialMT-6d"/>
      <use x="338.867188" xlink:href="#ArialMT-6f"/>
      <use x="394.482422" xlink:href="#ArialMT-6c"/>
      <use x="416.699219" xlink:href="#ArialMT-5d"/>
     </g>
    </g>
   </g>
   <g id="line2d_16">
    <path clip-path="url(#p7533220923)" d="M 134.49974 128.909571 
L 1310.437403 128.909571 
L 1310.437403 128.909571 
" style="fill:none;stroke:#4c72b0;stroke-linecap:round;stroke-width:1.5;"/>
   </g>
   <g id="patch_3">
    <path d="M 75.702857 208.229143 
L 75.702857 21.594857 
" style="fill:none;stroke:#ffffff;stroke-linecap:square;stroke-linejoin:miter;stroke-width:1.25;"/>
   </g>
   <g id="patch_4">
    <path d="M 1369.234286 208.229143 
L 1369.234286 21.594857 
" style="fill:none;stroke:#ffffff;stroke-linecap:square;stroke-linejoin:miter;stroke-width:1.25;"/>
   </g>
   <g id="patch_5">
    <path d="M 75.702857 208.229143 
L 1369.234286 208.229143 
" style="fill:none;stroke:#ffffff;stroke-linecap:square;stroke-linejoin:miter;stroke-width:1.25;"/>
   </g>
   <g id="patch_6">
    <path d="M 75.702857 21.594857 
L 1369.234286 21.594857 
" style="fill:none;stroke:#ffffff;stroke-linecap:square;stroke-linejoin:miter;stroke-width:1.25;"/>
   </g>
   <g id="text_17">
    <!-- Wykresy dla n = 6 i T = 0K -->
    <g style="fill:#262626;" transform="translate(652.373571 15.594857)scale(0.12 -0.12)">
     <defs>
      <path d="M 1294 0 
L 78 4581 
L 700 4581 
L 1397 1578 
Q 1509 1106 1591 641 
Q 1766 1375 1797 1488 
L 2669 4581 
L 3400 4581 
L 4056 2263 
Q 4303 1400 4413 641 
Q 4500 1075 4641 1638 
L 5359 4581 
L 5969 4581 
L 4713 0 
L 4128 0 
L 3163 3491 
Q 3041 3928 3019 4028 
Q 2947 3713 2884 3491 
L 1913 0 
L 1294 0 
z
" id="ArialMT-57" transform="scale(0.015625)"/>
      <path d="M 397 -1278 
L 334 -750 
Q 519 -800 656 -800 
Q 844 -800 956 -737 
Q 1069 -675 1141 -563 
Q 1194 -478 1313 -144 
Q 1328 -97 1363 -6 
L 103 3319 
L 709 3319 
L 1400 1397 
Q 1534 1031 1641 628 
Q 1738 1016 1872 1384 
L 2581 3319 
L 3144 3319 
L 1881 -56 
Q 1678 -603 1566 -809 
Q 1416 -1088 1222 -1217 
Q 1028 -1347 759 -1347 
Q 597 -1347 397 -1278 
z
" id="ArialMT-79" transform="scale(0.015625)"/>
      <path d="M 416 0 
L 416 3319 
L 922 3319 
L 922 2816 
Q 1116 3169 1280 3281 
Q 1444 3394 1641 3394 
Q 1925 3394 2219 3213 
L 2025 2691 
Q 1819 2813 1613 2813 
Q 1428 2813 1281 2702 
Q 1134 2591 1072 2394 
Q 978 2094 978 1738 
L 978 0 
L 416 0 
z
" id="ArialMT-72" transform="scale(0.015625)"/>
      <path d="M 2694 1069 
L 3275 997 
Q 3138 488 2766 206 
Q 2394 -75 1816 -75 
Q 1088 -75 661 373 
Q 234 822 234 1631 
Q 234 2469 665 2931 
Q 1097 3394 1784 3394 
Q 2450 3394 2872 2941 
Q 3294 2488 3294 1666 
Q 3294 1616 3291 1516 
L 816 1516 
Q 847 969 1125 678 
Q 1403 388 1819 388 
Q 2128 388 2347 550 
Q 2566 713 2694 1069 
z
M 847 1978 
L 2700 1978 
Q 2663 2397 2488 2606 
Q 2219 2931 1791 2931 
Q 1403 2931 1139 2672 
Q 875 2413 847 1978 
z
" id="ArialMT-65" transform="scale(0.015625)"/>
      <path d="M 197 991 
L 753 1078 
Q 800 744 1014 566 
Q 1228 388 1613 388 
Q 2000 388 2187 545 
Q 2375 703 2375 916 
Q 2375 1106 2209 1216 
Q 2094 1291 1634 1406 
Q 1016 1563 777 1677 
Q 538 1791 414 1992 
Q 291 2194 291 2438 
Q 291 2659 392 2848 
Q 494 3038 669 3163 
Q 800 3259 1026 3326 
Q 1253 3394 1513 3394 
Q 1903 3394 2198 3281 
Q 2494 3169 2634 2976 
Q 2775 2784 2828 2463 
L 2278 2388 
Q 2241 2644 2061 2787 
Q 1881 2931 1553 2931 
Q 1166 2931 1000 2803 
Q 834 2675 834 2503 
Q 834 2394 903 2306 
Q 972 2216 1119 2156 
Q 1203 2125 1616 2013 
Q 2213 1853 2448 1751 
Q 2684 1650 2818 1456 
Q 2953 1263 2953 975 
Q 2953 694 2789 445 
Q 2625 197 2315 61 
Q 2006 -75 1616 -75 
Q 969 -75 630 194 
Q 291 463 197 991 
z
" id="ArialMT-73" transform="scale(0.015625)"/>
      <path d="M 2575 0 
L 2575 419 
Q 2259 -75 1647 -75 
Q 1250 -75 917 144 
Q 584 363 401 755 
Q 219 1147 219 1656 
Q 219 2153 384 2558 
Q 550 2963 881 3178 
Q 1213 3394 1622 3394 
Q 1922 3394 2156 3267 
Q 2391 3141 2538 2938 
L 2538 4581 
L 3097 4581 
L 3097 0 
L 2575 0 
z
M 797 1656 
Q 797 1019 1065 703 
Q 1334 388 1700 388 
Q 2069 388 2326 689 
Q 2584 991 2584 1609 
Q 2584 2291 2321 2609 
Q 2059 2928 1675 2928 
Q 1300 2928 1048 2622 
Q 797 2316 797 1656 
z
" id="ArialMT-64" transform="scale(0.015625)"/>
      <path d="M 2588 409 
Q 2275 144 1986 34 
Q 1697 -75 1366 -75 
Q 819 -75 525 192 
Q 231 459 231 875 
Q 231 1119 342 1320 
Q 453 1522 633 1644 
Q 813 1766 1038 1828 
Q 1203 1872 1538 1913 
Q 2219 1994 2541 2106 
Q 2544 2222 2544 2253 
Q 2544 2597 2384 2738 
Q 2169 2928 1744 2928 
Q 1347 2928 1158 2789 
Q 969 2650 878 2297 
L 328 2372 
Q 403 2725 575 2942 
Q 747 3159 1072 3276 
Q 1397 3394 1825 3394 
Q 2250 3394 2515 3294 
Q 2781 3194 2906 3042 
Q 3031 2891 3081 2659 
Q 3109 2516 3109 2141 
L 3109 1391 
Q 3109 606 3145 398 
Q 3181 191 3288 0 
L 2700 0 
Q 2613 175 2588 409 
z
M 2541 1666 
Q 2234 1541 1622 1453 
Q 1275 1403 1131 1340 
Q 988 1278 909 1158 
Q 831 1038 831 891 
Q 831 666 1001 516 
Q 1172 366 1500 366 
Q 1825 366 2078 508 
Q 2331 650 2450 897 
Q 2541 1088 2541 1459 
L 2541 1666 
z
" id="ArialMT-61" transform="scale(0.015625)"/>
      <path d="M 422 0 
L 422 3319 
L 928 3319 
L 928 2847 
Q 1294 3394 1984 3394 
Q 2284 3394 2536 3286 
Q 2788 3178 2913 3003 
Q 3038 2828 3088 2588 
Q 3119 2431 3119 2041 
L 3119 0 
L 2556 0 
L 2556 2019 
Q 2556 2363 2490 2533 
Q 2425 2703 2258 2804 
Q 2091 2906 1866 2906 
Q 1506 2906 1245 2678 
Q 984 2450 984 1813 
L 984 0 
L 422 0 
z
" id="ArialMT-6e" transform="scale(0.015625)"/>
      <path d="M 3381 2694 
L 356 2694 
L 356 3219 
L 3381 3219 
L 3381 2694 
z
M 3381 1303 
L 356 1303 
L 356 1828 
L 3381 1828 
L 3381 1303 
z
" id="ArialMT-3d" transform="scale(0.015625)"/>
      <path d="M 425 3934 
L 425 4581 
L 988 4581 
L 988 3934 
L 425 3934 
z
M 425 0 
L 425 3319 
L 988 3319 
L 988 0 
L 425 0 
z
" id="ArialMT-69" transform="scale(0.015625)"/>
      <path d="M 1659 0 
L 1659 4041 
L 150 4041 
L 150 4581 
L 3781 4581 
L 3781 4041 
L 2266 4041 
L 2266 0 
L 1659 0 
z
" id="ArialMT-54" transform="scale(0.015625)"/>
      <path d="M 469 0 
L 469 4581 
L 1075 4581 
L 1075 2309 
L 3350 4581 
L 4172 4581 
L 2250 2725 
L 4256 0 
L 3456 0 
L 1825 2319 
L 1075 1588 
L 1075 0 
L 469 0 
z
" id="ArialMT-4b" transform="scale(0.015625)"/>
     </defs>
     <use xlink:href="#ArialMT-57"/>
     <use x="93.509766" xlink:href="#ArialMT-79"/>
     <use x="143.509766" xlink:href="#ArialMT-6b"/>
     <use x="193.509766" xlink:href="#ArialMT-72"/>
     <use x="226.810547" xlink:href="#ArialMT-65"/>
     <use x="282.425781" xlink:href="#ArialMT-73"/>
     <use x="332.425781" xlink:href="#ArialMT-79"/>
     <use x="382.425781" xlink:href="#ArialMT-20"/>
     <use x="410.208984" xlink:href="#ArialMT-64"/>
     <use x="465.824219" xlink:href="#ArialMT-6c"/>
     <use x="488.041016" xlink:href="#ArialMT-61"/>
     <use x="543.65625" xlink:href="#ArialMT-20"/>
     <use x="571.439453" xlink:href="#ArialMT-6e"/>
     <use x="627.054688" xlink:href="#ArialMT-20"/>
     <use x="654.837891" xlink:href="#ArialMT-3d"/>
     <use x="713.236328" xlink:href="#ArialMT-20"/>
     <use x="741.019531" xlink:href="#ArialMT-36"/>
     <use x="796.634766" xlink:href="#ArialMT-20"/>
     <use x="824.417969" xlink:href="#ArialMT-69"/>
     <use x="846.634766" xlink:href="#ArialMT-20"/>
     <use x="872.667969" xlink:href="#ArialMT-54"/>
     <use x="932.001953" xlink:href="#ArialMT-20"/>
     <use x="959.785156" xlink:href="#ArialMT-3d"/>
     <use x="1018.183594" xlink:href="#ArialMT-20"/>
     <use x="1045.966797" xlink:href="#ArialMT-30"/>
     <use x="1101.582031" xlink:href="#ArialMT-4b"/>
    </g>
   </g>
  </g>
  <g id="axes_2">
   <g id="patch_7">
    <path d="M 75.702857 432.190286 
L 1369.234286 432.190286 
L 1369.234286 245.556 
L 75.702857 245.556 
z
" style="fill:#eaeaf2;"/>
   </g>
   <g id="matplotlib.axis_3">
    <g id="xtick_12">
     <g id="line2d_17">
      <path clip-path="url(#pe546807cfe)" d="M 134.49974 432.190286 
L 134.49974 245.556 
" style="fill:none;stroke:#ffffff;stroke-linecap:round;"/>
     </g>
     <g id="text_18">
      <!-- 0 -->
      <g style="fill:#262626;" transform="translate(131.441225 449.563879)scale(0.11 -0.11)">
       <use xlink:href="#ArialMT-30"/>
      </g>
     </g>
    </g>
    <g id="xtick_13">
     <g id="line2d_18">
      <path clip-path="url(#pe546807cfe)" d="M 250.929212 432.190286 
L 250.929212 245.556 
" style="fill:none;stroke:#ffffff;stroke-linecap:round;"/>
     </g>
     <g id="text_19">
      <!-- 1 -->
      <g style="fill:#262626;" transform="translate(247.870696 449.563879)scale(0.11 -0.11)">
       <use xlink:href="#ArialMT-31"/>
      </g>
     </g>
    </g>
    <g id="xtick_14">
     <g id="line2d_19">
      <path clip-path="url(#pe546807cfe)" d="M 367.358683 432.190286 
L 367.358683 245.556 
" style="fill:none;stroke:#ffffff;stroke-linecap:round;"/>
     </g>
     <g id="text_20">
      <!-- 2 -->
      <g style="fill:#262626;" transform="translate(364.300168 449.563879)scale(0.11 -0.11)">
       <use xlink:href="#ArialMT-32"/>
      </g>
     </g>
    </g>
    <g id="xtick_15">
     <g id="line2d_20">
      <path clip-path="url(#pe546807cfe)" d="M 483.788155 432.190286 
L 483.788155 245.556 
" style="fill:none;stroke:#ffffff;stroke-linecap:round;"/>
     </g>
     <g id="text_21">
      <!-- 3 -->
      <g style="fill:#262626;" transform="translate(480.729639 449.563879)scale(0.11 -0.11)">
       <use xlink:href="#ArialMT-33"/>
      </g>
     </g>
    </g>
    <g id="xtick_16">
     <g id="line2d_21">
      <path clip-path="url(#pe546807cfe)" d="M 600.217626 432.190286 
L 600.217626 245.556 
" style="fill:none;stroke:#ffffff;stroke-linecap:round;"/>
     </g>
     <g id="text_22">
      <!-- 4 -->
      <g style="fill:#262626;" transform="translate(597.159111 449.563879)scale(0.11 -0.11)">
       <use xlink:href="#ArialMT-34"/>
      </g>
     </g>
    </g>
    <g id="xtick_17">
     <g id="line2d_22">
      <path clip-path="url(#pe546807cfe)" d="M 716.647098 432.190286 
L 716.647098 245.556 
" style="fill:none;stroke:#ffffff;stroke-linecap:round;"/>
     </g>
     <g id="text_23">
      <!-- 5 -->
      <g style="fill:#262626;" transform="translate(713.588582 449.563879)scale(0.11 -0.11)">
       <use xlink:href="#ArialMT-35"/>
      </g>
     </g>
    </g>
    <g id="xtick_18">
     <g id="line2d_23">
      <path clip-path="url(#pe546807cfe)" d="M 833.076569 432.190286 
L 833.076569 245.556 
" style="fill:none;stroke:#ffffff;stroke-linecap:round;"/>
     </g>
     <g id="text_24">
      <!-- 6 -->
      <g style="fill:#262626;" transform="translate(830.018054 449.563879)scale(0.11 -0.11)">
       <use xlink:href="#ArialMT-36"/>
      </g>
     </g>
    </g>
    <g id="xtick_19">
     <g id="line2d_24">
      <path clip-path="url(#pe546807cfe)" d="M 949.506041 432.190286 
L 949.506041 245.556 
" style="fill:none;stroke:#ffffff;stroke-linecap:round;"/>
     </g>
     <g id="text_25">
      <!-- 7 -->
      <g style="fill:#262626;" transform="translate(946.447525 449.563879)scale(0.11 -0.11)">
       <use xlink:href="#ArialMT-37"/>
      </g>
     </g>
    </g>
    <g id="xtick_20">
     <g id="line2d_25">
      <path clip-path="url(#pe546807cfe)" d="M 1065.935512 432.190286 
L 1065.935512 245.556 
" style="fill:none;stroke:#ffffff;stroke-linecap:round;"/>
     </g>
     <g id="text_26">
      <!-- 8 -->
      <g style="fill:#262626;" transform="translate(1062.876997 449.563879)scale(0.11 -0.11)">
       <use xlink:href="#ArialMT-38"/>
      </g>
     </g>
    </g>
    <g id="xtick_21">
     <g id="line2d_26">
      <path clip-path="url(#pe546807cfe)" d="M 1182.364984 432.190286 
L 1182.364984 245.556 
" style="fill:none;stroke:#ffffff;stroke-linecap:round;"/>
     </g>
     <g id="text_27">
      <!-- 9 -->
      <g style="fill:#262626;" transform="translate(1179.306468 449.563879)scale(0.11 -0.11)">
       <use xlink:href="#ArialMT-39"/>
      </g>
     </g>
    </g>
    <g id="xtick_22">
     <g id="line2d_27">
      <path clip-path="url(#pe546807cfe)" d="M 1298.794455 432.190286 
L 1298.794455 245.556 
" style="fill:none;stroke:#ffffff;stroke-linecap:round;"/>
     </g>
     <g id="text_28">
      <!-- 10 -->
      <g style="fill:#262626;" transform="translate(1292.677424 449.563879)scale(0.11 -0.11)">
       <use xlink:href="#ArialMT-31"/>
       <use x="55.615234" xlink:href="#ArialMT-30"/>
      </g>
     </g>
    </g>
   </g>
   <g id="matplotlib.axis_4">
    <g id="ytick_5">
     <g id="line2d_28">
      <path clip-path="url(#pe546807cfe)" d="M 75.702857 432.190286 
L 1369.234286 432.190286 
" style="fill:none;stroke:#ffffff;stroke-linecap:round;"/>
     </g>
     <g id="text_29">
      <!-- 0 -->
      <g style="fill:#262626;" transform="translate(60.085826 436.127083)scale(0.11 -0.11)">
       <use xlink:href="#ArialMT-30"/>
      </g>
     </g>
    </g>
    <g id="ytick_6">
     <g id="line2d_29">
      <path clip-path="url(#pe546807cfe)" d="M 75.702857 401.084571 
L 1369.234286 401.084571 
" style="fill:none;stroke:#ffffff;stroke-linecap:round;"/>
     </g>
     <g id="text_30">
      <!-- 1 -->
      <g style="fill:#262626;" transform="translate(60.085826 405.021368)scale(0.11 -0.11)">
       <use xlink:href="#ArialMT-31"/>
      </g>
     </g>
    </g>
    <g id="ytick_7">
     <g id="line2d_30">
      <path clip-path="url(#pe546807cfe)" d="M 75.702857 369.978857 
L 1369.234286 369.978857 
" style="fill:none;stroke:#ffffff;stroke-linecap:round;"/>
     </g>
     <g id="text_31">
      <!-- 2 -->
      <g style="fill:#262626;" transform="translate(60.085826 373.915654)scale(0.11 -0.11)">
       <use xlink:href="#ArialMT-32"/>
      </g>
     </g>
    </g>
    <g id="ytick_8">
     <g id="line2d_31">
      <path clip-path="url(#pe546807cfe)" d="M 75.702857 338.873143 
L 1369.234286 338.873143 
" style="fill:none;stroke:#ffffff;stroke-linecap:round;"/>
     </g>
     <g id="text_32">
      <!-- 3 -->
      <g style="fill:#262626;" transform="translate(60.085826 342.80994)scale(0.11 -0.11)">
       <use xlink:href="#ArialMT-33"/>
      </g>
     </g>
    </g>
    <g id="ytick_9">
     <g id="line2d_32">
      <path clip-path="url(#pe546807cfe)" d="M 75.702857 307.767429 
L 1369.234286 307.767429 
" style="fill:none;stroke:#ffffff;stroke-linecap:round;"/>
     </g>
     <g id="text_33">
      <!-- 4 -->
      <g style="fill:#262626;" transform="translate(60.085826 311.704225)scale(0.11 -0.11)">
       <use xlink:href="#ArialMT-34"/>
      </g>
     </g>
    </g>
    <g id="ytick_10">
     <g id="line2d_33">
      <path clip-path="url(#pe546807cfe)" d="M 75.702857 276.661714 
L 1369.234286 276.661714 
" style="fill:none;stroke:#ffffff;stroke-linecap:round;"/>
     </g>
     <g id="text_34">
      <!-- 5 -->
      <g style="fill:#262626;" transform="translate(60.085826 280.598511)scale(0.11 -0.11)">
       <use xlink:href="#ArialMT-35"/>
      </g>
     </g>
    </g>
    <g id="text_35">
     <!-- T [K] -->
     <g style="fill:#262626;" transform="translate(53.700826 351.435643)rotate(-90)scale(0.12 -0.12)">
      <use xlink:href="#ArialMT-54"/>
      <use x="59.333984" xlink:href="#ArialMT-20"/>
      <use x="87.117188" xlink:href="#ArialMT-5b"/>
      <use x="114.900391" xlink:href="#ArialMT-4b"/>
      <use x="181.599609" xlink:href="#ArialMT-5d"/>
     </g>
    </g>
   </g>
   <g id="line2d_34">
    <path clip-path="url(#pe546807cfe)" d="M 134.49974 432.190286 
L 135.664035 431.995968 
L 136.82833 431.414198 
L 137.992624 430.448055 
L 139.156919 429.103044 
L 140.321214 427.387563 
L 141.485509 425.309702 
L 142.649803 422.880345 
L 143.814098 420.115047 
L 146.142687 413.638838 
L 148.471277 406.024159 
L 150.799866 397.445203 
L 153.128456 388.051277 
L 156.62134 372.965006 
L 165.935698 331.438877 
L 169.428582 317.161354 
L 171.757171 308.48286 
L 174.085761 300.550903 
L 176.41435 293.489906 
L 178.742939 287.330974 
L 181.071529 282.13632 
L 182.235824 279.927814 
L 183.400118 277.968154 
L 184.564413 276.25734 
L 185.728708 274.826477 
L 186.893002 273.675566 
L 188.057297 272.804606 
L 189.221592 272.182491 
L 190.385887 271.871434 
L 191.550181 271.840329 
L 192.714476 272.12028 
L 193.878771 272.680183 
L 195.043065 273.551143 
L 196.20736 274.73316 
L 197.371655 276.195129 
L 198.53595 277.968154 
L 199.700244 280.021131 
L 202.028834 284.998046 
L 204.357423 291.032554 
L 206.686013 297.969129 
L 209.014602 305.65224 
L 212.507486 318.032314 
L 217.164665 334.642766 
L 219.493254 342.388089 
L 221.821844 349.449086 
L 224.150433 355.639123 
L 226.479023 360.864883 
L 227.643317 363.073389 
L 228.807612 365.001943 
L 229.971907 366.681651 
L 231.136202 368.081409 
L 232.300496 369.201214 
L 233.464791 370.041069 
L 234.629086 370.600971 
L 235.79338 370.912029 
L 236.957675 370.943134 
L 238.12197 370.725394 
L 239.286265 370.258809 
L 240.450559 369.543377 
L 241.614854 368.5791 
L 242.779149 367.365977 
L 243.943443 365.935114 
L 245.107738 364.255406 
L 246.272033 362.357957 
L 248.600622 357.90984 
L 250.929212 352.652974 
L 253.257801 346.58736 
L 255.586391 339.868526 
L 259.079275 328.794891 
L 267.229338 301.95066 
L 269.557927 295.138509 
L 271.886517 289.197317 
L 273.050811 286.584437 
L 274.215106 284.282614 
L 275.379401 282.291849 
L 276.543696 280.61214 
L 277.70799 279.243489 
L 278.872285 278.185894 
L 280.03658 277.470463 
L 281.200874 277.066089 
L 282.365169 276.972771 
L 283.529464 277.190511 
L 284.693759 277.688203 
L 285.858053 278.465846 
L 287.022348 279.461229 
L 288.186643 280.736563 
L 289.350937 282.198531 
L 291.679527 285.713477 
L 294.008116 289.850537 
L 296.336706 294.485289 
L 299.82959 302.012871 
L 316.129716 338.842037 
L 319.6226 346.058563 
L 323.115484 352.777397 
L 325.444074 356.976669 
L 328.936958 362.731226 
L 331.265547 366.18396 
L 333.594137 369.294531 
L 335.922726 372.000729 
L 338.251315 374.302551 
L 340.579905 376.168894 
L 342.908494 377.568651 
L 344.072789 378.128554 
L 345.237084 378.564034 
L 347.565673 379.092831 
L 349.894263 379.24836 
L 352.222852 379.03062 
L 354.551441 378.532929 
L 356.880031 377.72418 
L 359.20862 376.728797 
L 362.701504 374.955771 
L 366.194389 372.996111 
L 372.015862 369.45006 
L 377.837336 365.779586 
L 383.658809 361.798054 
L 388.315988 358.220897 
L 392.973167 354.239366 
L 398.794641 348.702549 
L 406.944704 340.770591 
L 409.273293 338.655403 
L 412.766177 335.731466 
L 416.259061 333.149691 
L 419.751945 330.847869 
L 425.573419 327.395134 
L 433.723482 322.511537 
L 444.202134 315.917126 
L 447.695019 314.019677 
L 451.187903 312.495497 
L 453.516492 311.686749 
L 455.845082 311.09574 
L 458.173671 310.691366 
L 460.502261 310.504731 
L 462.83085 310.566943 
L 465.159439 310.878 
L 467.488029 311.437903 
L 469.816618 312.308863 
L 472.145208 313.459774 
L 474.473797 314.890637 
L 476.802387 316.601451 
L 479.130976 318.592217 
L 482.62386 321.98274 
L 491.938218 331.407771 
L 494.266807 333.30522 
L 496.595397 334.8294 
L 498.923986 335.949206 
L 501.252576 336.664637 
L 503.581165 337.0068 
L 505.909754 337.0068 
L 508.238344 336.78906 
L 511.731228 336.13584 
L 515.224112 335.233774 
L 518.716996 334.113969 
L 521.045586 333.211903 
L 524.53847 331.5633 
L 526.867059 330.25686 
L 529.195649 328.763786 
L 532.688533 326.213117 
L 536.181417 323.382497 
L 545.495775 315.512751 
L 548.988659 312.993189 
L 551.317248 311.562326 
L 553.645838 310.473626 
L 555.974427 309.758194 
L 557.138722 309.57156 
L 558.303017 309.509349 
L 559.467311 309.57156 
L 560.631606 309.7893 
L 561.795901 310.131463 
L 562.960195 310.629154 
L 564.12449 311.282374 
L 565.288785 312.122229 
L 566.45308 313.148717 
L 567.617374 314.330734 
L 569.945964 317.223566 
L 572.274553 320.89404 
L 574.603143 325.24884 
L 576.931732 330.319071 
L 579.260321 336.042523 
L 581.588911 342.294771 
L 585.081795 352.46634 
L 593.231858 377.008749 
L 595.560447 383.323209 
L 597.889037 388.984449 
L 600.217626 393.743623 
L 601.381921 395.734389 
L 602.546216 397.414097 
L 603.71051 398.782749 
L 604.874805 399.840343 
L 606.0391 400.555774 
L 607.203395 400.897937 
L 608.367689 400.929043 
L 609.531984 400.617986 
L 610.696279 399.995871 
L 611.860573 399.0627 
L 613.024868 397.849577 
L 614.189163 396.356503 
L 616.517752 392.74824 
L 618.846342 388.486757 
L 622.339226 381.487971 
L 625.83211 374.520291 
L 628.160699 370.165491 
L 631.653584 364.317617 
L 633.982173 360.895989 
L 637.475057 356.323449 
L 645.62512 346.245197 
L 647.95371 343.010203 
L 650.282299 339.40194 
L 652.610889 335.420409 
L 654.939478 331.096714 
L 658.432362 324.097929 
L 664.253836 312.339969 
L 666.582425 308.171803 
L 668.911015 304.625751 
L 670.075309 303.132677 
L 671.239604 301.888449 
L 672.403899 300.893066 
L 673.568193 300.146529 
L 674.732488 299.648837 
L 675.896783 299.431097 
L 677.061078 299.493309 
L 678.225372 299.804366 
L 679.389667 300.395374 
L 680.553962 301.204123 
L 681.718256 302.230611 
L 682.882551 303.47484 
L 685.211141 306.460989 
L 687.53973 310.00704 
L 691.032614 315.88602 
L 705.004151 340.304006 
L 707.33274 343.912269 
L 709.66133 347.178369 
L 711.989919 350.008989 
L 714.318508 352.279706 
L 715.482803 353.150666 
L 716.647098 353.866097 
L 717.811393 354.363789 
L 718.975687 354.64374 
L 720.139982 354.705951 
L 721.304277 354.519317 
L 722.468571 354.052731 
L 723.632866 353.306194 
L 724.797161 352.2486 
L 725.961456 350.879949 
L 727.12575 349.138029 
L 728.290045 347.085051 
L 729.45434 344.658806 
L 731.782929 338.904249 
L 734.111519 332.154309 
L 741.097287 310.784683 
L 743.425876 304.99902 
L 744.590171 302.572774 
L 745.754466 300.457586 
L 746.91876 298.715666 
L 748.083055 297.347014 
L 749.24735 296.28942 
L 750.411645 295.542883 
L 751.575939 295.107403 
L 752.740234 294.920769 
L 753.904529 295.014086 
L 755.068823 295.262931 
L 756.233118 295.698411 
L 758.561708 296.911534 
L 763.218886 300.022106 
L 767.876065 303.008254 
L 773.697539 306.149931 
L 783.011897 310.691366 
L 786.504781 312.775449 
L 788.83337 314.517369 
L 791.16196 316.694769 
L 793.490549 319.463177 
L 794.654844 321.080674 
L 795.819138 322.915911 
L 798.147728 327.2085 
L 800.476317 332.403154 
L 802.804907 338.437663 
L 805.133496 345.249814 
L 808.62638 356.447871 
L 812.119264 367.552611 
L 814.447854 374.0226 
L 815.612149 376.728797 
L 816.776443 379.03062 
L 817.940738 380.834751 
L 819.105033 382.141191 
L 820.269328 382.887729 
L 821.433622 383.136574 
L 822.597917 382.918834 
L 823.762212 382.234509 
L 824.926506 381.239126 
L 826.090801 379.963791 
L 831.912275 372.747266 
L 833.076569 371.658566 
L 834.240864 370.787606 
L 835.405159 370.134386 
L 836.569454 369.761117 
L 837.733748 369.543377 
L 838.898043 369.543377 
L 841.226632 369.916646 
L 844.719517 370.725394 
L 845.883811 370.880923 
L 847.048106 370.880923 
L 848.212401 370.725394 
L 849.376695 370.383231 
L 850.54099 369.823329 
L 851.705285 369.01458 
L 852.86958 368.019197 
L 854.033874 366.83718 
L 856.362464 363.913243 
L 858.691053 360.491614 
L 864.512527 351.439851 
L 866.841116 348.204857 
L 869.169706 345.343131 
L 872.66259 341.57934 
L 883.141242 331.34556 
L 885.469832 329.292583 
L 887.798421 327.675086 
L 888.962716 327.084077 
L 890.12701 326.679703 
L 891.291305 326.461963 
L 892.4556 326.461963 
L 893.619895 326.617491 
L 894.784189 326.99076 
L 895.948484 327.519557 
L 898.277073 328.919314 
L 901.769958 331.283349 
L 904.098547 332.558683 
L 905.262842 333.025269 
L 906.427136 333.367431 
L 908.755726 333.647383 
L 911.084315 333.554066 
L 916.905789 333.149691 
L 919.234378 333.336326 
L 922.727262 333.896229 
L 925.055852 334.238391 
L 926.220147 334.331709 
L 928.548736 334.17618 
L 929.713031 333.896229 
L 930.877325 333.460749 
L 932.04162 332.838634 
L 933.205915 332.029886 
L 934.37021 331.034503 
L 936.698799 328.51494 
L 939.027388 325.46658 
L 946.013157 315.45054 
L 947.177451 314.050783 
L 948.341746 312.868766 
L 949.506041 311.873383 
L 950.670336 311.09574 
L 951.83463 310.598049 
L 952.998925 310.349203 
L 954.16322 310.349203 
L 955.327514 310.629154 
L 956.491809 311.126846 
L 957.656104 311.842277 
L 958.820399 312.744343 
L 961.148988 314.952849 
L 965.806167 319.774234 
L 966.970462 320.800723 
L 968.134756 321.671683 
L 969.299051 322.356009 
L 970.463346 322.884806 
L 971.62764 323.195863 
L 972.791935 323.320286 
L 973.95623 323.258074 
L 975.120525 323.009229 
L 976.284819 322.604854 
L 978.613409 321.453943 
L 985.599177 317.130249 
L 987.927766 316.134866 
L 990.256356 315.543857 
L 992.584945 315.388329 
L 994.913535 315.574963 
L 997.242124 316.041549 
L 1003.063598 317.503517 
L 1005.392187 317.938997 
L 1010.049366 318.343371 
L 1013.54225 318.561111 
L 1015.87084 318.93438 
L 1018.199429 319.5876 
L 1020.528019 320.614089 
L 1022.856608 322.076057 
L 1025.185197 323.849083 
L 1027.513787 325.90206 
L 1033.33526 331.283349 
L 1036.828145 334.145074 
L 1042.649618 338.375451 
L 1044.978208 340.117371 
L 1047.306797 342.139243 
L 1049.635386 344.472171 
L 1051.963976 347.147263 
L 1054.292565 350.133411 
L 1057.785449 355.07922 
L 1063.606923 363.539974 
L 1067.099807 368.174726 
L 1069.428397 370.943134 
L 1071.756986 373.36938 
L 1074.085575 375.484569 
L 1076.414165 377.257594 
L 1078.742754 378.626246 
L 1081.071344 379.652734 
L 1082.235638 380.026003 
L 1084.564228 380.461483 
L 1086.892817 380.5548 
L 1089.221407 380.33706 
L 1091.549996 379.839369 
L 1093.878586 379.092831 
L 1096.207175 378.097449 
L 1098.535764 376.85322 
L 1100.864354 375.360146 
L 1103.192943 373.493803 
L 1104.357238 372.405103 
L 1106.685827 369.823329 
L 1109.014417 366.681651 
L 1111.343006 362.886754 
L 1113.671596 358.500849 
L 1116.000185 353.586146 
L 1119.493069 345.560871 
L 1124.150248 334.860506 
L 1126.478838 330.101331 
L 1128.807427 326.026483 
L 1129.971722 324.315669 
L 1131.136016 322.8537 
L 1132.300311 321.578366 
L 1133.464606 320.582983 
L 1134.628901 319.80534 
L 1135.793195 319.245437 
L 1136.95749 318.872169 
L 1138.121785 318.71664 
L 1139.286079 318.71664 
L 1141.614669 319.058803 
L 1143.943258 319.618706 
L 1146.271848 320.178609 
L 1147.436142 320.396349 
L 1149.764732 320.489666 
L 1150.929027 320.365243 
L 1153.257616 319.774234 
L 1155.586205 318.71664 
L 1161.407679 315.730491 
L 1162.571974 315.388329 
L 1163.736268 315.2328 
L 1164.900563 315.326117 
L 1166.064858 315.66828 
L 1167.229153 316.290394 
L 1168.393447 317.254671 
L 1169.557742 318.530006 
L 1170.722037 320.116397 
L 1171.886331 322.044951 
L 1173.050626 324.284563 
L 1175.379216 329.479217 
L 1177.707805 335.389303 
L 1181.200689 344.472171 
L 1183.529279 349.85346 
L 1184.693573 352.124177 
L 1185.857868 354.021626 
L 1187.022163 355.5147 
L 1188.186458 356.541189 
L 1189.350752 357.03888 
L 1190.515047 357.007774 
L 1191.679342 356.447871 
L 1192.843636 355.328066 
L 1194.007931 353.648357 
L 1195.172226 351.470957 
L 1196.336521 348.826971 
L 1197.500815 345.7164 
L 1199.829405 338.437663 
L 1202.157994 330.194649 
L 1206.815173 313.304246 
L 1209.143762 305.963297 
L 1210.308057 302.759409 
L 1211.472352 299.991 
L 1212.636647 297.626966 
L 1213.800941 295.760623 
L 1214.965236 294.32976 
L 1216.129531 293.365483 
L 1217.293825 292.836686 
L 1218.45812 292.712263 
L 1219.622415 292.992214 
L 1220.78671 293.583223 
L 1221.951004 294.423077 
L 1224.279594 296.7249 
L 1228.936773 301.888449 
L 1230.101067 303.008254 
L 1231.265362 303.941426 
L 1232.429657 304.719069 
L 1233.593951 305.310077 
L 1234.758246 305.683346 
L 1235.922541 305.901086 
L 1237.086836 305.994403 
L 1239.415425 305.776663 
L 1244.072604 305.092337 
L 1245.236899 305.092337 
L 1247.565488 305.496711 
L 1248.729783 305.963297 
L 1249.894077 306.554306 
L 1251.058372 307.300843 
L 1253.386962 309.229397 
L 1255.715551 311.593431 
L 1263.865614 320.396349 
L 1269.687088 326.275329 
L 1272.015677 329.043737 
L 1274.344266 332.43426 
L 1276.672856 336.664637 
L 1279.001445 341.828186 
L 1281.330035 347.8938 
L 1283.658624 354.674846 
L 1289.480098 372.249574 
L 1291.808687 378.315189 
L 1292.972982 380.896963 
L 1294.137277 383.136574 
L 1295.301571 385.002917 
L 1296.465866 386.464886 
L 1297.630161 387.52248 
L 1298.794455 388.1757 
L 1299.95875 388.424546 
L 1301.123045 388.331229 
L 1302.28734 387.864643 
L 1303.451634 387.118106 
L 1304.615929 386.153829 
L 1306.944518 383.634266 
L 1310.437403 379.279466 
L 1310.437403 379.279466 
" style="fill:none;stroke:#4c72b0;stroke-linecap:round;stroke-width:1.5;"/>
   </g>
   <g id="patch_8">
    <path d="M 75.702857 432.190286 
L 75.702857 245.556 
" style="fill:none;stroke:#ffffff;stroke-linecap:square;stroke-linejoin:miter;stroke-width:1.25;"/>
   </g>
   <g id="patch_9">
    <path d="M 1369.234286 432.190286 
L 1369.234286 245.556 
" style="fill:none;stroke:#ffffff;stroke-linecap:square;stroke-linejoin:miter;stroke-width:1.25;"/>
   </g>
   <g id="patch_10">
    <path d="M 75.702857 432.190286 
L 1369.234286 432.190286 
" style="fill:none;stroke:#ffffff;stroke-linecap:square;stroke-linejoin:miter;stroke-width:1.25;"/>
   </g>
   <g id="patch_11">
    <path d="M 75.702857 245.556 
L 1369.234286 245.556 
" style="fill:none;stroke:#ffffff;stroke-linecap:square;stroke-linejoin:miter;stroke-width:1.25;"/>
   </g>
  </g>
  <g id="axes_3">
   <g id="patch_12">
    <path d="M 75.702857 656.151429 
L 1369.234286 656.151429 
L 1369.234286 469.517143 
L 75.702857 469.517143 
z
" style="fill:#eaeaf2;"/>
   </g>
   <g id="matplotlib.axis_5">
    <g id="xtick_23">
     <g id="line2d_35">
      <path clip-path="url(#pc8a106f114)" d="M 134.49974 656.151429 
L 134.49974 469.517143 
" style="fill:none;stroke:#ffffff;stroke-linecap:round;"/>
     </g>
     <g id="text_36">
      <!-- 0 -->
      <g style="fill:#262626;" transform="translate(131.441225 673.525022)scale(0.11 -0.11)">
       <use xlink:href="#ArialMT-30"/>
      </g>
     </g>
    </g>
    <g id="xtick_24">
     <g id="line2d_36">
      <path clip-path="url(#pc8a106f114)" d="M 250.929212 656.151429 
L 250.929212 469.517143 
" style="fill:none;stroke:#ffffff;stroke-linecap:round;"/>
     </g>
     <g id="text_37">
      <!-- 1 -->
      <g style="fill:#262626;" transform="translate(247.870696 673.525022)scale(0.11 -0.11)">
       <use xlink:href="#ArialMT-31"/>
      </g>
     </g>
    </g>
    <g id="xtick_25">
     <g id="line2d_37">
      <path clip-path="url(#pc8a106f114)" d="M 367.358683 656.151429 
L 367.358683 469.517143 
" style="fill:none;stroke:#ffffff;stroke-linecap:round;"/>
     </g>
     <g id="text_38">
      <!-- 2 -->
      <g style="fill:#262626;" transform="translate(364.300168 673.525022)scale(0.11 -0.11)">
       <use xlink:href="#ArialMT-32"/>
      </g>
     </g>
    </g>
    <g id="xtick_26">
     <g id="line2d_38">
      <path clip-path="url(#pc8a106f114)" d="M 483.788155 656.151429 
L 483.788155 469.517143 
" style="fill:none;stroke:#ffffff;stroke-linecap:round;"/>
     </g>
     <g id="text_39">
      <!-- 3 -->
      <g style="fill:#262626;" transform="translate(480.729639 673.525022)scale(0.11 -0.11)">
       <use xlink:href="#ArialMT-33"/>
      </g>
     </g>
    </g>
    <g id="xtick_27">
     <g id="line2d_39">
      <path clip-path="url(#pc8a106f114)" d="M 600.217626 656.151429 
L 600.217626 469.517143 
" style="fill:none;stroke:#ffffff;stroke-linecap:round;"/>
     </g>
     <g id="text_40">
      <!-- 4 -->
      <g style="fill:#262626;" transform="translate(597.159111 673.525022)scale(0.11 -0.11)">
       <use xlink:href="#ArialMT-34"/>
      </g>
     </g>
    </g>
    <g id="xtick_28">
     <g id="line2d_40">
      <path clip-path="url(#pc8a106f114)" d="M 716.647098 656.151429 
L 716.647098 469.517143 
" style="fill:none;stroke:#ffffff;stroke-linecap:round;"/>
     </g>
     <g id="text_41">
      <!-- 5 -->
      <g style="fill:#262626;" transform="translate(713.588582 673.525022)scale(0.11 -0.11)">
       <use xlink:href="#ArialMT-35"/>
      </g>
     </g>
    </g>
    <g id="xtick_29">
     <g id="line2d_41">
      <path clip-path="url(#pc8a106f114)" d="M 833.076569 656.151429 
L 833.076569 469.517143 
" style="fill:none;stroke:#ffffff;stroke-linecap:round;"/>
     </g>
     <g id="text_42">
      <!-- 6 -->
      <g style="fill:#262626;" transform="translate(830.018054 673.525022)scale(0.11 -0.11)">
       <use xlink:href="#ArialMT-36"/>
      </g>
     </g>
    </g>
    <g id="xtick_30">
     <g id="line2d_42">
      <path clip-path="url(#pc8a106f114)" d="M 949.506041 656.151429 
L 949.506041 469.517143 
" style="fill:none;stroke:#ffffff;stroke-linecap:round;"/>
     </g>
     <g id="text_43">
      <!-- 7 -->
      <g style="fill:#262626;" transform="translate(946.447525 673.525022)scale(0.11 -0.11)">
       <use xlink:href="#ArialMT-37"/>
      </g>
     </g>
    </g>
    <g id="xtick_31">
     <g id="line2d_43">
      <path clip-path="url(#pc8a106f114)" d="M 1065.935512 656.151429 
L 1065.935512 469.517143 
" style="fill:none;stroke:#ffffff;stroke-linecap:round;"/>
     </g>
     <g id="text_44">
      <!-- 8 -->
      <g style="fill:#262626;" transform="translate(1062.876997 673.525022)scale(0.11 -0.11)">
       <use xlink:href="#ArialMT-38"/>
      </g>
     </g>
    </g>
    <g id="xtick_32">
     <g id="line2d_44">
      <path clip-path="url(#pc8a106f114)" d="M 1182.364984 656.151429 
L 1182.364984 469.517143 
" style="fill:none;stroke:#ffffff;stroke-linecap:round;"/>
     </g>
     <g id="text_45">
      <!-- 9 -->
      <g style="fill:#262626;" transform="translate(1179.306468 673.525022)scale(0.11 -0.11)">
       <use xlink:href="#ArialMT-39"/>
      </g>
     </g>
    </g>
    <g id="xtick_33">
     <g id="line2d_45">
      <path clip-path="url(#pc8a106f114)" d="M 1298.794455 656.151429 
L 1298.794455 469.517143 
" style="fill:none;stroke:#ffffff;stroke-linecap:round;"/>
     </g>
     <g id="text_46">
      <!-- 10 -->
      <g style="fill:#262626;" transform="translate(1292.677424 673.525022)scale(0.11 -0.11)">
       <use xlink:href="#ArialMT-31"/>
       <use x="55.615234" xlink:href="#ArialMT-30"/>
      </g>
     </g>
    </g>
    <g id="text_47">
     <!-- t [ps] -->
     <g style="fill:#262626;" transform="translate(709.464509 688.300647)scale(0.12 -0.12)">
      <defs>
       <path d="M 1650 503 
L 1731 6 
Q 1494 -44 1306 -44 
Q 1000 -44 831 53 
Q 663 150 594 308 
Q 525 466 525 972 
L 525 2881 
L 113 2881 
L 113 3319 
L 525 3319 
L 525 4141 
L 1084 4478 
L 1084 3319 
L 1650 3319 
L 1650 2881 
L 1084 2881 
L 1084 941 
Q 1084 700 1114 631 
Q 1144 563 1211 522 
Q 1278 481 1403 481 
Q 1497 481 1650 503 
z
" id="ArialMT-74" transform="scale(0.015625)"/>
       <path d="M 422 -1272 
L 422 3319 
L 934 3319 
L 934 2888 
Q 1116 3141 1344 3267 
Q 1572 3394 1897 3394 
Q 2322 3394 2647 3175 
Q 2972 2956 3137 2557 
Q 3303 2159 3303 1684 
Q 3303 1175 3120 767 
Q 2938 359 2589 142 
Q 2241 -75 1856 -75 
Q 1575 -75 1351 44 
Q 1128 163 984 344 
L 984 -1272 
L 422 -1272 
z
M 931 1641 
Q 931 1000 1190 694 
Q 1450 388 1819 388 
Q 2194 388 2461 705 
Q 2728 1022 2728 1688 
Q 2728 2322 2467 2637 
Q 2206 2953 1844 2953 
Q 1484 2953 1207 2617 
Q 931 2281 931 1641 
z
" id="ArialMT-70" transform="scale(0.015625)"/>
      </defs>
      <use xlink:href="#ArialMT-74"/>
      <use x="27.783203" xlink:href="#ArialMT-20"/>
      <use x="55.566406" xlink:href="#ArialMT-5b"/>
      <use x="83.349609" xlink:href="#ArialMT-70"/>
      <use x="138.964844" xlink:href="#ArialMT-73"/>
      <use x="188.964844" xlink:href="#ArialMT-5d"/>
     </g>
    </g>
   </g>
   <g id="matplotlib.axis_6">
    <g id="ytick_11">
     <g id="line2d_46">
      <path clip-path="url(#pc8a106f114)" d="M 75.702857 630.701299 
L 1369.234286 630.701299 
" style="fill:none;stroke:#ffffff;stroke-linecap:round;"/>
     </g>
     <g id="text_48">
      <!-- −0.04 -->
      <g style="fill:#262626;" transform="translate(38.371138 634.638096)scale(0.11 -0.11)">
       <use xlink:href="#ArialMT-2212"/>
       <use x="58.398438" xlink:href="#ArialMT-30"/>
       <use x="114.013672" xlink:href="#ArialMT-2e"/>
       <use x="141.796875" xlink:href="#ArialMT-30"/>
       <use x="197.412109" xlink:href="#ArialMT-34"/>
      </g>
     </g>
    </g>
    <g id="ytick_12">
     <g id="line2d_47">
      <path clip-path="url(#pc8a106f114)" d="M 75.702857 596.767792 
L 1369.234286 596.767792 
" style="fill:none;stroke:#ffffff;stroke-linecap:round;"/>
     </g>
     <g id="text_49">
      <!-- −0.02 -->
      <g style="fill:#262626;" transform="translate(38.371138 600.704589)scale(0.11 -0.11)">
       <use xlink:href="#ArialMT-2212"/>
       <use x="58.398438" xlink:href="#ArialMT-30"/>
       <use x="114.013672" xlink:href="#ArialMT-2e"/>
       <use x="141.796875" xlink:href="#ArialMT-30"/>
       <use x="197.412109" xlink:href="#ArialMT-32"/>
      </g>
     </g>
    </g>
    <g id="ytick_13">
     <g id="line2d_48">
      <path clip-path="url(#pc8a106f114)" d="M 75.702857 562.834286 
L 1369.234286 562.834286 
" style="fill:none;stroke:#ffffff;stroke-linecap:round;"/>
     </g>
     <g id="text_50">
      <!-- 0.00 -->
      <g style="fill:#262626;" transform="translate(44.795826 566.771083)scale(0.11 -0.11)">
       <use xlink:href="#ArialMT-30"/>
       <use x="55.615234" xlink:href="#ArialMT-2e"/>
       <use x="83.398438" xlink:href="#ArialMT-30"/>
       <use x="139.013672" xlink:href="#ArialMT-30"/>
      </g>
     </g>
    </g>
    <g id="ytick_14">
     <g id="line2d_49">
      <path clip-path="url(#pc8a106f114)" d="M 75.702857 528.900779 
L 1369.234286 528.900779 
" style="fill:none;stroke:#ffffff;stroke-linecap:round;"/>
     </g>
     <g id="text_51">
      <!-- 0.02 -->
      <g style="fill:#262626;" transform="translate(44.795826 532.837576)scale(0.11 -0.11)">
       <use xlink:href="#ArialMT-30"/>
       <use x="55.615234" xlink:href="#ArialMT-2e"/>
       <use x="83.398438" xlink:href="#ArialMT-30"/>
       <use x="139.013672" xlink:href="#ArialMT-32"/>
      </g>
     </g>
    </g>
    <g id="ytick_15">
     <g id="line2d_50">
      <path clip-path="url(#pc8a106f114)" d="M 75.702857 494.967273 
L 1369.234286 494.967273 
" style="fill:none;stroke:#ffffff;stroke-linecap:round;"/>
     </g>
     <g id="text_52">
      <!-- 0.04 -->
      <g style="fill:#262626;" transform="translate(44.795826 498.90407)scale(0.11 -0.11)">
       <use xlink:href="#ArialMT-30"/>
       <use x="55.615234" xlink:href="#ArialMT-2e"/>
       <use x="83.398438" xlink:href="#ArialMT-30"/>
       <use x="139.013672" xlink:href="#ArialMT-34"/>
      </g>
     </g>
    </g>
    <g id="text_53">
     <!-- P [atm] -->
     <g style="fill:#262626;" transform="translate(31.986138 581.733348)rotate(-90)scale(0.12 -0.12)">
      <defs>
       <path d="M 494 0 
L 494 4581 
L 2222 4581 
Q 2678 4581 2919 4538 
Q 3256 4481 3484 4323 
Q 3713 4166 3852 3881 
Q 3991 3597 3991 3256 
Q 3991 2672 3619 2267 
Q 3247 1863 2275 1863 
L 1100 1863 
L 1100 0 
L 494 0 
z
M 1100 2403 
L 2284 2403 
Q 2872 2403 3119 2622 
Q 3366 2841 3366 3238 
Q 3366 3525 3220 3729 
Q 3075 3934 2838 4000 
Q 2684 4041 2272 4041 
L 1100 4041 
L 1100 2403 
z
" id="ArialMT-50" transform="scale(0.015625)"/>
      </defs>
      <use xlink:href="#ArialMT-50"/>
      <use x="64.949219" xlink:href="#ArialMT-20"/>
      <use x="92.732422" xlink:href="#ArialMT-5b"/>
      <use x="120.515625" xlink:href="#ArialMT-61"/>
      <use x="176.130859" xlink:href="#ArialMT-74"/>
      <use x="203.914062" xlink:href="#ArialMT-6d"/>
      <use x="287.214844" xlink:href="#ArialMT-5d"/>
     </g>
    </g>
   </g>
   <g id="line2d_51">
    <path clip-path="url(#pc8a106f114)" d="M 134.49974 562.834286 
L 1310.437403 562.834286 
L 1310.437403 562.834286 
" style="fill:none;stroke:#4c72b0;stroke-linecap:round;stroke-width:1.5;"/>
   </g>
   <g id="patch_13">
    <path d="M 75.702857 656.151429 
L 75.702857 469.517143 
" style="fill:none;stroke:#ffffff;stroke-linecap:square;stroke-linejoin:miter;stroke-width:1.25;"/>
   </g>
   <g id="patch_14">
    <path d="M 1369.234286 656.151429 
L 1369.234286 469.517143 
" style="fill:none;stroke:#ffffff;stroke-linecap:square;stroke-linejoin:miter;stroke-width:1.25;"/>
   </g>
   <g id="patch_15">
    <path d="M 75.702857 656.151429 
L 1369.234286 656.151429 
" style="fill:none;stroke:#ffffff;stroke-linecap:square;stroke-linejoin:miter;stroke-width:1.25;"/>
   </g>
   <g id="patch_16">
    <path d="M 75.702857 469.517143 
L 1369.234286 469.517143 
" style="fill:none;stroke:#ffffff;stroke-linecap:square;stroke-linejoin:miter;stroke-width:1.25;"/>
   </g>
  </g>
 </g>
 <defs>
  <clipPath id="p7533220923">
   <rect height="186.634286" width="1293.531429" x="75.702857" y="21.594857"/>
  </clipPath>
  <clipPath id="pe546807cfe">
   <rect height="186.634286" width="1293.531429" x="75.702857" y="245.556"/>
  </clipPath>
  <clipPath id="pc8a106f114">
   <rect height="186.634286" width="1293.531429" x="75.702857" y="469.517143"/>
  </clipPath>
 </defs>
</svg>
