<?xml version="1.0" encoding="utf-8" standalone="no"?>
<!DOCTYPE svg PUBLIC "-//W3C//DTD SVG 1.1//EN"
  "http://www.w3.org/Graphics/SVG/1.1/DTD/svg11.dtd">
<svg height="697.68pt" version="1.1" viewBox="0 0 1382.4 697.68" width="1382.4pt" xmlns="http://www.w3.org/2000/svg" xmlns:xlink="http://www.w3.org/1999/xlink">
 <metadata>
  <rdf:RDF xmlns:cc="http://creativecommons.org/ns#" xmlns:dc="http://purl.org/dc/elements/1.1/" xmlns:rdf="http://www.w3.org/1999/02/22-rdf-syntax-ns#">
   <cc:Work>
    <dc:type rdf:resource="http://purl.org/dc/dcmitype/StillImage"/>
    <dc:date>2021-11-05T18:21:21.308915</dc:date>
    <dc:format>image/svg+xml</dc:format>
    <dc:creator>
     <cc:Agent>
      <dc:title>Matplotlib v3.4.3, https://matplotlib.org/</dc:title>
     </cc:Agent>
    </dc:creator>
   </cc:Work>
  </rdf:RDF>
 </metadata>
 <defs>
  <style type="text/css">*{stroke-linecap:butt;stroke-linejoin:round;}</style>
 </defs>
 <g id="figure_1">
  <g id="patch_1">
   <path d="M 0 697.68 
L 1382.4 697.68 
L 1382.4 0 
L 0 0 
z
" style="fill:#ffffff;"/>
  </g>
  <g id="axes_1">
   <g id="patch_2">
    <path d="M 78.994286 205.395429 
L 1369.234286 205.395429 
L 1369.234286 18.272571 
L 78.994286 18.272571 
z
" style="fill:#eaeaf2;"/>
   </g>
   <g id="matplotlib.axis_1">
    <g id="xtick_1">
     <g id="line2d_1">
      <path clip-path="url(#p4092d07e10)" d="M 137.641558 205.395429 
L 137.641558 18.272571 
" style="fill:none;stroke:#ffffff;stroke-linecap:round;"/>
     </g>
     <g id="text_1">
      <!-- 0 -->
      <g style="fill:#262626;" transform="translate(134.583043 222.769022)scale(0.11 -0.11)">
       <defs>
        <path d="M 266 2259 
Q 266 3072 433 3567 
Q 600 4063 929 4331 
Q 1259 4600 1759 4600 
Q 2128 4600 2406 4451 
Q 2684 4303 2865 4023 
Q 3047 3744 3150 3342 
Q 3253 2941 3253 2259 
Q 3253 1453 3087 958 
Q 2922 463 2592 192 
Q 2263 -78 1759 -78 
Q 1097 -78 719 397 
Q 266 969 266 2259 
z
M 844 2259 
Q 844 1131 1108 757 
Q 1372 384 1759 384 
Q 2147 384 2411 759 
Q 2675 1134 2675 2259 
Q 2675 3391 2411 3762 
Q 2147 4134 1753 4134 
Q 1366 4134 1134 3806 
Q 844 3388 844 2259 
z
" id="ArialMT-30" transform="scale(0.015625)"/>
       </defs>
       <use xlink:href="#ArialMT-30"/>
      </g>
     </g>
    </g>
    <g id="xtick_2">
     <g id="line2d_2">
      <path clip-path="url(#p4092d07e10)" d="M 253.774772 205.395429 
L 253.774772 18.272571 
" style="fill:none;stroke:#ffffff;stroke-linecap:round;"/>
     </g>
     <g id="text_2">
      <!-- 1 -->
      <g style="fill:#262626;" transform="translate(250.716256 222.769022)scale(0.11 -0.11)">
       <defs>
        <path d="M 2384 0 
L 1822 0 
L 1822 3584 
Q 1619 3391 1289 3197 
Q 959 3003 697 2906 
L 697 3450 
Q 1169 3672 1522 3987 
Q 1875 4303 2022 4600 
L 2384 4600 
L 2384 0 
z
" id="ArialMT-31" transform="scale(0.015625)"/>
       </defs>
       <use xlink:href="#ArialMT-31"/>
      </g>
     </g>
    </g>
    <g id="xtick_3">
     <g id="line2d_3">
      <path clip-path="url(#p4092d07e10)" d="M 369.907985 205.395429 
L 369.907985 18.272571 
" style="fill:none;stroke:#ffffff;stroke-linecap:round;"/>
     </g>
     <g id="text_3">
      <!-- 2 -->
      <g style="fill:#262626;" transform="translate(366.849469 222.769022)scale(0.11 -0.11)">
       <defs>
        <path d="M 3222 541 
L 3222 0 
L 194 0 
Q 188 203 259 391 
Q 375 700 629 1000 
Q 884 1300 1366 1694 
Q 2113 2306 2375 2664 
Q 2638 3022 2638 3341 
Q 2638 3675 2398 3904 
Q 2159 4134 1775 4134 
Q 1369 4134 1125 3890 
Q 881 3647 878 3216 
L 300 3275 
Q 359 3922 746 4261 
Q 1134 4600 1788 4600 
Q 2447 4600 2831 4234 
Q 3216 3869 3216 3328 
Q 3216 3053 3103 2787 
Q 2991 2522 2730 2228 
Q 2469 1934 1863 1422 
Q 1356 997 1212 845 
Q 1069 694 975 541 
L 3222 541 
z
" id="ArialMT-32" transform="scale(0.015625)"/>
       </defs>
       <use xlink:href="#ArialMT-32"/>
      </g>
     </g>
    </g>
    <g id="xtick_4">
     <g id="line2d_4">
      <path clip-path="url(#p4092d07e10)" d="M 486.041198 205.395429 
L 486.041198 18.272571 
" style="fill:none;stroke:#ffffff;stroke-linecap:round;"/>
     </g>
     <g id="text_4">
      <!-- 3 -->
      <g style="fill:#262626;" transform="translate(482.982683 222.769022)scale(0.11 -0.11)">
       <defs>
        <path d="M 269 1209 
L 831 1284 
Q 928 806 1161 595 
Q 1394 384 1728 384 
Q 2125 384 2398 659 
Q 2672 934 2672 1341 
Q 2672 1728 2419 1979 
Q 2166 2231 1775 2231 
Q 1616 2231 1378 2169 
L 1441 2663 
Q 1497 2656 1531 2656 
Q 1891 2656 2178 2843 
Q 2466 3031 2466 3422 
Q 2466 3731 2256 3934 
Q 2047 4138 1716 4138 
Q 1388 4138 1169 3931 
Q 950 3725 888 3313 
L 325 3413 
Q 428 3978 793 4289 
Q 1159 4600 1703 4600 
Q 2078 4600 2393 4439 
Q 2709 4278 2876 4000 
Q 3044 3722 3044 3409 
Q 3044 3113 2884 2869 
Q 2725 2625 2413 2481 
Q 2819 2388 3044 2092 
Q 3269 1797 3269 1353 
Q 3269 753 2831 336 
Q 2394 -81 1725 -81 
Q 1122 -81 723 278 
Q 325 638 269 1209 
z
" id="ArialMT-33" transform="scale(0.015625)"/>
       </defs>
       <use xlink:href="#ArialMT-33"/>
      </g>
     </g>
    </g>
    <g id="xtick_5">
     <g id="line2d_5">
      <path clip-path="url(#p4092d07e10)" d="M 602.174412 205.395429 
L 602.174412 18.272571 
" style="fill:none;stroke:#ffffff;stroke-linecap:round;"/>
     </g>
     <g id="text_5">
      <!-- 4 -->
      <g style="fill:#262626;" transform="translate(599.115896 222.769022)scale(0.11 -0.11)">
       <defs>
        <path d="M 2069 0 
L 2069 1097 
L 81 1097 
L 81 1613 
L 2172 4581 
L 2631 4581 
L 2631 1613 
L 3250 1613 
L 3250 1097 
L 2631 1097 
L 2631 0 
L 2069 0 
z
M 2069 1613 
L 2069 3678 
L 634 1613 
L 2069 1613 
z
" id="ArialMT-34" transform="scale(0.015625)"/>
       </defs>
       <use xlink:href="#ArialMT-34"/>
      </g>
     </g>
    </g>
    <g id="xtick_6">
     <g id="line2d_6">
      <path clip-path="url(#p4092d07e10)" d="M 718.307625 205.395429 
L 718.307625 18.272571 
" style="fill:none;stroke:#ffffff;stroke-linecap:round;"/>
     </g>
     <g id="text_6">
      <!-- 5 -->
      <g style="fill:#262626;" transform="translate(715.249109 222.769022)scale(0.11 -0.11)">
       <defs>
        <path d="M 266 1200 
L 856 1250 
Q 922 819 1161 601 
Q 1400 384 1738 384 
Q 2144 384 2425 690 
Q 2706 997 2706 1503 
Q 2706 1984 2436 2262 
Q 2166 2541 1728 2541 
Q 1456 2541 1237 2417 
Q 1019 2294 894 2097 
L 366 2166 
L 809 4519 
L 3088 4519 
L 3088 3981 
L 1259 3981 
L 1013 2750 
Q 1425 3038 1878 3038 
Q 2478 3038 2890 2622 
Q 3303 2206 3303 1553 
Q 3303 931 2941 478 
Q 2500 -78 1738 -78 
Q 1113 -78 717 272 
Q 322 622 266 1200 
z
" id="ArialMT-35" transform="scale(0.015625)"/>
       </defs>
       <use xlink:href="#ArialMT-35"/>
      </g>
     </g>
    </g>
    <g id="xtick_7">
     <g id="line2d_7">
      <path clip-path="url(#p4092d07e10)" d="M 834.440838 205.395429 
L 834.440838 18.272571 
" style="fill:none;stroke:#ffffff;stroke-linecap:round;"/>
     </g>
     <g id="text_7">
      <!-- 6 -->
      <g style="fill:#262626;" transform="translate(831.382323 222.769022)scale(0.11 -0.11)">
       <defs>
        <path d="M 3184 3459 
L 2625 3416 
Q 2550 3747 2413 3897 
Q 2184 4138 1850 4138 
Q 1581 4138 1378 3988 
Q 1113 3794 959 3422 
Q 806 3050 800 2363 
Q 1003 2672 1297 2822 
Q 1591 2972 1913 2972 
Q 2475 2972 2870 2558 
Q 3266 2144 3266 1488 
Q 3266 1056 3080 686 
Q 2894 316 2569 119 
Q 2244 -78 1831 -78 
Q 1128 -78 684 439 
Q 241 956 241 2144 
Q 241 3472 731 4075 
Q 1159 4600 1884 4600 
Q 2425 4600 2770 4297 
Q 3116 3994 3184 3459 
z
M 888 1484 
Q 888 1194 1011 928 
Q 1134 663 1356 523 
Q 1578 384 1822 384 
Q 2178 384 2434 671 
Q 2691 959 2691 1453 
Q 2691 1928 2437 2201 
Q 2184 2475 1800 2475 
Q 1419 2475 1153 2201 
Q 888 1928 888 1484 
z
" id="ArialMT-36" transform="scale(0.015625)"/>
       </defs>
       <use xlink:href="#ArialMT-36"/>
      </g>
     </g>
    </g>
    <g id="xtick_8">
     <g id="line2d_8">
      <path clip-path="url(#p4092d07e10)" d="M 950.574052 205.395429 
L 950.574052 18.272571 
" style="fill:none;stroke:#ffffff;stroke-linecap:round;"/>
     </g>
     <g id="text_8">
      <!-- 7 -->
      <g style="fill:#262626;" transform="translate(947.515536 222.769022)scale(0.11 -0.11)">
       <defs>
        <path d="M 303 3981 
L 303 4522 
L 3269 4522 
L 3269 4084 
Q 2831 3619 2401 2847 
Q 1972 2075 1738 1259 
Q 1569 684 1522 0 
L 944 0 
Q 953 541 1156 1306 
Q 1359 2072 1739 2783 
Q 2119 3494 2547 3981 
L 303 3981 
z
" id="ArialMT-37" transform="scale(0.015625)"/>
       </defs>
       <use xlink:href="#ArialMT-37"/>
      </g>
     </g>
    </g>
    <g id="xtick_9">
     <g id="line2d_9">
      <path clip-path="url(#p4092d07e10)" d="M 1066.707265 205.395429 
L 1066.707265 18.272571 
" style="fill:none;stroke:#ffffff;stroke-linecap:round;"/>
     </g>
     <g id="text_9">
      <!-- 8 -->
      <g style="fill:#262626;" transform="translate(1063.648749 222.769022)scale(0.11 -0.11)">
       <defs>
        <path d="M 1131 2484 
Q 781 2613 612 2850 
Q 444 3088 444 3419 
Q 444 3919 803 4259 
Q 1163 4600 1759 4600 
Q 2359 4600 2725 4251 
Q 3091 3903 3091 3403 
Q 3091 3084 2923 2848 
Q 2756 2613 2416 2484 
Q 2838 2347 3058 2040 
Q 3278 1734 3278 1309 
Q 3278 722 2862 322 
Q 2447 -78 1769 -78 
Q 1091 -78 675 323 
Q 259 725 259 1325 
Q 259 1772 486 2073 
Q 713 2375 1131 2484 
z
M 1019 3438 
Q 1019 3113 1228 2906 
Q 1438 2700 1772 2700 
Q 2097 2700 2305 2904 
Q 2513 3109 2513 3406 
Q 2513 3716 2298 3927 
Q 2084 4138 1766 4138 
Q 1444 4138 1231 3931 
Q 1019 3725 1019 3438 
z
M 838 1322 
Q 838 1081 952 856 
Q 1066 631 1291 507 
Q 1516 384 1775 384 
Q 2178 384 2440 643 
Q 2703 903 2703 1303 
Q 2703 1709 2433 1975 
Q 2163 2241 1756 2241 
Q 1359 2241 1098 1978 
Q 838 1716 838 1322 
z
" id="ArialMT-38" transform="scale(0.015625)"/>
       </defs>
       <use xlink:href="#ArialMT-38"/>
      </g>
     </g>
    </g>
    <g id="xtick_10">
     <g id="line2d_10">
      <path clip-path="url(#p4092d07e10)" d="M 1182.840478 205.395429 
L 1182.840478 18.272571 
" style="fill:none;stroke:#ffffff;stroke-linecap:round;"/>
     </g>
     <g id="text_10">
      <!-- 9 -->
      <g style="fill:#262626;" transform="translate(1179.781963 222.769022)scale(0.11 -0.11)">
       <defs>
        <path d="M 350 1059 
L 891 1109 
Q 959 728 1153 556 
Q 1347 384 1650 384 
Q 1909 384 2104 503 
Q 2300 622 2425 820 
Q 2550 1019 2634 1356 
Q 2719 1694 2719 2044 
Q 2719 2081 2716 2156 
Q 2547 1888 2255 1720 
Q 1963 1553 1622 1553 
Q 1053 1553 659 1965 
Q 266 2378 266 3053 
Q 266 3750 677 4175 
Q 1088 4600 1706 4600 
Q 2153 4600 2523 4359 
Q 2894 4119 3086 3673 
Q 3278 3228 3278 2384 
Q 3278 1506 3087 986 
Q 2897 466 2520 194 
Q 2144 -78 1638 -78 
Q 1100 -78 759 220 
Q 419 519 350 1059 
z
M 2653 3081 
Q 2653 3566 2395 3850 
Q 2138 4134 1775 4134 
Q 1400 4134 1122 3828 
Q 844 3522 844 3034 
Q 844 2597 1108 2323 
Q 1372 2050 1759 2050 
Q 2150 2050 2401 2323 
Q 2653 2597 2653 3081 
z
" id="ArialMT-39" transform="scale(0.015625)"/>
       </defs>
       <use xlink:href="#ArialMT-39"/>
      </g>
     </g>
    </g>
    <g id="xtick_11">
     <g id="line2d_11">
      <path clip-path="url(#p4092d07e10)" d="M 1298.973692 205.395429 
L 1298.973692 18.272571 
" style="fill:none;stroke:#ffffff;stroke-linecap:round;"/>
     </g>
     <g id="text_11">
      <!-- 10 -->
      <g style="fill:#262626;" transform="translate(1292.85666 222.769022)scale(0.11 -0.11)">
       <use xlink:href="#ArialMT-31"/>
       <use x="55.615234" xlink:href="#ArialMT-30"/>
      </g>
     </g>
    </g>
   </g>
   <g id="matplotlib.axis_2">
    <g id="ytick_1">
     <g id="line2d_12">
      <path clip-path="url(#p4092d07e10)" d="M 78.994286 205.395429 
L 1369.234286 205.395429 
" style="fill:none;stroke:#ffffff;stroke-linecap:round;"/>
     </g>
     <g id="text_12">
      <!-- −2098.6 -->
      <g style="fill:#262626;" transform="translate(29.428504 209.332225)scale(0.11 -0.11)">
       <defs>
        <path d="M 3381 1997 
L 356 1997 
L 356 2522 
L 3381 2522 
L 3381 1997 
z
" id="ArialMT-2212" transform="scale(0.015625)"/>
        <path d="M 581 0 
L 581 641 
L 1222 641 
L 1222 0 
L 581 0 
z
" id="ArialMT-2e" transform="scale(0.015625)"/>
       </defs>
       <use xlink:href="#ArialMT-2212"/>
       <use x="58.398438" xlink:href="#ArialMT-32"/>
       <use x="114.013672" xlink:href="#ArialMT-30"/>
       <use x="169.628906" xlink:href="#ArialMT-39"/>
       <use x="225.244141" xlink:href="#ArialMT-38"/>
       <use x="280.859375" xlink:href="#ArialMT-2e"/>
       <use x="308.642578" xlink:href="#ArialMT-36"/>
      </g>
     </g>
    </g>
    <g id="ytick_2">
     <g id="line2d_13">
      <path clip-path="url(#p4092d07e10)" d="M 78.994286 167.970857 
L 1369.234286 167.970857 
" style="fill:none;stroke:#ffffff;stroke-linecap:round;"/>
     </g>
     <g id="text_13">
      <!-- −2098.4 -->
      <g style="fill:#262626;" transform="translate(29.428504 171.907654)scale(0.11 -0.11)">
       <use xlink:href="#ArialMT-2212"/>
       <use x="58.398438" xlink:href="#ArialMT-32"/>
       <use x="114.013672" xlink:href="#ArialMT-30"/>
       <use x="169.628906" xlink:href="#ArialMT-39"/>
       <use x="225.244141" xlink:href="#ArialMT-38"/>
       <use x="280.859375" xlink:href="#ArialMT-2e"/>
       <use x="308.642578" xlink:href="#ArialMT-34"/>
      </g>
     </g>
    </g>
    <g id="ytick_3">
     <g id="line2d_14">
      <path clip-path="url(#p4092d07e10)" d="M 78.994286 130.546286 
L 1369.234286 130.546286 
" style="fill:none;stroke:#ffffff;stroke-linecap:round;"/>
     </g>
     <g id="text_14">
      <!-- −2098.2 -->
      <g style="fill:#262626;" transform="translate(29.428504 134.483083)scale(0.11 -0.11)">
       <use xlink:href="#ArialMT-2212"/>
       <use x="58.398438" xlink:href="#ArialMT-32"/>
       <use x="114.013672" xlink:href="#ArialMT-30"/>
       <use x="169.628906" xlink:href="#ArialMT-39"/>
       <use x="225.244141" xlink:href="#ArialMT-38"/>
       <use x="280.859375" xlink:href="#ArialMT-2e"/>
       <use x="308.642578" xlink:href="#ArialMT-32"/>
      </g>
     </g>
    </g>
    <g id="ytick_4">
     <g id="line2d_15">
      <path clip-path="url(#p4092d07e10)" d="M 78.994286 93.121714 
L 1369.234286 93.121714 
" style="fill:none;stroke:#ffffff;stroke-linecap:round;"/>
     </g>
     <g id="text_15">
      <!-- −2098.0 -->
      <g style="fill:#262626;" transform="translate(29.428504 97.058511)scale(0.11 -0.11)">
       <use xlink:href="#ArialMT-2212"/>
       <use x="58.398438" xlink:href="#ArialMT-32"/>
       <use x="114.013672" xlink:href="#ArialMT-30"/>
       <use x="169.628906" xlink:href="#ArialMT-39"/>
       <use x="225.244141" xlink:href="#ArialMT-38"/>
       <use x="280.859375" xlink:href="#ArialMT-2e"/>
       <use x="308.642578" xlink:href="#ArialMT-30"/>
      </g>
     </g>
    </g>
    <g id="ytick_5">
     <g id="line2d_16">
      <path clip-path="url(#p4092d07e10)" d="M 78.994286 55.697143 
L 1369.234286 55.697143 
" style="fill:none;stroke:#ffffff;stroke-linecap:round;"/>
     </g>
     <g id="text_16">
      <!-- −2097.8 -->
      <g style="fill:#262626;" transform="translate(29.428504 59.63394)scale(0.11 -0.11)">
       <use xlink:href="#ArialMT-2212"/>
       <use x="58.398438" xlink:href="#ArialMT-32"/>
       <use x="114.013672" xlink:href="#ArialMT-30"/>
       <use x="169.628906" xlink:href="#ArialMT-39"/>
       <use x="225.244141" xlink:href="#ArialMT-37"/>
       <use x="280.859375" xlink:href="#ArialMT-2e"/>
       <use x="308.642578" xlink:href="#ArialMT-38"/>
      </g>
     </g>
    </g>
    <g id="text_17">
     <!-- H [kJ/mol] -->
     <g style="fill:#262626;" transform="translate(23.043504 138.502125)rotate(-90)scale(0.12 -0.12)">
      <defs>
       <path d="M 513 0 
L 513 4581 
L 1119 4581 
L 1119 2700 
L 3500 2700 
L 3500 4581 
L 4106 4581 
L 4106 0 
L 3500 0 
L 3500 2159 
L 1119 2159 
L 1119 0 
L 513 0 
z
" id="ArialMT-48" transform="scale(0.015625)"/>
       <path id="ArialMT-20" transform="scale(0.015625)"/>
       <path d="M 434 -1272 
L 434 4581 
L 1675 4581 
L 1675 4116 
L 997 4116 
L 997 -806 
L 1675 -806 
L 1675 -1272 
L 434 -1272 
z
" id="ArialMT-5b" transform="scale(0.015625)"/>
       <path d="M 425 0 
L 425 4581 
L 988 4581 
L 988 1969 
L 2319 3319 
L 3047 3319 
L 1778 2088 
L 3175 0 
L 2481 0 
L 1384 1697 
L 988 1316 
L 988 0 
L 425 0 
z
" id="ArialMT-6b" transform="scale(0.015625)"/>
       <path d="M 184 1300 
L 731 1375 
Q 753 850 928 656 
Q 1103 463 1413 463 
Q 1641 463 1806 567 
Q 1972 672 2034 851 
Q 2097 1031 2097 1425 
L 2097 4581 
L 2703 4581 
L 2703 1459 
Q 2703 884 2564 568 
Q 2425 253 2123 87 
Q 1822 -78 1416 -78 
Q 813 -78 492 269 
Q 172 616 184 1300 
z
" id="ArialMT-4a" transform="scale(0.015625)"/>
       <path d="M 0 -78 
L 1328 4659 
L 1778 4659 
L 453 -78 
L 0 -78 
z
" id="ArialMT-2f" transform="scale(0.015625)"/>
       <path d="M 422 0 
L 422 3319 
L 925 3319 
L 925 2853 
Q 1081 3097 1340 3245 
Q 1600 3394 1931 3394 
Q 2300 3394 2536 3241 
Q 2772 3088 2869 2813 
Q 3263 3394 3894 3394 
Q 4388 3394 4653 3120 
Q 4919 2847 4919 2278 
L 4919 0 
L 4359 0 
L 4359 2091 
Q 4359 2428 4304 2576 
Q 4250 2725 4106 2815 
Q 3963 2906 3769 2906 
Q 3419 2906 3187 2673 
Q 2956 2441 2956 1928 
L 2956 0 
L 2394 0 
L 2394 2156 
Q 2394 2531 2256 2718 
Q 2119 2906 1806 2906 
Q 1569 2906 1367 2781 
Q 1166 2656 1075 2415 
Q 984 2175 984 1722 
L 984 0 
L 422 0 
z
" id="ArialMT-6d" transform="scale(0.015625)"/>
       <path d="M 213 1659 
Q 213 2581 725 3025 
Q 1153 3394 1769 3394 
Q 2453 3394 2887 2945 
Q 3322 2497 3322 1706 
Q 3322 1066 3130 698 
Q 2938 331 2570 128 
Q 2203 -75 1769 -75 
Q 1072 -75 642 372 
Q 213 819 213 1659 
z
M 791 1659 
Q 791 1022 1069 705 
Q 1347 388 1769 388 
Q 2188 388 2466 706 
Q 2744 1025 2744 1678 
Q 2744 2294 2464 2611 
Q 2184 2928 1769 2928 
Q 1347 2928 1069 2612 
Q 791 2297 791 1659 
z
" id="ArialMT-6f" transform="scale(0.015625)"/>
       <path d="M 409 0 
L 409 4581 
L 972 4581 
L 972 0 
L 409 0 
z
" id="ArialMT-6c" transform="scale(0.015625)"/>
       <path d="M 1363 -1272 
L 122 -1272 
L 122 -806 
L 800 -806 
L 800 4116 
L 122 4116 
L 122 4581 
L 1363 4581 
L 1363 -1272 
z
" id="ArialMT-5d" transform="scale(0.015625)"/>
      </defs>
      <use xlink:href="#ArialMT-48"/>
      <use x="72.216797" xlink:href="#ArialMT-20"/>
      <use x="100" xlink:href="#ArialMT-5b"/>
      <use x="127.783203" xlink:href="#ArialMT-6b"/>
      <use x="177.783203" xlink:href="#ArialMT-4a"/>
      <use x="227.783203" xlink:href="#ArialMT-2f"/>
      <use x="255.566406" xlink:href="#ArialMT-6d"/>
      <use x="338.867188" xlink:href="#ArialMT-6f"/>
      <use x="394.482422" xlink:href="#ArialMT-6c"/>
      <use x="416.699219" xlink:href="#ArialMT-5d"/>
     </g>
    </g>
   </g>
   <g id="line2d_17">
    <path clip-path="url(#p4092d07e10)" d="M 137.641558 119.880283 
L 144.609551 119.880283 
L 145.770883 120.067406 
L 1310.587013 120.067406 
L 1310.587013 120.067406 
" style="fill:none;stroke:#4c72b0;stroke-linecap:round;stroke-width:1.5;"/>
   </g>
   <g id="patch_3">
    <path d="M 78.994286 205.395429 
L 78.994286 18.272571 
" style="fill:none;stroke:#ffffff;stroke-linecap:square;stroke-linejoin:miter;stroke-width:1.25;"/>
   </g>
   <g id="patch_4">
    <path d="M 1369.234286 205.395429 
L 1369.234286 18.272571 
" style="fill:none;stroke:#ffffff;stroke-linecap:square;stroke-linejoin:miter;stroke-width:1.25;"/>
   </g>
   <g id="patch_5">
    <path d="M 78.994286 205.395429 
L 1369.234286 205.395429 
" style="fill:none;stroke:#ffffff;stroke-linecap:square;stroke-linejoin:miter;stroke-width:1.25;"/>
   </g>
   <g id="patch_6">
    <path d="M 78.994286 18.272571 
L 1369.234286 18.272571 
" style="fill:none;stroke:#ffffff;stroke-linecap:square;stroke-linejoin:miter;stroke-width:1.25;"/>
   </g>
   <g id="text_18">
    <!-- Wykresy dla n = 7 i T = 0K -->
    <g style="fill:#262626;" transform="translate(654.019286 12.272571)scale(0.12 -0.12)">
     <defs>
      <path d="M 1294 0 
L 78 4581 
L 700 4581 
L 1397 1578 
Q 1509 1106 1591 641 
Q 1766 1375 1797 1488 
L 2669 4581 
L 3400 4581 
L 4056 2263 
Q 4303 1400 4413 641 
Q 4500 1075 4641 1638 
L 5359 4581 
L 5969 4581 
L 4713 0 
L 4128 0 
L 3163 3491 
Q 3041 3928 3019 4028 
Q 2947 3713 2884 3491 
L 1913 0 
L 1294 0 
z
" id="ArialMT-57" transform="scale(0.015625)"/>
      <path d="M 397 -1278 
L 334 -750 
Q 519 -800 656 -800 
Q 844 -800 956 -737 
Q 1069 -675 1141 -563 
Q 1194 -478 1313 -144 
Q 1328 -97 1363 -6 
L 103 3319 
L 709 3319 
L 1400 1397 
Q 1534 1031 1641 628 
Q 1738 1016 1872 1384 
L 2581 3319 
L 3144 3319 
L 1881 -56 
Q 1678 -603 1566 -809 
Q 1416 -1088 1222 -1217 
Q 1028 -1347 759 -1347 
Q 597 -1347 397 -1278 
z
" id="ArialMT-79" transform="scale(0.015625)"/>
      <path d="M 416 0 
L 416 3319 
L 922 3319 
L 922 2816 
Q 1116 3169 1280 3281 
Q 1444 3394 1641 3394 
Q 1925 3394 2219 3213 
L 2025 2691 
Q 1819 2813 1613 2813 
Q 1428 2813 1281 2702 
Q 1134 2591 1072 2394 
Q 978 2094 978 1738 
L 978 0 
L 416 0 
z
" id="ArialMT-72" transform="scale(0.015625)"/>
      <path d="M 2694 1069 
L 3275 997 
Q 3138 488 2766 206 
Q 2394 -75 1816 -75 
Q 1088 -75 661 373 
Q 234 822 234 1631 
Q 234 2469 665 2931 
Q 1097 3394 1784 3394 
Q 2450 3394 2872 2941 
Q 3294 2488 3294 1666 
Q 3294 1616 3291 1516 
L 816 1516 
Q 847 969 1125 678 
Q 1403 388 1819 388 
Q 2128 388 2347 550 
Q 2566 713 2694 1069 
z
M 847 1978 
L 2700 1978 
Q 2663 2397 2488 2606 
Q 2219 2931 1791 2931 
Q 1403 2931 1139 2672 
Q 875 2413 847 1978 
z
" id="ArialMT-65" transform="scale(0.015625)"/>
      <path d="M 197 991 
L 753 1078 
Q 800 744 1014 566 
Q 1228 388 1613 388 
Q 2000 388 2187 545 
Q 2375 703 2375 916 
Q 2375 1106 2209 1216 
Q 2094 1291 1634 1406 
Q 1016 1563 777 1677 
Q 538 1791 414 1992 
Q 291 2194 291 2438 
Q 291 2659 392 2848 
Q 494 3038 669 3163 
Q 800 3259 1026 3326 
Q 1253 3394 1513 3394 
Q 1903 3394 2198 3281 
Q 2494 3169 2634 2976 
Q 2775 2784 2828 2463 
L 2278 2388 
Q 2241 2644 2061 2787 
Q 1881 2931 1553 2931 
Q 1166 2931 1000 2803 
Q 834 2675 834 2503 
Q 834 2394 903 2306 
Q 972 2216 1119 2156 
Q 1203 2125 1616 2013 
Q 2213 1853 2448 1751 
Q 2684 1650 2818 1456 
Q 2953 1263 2953 975 
Q 2953 694 2789 445 
Q 2625 197 2315 61 
Q 2006 -75 1616 -75 
Q 969 -75 630 194 
Q 291 463 197 991 
z
" id="ArialMT-73" transform="scale(0.015625)"/>
      <path d="M 2575 0 
L 2575 419 
Q 2259 -75 1647 -75 
Q 1250 -75 917 144 
Q 584 363 401 755 
Q 219 1147 219 1656 
Q 219 2153 384 2558 
Q 550 2963 881 3178 
Q 1213 3394 1622 3394 
Q 1922 3394 2156 3267 
Q 2391 3141 2538 2938 
L 2538 4581 
L 3097 4581 
L 3097 0 
L 2575 0 
z
M 797 1656 
Q 797 1019 1065 703 
Q 1334 388 1700 388 
Q 2069 388 2326 689 
Q 2584 991 2584 1609 
Q 2584 2291 2321 2609 
Q 2059 2928 1675 2928 
Q 1300 2928 1048 2622 
Q 797 2316 797 1656 
z
" id="ArialMT-64" transform="scale(0.015625)"/>
      <path d="M 2588 409 
Q 2275 144 1986 34 
Q 1697 -75 1366 -75 
Q 819 -75 525 192 
Q 231 459 231 875 
Q 231 1119 342 1320 
Q 453 1522 633 1644 
Q 813 1766 1038 1828 
Q 1203 1872 1538 1913 
Q 2219 1994 2541 2106 
Q 2544 2222 2544 2253 
Q 2544 2597 2384 2738 
Q 2169 2928 1744 2928 
Q 1347 2928 1158 2789 
Q 969 2650 878 2297 
L 328 2372 
Q 403 2725 575 2942 
Q 747 3159 1072 3276 
Q 1397 3394 1825 3394 
Q 2250 3394 2515 3294 
Q 2781 3194 2906 3042 
Q 3031 2891 3081 2659 
Q 3109 2516 3109 2141 
L 3109 1391 
Q 3109 606 3145 398 
Q 3181 191 3288 0 
L 2700 0 
Q 2613 175 2588 409 
z
M 2541 1666 
Q 2234 1541 1622 1453 
Q 1275 1403 1131 1340 
Q 988 1278 909 1158 
Q 831 1038 831 891 
Q 831 666 1001 516 
Q 1172 366 1500 366 
Q 1825 366 2078 508 
Q 2331 650 2450 897 
Q 2541 1088 2541 1459 
L 2541 1666 
z
" id="ArialMT-61" transform="scale(0.015625)"/>
      <path d="M 422 0 
L 422 3319 
L 928 3319 
L 928 2847 
Q 1294 3394 1984 3394 
Q 2284 3394 2536 3286 
Q 2788 3178 2913 3003 
Q 3038 2828 3088 2588 
Q 3119 2431 3119 2041 
L 3119 0 
L 2556 0 
L 2556 2019 
Q 2556 2363 2490 2533 
Q 2425 2703 2258 2804 
Q 2091 2906 1866 2906 
Q 1506 2906 1245 2678 
Q 984 2450 984 1813 
L 984 0 
L 422 0 
z
" id="ArialMT-6e" transform="scale(0.015625)"/>
      <path d="M 3381 2694 
L 356 2694 
L 356 3219 
L 3381 3219 
L 3381 2694 
z
M 3381 1303 
L 356 1303 
L 356 1828 
L 3381 1828 
L 3381 1303 
z
" id="ArialMT-3d" transform="scale(0.015625)"/>
      <path d="M 425 3934 
L 425 4581 
L 988 4581 
L 988 3934 
L 425 3934 
z
M 425 0 
L 425 3319 
L 988 3319 
L 988 0 
L 425 0 
z
" id="ArialMT-69" transform="scale(0.015625)"/>
      <path d="M 1659 0 
L 1659 4041 
L 150 4041 
L 150 4581 
L 3781 4581 
L 3781 4041 
L 2266 4041 
L 2266 0 
L 1659 0 
z
" id="ArialMT-54" transform="scale(0.015625)"/>
      <path d="M 469 0 
L 469 4581 
L 1075 4581 
L 1075 2309 
L 3350 4581 
L 4172 4581 
L 2250 2725 
L 4256 0 
L 3456 0 
L 1825 2319 
L 1075 1588 
L 1075 0 
L 469 0 
z
" id="ArialMT-4b" transform="scale(0.015625)"/>
     </defs>
     <use xlink:href="#ArialMT-57"/>
     <use x="93.509766" xlink:href="#ArialMT-79"/>
     <use x="143.509766" xlink:href="#ArialMT-6b"/>
     <use x="193.509766" xlink:href="#ArialMT-72"/>
     <use x="226.810547" xlink:href="#ArialMT-65"/>
     <use x="282.425781" xlink:href="#ArialMT-73"/>
     <use x="332.425781" xlink:href="#ArialMT-79"/>
     <use x="382.425781" xlink:href="#ArialMT-20"/>
     <use x="410.208984" xlink:href="#ArialMT-64"/>
     <use x="465.824219" xlink:href="#ArialMT-6c"/>
     <use x="488.041016" xlink:href="#ArialMT-61"/>
     <use x="543.65625" xlink:href="#ArialMT-20"/>
     <use x="571.439453" xlink:href="#ArialMT-6e"/>
     <use x="627.054688" xlink:href="#ArialMT-20"/>
     <use x="654.837891" xlink:href="#ArialMT-3d"/>
     <use x="713.236328" xlink:href="#ArialMT-20"/>
     <use x="741.019531" xlink:href="#ArialMT-37"/>
     <use x="796.634766" xlink:href="#ArialMT-20"/>
     <use x="824.417969" xlink:href="#ArialMT-69"/>
     <use x="846.634766" xlink:href="#ArialMT-20"/>
     <use x="872.667969" xlink:href="#ArialMT-54"/>
     <use x="932.001953" xlink:href="#ArialMT-20"/>
     <use x="959.785156" xlink:href="#ArialMT-3d"/>
     <use x="1018.183594" xlink:href="#ArialMT-20"/>
     <use x="1045.966797" xlink:href="#ArialMT-30"/>
     <use x="1101.582031" xlink:href="#ArialMT-4b"/>
    </g>
   </g>
  </g>
  <g id="axes_2">
   <g id="patch_7">
    <path d="M 78.994286 429.942857 
L 1369.234286 429.942857 
L 1369.234286 242.82 
L 78.994286 242.82 
z
" style="fill:#eaeaf2;"/>
   </g>
   <g id="matplotlib.axis_3">
    <g id="xtick_12">
     <g id="line2d_18">
      <path clip-path="url(#pe7e13d0340)" d="M 137.641558 429.942857 
L 137.641558 242.82 
" style="fill:none;stroke:#ffffff;stroke-linecap:round;"/>
     </g>
     <g id="text_19">
      <!-- 0 -->
      <g style="fill:#262626;" transform="translate(134.583043 447.316451)scale(0.11 -0.11)">
       <use xlink:href="#ArialMT-30"/>
      </g>
     </g>
    </g>
    <g id="xtick_13">
     <g id="line2d_19">
      <path clip-path="url(#pe7e13d0340)" d="M 253.774772 429.942857 
L 253.774772 242.82 
" style="fill:none;stroke:#ffffff;stroke-linecap:round;"/>
     </g>
     <g id="text_20">
      <!-- 1 -->
      <g style="fill:#262626;" transform="translate(250.716256 447.316451)scale(0.11 -0.11)">
       <use xlink:href="#ArialMT-31"/>
      </g>
     </g>
    </g>
    <g id="xtick_14">
     <g id="line2d_20">
      <path clip-path="url(#pe7e13d0340)" d="M 369.907985 429.942857 
L 369.907985 242.82 
" style="fill:none;stroke:#ffffff;stroke-linecap:round;"/>
     </g>
     <g id="text_21">
      <!-- 2 -->
      <g style="fill:#262626;" transform="translate(366.849469 447.316451)scale(0.11 -0.11)">
       <use xlink:href="#ArialMT-32"/>
      </g>
     </g>
    </g>
    <g id="xtick_15">
     <g id="line2d_21">
      <path clip-path="url(#pe7e13d0340)" d="M 486.041198 429.942857 
L 486.041198 242.82 
" style="fill:none;stroke:#ffffff;stroke-linecap:round;"/>
     </g>
     <g id="text_22">
      <!-- 3 -->
      <g style="fill:#262626;" transform="translate(482.982683 447.316451)scale(0.11 -0.11)">
       <use xlink:href="#ArialMT-33"/>
      </g>
     </g>
    </g>
    <g id="xtick_16">
     <g id="line2d_22">
      <path clip-path="url(#pe7e13d0340)" d="M 602.174412 429.942857 
L 602.174412 242.82 
" style="fill:none;stroke:#ffffff;stroke-linecap:round;"/>
     </g>
     <g id="text_23">
      <!-- 4 -->
      <g style="fill:#262626;" transform="translate(599.115896 447.316451)scale(0.11 -0.11)">
       <use xlink:href="#ArialMT-34"/>
      </g>
     </g>
    </g>
    <g id="xtick_17">
     <g id="line2d_23">
      <path clip-path="url(#pe7e13d0340)" d="M 718.307625 429.942857 
L 718.307625 242.82 
" style="fill:none;stroke:#ffffff;stroke-linecap:round;"/>
     </g>
     <g id="text_24">
      <!-- 5 -->
      <g style="fill:#262626;" transform="translate(715.249109 447.316451)scale(0.11 -0.11)">
       <use xlink:href="#ArialMT-35"/>
      </g>
     </g>
    </g>
    <g id="xtick_18">
     <g id="line2d_24">
      <path clip-path="url(#pe7e13d0340)" d="M 834.440838 429.942857 
L 834.440838 242.82 
" style="fill:none;stroke:#ffffff;stroke-linecap:round;"/>
     </g>
     <g id="text_25">
      <!-- 6 -->
      <g style="fill:#262626;" transform="translate(831.382323 447.316451)scale(0.11 -0.11)">
       <use xlink:href="#ArialMT-36"/>
      </g>
     </g>
    </g>
    <g id="xtick_19">
     <g id="line2d_25">
      <path clip-path="url(#pe7e13d0340)" d="M 950.574052 429.942857 
L 950.574052 242.82 
" style="fill:none;stroke:#ffffff;stroke-linecap:round;"/>
     </g>
     <g id="text_26">
      <!-- 7 -->
      <g style="fill:#262626;" transform="translate(947.515536 447.316451)scale(0.11 -0.11)">
       <use xlink:href="#ArialMT-37"/>
      </g>
     </g>
    </g>
    <g id="xtick_20">
     <g id="line2d_26">
      <path clip-path="url(#pe7e13d0340)" d="M 1066.707265 429.942857 
L 1066.707265 242.82 
" style="fill:none;stroke:#ffffff;stroke-linecap:round;"/>
     </g>
     <g id="text_27">
      <!-- 8 -->
      <g style="fill:#262626;" transform="translate(1063.648749 447.316451)scale(0.11 -0.11)">
       <use xlink:href="#ArialMT-38"/>
      </g>
     </g>
    </g>
    <g id="xtick_21">
     <g id="line2d_27">
      <path clip-path="url(#pe7e13d0340)" d="M 1182.840478 429.942857 
L 1182.840478 242.82 
" style="fill:none;stroke:#ffffff;stroke-linecap:round;"/>
     </g>
     <g id="text_28">
      <!-- 9 -->
      <g style="fill:#262626;" transform="translate(1179.781963 447.316451)scale(0.11 -0.11)">
       <use xlink:href="#ArialMT-39"/>
      </g>
     </g>
    </g>
    <g id="xtick_22">
     <g id="line2d_28">
      <path clip-path="url(#pe7e13d0340)" d="M 1298.973692 429.942857 
L 1298.973692 242.82 
" style="fill:none;stroke:#ffffff;stroke-linecap:round;"/>
     </g>
     <g id="text_29">
      <!-- 10 -->
      <g style="fill:#262626;" transform="translate(1292.85666 447.316451)scale(0.11 -0.11)">
       <use xlink:href="#ArialMT-31"/>
       <use x="55.615234" xlink:href="#ArialMT-30"/>
      </g>
     </g>
    </g>
   </g>
   <g id="matplotlib.axis_4">
    <g id="ytick_6">
     <g id="line2d_29">
      <path clip-path="url(#pe7e13d0340)" d="M 78.994286 421.437273 
L 1369.234286 421.437273 
" style="fill:none;stroke:#ffffff;stroke-linecap:round;"/>
     </g>
     <g id="text_30">
      <!-- 0 -->
      <g style="fill:#262626;" transform="translate(63.377254 425.37407)scale(0.11 -0.11)">
       <use xlink:href="#ArialMT-30"/>
      </g>
     </g>
    </g>
    <g id="ytick_7">
     <g id="line2d_30">
      <path clip-path="url(#pe7e13d0340)" d="M 78.994286 393.193592 
L 1369.234286 393.193592 
" style="fill:none;stroke:#ffffff;stroke-linecap:round;"/>
     </g>
     <g id="text_31">
      <!-- 1 -->
      <g style="fill:#262626;" transform="translate(63.377254 397.130389)scale(0.11 -0.11)">
       <use xlink:href="#ArialMT-31"/>
      </g>
     </g>
    </g>
    <g id="ytick_8">
     <g id="line2d_31">
      <path clip-path="url(#pe7e13d0340)" d="M 78.994286 364.949912 
L 1369.234286 364.949912 
" style="fill:none;stroke:#ffffff;stroke-linecap:round;"/>
     </g>
     <g id="text_32">
      <!-- 2 -->
      <g style="fill:#262626;" transform="translate(63.377254 368.886708)scale(0.11 -0.11)">
       <use xlink:href="#ArialMT-32"/>
      </g>
     </g>
    </g>
    <g id="ytick_9">
     <g id="line2d_32">
      <path clip-path="url(#pe7e13d0340)" d="M 78.994286 336.706231 
L 1369.234286 336.706231 
" style="fill:none;stroke:#ffffff;stroke-linecap:round;"/>
     </g>
     <g id="text_33">
      <!-- 3 -->
      <g style="fill:#262626;" transform="translate(63.377254 340.643028)scale(0.11 -0.11)">
       <use xlink:href="#ArialMT-33"/>
      </g>
     </g>
    </g>
    <g id="ytick_10">
     <g id="line2d_33">
      <path clip-path="url(#pe7e13d0340)" d="M 78.994286 308.46255 
L 1369.234286 308.46255 
" style="fill:none;stroke:#ffffff;stroke-linecap:round;"/>
     </g>
     <g id="text_34">
      <!-- 4 -->
      <g style="fill:#262626;" transform="translate(63.377254 312.399347)scale(0.11 -0.11)">
       <use xlink:href="#ArialMT-34"/>
      </g>
     </g>
    </g>
    <g id="ytick_11">
     <g id="line2d_34">
      <path clip-path="url(#pe7e13d0340)" d="M 78.994286 280.21887 
L 1369.234286 280.21887 
" style="fill:none;stroke:#ffffff;stroke-linecap:round;"/>
     </g>
     <g id="text_35">
      <!-- 5 -->
      <g style="fill:#262626;" transform="translate(63.377254 284.155667)scale(0.11 -0.11)">
       <use xlink:href="#ArialMT-35"/>
      </g>
     </g>
    </g>
    <g id="ytick_12">
     <g id="line2d_35">
      <path clip-path="url(#pe7e13d0340)" d="M 78.994286 251.975189 
L 1369.234286 251.975189 
" style="fill:none;stroke:#ffffff;stroke-linecap:round;"/>
     </g>
     <g id="text_36">
      <!-- 6 -->
      <g style="fill:#262626;" transform="translate(63.377254 255.911986)scale(0.11 -0.11)">
       <use xlink:href="#ArialMT-36"/>
      </g>
     </g>
    </g>
    <g id="text_37">
     <!-- T [K] -->
     <g style="fill:#262626;" transform="translate(56.992254 348.943929)rotate(-90)scale(0.12 -0.12)">
      <use xlink:href="#ArialMT-54"/>
      <use x="59.333984" xlink:href="#ArialMT-20"/>
      <use x="87.117188" xlink:href="#ArialMT-5b"/>
      <use x="114.900391" xlink:href="#ArialMT-4b"/>
      <use x="181.599609" xlink:href="#ArialMT-5d"/>
     </g>
    </g>
   </g>
   <g id="line2d_36">
    <path clip-path="url(#pe7e13d0340)" d="M 137.641558 421.437273 
L 138.802891 421.268545 
L 139.964223 420.763379 
L 141.125555 419.923976 
L 142.286887 418.755535 
L 143.448219 417.262857 
L 144.609551 415.455261 
L 145.770883 413.342634 
L 146.932216 410.933448 
L 149.25488 405.281887 
L 151.577544 398.619203 
L 153.900208 391.075316 
L 156.222873 382.799918 
L 159.706869 369.412413 
L 165.51353 345.715965 
L 170.158858 326.933917 
L 173.642855 313.631144 
L 177.126851 301.288655 
L 180.610847 290.132402 
L 182.933512 283.410406 
L 185.256176 277.253283 
L 187.57884 271.689278 
L 189.901504 266.746634 
L 192.224169 262.397107 
L 194.546833 258.697185 
L 196.869497 255.703355 
L 198.030829 254.460633 
L 199.192162 253.415617 
L 200.353494 252.568306 
L 201.514826 251.946945 
L 202.676158 251.52329 
L 203.83749 251.325584 
L 204.998822 251.382072 
L 206.160154 251.664509 
L 207.321486 252.201139 
L 208.482819 252.991962 
L 209.644151 254.065221 
L 210.805483 255.392674 
L 211.966815 257.002564 
L 213.128147 258.894891 
L 214.289479 261.041411 
L 215.450811 263.442123 
L 217.773476 269.034372 
L 220.09614 275.530419 
L 222.418804 282.732557 
L 225.902801 294.453685 
L 231.709461 314.36548 
L 234.032125 321.73708 
L 236.35479 328.48732 
L 238.677454 334.503224 
L 241.000118 339.700061 
L 243.322783 344.077832 
L 245.645447 347.580048 
L 246.806779 349.020476 
L 247.968111 350.263198 
L 249.129443 351.308214 
L 250.290775 352.183768 
L 251.452107 352.861616 
L 252.61344 353.370002 
L 253.774772 353.680683 
L 254.936104 353.821901 
L 256.097436 353.793658 
L 257.258768 353.567708 
L 258.4201 353.20054 
L 259.581432 352.635667 
L 260.742765 351.901331 
L 261.904097 350.997533 
L 263.065429 349.89603 
L 264.226761 348.59682 
L 265.388093 347.128149 
L 267.710757 343.569445 
L 270.033422 339.219918 
L 272.356086 334.107812 
L 274.67875 328.176639 
L 277.001414 321.567618 
L 279.324079 314.36548 
L 283.969407 298.774968 
L 288.614736 283.269187 
L 290.9374 276.180023 
L 293.260064 269.909926 
L 295.582729 264.600114 
L 296.744061 262.397107 
L 297.905393 260.448293 
L 299.066725 258.838403 
L 300.228057 257.51095 
L 301.389389 256.494178 
L 302.550721 255.788086 
L 303.712053 255.336187 
L 304.873386 255.194969 
L 306.034718 255.307943 
L 307.19605 255.675111 
L 308.357382 256.268229 
L 309.518714 257.087295 
L 310.680046 258.104068 
L 313.002711 260.617755 
L 315.325375 263.696317 
L 317.648039 267.226777 
L 321.132035 273.073218 
L 325.777364 281.518079 
L 333.906689 297.136834 
L 351.326671 331.339932 
L 354.810667 337.610029 
L 358.294664 343.343496 
L 360.617328 346.789225 
L 362.939992 349.924273 
L 365.262657 352.66391 
L 367.585321 355.008136 
L 369.907985 356.985194 
L 372.230649 358.56684 
L 374.553314 359.809562 
L 376.875978 360.741603 
L 379.198642 361.391208 
L 381.521306 361.786619 
L 383.843971 362.012569 
L 386.166635 362.069056 
L 389.650631 361.927838 
L 391.973296 361.701888 
L 396.618624 361.052284 
L 400.102621 360.374435 
L 404.747949 359.244688 
L 409.393278 357.776017 
L 412.877274 356.392076 
L 416.36127 354.697455 
L 418.683935 353.341759 
L 421.006599 351.8166 
L 423.329263 350.093736 
L 426.81326 347.156393 
L 430.297256 343.795395 
L 434.942585 338.909238 
L 440.749245 332.667385 
L 444.233242 329.165168 
L 447.717238 326.001876 
L 451.201234 323.233995 
L 454.685231 320.805039 
L 458.169227 318.658519 
L 468.621216 312.699102 
L 472.105213 310.411364 
L 475.589209 307.841189 
L 479.073206 304.93209 
L 483.718534 300.610807 
L 493.009191 291.685804 
L 495.331855 289.765234 
L 497.65452 288.098857 
L 499.977184 286.799647 
L 502.299848 285.895849 
L 503.46118 285.613413 
L 504.622513 285.472194 
L 505.783845 285.443951 
L 506.945177 285.528682 
L 509.267841 286.093555 
L 511.590505 287.166815 
L 513.91317 288.66373 
L 516.235834 290.556057 
L 519.71983 293.917055 
L 523.203827 297.588733 
L 529.010487 303.717612 
L 533.655816 308.208357 
L 539.462477 313.29222 
L 542.946473 316.144831 
L 546.430469 318.799737 
L 548.753134 320.381384 
L 551.075798 321.793568 
L 553.398462 322.951558 
L 555.721126 323.827113 
L 558.043791 324.363742 
L 560.366455 324.533205 
L 561.527787 324.476717 
L 563.850451 324.053062 
L 566.173116 323.233995 
L 568.49578 322.047761 
L 570.818444 320.494358 
L 573.141108 318.630275 
L 576.625105 315.466983 
L 589.399758 303.124495 
L 594.045087 299.057405 
L 599.851747 294.227735 
L 604.497076 290.612544 
L 607.981072 288.268319 
L 610.303737 286.969109 
L 612.626401 285.952337 
L 614.949065 285.330976 
L 616.110397 285.161514 
L 617.271729 285.105026 
L 618.433062 285.161514 
L 619.594394 285.35922 
L 621.917058 286.150043 
L 623.07839 286.714916 
L 625.401054 288.296562 
L 627.723719 290.443082 
L 630.046383 293.154475 
L 632.369047 296.374255 
L 634.691711 300.074177 
L 637.014376 304.225998 
L 639.33704 308.744987 
L 642.821036 316.088344 
L 646.305033 324.024818 
L 649.789029 332.413191 
L 654.434358 344.332025 
L 661.402351 362.605686 
L 663.725015 368.08496 
L 666.047679 372.858142 
L 667.209011 374.891687 
L 668.370343 376.671039 
L 669.531675 378.13971 
L 670.693008 379.354189 
L 671.85434 380.229743 
L 673.015672 380.82286 
L 674.177004 381.161784 
L 675.338336 381.218272 
L 676.499668 381.048809 
L 677.661 380.653398 
L 678.822333 380.116768 
L 681.144997 378.648097 
L 684.628993 375.90846 
L 691.596986 370.287967 
L 696.242315 366.672776 
L 699.726311 363.650702 
L 702.048975 361.391208 
L 704.371639 358.849276 
L 706.694304 356.053152 
L 709.016968 352.974591 
L 711.339632 349.613593 
L 714.823629 344.134319 
L 719.468957 336.141357 
L 728.759614 319.562317 
L 732.243611 313.772362 
L 735.727607 308.46255 
L 739.211603 303.576394 
L 742.6956 299.029161 
L 747.340928 293.408669 
L 750.824925 289.539284 
L 753.147589 287.308034 
L 755.470253 285.472194 
L 756.631585 284.766102 
L 757.792918 284.229472 
L 758.95425 283.862304 
L 760.115582 283.692842 
L 761.276914 283.74933 
L 762.438246 284.003523 
L 763.599578 284.540153 
L 764.76091 285.274489 
L 765.922243 286.291261 
L 767.083575 287.505739 
L 768.244907 288.974411 
L 770.567571 292.533114 
L 772.890235 296.79791 
L 776.374232 304.056536 
L 781.01956 313.941824 
L 783.342225 318.376082 
L 785.664889 322.076004 
L 786.826221 323.601163 
L 787.987553 324.900372 
L 789.148885 325.973632 
L 790.310217 326.792699 
L 791.471549 327.41406 
L 793.794214 328.091908 
L 796.116878 328.317858 
L 798.439542 328.515564 
L 799.600874 328.685026 
L 800.762207 328.967462 
L 803.084871 329.927748 
L 805.407535 331.339932 
L 807.730199 332.86509 
L 808.891531 333.486451 
L 810.052864 333.910107 
L 811.214196 334.079569 
L 812.375528 333.881863 
L 813.53686 333.288746 
L 814.698192 332.243729 
L 815.859524 330.746814 
L 817.020856 328.826244 
L 818.182189 326.482019 
L 819.343521 323.770625 
L 821.666185 317.557015 
L 827.472846 301.062706 
L 829.79551 295.41397 
L 830.956842 292.95677 
L 833.279506 288.833192 
L 834.440838 287.195059 
L 835.602171 285.782875 
L 836.763503 284.59664 
L 839.086167 282.817288 
L 841.408831 281.631054 
L 843.731495 280.727256 
L 847.215492 279.484534 
L 851.86082 277.450989 
L 855.344817 275.841099 
L 857.667481 275.022032 
L 859.990145 274.626621 
L 861.151477 274.626621 
L 862.31281 274.767839 
L 863.474142 275.07852 
L 864.635474 275.530419 
L 865.796806 276.123536 
L 868.11947 277.761669 
L 870.442134 279.823458 
L 876.248795 285.754631 
L 880.894124 290.358351 
L 884.37812 293.747593 
L 886.700784 296.26128 
L 889.023449 299.142136 
L 891.346113 302.503134 
L 893.668777 306.457249 
L 895.991441 310.919751 
L 899.475438 318.263107 
L 906.443431 333.147527 
L 908.766095 337.69476 
L 912.250091 343.936613 
L 914.572756 347.74951 
L 916.89542 351.223483 
L 919.218084 354.386775 
L 921.540748 357.126412 
L 922.70208 358.312647 
L 925.024745 360.204973 
L 926.186077 360.939309 
L 927.347409 361.475939 
L 928.508741 361.814863 
L 929.670073 361.984325 
L 930.831405 361.956081 
L 931.992738 361.758376 
L 933.15407 361.391208 
L 934.315402 360.882822 
L 936.638066 359.498881 
L 940.122062 356.843975 
L 943.606059 354.132582 
L 945.928723 352.522692 
L 948.251387 351.195239 
L 950.574052 350.093736 
L 954.058048 348.653308 
L 956.380712 347.693023 
L 959.864709 345.970158 
L 963.348705 343.908369 
L 966.832702 341.790093 
L 969.155366 340.575615 
L 971.47803 339.728305 
L 973.800694 339.30465 
L 976.123359 339.276406 
L 979.607355 339.700061 
L 981.930019 339.92601 
L 983.091351 339.92601 
L 984.252684 339.784792 
L 985.414016 339.502355 
L 986.575348 339.050456 
L 987.73668 338.400852 
L 988.898012 337.553541 
L 990.059344 336.508525 
L 992.382008 333.93835 
L 994.704673 330.831545 
L 1001.672666 321.002744 
L 1003.99533 318.178376 
L 1006.317994 315.692933 
L 1009.80199 312.52964 
L 1013.285987 309.76176 
L 1015.608651 308.067139 
L 1019.092648 305.807644 
L 1021.415312 304.564922 
L 1023.737976 303.661125 
L 1026.06064 303.209226 
L 1028.383305 303.237469 
L 1030.705969 303.774099 
L 1033.028633 304.762628 
L 1035.351297 306.033594 
L 1043.480622 311.117456 
L 1046.964619 312.868564 
L 1049.287283 313.772362 
L 1051.609947 314.506698 
L 1053.932612 315.043328 
L 1056.255276 315.354008 
L 1058.57794 315.410496 
L 1060.900604 315.184546 
L 1063.223269 314.619673 
L 1065.545933 313.659388 
L 1067.868597 312.247203 
L 1069.029929 311.371649 
L 1071.352594 309.22513 
L 1073.675258 306.570224 
L 1075.997922 303.519906 
L 1081.804583 295.498701 
L 1082.965915 294.171248 
L 1084.127247 293.013257 
L 1085.288579 292.109459 
L 1086.449911 291.459855 
L 1087.611243 291.092687 
L 1088.772576 291.036199 
L 1089.933908 291.262149 
L 1091.09524 291.798779 
L 1092.256572 292.617845 
L 1093.417904 293.662862 
L 1095.740568 296.289524 
L 1100.385897 301.93826 
L 1101.547229 303.096251 
L 1102.708561 304.056536 
L 1103.869893 304.790872 
L 1105.031225 305.271014 
L 1106.192558 305.46872 
L 1107.35389 305.412233 
L 1108.515222 305.073309 
L 1109.676554 304.536679 
L 1110.837886 303.802343 
L 1113.16055 301.825285 
L 1116.644547 298.210094 
L 1120.128543 294.538416 
L 1122.451207 292.335409 
L 1124.773872 290.414838 
L 1127.096536 288.804949 
L 1129.4192 287.562227 
L 1131.741864 286.714916 
L 1132.903197 286.432479 
L 1134.064529 286.291261 
L 1135.225861 286.263017 
L 1136.387193 286.347748 
L 1138.709857 286.912622 
L 1139.871189 287.392765 
L 1142.193854 288.748461 
L 1144.516518 290.612544 
L 1146.839182 292.900282 
L 1149.161846 295.526945 
L 1152.645843 299.876471 
L 1157.291171 305.779401 
L 1160.775168 309.790003 
L 1163.097832 312.190716 
L 1166.581828 315.297521 
L 1170.065825 318.065402 
L 1175.872486 322.640878 
L 1179.356482 325.719439 
L 1182.840478 329.193412 
L 1192.131135 338.824507 
L 1195.615132 341.931312 
L 1199.099128 344.614461 
L 1208.389785 351.27997 
L 1210.71245 353.313515 
L 1213.035114 355.657741 
L 1215.357778 358.256159 
L 1224.648435 369.4689 
L 1225.809767 370.54216 
L 1226.971099 371.445958 
L 1228.132432 372.180294 
L 1229.293764 372.660436 
L 1230.455096 372.914629 
L 1231.616428 372.886386 
L 1232.77776 372.603949 
L 1233.939092 372.010832 
L 1235.100424 371.107034 
L 1236.261756 369.949043 
L 1237.423089 368.508615 
L 1238.584421 366.813994 
L 1240.907085 362.775148 
L 1243.229749 358.086697 
L 1250.197742 343.315252 
L 1252.520406 339.0787 
L 1254.843071 335.435265 
L 1257.165735 332.356704 
L 1259.488399 329.758285 
L 1262.972396 326.256069 
L 1266.456392 322.697365 
L 1268.779056 320.070703 
L 1272.263053 315.805907 
L 1275.747049 311.541111 
L 1278.069713 309.027424 
L 1279.231045 307.982408 
L 1280.392378 307.106854 
L 1281.55371 306.372518 
L 1282.715042 305.864132 
L 1283.876374 305.581695 
L 1285.037706 305.46872 
L 1286.199038 305.581695 
L 1287.36037 305.892375 
L 1288.521702 306.372518 
L 1289.683035 306.993879 
L 1292.005699 308.632012 
L 1300.135024 315.043328 
L 1302.457688 316.229562 
L 1303.61902 316.653218 
L 1305.941684 317.105117 
L 1307.103017 317.13336 
L 1308.264349 317.048629 
L 1310.587013 316.568487 
L 1310.587013 316.568487 
" style="fill:none;stroke:#4c72b0;stroke-linecap:round;stroke-width:1.5;"/>
   </g>
   <g id="patch_8">
    <path d="M 78.994286 429.942857 
L 78.994286 242.82 
" style="fill:none;stroke:#ffffff;stroke-linecap:square;stroke-linejoin:miter;stroke-width:1.25;"/>
   </g>
   <g id="patch_9">
    <path d="M 1369.234286 429.942857 
L 1369.234286 242.82 
" style="fill:none;stroke:#ffffff;stroke-linecap:square;stroke-linejoin:miter;stroke-width:1.25;"/>
   </g>
   <g id="patch_10">
    <path d="M 78.994286 429.942857 
L 1369.234286 429.942857 
" style="fill:none;stroke:#ffffff;stroke-linecap:square;stroke-linejoin:miter;stroke-width:1.25;"/>
   </g>
   <g id="patch_11">
    <path d="M 78.994286 242.82 
L 1369.234286 242.82 
" style="fill:none;stroke:#ffffff;stroke-linecap:square;stroke-linejoin:miter;stroke-width:1.25;"/>
   </g>
  </g>
  <g id="axes_3">
   <g id="patch_12">
    <path d="M 78.994286 654.490286 
L 1369.234286 654.490286 
L 1369.234286 467.367429 
L 78.994286 467.367429 
z
" style="fill:#eaeaf2;"/>
   </g>
   <g id="matplotlib.axis_5">
    <g id="xtick_23">
     <g id="line2d_37">
      <path clip-path="url(#pad5b38d2c9)" d="M 137.641558 654.490286 
L 137.641558 467.367429 
" style="fill:none;stroke:#ffffff;stroke-linecap:round;"/>
     </g>
     <g id="text_38">
      <!-- 0 -->
      <g style="fill:#262626;" transform="translate(134.583043 671.863879)scale(0.11 -0.11)">
       <use xlink:href="#ArialMT-30"/>
      </g>
     </g>
    </g>
    <g id="xtick_24">
     <g id="line2d_38">
      <path clip-path="url(#pad5b38d2c9)" d="M 253.774772 654.490286 
L 253.774772 467.367429 
" style="fill:none;stroke:#ffffff;stroke-linecap:round;"/>
     </g>
     <g id="text_39">
      <!-- 1 -->
      <g style="fill:#262626;" transform="translate(250.716256 671.863879)scale(0.11 -0.11)">
       <use xlink:href="#ArialMT-31"/>
      </g>
     </g>
    </g>
    <g id="xtick_25">
     <g id="line2d_39">
      <path clip-path="url(#pad5b38d2c9)" d="M 369.907985 654.490286 
L 369.907985 467.367429 
" style="fill:none;stroke:#ffffff;stroke-linecap:round;"/>
     </g>
     <g id="text_40">
      <!-- 2 -->
      <g style="fill:#262626;" transform="translate(366.849469 671.863879)scale(0.11 -0.11)">
       <use xlink:href="#ArialMT-32"/>
      </g>
     </g>
    </g>
    <g id="xtick_26">
     <g id="line2d_40">
      <path clip-path="url(#pad5b38d2c9)" d="M 486.041198 654.490286 
L 486.041198 467.367429 
" style="fill:none;stroke:#ffffff;stroke-linecap:round;"/>
     </g>
     <g id="text_41">
      <!-- 3 -->
      <g style="fill:#262626;" transform="translate(482.982683 671.863879)scale(0.11 -0.11)">
       <use xlink:href="#ArialMT-33"/>
      </g>
     </g>
    </g>
    <g id="xtick_27">
     <g id="line2d_41">
      <path clip-path="url(#pad5b38d2c9)" d="M 602.174412 654.490286 
L 602.174412 467.367429 
" style="fill:none;stroke:#ffffff;stroke-linecap:round;"/>
     </g>
     <g id="text_42">
      <!-- 4 -->
      <g style="fill:#262626;" transform="translate(599.115896 671.863879)scale(0.11 -0.11)">
       <use xlink:href="#ArialMT-34"/>
      </g>
     </g>
    </g>
    <g id="xtick_28">
     <g id="line2d_42">
      <path clip-path="url(#pad5b38d2c9)" d="M 718.307625 654.490286 
L 718.307625 467.367429 
" style="fill:none;stroke:#ffffff;stroke-linecap:round;"/>
     </g>
     <g id="text_43">
      <!-- 5 -->
      <g style="fill:#262626;" transform="translate(715.249109 671.863879)scale(0.11 -0.11)">
       <use xlink:href="#ArialMT-35"/>
      </g>
     </g>
    </g>
    <g id="xtick_29">
     <g id="line2d_43">
      <path clip-path="url(#pad5b38d2c9)" d="M 834.440838 654.490286 
L 834.440838 467.367429 
" style="fill:none;stroke:#ffffff;stroke-linecap:round;"/>
     </g>
     <g id="text_44">
      <!-- 6 -->
      <g style="fill:#262626;" transform="translate(831.382323 671.863879)scale(0.11 -0.11)">
       <use xlink:href="#ArialMT-36"/>
      </g>
     </g>
    </g>
    <g id="xtick_30">
     <g id="line2d_44">
      <path clip-path="url(#pad5b38d2c9)" d="M 950.574052 654.490286 
L 950.574052 467.367429 
" style="fill:none;stroke:#ffffff;stroke-linecap:round;"/>
     </g>
     <g id="text_45">
      <!-- 7 -->
      <g style="fill:#262626;" transform="translate(947.515536 671.863879)scale(0.11 -0.11)">
       <use xlink:href="#ArialMT-37"/>
      </g>
     </g>
    </g>
    <g id="xtick_31">
     <g id="line2d_45">
      <path clip-path="url(#pad5b38d2c9)" d="M 1066.707265 654.490286 
L 1066.707265 467.367429 
" style="fill:none;stroke:#ffffff;stroke-linecap:round;"/>
     </g>
     <g id="text_46">
      <!-- 8 -->
      <g style="fill:#262626;" transform="translate(1063.648749 671.863879)scale(0.11 -0.11)">
       <use xlink:href="#ArialMT-38"/>
      </g>
     </g>
    </g>
    <g id="xtick_32">
     <g id="line2d_46">
      <path clip-path="url(#pad5b38d2c9)" d="M 1182.840478 654.490286 
L 1182.840478 467.367429 
" style="fill:none;stroke:#ffffff;stroke-linecap:round;"/>
     </g>
     <g id="text_47">
      <!-- 9 -->
      <g style="fill:#262626;" transform="translate(1179.781963 671.863879)scale(0.11 -0.11)">
       <use xlink:href="#ArialMT-39"/>
      </g>
     </g>
    </g>
    <g id="xtick_33">
     <g id="line2d_47">
      <path clip-path="url(#pad5b38d2c9)" d="M 1298.973692 654.490286 
L 1298.973692 467.367429 
" style="fill:none;stroke:#ffffff;stroke-linecap:round;"/>
     </g>
     <g id="text_48">
      <!-- 10 -->
      <g style="fill:#262626;" transform="translate(1292.85666 671.863879)scale(0.11 -0.11)">
       <use xlink:href="#ArialMT-31"/>
       <use x="55.615234" xlink:href="#ArialMT-30"/>
      </g>
     </g>
    </g>
    <g id="text_49">
     <!-- t [ps] -->
     <g style="fill:#262626;" transform="translate(711.110223 686.639504)scale(0.12 -0.12)">
      <defs>
       <path d="M 1650 503 
L 1731 6 
Q 1494 -44 1306 -44 
Q 1000 -44 831 53 
Q 663 150 594 308 
Q 525 466 525 972 
L 525 2881 
L 113 2881 
L 113 3319 
L 525 3319 
L 525 4141 
L 1084 4478 
L 1084 3319 
L 1650 3319 
L 1650 2881 
L 1084 2881 
L 1084 941 
Q 1084 700 1114 631 
Q 1144 563 1211 522 
Q 1278 481 1403 481 
Q 1497 481 1650 503 
z
" id="ArialMT-74" transform="scale(0.015625)"/>
       <path d="M 422 -1272 
L 422 3319 
L 934 3319 
L 934 2888 
Q 1116 3141 1344 3267 
Q 1572 3394 1897 3394 
Q 2322 3394 2647 3175 
Q 2972 2956 3137 2557 
Q 3303 2159 3303 1684 
Q 3303 1175 3120 767 
Q 2938 359 2589 142 
Q 2241 -75 1856 -75 
Q 1575 -75 1351 44 
Q 1128 163 984 344 
L 984 -1272 
L 422 -1272 
z
M 931 1641 
Q 931 1000 1190 694 
Q 1450 388 1819 388 
Q 2194 388 2461 705 
Q 2728 1022 2728 1688 
Q 2728 2322 2467 2637 
Q 2206 2953 1844 2953 
Q 1484 2953 1207 2617 
Q 931 2281 931 1641 
z
" id="ArialMT-70" transform="scale(0.015625)"/>
      </defs>
      <use xlink:href="#ArialMT-74"/>
      <use x="27.783203" xlink:href="#ArialMT-20"/>
      <use x="55.566406" xlink:href="#ArialMT-5b"/>
      <use x="83.349609" xlink:href="#ArialMT-70"/>
      <use x="138.964844" xlink:href="#ArialMT-73"/>
      <use x="188.964844" xlink:href="#ArialMT-5d"/>
     </g>
    </g>
   </g>
   <g id="matplotlib.axis_6">
    <g id="ytick_13">
     <g id="line2d_48">
      <path clip-path="url(#pad5b38d2c9)" d="M 78.994286 628.973532 
L 1369.234286 628.973532 
" style="fill:none;stroke:#ffffff;stroke-linecap:round;"/>
     </g>
     <g id="text_50">
      <!-- −0.04 -->
      <g style="fill:#262626;" transform="translate(41.662567 632.910329)scale(0.11 -0.11)">
       <use xlink:href="#ArialMT-2212"/>
       <use x="58.398438" xlink:href="#ArialMT-30"/>
       <use x="114.013672" xlink:href="#ArialMT-2e"/>
       <use x="141.796875" xlink:href="#ArialMT-30"/>
       <use x="197.412109" xlink:href="#ArialMT-34"/>
      </g>
     </g>
    </g>
    <g id="ytick_14">
     <g id="line2d_49">
      <path clip-path="url(#pad5b38d2c9)" d="M 78.994286 594.951195 
L 1369.234286 594.951195 
" style="fill:none;stroke:#ffffff;stroke-linecap:round;"/>
     </g>
     <g id="text_51">
      <!-- −0.02 -->
      <g style="fill:#262626;" transform="translate(41.662567 598.887992)scale(0.11 -0.11)">
       <use xlink:href="#ArialMT-2212"/>
       <use x="58.398438" xlink:href="#ArialMT-30"/>
       <use x="114.013672" xlink:href="#ArialMT-2e"/>
       <use x="141.796875" xlink:href="#ArialMT-30"/>
       <use x="197.412109" xlink:href="#ArialMT-32"/>
      </g>
     </g>
    </g>
    <g id="ytick_15">
     <g id="line2d_50">
      <path clip-path="url(#pad5b38d2c9)" d="M 78.994286 560.928857 
L 1369.234286 560.928857 
" style="fill:none;stroke:#ffffff;stroke-linecap:round;"/>
     </g>
     <g id="text_52">
      <!-- 0.00 -->
      <g style="fill:#262626;" transform="translate(48.087254 564.865654)scale(0.11 -0.11)">
       <use xlink:href="#ArialMT-30"/>
       <use x="55.615234" xlink:href="#ArialMT-2e"/>
       <use x="83.398438" xlink:href="#ArialMT-30"/>
       <use x="139.013672" xlink:href="#ArialMT-30"/>
      </g>
     </g>
    </g>
    <g id="ytick_16">
     <g id="line2d_51">
      <path clip-path="url(#pad5b38d2c9)" d="M 78.994286 526.906519 
L 1369.234286 526.906519 
" style="fill:none;stroke:#ffffff;stroke-linecap:round;"/>
     </g>
     <g id="text_53">
      <!-- 0.02 -->
      <g style="fill:#262626;" transform="translate(48.087254 530.843316)scale(0.11 -0.11)">
       <use xlink:href="#ArialMT-30"/>
       <use x="55.615234" xlink:href="#ArialMT-2e"/>
       <use x="83.398438" xlink:href="#ArialMT-30"/>
       <use x="139.013672" xlink:href="#ArialMT-32"/>
      </g>
     </g>
    </g>
    <g id="ytick_17">
     <g id="line2d_52">
      <path clip-path="url(#pad5b38d2c9)" d="M 78.994286 492.884182 
L 1369.234286 492.884182 
" style="fill:none;stroke:#ffffff;stroke-linecap:round;"/>
     </g>
     <g id="text_54">
      <!-- 0.04 -->
      <g style="fill:#262626;" transform="translate(48.087254 496.820979)scale(0.11 -0.11)">
       <use xlink:href="#ArialMT-30"/>
       <use x="55.615234" xlink:href="#ArialMT-2e"/>
       <use x="83.398438" xlink:href="#ArialMT-30"/>
       <use x="139.013672" xlink:href="#ArialMT-34"/>
      </g>
     </g>
    </g>
    <g id="text_55">
     <!-- P [atm] -->
     <g style="fill:#262626;" transform="translate(35.277567 579.82792)rotate(-90)scale(0.12 -0.12)">
      <defs>
       <path d="M 494 0 
L 494 4581 
L 2222 4581 
Q 2678 4581 2919 4538 
Q 3256 4481 3484 4323 
Q 3713 4166 3852 3881 
Q 3991 3597 3991 3256 
Q 3991 2672 3619 2267 
Q 3247 1863 2275 1863 
L 1100 1863 
L 1100 0 
L 494 0 
z
M 1100 2403 
L 2284 2403 
Q 2872 2403 3119 2622 
Q 3366 2841 3366 3238 
Q 3366 3525 3220 3729 
Q 3075 3934 2838 4000 
Q 2684 4041 2272 4041 
L 1100 4041 
L 1100 2403 
z
" id="ArialMT-50" transform="scale(0.015625)"/>
      </defs>
      <use xlink:href="#ArialMT-50"/>
      <use x="64.949219" xlink:href="#ArialMT-20"/>
      <use x="92.732422" xlink:href="#ArialMT-5b"/>
      <use x="120.515625" xlink:href="#ArialMT-61"/>
      <use x="176.130859" xlink:href="#ArialMT-74"/>
      <use x="203.914062" xlink:href="#ArialMT-6d"/>
      <use x="287.214844" xlink:href="#ArialMT-5d"/>
     </g>
    </g>
   </g>
   <g id="line2d_53">
    <path clip-path="url(#pad5b38d2c9)" d="M 137.641558 560.928857 
L 1310.587013 560.928857 
L 1310.587013 560.928857 
" style="fill:none;stroke:#4c72b0;stroke-linecap:round;stroke-width:1.5;"/>
   </g>
   <g id="patch_13">
    <path d="M 78.994286 654.490286 
L 78.994286 467.367429 
" style="fill:none;stroke:#ffffff;stroke-linecap:square;stroke-linejoin:miter;stroke-width:1.25;"/>
   </g>
   <g id="patch_14">
    <path d="M 1369.234286 654.490286 
L 1369.234286 467.367429 
" style="fill:none;stroke:#ffffff;stroke-linecap:square;stroke-linejoin:miter;stroke-width:1.25;"/>
   </g>
   <g id="patch_15">
    <path d="M 78.994286 654.490286 
L 1369.234286 654.490286 
" style="fill:none;stroke:#ffffff;stroke-linecap:square;stroke-linejoin:miter;stroke-width:1.25;"/>
   </g>
   <g id="patch_16">
    <path d="M 78.994286 467.367429 
L 1369.234286 467.367429 
" style="fill:none;stroke:#ffffff;stroke-linecap:square;stroke-linejoin:miter;stroke-width:1.25;"/>
   </g>
  </g>
 </g>
 <defs>
  <clipPath id="p4092d07e10">
   <rect height="187.122857" width="1290.24" x="78.994286" y="18.272571"/>
  </clipPath>
  <clipPath id="pe7e13d0340">
   <rect height="187.122857" width="1290.24" x="78.994286" y="242.82"/>
  </clipPath>
  <clipPath id="pad5b38d2c9">
   <rect height="187.122857" width="1290.24" x="78.994286" y="467.367429"/>
  </clipPath>
 </defs>
</svg>
