<?xml version="1.0" encoding="utf-8" standalone="no"?>
<!DOCTYPE svg PUBLIC "-//W3C//DTD SVG 1.1//EN"
  "http://www.w3.org/Graphics/SVG/1.1/DTD/svg11.dtd">
<svg height="697.68pt" version="1.1" viewBox="0 0 1382.4 697.68" width="1382.4pt" xmlns="http://www.w3.org/2000/svg" xmlns:xlink="http://www.w3.org/1999/xlink">
 <metadata>
  <rdf:RDF xmlns:cc="http://creativecommons.org/ns#" xmlns:dc="http://purl.org/dc/elements/1.1/" xmlns:rdf="http://www.w3.org/1999/02/22-rdf-syntax-ns#">
   <cc:Work>
    <dc:type rdf:resource="http://purl.org/dc/dcmitype/StillImage"/>
    <dc:date>2021-11-05T20:45:18.443375</dc:date>
    <dc:format>image/svg+xml</dc:format>
    <dc:creator>
     <cc:Agent>
      <dc:title>Matplotlib v3.4.3, https://matplotlib.org/</dc:title>
     </cc:Agent>
    </dc:creator>
   </cc:Work>
  </rdf:RDF>
 </metadata>
 <defs>
  <style type="text/css">*{stroke-linecap:butt;stroke-linejoin:round;}</style>
 </defs>
 <g id="figure_1">
  <g id="patch_1">
   <path d="M 0 697.68 
L 1382.4 697.68 
L 1382.4 0 
L 0 0 
z
" style="fill:#ffffff;"/>
  </g>
  <g id="axes_1">
   <g id="patch_2">
    <path d="M 65.828571 204.027429 
L 1365.942857 204.027429 
L 1365.942857 14.950286 
L 65.828571 14.950286 
z
" style="fill:#eaeaf2;"/>
   </g>
   <g id="matplotlib.axis_1">
    <g id="xtick_1">
     <g id="line2d_1">
      <path clip-path="url(#p803633bd6d)" d="M 124.924675 204.027429 
L 124.924675 14.950286 
" style="fill:none;stroke:#ffffff;stroke-linecap:round;"/>
     </g>
     <g id="text_1">
      <!-- 0 -->
      <g style="fill:#262626;" transform="translate(121.86616 221.401022)scale(0.11 -0.11)">
       <defs>
        <path d="M 266 2259 
Q 266 3072 433 3567 
Q 600 4063 929 4331 
Q 1259 4600 1759 4600 
Q 2128 4600 2406 4451 
Q 2684 4303 2865 4023 
Q 3047 3744 3150 3342 
Q 3253 2941 3253 2259 
Q 3253 1453 3087 958 
Q 2922 463 2592 192 
Q 2263 -78 1759 -78 
Q 1097 -78 719 397 
Q 266 969 266 2259 
z
M 844 2259 
Q 844 1131 1108 757 
Q 1372 384 1759 384 
Q 2147 384 2411 759 
Q 2675 1134 2675 2259 
Q 2675 3391 2411 3762 
Q 2147 4134 1753 4134 
Q 1366 4134 1134 3806 
Q 844 3388 844 2259 
z
" id="ArialMT-30" transform="scale(0.015625)"/>
       </defs>
       <use xlink:href="#ArialMT-30"/>
      </g>
     </g>
    </g>
    <g id="xtick_2">
     <g id="line2d_2">
      <path clip-path="url(#p803633bd6d)" d="M 241.946663 204.027429 
L 241.946663 14.950286 
" style="fill:none;stroke:#ffffff;stroke-linecap:round;"/>
     </g>
     <g id="text_2">
      <!-- 1 -->
      <g style="fill:#262626;" transform="translate(238.888148 221.401022)scale(0.11 -0.11)">
       <defs>
        <path d="M 2384 0 
L 1822 0 
L 1822 3584 
Q 1619 3391 1289 3197 
Q 959 3003 697 2906 
L 697 3450 
Q 1169 3672 1522 3987 
Q 1875 4303 2022 4600 
L 2384 4600 
L 2384 0 
z
" id="ArialMT-31" transform="scale(0.015625)"/>
       </defs>
       <use xlink:href="#ArialMT-31"/>
      </g>
     </g>
    </g>
    <g id="xtick_3">
     <g id="line2d_3">
      <path clip-path="url(#p803633bd6d)" d="M 358.968651 204.027429 
L 358.968651 14.950286 
" style="fill:none;stroke:#ffffff;stroke-linecap:round;"/>
     </g>
     <g id="text_3">
      <!-- 2 -->
      <g style="fill:#262626;" transform="translate(355.910136 221.401022)scale(0.11 -0.11)">
       <defs>
        <path d="M 3222 541 
L 3222 0 
L 194 0 
Q 188 203 259 391 
Q 375 700 629 1000 
Q 884 1300 1366 1694 
Q 2113 2306 2375 2664 
Q 2638 3022 2638 3341 
Q 2638 3675 2398 3904 
Q 2159 4134 1775 4134 
Q 1369 4134 1125 3890 
Q 881 3647 878 3216 
L 300 3275 
Q 359 3922 746 4261 
Q 1134 4600 1788 4600 
Q 2447 4600 2831 4234 
Q 3216 3869 3216 3328 
Q 3216 3053 3103 2787 
Q 2991 2522 2730 2228 
Q 2469 1934 1863 1422 
Q 1356 997 1212 845 
Q 1069 694 975 541 
L 3222 541 
z
" id="ArialMT-32" transform="scale(0.015625)"/>
       </defs>
       <use xlink:href="#ArialMT-32"/>
      </g>
     </g>
    </g>
    <g id="xtick_4">
     <g id="line2d_4">
      <path clip-path="url(#p803633bd6d)" d="M 475.990639 204.027429 
L 475.990639 14.950286 
" style="fill:none;stroke:#ffffff;stroke-linecap:round;"/>
     </g>
     <g id="text_4">
      <!-- 3 -->
      <g style="fill:#262626;" transform="translate(472.932123 221.401022)scale(0.11 -0.11)">
       <defs>
        <path d="M 269 1209 
L 831 1284 
Q 928 806 1161 595 
Q 1394 384 1728 384 
Q 2125 384 2398 659 
Q 2672 934 2672 1341 
Q 2672 1728 2419 1979 
Q 2166 2231 1775 2231 
Q 1616 2231 1378 2169 
L 1441 2663 
Q 1497 2656 1531 2656 
Q 1891 2656 2178 2843 
Q 2466 3031 2466 3422 
Q 2466 3731 2256 3934 
Q 2047 4138 1716 4138 
Q 1388 4138 1169 3931 
Q 950 3725 888 3313 
L 325 3413 
Q 428 3978 793 4289 
Q 1159 4600 1703 4600 
Q 2078 4600 2393 4439 
Q 2709 4278 2876 4000 
Q 3044 3722 3044 3409 
Q 3044 3113 2884 2869 
Q 2725 2625 2413 2481 
Q 2819 2388 3044 2092 
Q 3269 1797 3269 1353 
Q 3269 753 2831 336 
Q 2394 -81 1725 -81 
Q 1122 -81 723 278 
Q 325 638 269 1209 
z
" id="ArialMT-33" transform="scale(0.015625)"/>
       </defs>
       <use xlink:href="#ArialMT-33"/>
      </g>
     </g>
    </g>
    <g id="xtick_5">
     <g id="line2d_5">
      <path clip-path="url(#p803633bd6d)" d="M 593.012627 204.027429 
L 593.012627 14.950286 
" style="fill:none;stroke:#ffffff;stroke-linecap:round;"/>
     </g>
     <g id="text_5">
      <!-- 4 -->
      <g style="fill:#262626;" transform="translate(589.954111 221.401022)scale(0.11 -0.11)">
       <defs>
        <path d="M 2069 0 
L 2069 1097 
L 81 1097 
L 81 1613 
L 2172 4581 
L 2631 4581 
L 2631 1613 
L 3250 1613 
L 3250 1097 
L 2631 1097 
L 2631 0 
L 2069 0 
z
M 2069 1613 
L 2069 3678 
L 634 1613 
L 2069 1613 
z
" id="ArialMT-34" transform="scale(0.015625)"/>
       </defs>
       <use xlink:href="#ArialMT-34"/>
      </g>
     </g>
    </g>
    <g id="xtick_6">
     <g id="line2d_6">
      <path clip-path="url(#p803633bd6d)" d="M 710.034615 204.027429 
L 710.034615 14.950286 
" style="fill:none;stroke:#ffffff;stroke-linecap:round;"/>
     </g>
     <g id="text_6">
      <!-- 5 -->
      <g style="fill:#262626;" transform="translate(706.976099 221.401022)scale(0.11 -0.11)">
       <defs>
        <path d="M 266 1200 
L 856 1250 
Q 922 819 1161 601 
Q 1400 384 1738 384 
Q 2144 384 2425 690 
Q 2706 997 2706 1503 
Q 2706 1984 2436 2262 
Q 2166 2541 1728 2541 
Q 1456 2541 1237 2417 
Q 1019 2294 894 2097 
L 366 2166 
L 809 4519 
L 3088 4519 
L 3088 3981 
L 1259 3981 
L 1013 2750 
Q 1425 3038 1878 3038 
Q 2478 3038 2890 2622 
Q 3303 2206 3303 1553 
Q 3303 931 2941 478 
Q 2500 -78 1738 -78 
Q 1113 -78 717 272 
Q 322 622 266 1200 
z
" id="ArialMT-35" transform="scale(0.015625)"/>
       </defs>
       <use xlink:href="#ArialMT-35"/>
      </g>
     </g>
    </g>
    <g id="xtick_7">
     <g id="line2d_7">
      <path clip-path="url(#p803633bd6d)" d="M 827.056603 204.027429 
L 827.056603 14.950286 
" style="fill:none;stroke:#ffffff;stroke-linecap:round;"/>
     </g>
     <g id="text_7">
      <!-- 6 -->
      <g style="fill:#262626;" transform="translate(823.998087 221.401022)scale(0.11 -0.11)">
       <defs>
        <path d="M 3184 3459 
L 2625 3416 
Q 2550 3747 2413 3897 
Q 2184 4138 1850 4138 
Q 1581 4138 1378 3988 
Q 1113 3794 959 3422 
Q 806 3050 800 2363 
Q 1003 2672 1297 2822 
Q 1591 2972 1913 2972 
Q 2475 2972 2870 2558 
Q 3266 2144 3266 1488 
Q 3266 1056 3080 686 
Q 2894 316 2569 119 
Q 2244 -78 1831 -78 
Q 1128 -78 684 439 
Q 241 956 241 2144 
Q 241 3472 731 4075 
Q 1159 4600 1884 4600 
Q 2425 4600 2770 4297 
Q 3116 3994 3184 3459 
z
M 888 1484 
Q 888 1194 1011 928 
Q 1134 663 1356 523 
Q 1578 384 1822 384 
Q 2178 384 2434 671 
Q 2691 959 2691 1453 
Q 2691 1928 2437 2201 
Q 2184 2475 1800 2475 
Q 1419 2475 1153 2201 
Q 888 1928 888 1484 
z
" id="ArialMT-36" transform="scale(0.015625)"/>
       </defs>
       <use xlink:href="#ArialMT-36"/>
      </g>
     </g>
    </g>
    <g id="xtick_8">
     <g id="line2d_8">
      <path clip-path="url(#p803633bd6d)" d="M 944.078591 204.027429 
L 944.078591 14.950286 
" style="fill:none;stroke:#ffffff;stroke-linecap:round;"/>
     </g>
     <g id="text_8">
      <!-- 7 -->
      <g style="fill:#262626;" transform="translate(941.020075 221.401022)scale(0.11 -0.11)">
       <defs>
        <path d="M 303 3981 
L 303 4522 
L 3269 4522 
L 3269 4084 
Q 2831 3619 2401 2847 
Q 1972 2075 1738 1259 
Q 1569 684 1522 0 
L 944 0 
Q 953 541 1156 1306 
Q 1359 2072 1739 2783 
Q 2119 3494 2547 3981 
L 303 3981 
z
" id="ArialMT-37" transform="scale(0.015625)"/>
       </defs>
       <use xlink:href="#ArialMT-37"/>
      </g>
     </g>
    </g>
    <g id="xtick_9">
     <g id="line2d_9">
      <path clip-path="url(#p803633bd6d)" d="M 1061.100579 204.027429 
L 1061.100579 14.950286 
" style="fill:none;stroke:#ffffff;stroke-linecap:round;"/>
     </g>
     <g id="text_9">
      <!-- 8 -->
      <g style="fill:#262626;" transform="translate(1058.042063 221.401022)scale(0.11 -0.11)">
       <defs>
        <path d="M 1131 2484 
Q 781 2613 612 2850 
Q 444 3088 444 3419 
Q 444 3919 803 4259 
Q 1163 4600 1759 4600 
Q 2359 4600 2725 4251 
Q 3091 3903 3091 3403 
Q 3091 3084 2923 2848 
Q 2756 2613 2416 2484 
Q 2838 2347 3058 2040 
Q 3278 1734 3278 1309 
Q 3278 722 2862 322 
Q 2447 -78 1769 -78 
Q 1091 -78 675 323 
Q 259 725 259 1325 
Q 259 1772 486 2073 
Q 713 2375 1131 2484 
z
M 1019 3438 
Q 1019 3113 1228 2906 
Q 1438 2700 1772 2700 
Q 2097 2700 2305 2904 
Q 2513 3109 2513 3406 
Q 2513 3716 2298 3927 
Q 2084 4138 1766 4138 
Q 1444 4138 1231 3931 
Q 1019 3725 1019 3438 
z
M 838 1322 
Q 838 1081 952 856 
Q 1066 631 1291 507 
Q 1516 384 1775 384 
Q 2178 384 2440 643 
Q 2703 903 2703 1303 
Q 2703 1709 2433 1975 
Q 2163 2241 1756 2241 
Q 1359 2241 1098 1978 
Q 838 1716 838 1322 
z
" id="ArialMT-38" transform="scale(0.015625)"/>
       </defs>
       <use xlink:href="#ArialMT-38"/>
      </g>
     </g>
    </g>
    <g id="xtick_10">
     <g id="line2d_10">
      <path clip-path="url(#p803633bd6d)" d="M 1178.122567 204.027429 
L 1178.122567 14.950286 
" style="fill:none;stroke:#ffffff;stroke-linecap:round;"/>
     </g>
     <g id="text_10">
      <!-- 9 -->
      <g style="fill:#262626;" transform="translate(1175.064051 221.401022)scale(0.11 -0.11)">
       <defs>
        <path d="M 350 1059 
L 891 1109 
Q 959 728 1153 556 
Q 1347 384 1650 384 
Q 1909 384 2104 503 
Q 2300 622 2425 820 
Q 2550 1019 2634 1356 
Q 2719 1694 2719 2044 
Q 2719 2081 2716 2156 
Q 2547 1888 2255 1720 
Q 1963 1553 1622 1553 
Q 1053 1553 659 1965 
Q 266 2378 266 3053 
Q 266 3750 677 4175 
Q 1088 4600 1706 4600 
Q 2153 4600 2523 4359 
Q 2894 4119 3086 3673 
Q 3278 3228 3278 2384 
Q 3278 1506 3087 986 
Q 2897 466 2520 194 
Q 2144 -78 1638 -78 
Q 1100 -78 759 220 
Q 419 519 350 1059 
z
M 2653 3081 
Q 2653 3566 2395 3850 
Q 2138 4134 1775 4134 
Q 1400 4134 1122 3828 
Q 844 3522 844 3034 
Q 844 2597 1108 2323 
Q 1372 2050 1759 2050 
Q 2150 2050 2401 2323 
Q 2653 2597 2653 3081 
z
" id="ArialMT-39" transform="scale(0.015625)"/>
       </defs>
       <use xlink:href="#ArialMT-39"/>
      </g>
     </g>
    </g>
    <g id="xtick_11">
     <g id="line2d_11">
      <path clip-path="url(#p803633bd6d)" d="M 1295.144554 204.027429 
L 1295.144554 14.950286 
" style="fill:none;stroke:#ffffff;stroke-linecap:round;"/>
     </g>
     <g id="text_11">
      <!-- 10 -->
      <g style="fill:#262626;" transform="translate(1289.027523 221.401022)scale(0.11 -0.11)">
       <use xlink:href="#ArialMT-31"/>
       <use x="55.615234" xlink:href="#ArialMT-30"/>
      </g>
     </g>
    </g>
   </g>
   <g id="matplotlib.axis_2">
    <g id="ytick_1">
     <g id="line2d_12">
      <path clip-path="url(#p803633bd6d)" d="M 65.828571 204.027429 
L 1365.942857 204.027429 
" style="fill:none;stroke:#ffffff;stroke-linecap:round;"/>
     </g>
     <g id="text_12">
      <!-- 2147.4 -->
      <g style="fill:#262626;" transform="translate(22.687478 207.964225)scale(0.11 -0.11)">
       <defs>
        <path d="M 581 0 
L 581 641 
L 1222 641 
L 1222 0 
L 581 0 
z
" id="ArialMT-2e" transform="scale(0.015625)"/>
       </defs>
       <use xlink:href="#ArialMT-32"/>
       <use x="55.615234" xlink:href="#ArialMT-31"/>
       <use x="111.230469" xlink:href="#ArialMT-34"/>
       <use x="166.845703" xlink:href="#ArialMT-37"/>
       <use x="222.460938" xlink:href="#ArialMT-2e"/>
       <use x="250.244141" xlink:href="#ArialMT-34"/>
      </g>
     </g>
    </g>
    <g id="ytick_2">
     <g id="line2d_13">
      <path clip-path="url(#p803633bd6d)" d="M 65.828571 169.649766 
L 1365.942857 169.649766 
" style="fill:none;stroke:#ffffff;stroke-linecap:round;"/>
     </g>
     <g id="text_13">
      <!-- 2147.6 -->
      <g style="fill:#262626;" transform="translate(22.687478 173.586563)scale(0.11 -0.11)">
       <use xlink:href="#ArialMT-32"/>
       <use x="55.615234" xlink:href="#ArialMT-31"/>
       <use x="111.230469" xlink:href="#ArialMT-34"/>
       <use x="166.845703" xlink:href="#ArialMT-37"/>
       <use x="222.460938" xlink:href="#ArialMT-2e"/>
       <use x="250.244141" xlink:href="#ArialMT-36"/>
      </g>
     </g>
    </g>
    <g id="ytick_3">
     <g id="line2d_14">
      <path clip-path="url(#p803633bd6d)" d="M 65.828571 135.272104 
L 1365.942857 135.272104 
" style="fill:none;stroke:#ffffff;stroke-linecap:round;"/>
     </g>
     <g id="text_14">
      <!-- 2147.8 -->
      <g style="fill:#262626;" transform="translate(22.687478 139.208901)scale(0.11 -0.11)">
       <use xlink:href="#ArialMT-32"/>
       <use x="55.615234" xlink:href="#ArialMT-31"/>
       <use x="111.230469" xlink:href="#ArialMT-34"/>
       <use x="166.845703" xlink:href="#ArialMT-37"/>
       <use x="222.460938" xlink:href="#ArialMT-2e"/>
       <use x="250.244141" xlink:href="#ArialMT-38"/>
      </g>
     </g>
    </g>
    <g id="ytick_4">
     <g id="line2d_15">
      <path clip-path="url(#p803633bd6d)" d="M 65.828571 100.894442 
L 1365.942857 100.894442 
" style="fill:none;stroke:#ffffff;stroke-linecap:round;"/>
     </g>
     <g id="text_15">
      <!-- 2148.0 -->
      <g style="fill:#262626;" transform="translate(22.687478 104.831238)scale(0.11 -0.11)">
       <use xlink:href="#ArialMT-32"/>
       <use x="55.615234" xlink:href="#ArialMT-31"/>
       <use x="111.230469" xlink:href="#ArialMT-34"/>
       <use x="166.845703" xlink:href="#ArialMT-38"/>
       <use x="222.460938" xlink:href="#ArialMT-2e"/>
       <use x="250.244141" xlink:href="#ArialMT-30"/>
      </g>
     </g>
    </g>
    <g id="ytick_5">
     <g id="line2d_16">
      <path clip-path="url(#p803633bd6d)" d="M 65.828571 66.516779 
L 1365.942857 66.516779 
" style="fill:none;stroke:#ffffff;stroke-linecap:round;"/>
     </g>
     <g id="text_16">
      <!-- 2148.2 -->
      <g style="fill:#262626;" transform="translate(22.687478 70.453576)scale(0.11 -0.11)">
       <use xlink:href="#ArialMT-32"/>
       <use x="55.615234" xlink:href="#ArialMT-31"/>
       <use x="111.230469" xlink:href="#ArialMT-34"/>
       <use x="166.845703" xlink:href="#ArialMT-38"/>
       <use x="222.460938" xlink:href="#ArialMT-2e"/>
       <use x="250.244141" xlink:href="#ArialMT-32"/>
      </g>
     </g>
    </g>
    <g id="ytick_6">
     <g id="line2d_17">
      <path clip-path="url(#p803633bd6d)" d="M 65.828571 32.139117 
L 1365.942857 32.139117 
" style="fill:none;stroke:#ffffff;stroke-linecap:round;"/>
     </g>
     <g id="text_17">
      <!-- 2148.4 -->
      <g style="fill:#262626;" transform="translate(22.687478 36.075914)scale(0.11 -0.11)">
       <use xlink:href="#ArialMT-32"/>
       <use x="55.615234" xlink:href="#ArialMT-31"/>
       <use x="111.230469" xlink:href="#ArialMT-34"/>
       <use x="166.845703" xlink:href="#ArialMT-38"/>
       <use x="222.460938" xlink:href="#ArialMT-2e"/>
       <use x="250.244141" xlink:href="#ArialMT-34"/>
      </g>
     </g>
    </g>
    <g id="text_18">
     <!-- H [kJ/mol] -->
     <g style="fill:#262626;" transform="translate(16.302478 136.156982)rotate(-90)scale(0.12 -0.12)">
      <defs>
       <path d="M 513 0 
L 513 4581 
L 1119 4581 
L 1119 2700 
L 3500 2700 
L 3500 4581 
L 4106 4581 
L 4106 0 
L 3500 0 
L 3500 2159 
L 1119 2159 
L 1119 0 
L 513 0 
z
" id="ArialMT-48" transform="scale(0.015625)"/>
       <path id="ArialMT-20" transform="scale(0.015625)"/>
       <path d="M 434 -1272 
L 434 4581 
L 1675 4581 
L 1675 4116 
L 997 4116 
L 997 -806 
L 1675 -806 
L 1675 -1272 
L 434 -1272 
z
" id="ArialMT-5b" transform="scale(0.015625)"/>
       <path d="M 425 0 
L 425 4581 
L 988 4581 
L 988 1969 
L 2319 3319 
L 3047 3319 
L 1778 2088 
L 3175 0 
L 2481 0 
L 1384 1697 
L 988 1316 
L 988 0 
L 425 0 
z
" id="ArialMT-6b" transform="scale(0.015625)"/>
       <path d="M 184 1300 
L 731 1375 
Q 753 850 928 656 
Q 1103 463 1413 463 
Q 1641 463 1806 567 
Q 1972 672 2034 851 
Q 2097 1031 2097 1425 
L 2097 4581 
L 2703 4581 
L 2703 1459 
Q 2703 884 2564 568 
Q 2425 253 2123 87 
Q 1822 -78 1416 -78 
Q 813 -78 492 269 
Q 172 616 184 1300 
z
" id="ArialMT-4a" transform="scale(0.015625)"/>
       <path d="M 0 -78 
L 1328 4659 
L 1778 4659 
L 453 -78 
L 0 -78 
z
" id="ArialMT-2f" transform="scale(0.015625)"/>
       <path d="M 422 0 
L 422 3319 
L 925 3319 
L 925 2853 
Q 1081 3097 1340 3245 
Q 1600 3394 1931 3394 
Q 2300 3394 2536 3241 
Q 2772 3088 2869 2813 
Q 3263 3394 3894 3394 
Q 4388 3394 4653 3120 
Q 4919 2847 4919 2278 
L 4919 0 
L 4359 0 
L 4359 2091 
Q 4359 2428 4304 2576 
Q 4250 2725 4106 2815 
Q 3963 2906 3769 2906 
Q 3419 2906 3187 2673 
Q 2956 2441 2956 1928 
L 2956 0 
L 2394 0 
L 2394 2156 
Q 2394 2531 2256 2718 
Q 2119 2906 1806 2906 
Q 1569 2906 1367 2781 
Q 1166 2656 1075 2415 
Q 984 2175 984 1722 
L 984 0 
L 422 0 
z
" id="ArialMT-6d" transform="scale(0.015625)"/>
       <path d="M 213 1659 
Q 213 2581 725 3025 
Q 1153 3394 1769 3394 
Q 2453 3394 2887 2945 
Q 3322 2497 3322 1706 
Q 3322 1066 3130 698 
Q 2938 331 2570 128 
Q 2203 -75 1769 -75 
Q 1072 -75 642 372 
Q 213 819 213 1659 
z
M 791 1659 
Q 791 1022 1069 705 
Q 1347 388 1769 388 
Q 2188 388 2466 706 
Q 2744 1025 2744 1678 
Q 2744 2294 2464 2611 
Q 2184 2928 1769 2928 
Q 1347 2928 1069 2612 
Q 791 2297 791 1659 
z
" id="ArialMT-6f" transform="scale(0.015625)"/>
       <path d="M 409 0 
L 409 4581 
L 972 4581 
L 972 0 
L 409 0 
z
" id="ArialMT-6c" transform="scale(0.015625)"/>
       <path d="M 1363 -1272 
L 122 -1272 
L 122 -806 
L 800 -806 
L 800 4116 
L 122 4116 
L 122 4581 
L 1363 4581 
L 1363 -1272 
z
" id="ArialMT-5d" transform="scale(0.015625)"/>
      </defs>
      <use xlink:href="#ArialMT-48"/>
      <use x="72.216797" xlink:href="#ArialMT-20"/>
      <use x="100" xlink:href="#ArialMT-5b"/>
      <use x="127.783203" xlink:href="#ArialMT-6b"/>
      <use x="177.783203" xlink:href="#ArialMT-4a"/>
      <use x="227.783203" xlink:href="#ArialMT-2f"/>
      <use x="255.566406" xlink:href="#ArialMT-6d"/>
      <use x="338.867188" xlink:href="#ArialMT-6f"/>
      <use x="394.482422" xlink:href="#ArialMT-6c"/>
      <use x="416.699219" xlink:href="#ArialMT-5d"/>
     </g>
    </g>
   </g>
   <g id="line2d_18">
    <path clip-path="url(#p803633bd6d)" d="M 124.924675 160.711574 
L 126.094895 161.055351 
L 127.265115 162.430457 
L 128.435335 164.836894 
L 129.605555 167.758995 
L 130.775775 169.821655 
L 131.945995 166.899553 
L 134.286434 150.742052 
L 135.456654 149.195057 
L 136.626874 152.9766 
L 137.797094 158.133249 
L 138.967314 162.086681 
L 140.137534 164.493117 
L 141.307754 165.18067 
L 142.477974 164.321229 
L 144.818413 160.711574 
L 145.988633 159.508356 
L 147.158853 159.164579 
L 148.329073 159.680244 
L 149.499293 160.711574 
L 150.669513 161.055351 
L 151.839733 160.539686 
L 153.009952 159.680244 
L 154.180172 159.508356 
L 155.350392 159.852132 
L 156.520612 160.024021 
L 157.690832 159.852132 
L 158.861052 159.164579 
L 160.031272 158.820803 
L 161.201492 158.820803 
L 162.371711 158.992691 
L 163.541931 158.648914 
L 164.712151 157.961361 
L 165.882371 157.961361 
L 167.052591 158.133249 
L 168.222811 157.961361 
L 171.73347 157.961361 
L 172.90369 157.617584 
L 176.41435 157.101919 
L 178.75479 157.445696 
L 182.265449 156.930031 
L 185.776109 156.930031 
L 186.946329 156.758143 
L 190.456989 156.758143 
L 193.967648 156.242478 
L 196.308088 156.242478 
L 198.648528 156.586255 
L 204.499627 156.586255 
L 205.669847 156.414366 
L 206.840067 156.414366 
L 208.010287 156.242478 
L 209.180507 156.242478 
L 210.350727 156.414366 
L 211.520946 156.414366 
L 212.691166 156.586255 
L 213.861386 156.414366 
L 216.201826 156.414366 
L 217.372046 156.242478 
L 234.925344 156.242478 
L 236.095564 156.414366 
L 238.436004 156.414366 
L 239.606223 156.242478 
L 240.776443 156.242478 
L 241.946663 156.07059 
L 246.627543 156.07059 
L 247.797763 156.242478 
L 258.329742 156.242478 
L 259.499961 156.07059 
L 302.798097 156.07059 
L 305.138537 156.414366 
L 306.308757 156.242478 
L 308.649196 156.242478 
L 309.819416 156.07059 
L 319.181175 156.07059 
L 320.351395 156.242478 
L 327.372714 156.242478 
L 328.542934 156.07059 
L 347.266452 156.07059 
L 348.436672 156.242478 
L 351.947332 156.242478 
L 353.117552 156.07059 
L 356.628211 156.07059 
L 357.798431 155.898701 
L 361.309091 155.898701 
L 362.479311 156.07059 
L 363.649531 156.07059 
L 364.819751 156.242478 
L 367.16019 156.242478 
L 368.33041 156.414366 
L 370.67085 156.414366 
L 371.84107 156.242478 
L 373.01129 156.242478 
L 374.18151 156.414366 
L 380.032609 156.414366 
L 381.202829 156.242478 
L 383.543269 156.586255 
L 384.713488 156.586255 
L 387.053928 156.242478 
L 391.734808 156.242478 
L 392.905028 156.07059 
L 394.075248 156.07059 
L 395.245467 156.586255 
L 396.415687 156.586255 
L 397.585907 156.414366 
L 398.756127 156.414366 
L 399.926347 156.758143 
L 401.096567 156.930031 
L 402.266787 156.930031 
L 403.437007 156.758143 
L 404.607226 156.758143 
L 406.947666 156.07059 
L 409.288106 155.726813 
L 410.458326 155.726813 
L 411.628546 155.898701 
L 413.968985 156.586255 
L 415.139205 157.273808 
L 416.309425 157.445696 
L 420.990305 156.758143 
L 422.160525 156.414366 
L 425.671184 155.898701 
L 428.011624 155.898701 
L 431.522284 156.414366 
L 432.692504 156.414366 
L 435.032943 156.758143 
L 436.203163 156.758143 
L 437.373383 156.242478 
L 438.543603 155.898701 
L 439.713823 155.898701 
L 443.224482 156.414366 
L 446.735142 156.414366 
L 447.905362 156.586255 
L 449.075582 156.414366 
L 452.586241 156.414366 
L 453.756461 155.898701 
L 454.926681 155.03926 
L 457.267121 156.758143 
L 458.437341 157.101919 
L 459.607561 156.930031 
L 460.777781 156.930031 
L 461.948001 156.758143 
L 463.11822 155.898701 
L 464.28844 155.383036 
L 465.45866 156.586255 
L 466.62888 157.273808 
L 470.13954 156.758143 
L 471.30976 156.758143 
L 472.479979 156.414366 
L 473.650199 155.554925 
L 474.820419 155.383036 
L 475.990639 156.414366 
L 477.160859 156.930031 
L 478.331079 156.758143 
L 479.501299 156.414366 
L 480.671519 156.414366 
L 481.841738 156.07059 
L 483.011958 155.898701 
L 484.182178 155.898701 
L 488.863058 156.586255 
L 490.033278 156.414366 
L 491.203497 156.414366 
L 492.373717 156.242478 
L 493.543937 156.242478 
L 494.714157 156.07059 
L 495.884377 156.07059 
L 497.054597 156.242478 
L 499.395037 156.242478 
L 500.565257 155.898701 
L 502.905696 155.898701 
L 505.246136 156.242478 
L 506.416356 156.242478 
L 507.586576 156.07059 
L 509.927016 156.07059 
L 511.097235 156.242478 
L 512.267455 156.586255 
L 514.607895 156.586255 
L 515.778115 156.414366 
L 516.948335 156.414366 
L 519.288775 156.07059 
L 521.629214 156.414366 
L 522.799434 156.414366 
L 523.969654 156.242478 
L 525.139874 156.242478 
L 526.310094 156.414366 
L 527.480314 156.414366 
L 528.650534 156.586255 
L 533.331413 156.586255 
L 534.501633 156.414366 
L 535.671853 156.414366 
L 536.842073 156.242478 
L 538.012293 155.898701 
L 540.352732 155.898701 
L 541.522952 156.07059 
L 542.693172 156.07059 
L 543.863392 155.898701 
L 546.203832 156.242478 
L 547.374052 156.242478 
L 548.544272 156.414366 
L 552.054931 156.414366 
L 553.225151 156.07059 
L 554.395371 155.898701 
L 555.565591 156.07059 
L 556.735811 156.07059 
L 557.906031 156.586255 
L 559.07625 156.758143 
L 560.24647 156.586255 
L 561.41669 155.898701 
L 562.58691 155.898701 
L 563.75713 156.586255 
L 564.92735 157.101919 
L 566.09757 157.101919 
L 567.26779 156.930031 
L 569.608229 155.554925 
L 571.948669 156.242478 
L 573.118889 156.07059 
L 574.289109 156.07059 
L 576.629549 156.414366 
L 582.480648 156.414366 
L 583.650868 156.242478 
L 587.161528 156.242478 
L 588.331747 156.414366 
L 589.501967 156.758143 
L 590.672187 156.758143 
L 591.842407 156.586255 
L 593.012627 156.07059 
L 594.182847 155.726813 
L 595.353067 155.726813 
L 596.523287 156.242478 
L 597.693506 156.586255 
L 598.863726 156.758143 
L 600.033946 156.586255 
L 601.204166 156.586255 
L 602.374386 156.414366 
L 609.395705 156.414366 
L 610.565925 156.242478 
L 622.268124 156.242478 
L 623.438344 156.414366 
L 624.608564 156.414366 
L 625.778784 156.586255 
L 628.119223 156.586255 
L 629.289443 156.414366 
L 638.651202 156.414366 
L 639.821422 156.586255 
L 642.161862 156.586255 
L 644.502302 156.242478 
L 646.842741 156.242478 
L 650.353401 156.758143 
L 651.523621 156.586255 
L 652.693841 156.586255 
L 653.864061 156.414366 
L 656.2045 156.414366 
L 657.37472 156.586255 
L 658.54494 156.586255 
L 659.71516 156.758143 
L 662.0556 156.758143 
L 664.39604 156.414366 
L 665.566259 156.414366 
L 667.906699 156.758143 
L 669.076919 156.758143 
L 670.247139 156.586255 
L 677.268458 156.586255 
L 678.438678 156.758143 
L 680.779118 156.758143 
L 681.949338 156.930031 
L 685.459997 156.930031 
L 686.630217 157.101919 
L 687.800437 157.101919 
L 688.970657 156.930031 
L 690.140877 156.586255 
L 692.481317 156.586255 
L 693.651537 156.930031 
L 694.821756 157.101919 
L 697.162196 157.101919 
L 700.672856 156.586255 
L 705.353735 156.586255 
L 706.523955 156.758143 
L 708.864395 156.758143 
L 710.034615 156.930031 
L 717.055934 156.930031 
L 718.226154 156.758143 
L 720.566594 156.758143 
L 721.736814 156.930031 
L 724.077253 156.930031 
L 725.247473 156.758143 
L 726.417693 156.758143 
L 728.758133 157.101919 
L 729.928353 157.101919 
L 733.439012 156.586255 
L 734.609232 156.586255 
L 735.779452 156.930031 
L 736.949672 157.101919 
L 738.119892 157.101919 
L 739.290112 156.930031 
L 741.630552 156.930031 
L 742.800772 157.101919 
L 743.970991 157.101919 
L 745.141211 156.930031 
L 746.311431 156.930031 
L 747.481651 156.758143 
L 749.822091 156.758143 
L 752.162531 157.101919 
L 753.33275 157.445696 
L 754.50297 157.101919 
L 755.67319 156.242478 
L 756.84341 156.586255 
L 758.01363 157.273808 
L 759.18385 157.445696 
L 761.52429 157.101919 
L 762.694509 157.101919 
L 763.864729 156.930031 
L 765.034949 157.101919 
L 766.205169 156.930031 
L 767.375389 156.930031 
L 768.545609 156.758143 
L 769.715829 156.758143 
L 772.056268 157.101919 
L 773.226488 156.930031 
L 775.566928 156.930031 
L 776.737148 157.101919 
L 777.907368 156.930031 
L 779.077588 156.930031 
L 781.418028 156.586255 
L 783.758467 156.586255 
L 784.928687 156.758143 
L 787.269127 156.758143 
L 788.439347 156.586255 
L 794.290446 156.586255 
L 795.460666 156.758143 
L 798.971326 156.758143 
L 800.141546 156.586255 
L 808.333085 156.586255 
L 809.503305 156.758143 
L 820.035284 156.758143 
L 821.205503 156.586255 
L 822.375723 156.586255 
L 823.545943 156.930031 
L 825.886383 157.273808 
L 828.226823 156.930031 
L 829.397043 156.414366 
L 830.567262 156.586255 
L 831.737482 157.101919 
L 832.907702 157.273808 
L 834.077922 157.273808 
L 837.588582 156.758143 
L 838.758802 156.414366 
L 839.929021 156.242478 
L 841.099241 156.414366 
L 843.439681 157.101919 
L 845.780121 157.101919 
L 846.950341 156.930031 
L 848.120561 156.930031 
L 849.290781 156.758143 
L 850.461 156.758143 
L 851.63122 156.414366 
L 852.80144 156.414366 
L 853.97166 156.586255 
L 860.992979 156.586255 
L 862.163199 156.758143 
L 865.673859 156.758143 
L 866.844079 156.586255 
L 868.014299 156.758143 
L 870.354738 156.758143 
L 871.524958 156.586255 
L 872.695178 156.586255 
L 873.865398 156.414366 
L 875.035618 156.414366 
L 878.546277 156.930031 
L 879.716497 156.930031 
L 884.397377 156.242478 
L 885.567597 156.586255 
L 886.737817 156.758143 
L 889.078256 156.758143 
L 890.248476 156.586255 
L 892.588916 156.586255 
L 893.759136 156.414366 
L 894.929356 156.586255 
L 896.099576 156.586255 
L 897.269796 156.758143 
L 898.440015 156.758143 
L 899.610235 156.586255 
L 900.780455 156.242478 
L 901.950675 156.07059 
L 903.120895 156.07059 
L 904.291115 156.414366 
L 905.461335 156.586255 
L 908.971994 156.586255 
L 910.142214 156.758143 
L 913.652874 156.758143 
L 915.993314 157.101919 
L 918.333753 156.758143 
L 919.503973 156.242478 
L 920.674193 155.898701 
L 921.844413 156.242478 
L 923.014633 157.101919 
L 924.184853 157.273808 
L 925.355073 157.273808 
L 927.695512 156.930031 
L 930.035952 156.242478 
L 931.206172 156.242478 
L 932.376392 156.586255 
L 933.546612 156.758143 
L 935.887052 156.758143 
L 938.227491 156.414366 
L 940.567931 156.414366 
L 941.738151 156.586255 
L 942.908371 156.586255 
L 944.078591 156.758143 
L 945.248811 156.758143 
L 946.41903 156.586255 
L 947.58925 156.242478 
L 948.75947 156.242478 
L 949.92969 156.586255 
L 952.27013 156.930031 
L 953.44035 156.758143 
L 954.61057 156.414366 
L 956.951009 156.414366 
L 959.291449 156.758143 
L 960.461669 156.586255 
L 966.312768 156.586255 
L 967.482988 156.414366 
L 969.823428 156.414366 
L 973.334088 156.930031 
L 976.844747 156.930031 
L 978.014967 156.586255 
L 980.355407 156.242478 
L 981.525627 156.758143 
L 982.695847 156.930031 
L 983.866067 156.930031 
L 985.036286 156.758143 
L 986.206506 156.930031 
L 987.376726 157.445696 
L 988.546946 157.101919 
L 989.717166 155.554925 
L 990.887386 155.898701 
L 992.057606 157.273808 
L 993.227826 157.445696 
L 994.398046 157.101919 
L 999.078925 156.414366 
L 1000.249145 156.414366 
L 1002.589585 156.758143 
L 1003.759805 156.758143 
L 1007.270464 156.242478 
L 1009.610904 156.586255 
L 1011.951344 156.586255 
L 1013.121564 156.414366 
L 1015.462003 156.414366 
L 1016.632223 156.586255 
L 1018.972663 156.586255 
L 1020.142883 156.414366 
L 1021.313103 156.414366 
L 1022.483323 156.242478 
L 1025.993982 156.242478 
L 1029.504642 156.758143 
L 1031.845082 156.758143 
L 1034.185521 156.414366 
L 1035.355741 156.414366 
L 1036.525961 156.242478 
L 1041.206841 156.242478 
L 1042.377061 156.414366 
L 1044.7175 156.414366 
L 1045.88772 156.586255 
L 1047.05794 156.586255 
L 1048.22816 156.758143 
L 1049.39838 156.758143 
L 1050.5686 156.586255 
L 1051.73882 156.242478 
L 1052.909039 156.07059 
L 1054.079259 156.586255 
L 1055.249479 156.930031 
L 1056.419699 156.930031 
L 1058.760139 156.586255 
L 1059.930359 156.758143 
L 1061.100579 156.586255 
L 1063.441018 156.586255 
L 1066.951678 156.07059 
L 1068.121898 156.242478 
L 1069.292118 156.242478 
L 1071.632558 156.586255 
L 1073.972997 156.586255 
L 1075.143217 156.758143 
L 1076.313437 156.758143 
L 1077.483657 156.586255 
L 1083.334756 156.586255 
L 1084.504976 156.414366 
L 1085.675196 156.414366 
L 1086.845416 156.586255 
L 1088.015636 156.586255 
L 1089.185856 156.758143 
L 1090.356076 156.586255 
L 1092.696515 156.586255 
L 1095.036955 156.930031 
L 1096.207175 156.758143 
L 1097.377395 156.758143 
L 1098.547615 156.586255 
L 1099.717835 156.586255 
L 1100.888055 156.414366 
L 1102.058274 156.414366 
L 1103.228494 156.586255 
L 1109.079594 156.586255 
L 1110.249814 156.758143 
L 1111.420033 156.758143 
L 1112.590253 156.586255 
L 1113.760473 156.586255 
L 1114.930693 156.414366 
L 1118.441353 156.414366 
L 1119.611573 156.586255 
L 1120.781792 156.586255 
L 1121.952012 156.758143 
L 1124.292452 156.758143 
L 1125.462672 156.414366 
L 1126.632892 155.898701 
L 1127.803112 156.07059 
L 1128.973332 156.586255 
L 1130.143551 156.930031 
L 1132.483991 156.586255 
L 1133.654211 156.586255 
L 1134.824431 156.414366 
L 1144.18619 156.414366 
L 1145.35641 156.586255 
L 1147.69685 156.586255 
L 1150.037289 156.242478 
L 1152.377729 156.242478 
L 1153.547949 156.586255 
L 1155.888389 156.586255 
L 1157.058609 156.414366 
L 1158.228829 156.414366 
L 1159.399048 156.586255 
L 1161.739488 156.586255 
L 1162.909708 156.414366 
L 1165.250148 156.414366 
L 1166.420368 156.242478 
L 1167.590588 156.414366 
L 1168.760808 156.414366 
L 1169.931027 156.242478 
L 1171.101247 156.414366 
L 1178.122567 156.414366 
L 1180.463006 156.758143 
L 1183.973666 156.758143 
L 1187.484326 156.242478 
L 1188.654545 156.414366 
L 1192.165205 156.414366 
L 1193.335425 156.586255 
L 1194.505645 156.414366 
L 1196.846085 156.414366 
L 1198.016304 156.586255 
L 1199.186524 156.586255 
L 1200.356744 156.930031 
L 1201.526964 156.930031 
L 1202.697184 156.758143 
L 1203.867404 156.758143 
L 1205.037624 156.586255 
L 1206.207844 156.758143 
L 1209.718503 156.758143 
L 1212.058943 156.414366 
L 1213.229163 156.586255 
L 1216.739823 156.586255 
L 1219.080262 156.930031 
L 1220.250482 156.586255 
L 1221.420702 156.414366 
L 1222.590922 156.758143 
L 1224.931362 157.101919 
L 1226.101582 156.930031 
L 1227.271801 156.930031 
L 1229.612241 156.586255 
L 1233.122901 156.586255 
L 1234.293121 156.758143 
L 1238.974 156.758143 
L 1240.14422 156.586255 
L 1241.31444 156.586255 
L 1242.48466 156.758143 
L 1243.65488 156.758143 
L 1244.8251 156.930031 
L 1245.99532 156.930031 
L 1248.335759 156.586255 
L 1250.676199 156.586255 
L 1253.016639 156.930031 
L 1254.186859 156.758143 
L 1262.378398 156.758143 
L 1263.548618 157.101919 
L 1267.059277 157.101919 
L 1268.229497 156.930031 
L 1269.399717 156.930031 
L 1270.569937 156.586255 
L 1271.740157 156.414366 
L 1272.910377 156.586255 
L 1275.250817 157.273808 
L 1276.421036 157.273808 
L 1277.591256 157.445696 
L 1279.931696 156.758143 
L 1281.101916 156.586255 
L 1282.272136 156.930031 
L 1284.612576 157.273808 
L 1285.782795 157.273808 
L 1286.953015 156.930031 
L 1288.123235 156.758143 
L 1290.463675 156.758143 
L 1292.804115 157.101919 
L 1302.165874 157.101919 
L 1303.336094 156.930031 
L 1304.506313 156.586255 
L 1305.676533 156.586255 
L 1306.846753 156.758143 
L 1306.846753 156.758143 
" style="fill:none;stroke:#4c72b0;stroke-linecap:round;stroke-width:1.5;"/>
   </g>
   <g id="patch_3">
    <path d="M 65.828571 204.027429 
L 65.828571 14.950286 
" style="fill:none;stroke:#ffffff;stroke-linecap:square;stroke-linejoin:miter;stroke-width:1.25;"/>
   </g>
   <g id="patch_4">
    <path d="M 1365.942857 204.027429 
L 1365.942857 14.950286 
" style="fill:none;stroke:#ffffff;stroke-linecap:square;stroke-linejoin:miter;stroke-width:1.25;"/>
   </g>
   <g id="patch_5">
    <path d="M 65.828571 204.027429 
L 1365.942857 204.027429 
" style="fill:none;stroke:#ffffff;stroke-linecap:square;stroke-linejoin:miter;stroke-width:1.25;"/>
   </g>
   <g id="patch_6">
    <path d="M 65.828571 14.950286 
L 1365.942857 14.950286 
" style="fill:none;stroke:#ffffff;stroke-linecap:square;stroke-linejoin:miter;stroke-width:1.25;"/>
   </g>
   <g id="text_19">
    <!-- Wykresy dla n = 7 i T = 1000K -->
    <g style="fill:#262626;" transform="translate(635.781027 8.950286)scale(0.12 -0.12)">
     <defs>
      <path d="M 1294 0 
L 78 4581 
L 700 4581 
L 1397 1578 
Q 1509 1106 1591 641 
Q 1766 1375 1797 1488 
L 2669 4581 
L 3400 4581 
L 4056 2263 
Q 4303 1400 4413 641 
Q 4500 1075 4641 1638 
L 5359 4581 
L 5969 4581 
L 4713 0 
L 4128 0 
L 3163 3491 
Q 3041 3928 3019 4028 
Q 2947 3713 2884 3491 
L 1913 0 
L 1294 0 
z
" id="ArialMT-57" transform="scale(0.015625)"/>
      <path d="M 397 -1278 
L 334 -750 
Q 519 -800 656 -800 
Q 844 -800 956 -737 
Q 1069 -675 1141 -563 
Q 1194 -478 1313 -144 
Q 1328 -97 1363 -6 
L 103 3319 
L 709 3319 
L 1400 1397 
Q 1534 1031 1641 628 
Q 1738 1016 1872 1384 
L 2581 3319 
L 3144 3319 
L 1881 -56 
Q 1678 -603 1566 -809 
Q 1416 -1088 1222 -1217 
Q 1028 -1347 759 -1347 
Q 597 -1347 397 -1278 
z
" id="ArialMT-79" transform="scale(0.015625)"/>
      <path d="M 416 0 
L 416 3319 
L 922 3319 
L 922 2816 
Q 1116 3169 1280 3281 
Q 1444 3394 1641 3394 
Q 1925 3394 2219 3213 
L 2025 2691 
Q 1819 2813 1613 2813 
Q 1428 2813 1281 2702 
Q 1134 2591 1072 2394 
Q 978 2094 978 1738 
L 978 0 
L 416 0 
z
" id="ArialMT-72" transform="scale(0.015625)"/>
      <path d="M 2694 1069 
L 3275 997 
Q 3138 488 2766 206 
Q 2394 -75 1816 -75 
Q 1088 -75 661 373 
Q 234 822 234 1631 
Q 234 2469 665 2931 
Q 1097 3394 1784 3394 
Q 2450 3394 2872 2941 
Q 3294 2488 3294 1666 
Q 3294 1616 3291 1516 
L 816 1516 
Q 847 969 1125 678 
Q 1403 388 1819 388 
Q 2128 388 2347 550 
Q 2566 713 2694 1069 
z
M 847 1978 
L 2700 1978 
Q 2663 2397 2488 2606 
Q 2219 2931 1791 2931 
Q 1403 2931 1139 2672 
Q 875 2413 847 1978 
z
" id="ArialMT-65" transform="scale(0.015625)"/>
      <path d="M 197 991 
L 753 1078 
Q 800 744 1014 566 
Q 1228 388 1613 388 
Q 2000 388 2187 545 
Q 2375 703 2375 916 
Q 2375 1106 2209 1216 
Q 2094 1291 1634 1406 
Q 1016 1563 777 1677 
Q 538 1791 414 1992 
Q 291 2194 291 2438 
Q 291 2659 392 2848 
Q 494 3038 669 3163 
Q 800 3259 1026 3326 
Q 1253 3394 1513 3394 
Q 1903 3394 2198 3281 
Q 2494 3169 2634 2976 
Q 2775 2784 2828 2463 
L 2278 2388 
Q 2241 2644 2061 2787 
Q 1881 2931 1553 2931 
Q 1166 2931 1000 2803 
Q 834 2675 834 2503 
Q 834 2394 903 2306 
Q 972 2216 1119 2156 
Q 1203 2125 1616 2013 
Q 2213 1853 2448 1751 
Q 2684 1650 2818 1456 
Q 2953 1263 2953 975 
Q 2953 694 2789 445 
Q 2625 197 2315 61 
Q 2006 -75 1616 -75 
Q 969 -75 630 194 
Q 291 463 197 991 
z
" id="ArialMT-73" transform="scale(0.015625)"/>
      <path d="M 2575 0 
L 2575 419 
Q 2259 -75 1647 -75 
Q 1250 -75 917 144 
Q 584 363 401 755 
Q 219 1147 219 1656 
Q 219 2153 384 2558 
Q 550 2963 881 3178 
Q 1213 3394 1622 3394 
Q 1922 3394 2156 3267 
Q 2391 3141 2538 2938 
L 2538 4581 
L 3097 4581 
L 3097 0 
L 2575 0 
z
M 797 1656 
Q 797 1019 1065 703 
Q 1334 388 1700 388 
Q 2069 388 2326 689 
Q 2584 991 2584 1609 
Q 2584 2291 2321 2609 
Q 2059 2928 1675 2928 
Q 1300 2928 1048 2622 
Q 797 2316 797 1656 
z
" id="ArialMT-64" transform="scale(0.015625)"/>
      <path d="M 2588 409 
Q 2275 144 1986 34 
Q 1697 -75 1366 -75 
Q 819 -75 525 192 
Q 231 459 231 875 
Q 231 1119 342 1320 
Q 453 1522 633 1644 
Q 813 1766 1038 1828 
Q 1203 1872 1538 1913 
Q 2219 1994 2541 2106 
Q 2544 2222 2544 2253 
Q 2544 2597 2384 2738 
Q 2169 2928 1744 2928 
Q 1347 2928 1158 2789 
Q 969 2650 878 2297 
L 328 2372 
Q 403 2725 575 2942 
Q 747 3159 1072 3276 
Q 1397 3394 1825 3394 
Q 2250 3394 2515 3294 
Q 2781 3194 2906 3042 
Q 3031 2891 3081 2659 
Q 3109 2516 3109 2141 
L 3109 1391 
Q 3109 606 3145 398 
Q 3181 191 3288 0 
L 2700 0 
Q 2613 175 2588 409 
z
M 2541 1666 
Q 2234 1541 1622 1453 
Q 1275 1403 1131 1340 
Q 988 1278 909 1158 
Q 831 1038 831 891 
Q 831 666 1001 516 
Q 1172 366 1500 366 
Q 1825 366 2078 508 
Q 2331 650 2450 897 
Q 2541 1088 2541 1459 
L 2541 1666 
z
" id="ArialMT-61" transform="scale(0.015625)"/>
      <path d="M 422 0 
L 422 3319 
L 928 3319 
L 928 2847 
Q 1294 3394 1984 3394 
Q 2284 3394 2536 3286 
Q 2788 3178 2913 3003 
Q 3038 2828 3088 2588 
Q 3119 2431 3119 2041 
L 3119 0 
L 2556 0 
L 2556 2019 
Q 2556 2363 2490 2533 
Q 2425 2703 2258 2804 
Q 2091 2906 1866 2906 
Q 1506 2906 1245 2678 
Q 984 2450 984 1813 
L 984 0 
L 422 0 
z
" id="ArialMT-6e" transform="scale(0.015625)"/>
      <path d="M 3381 2694 
L 356 2694 
L 356 3219 
L 3381 3219 
L 3381 2694 
z
M 3381 1303 
L 356 1303 
L 356 1828 
L 3381 1828 
L 3381 1303 
z
" id="ArialMT-3d" transform="scale(0.015625)"/>
      <path d="M 425 3934 
L 425 4581 
L 988 4581 
L 988 3934 
L 425 3934 
z
M 425 0 
L 425 3319 
L 988 3319 
L 988 0 
L 425 0 
z
" id="ArialMT-69" transform="scale(0.015625)"/>
      <path d="M 1659 0 
L 1659 4041 
L 150 4041 
L 150 4581 
L 3781 4581 
L 3781 4041 
L 2266 4041 
L 2266 0 
L 1659 0 
z
" id="ArialMT-54" transform="scale(0.015625)"/>
      <path d="M 469 0 
L 469 4581 
L 1075 4581 
L 1075 2309 
L 3350 4581 
L 4172 4581 
L 2250 2725 
L 4256 0 
L 3456 0 
L 1825 2319 
L 1075 1588 
L 1075 0 
L 469 0 
z
" id="ArialMT-4b" transform="scale(0.015625)"/>
     </defs>
     <use xlink:href="#ArialMT-57"/>
     <use x="93.509766" xlink:href="#ArialMT-79"/>
     <use x="143.509766" xlink:href="#ArialMT-6b"/>
     <use x="193.509766" xlink:href="#ArialMT-72"/>
     <use x="226.810547" xlink:href="#ArialMT-65"/>
     <use x="282.425781" xlink:href="#ArialMT-73"/>
     <use x="332.425781" xlink:href="#ArialMT-79"/>
     <use x="382.425781" xlink:href="#ArialMT-20"/>
     <use x="410.208984" xlink:href="#ArialMT-64"/>
     <use x="465.824219" xlink:href="#ArialMT-6c"/>
     <use x="488.041016" xlink:href="#ArialMT-61"/>
     <use x="543.65625" xlink:href="#ArialMT-20"/>
     <use x="571.439453" xlink:href="#ArialMT-6e"/>
     <use x="627.054688" xlink:href="#ArialMT-20"/>
     <use x="654.837891" xlink:href="#ArialMT-3d"/>
     <use x="713.236328" xlink:href="#ArialMT-20"/>
     <use x="741.019531" xlink:href="#ArialMT-37"/>
     <use x="796.634766" xlink:href="#ArialMT-20"/>
     <use x="824.417969" xlink:href="#ArialMT-69"/>
     <use x="846.634766" xlink:href="#ArialMT-20"/>
     <use x="872.667969" xlink:href="#ArialMT-54"/>
     <use x="932.001953" xlink:href="#ArialMT-20"/>
     <use x="959.785156" xlink:href="#ArialMT-3d"/>
     <use x="1018.183594" xlink:href="#ArialMT-20"/>
     <use x="1045.966797" xlink:href="#ArialMT-31"/>
     <use x="1101.582031" xlink:href="#ArialMT-30"/>
     <use x="1157.197266" xlink:href="#ArialMT-30"/>
     <use x="1212.8125" xlink:href="#ArialMT-30"/>
     <use x="1268.427734" xlink:href="#ArialMT-4b"/>
    </g>
   </g>
  </g>
  <g id="axes_2">
   <g id="patch_7">
    <path d="M 65.828571 430.92 
L 1365.942857 430.92 
L 1365.942857 241.842857 
L 65.828571 241.842857 
z
" style="fill:#eaeaf2;"/>
   </g>
   <g id="matplotlib.axis_3">
    <g id="xtick_12">
     <g id="line2d_19">
      <path clip-path="url(#pefd8ac4f8b)" d="M 124.924675 430.92 
L 124.924675 241.842857 
" style="fill:none;stroke:#ffffff;stroke-linecap:round;"/>
     </g>
     <g id="text_20">
      <!-- 0 -->
      <g style="fill:#262626;" transform="translate(121.86616 448.293594)scale(0.11 -0.11)">
       <use xlink:href="#ArialMT-30"/>
      </g>
     </g>
    </g>
    <g id="xtick_13">
     <g id="line2d_20">
      <path clip-path="url(#pefd8ac4f8b)" d="M 241.946663 430.92 
L 241.946663 241.842857 
" style="fill:none;stroke:#ffffff;stroke-linecap:round;"/>
     </g>
     <g id="text_21">
      <!-- 1 -->
      <g style="fill:#262626;" transform="translate(238.888148 448.293594)scale(0.11 -0.11)">
       <use xlink:href="#ArialMT-31"/>
      </g>
     </g>
    </g>
    <g id="xtick_14">
     <g id="line2d_21">
      <path clip-path="url(#pefd8ac4f8b)" d="M 358.968651 430.92 
L 358.968651 241.842857 
" style="fill:none;stroke:#ffffff;stroke-linecap:round;"/>
     </g>
     <g id="text_22">
      <!-- 2 -->
      <g style="fill:#262626;" transform="translate(355.910136 448.293594)scale(0.11 -0.11)">
       <use xlink:href="#ArialMT-32"/>
      </g>
     </g>
    </g>
    <g id="xtick_15">
     <g id="line2d_22">
      <path clip-path="url(#pefd8ac4f8b)" d="M 475.990639 430.92 
L 475.990639 241.842857 
" style="fill:none;stroke:#ffffff;stroke-linecap:round;"/>
     </g>
     <g id="text_23">
      <!-- 3 -->
      <g style="fill:#262626;" transform="translate(472.932123 448.293594)scale(0.11 -0.11)">
       <use xlink:href="#ArialMT-33"/>
      </g>
     </g>
    </g>
    <g id="xtick_16">
     <g id="line2d_23">
      <path clip-path="url(#pefd8ac4f8b)" d="M 593.012627 430.92 
L 593.012627 241.842857 
" style="fill:none;stroke:#ffffff;stroke-linecap:round;"/>
     </g>
     <g id="text_24">
      <!-- 4 -->
      <g style="fill:#262626;" transform="translate(589.954111 448.293594)scale(0.11 -0.11)">
       <use xlink:href="#ArialMT-34"/>
      </g>
     </g>
    </g>
    <g id="xtick_17">
     <g id="line2d_24">
      <path clip-path="url(#pefd8ac4f8b)" d="M 710.034615 430.92 
L 710.034615 241.842857 
" style="fill:none;stroke:#ffffff;stroke-linecap:round;"/>
     </g>
     <g id="text_25">
      <!-- 5 -->
      <g style="fill:#262626;" transform="translate(706.976099 448.293594)scale(0.11 -0.11)">
       <use xlink:href="#ArialMT-35"/>
      </g>
     </g>
    </g>
    <g id="xtick_18">
     <g id="line2d_25">
      <path clip-path="url(#pefd8ac4f8b)" d="M 827.056603 430.92 
L 827.056603 241.842857 
" style="fill:none;stroke:#ffffff;stroke-linecap:round;"/>
     </g>
     <g id="text_26">
      <!-- 6 -->
      <g style="fill:#262626;" transform="translate(823.998087 448.293594)scale(0.11 -0.11)">
       <use xlink:href="#ArialMT-36"/>
      </g>
     </g>
    </g>
    <g id="xtick_19">
     <g id="line2d_26">
      <path clip-path="url(#pefd8ac4f8b)" d="M 944.078591 430.92 
L 944.078591 241.842857 
" style="fill:none;stroke:#ffffff;stroke-linecap:round;"/>
     </g>
     <g id="text_27">
      <!-- 7 -->
      <g style="fill:#262626;" transform="translate(941.020075 448.293594)scale(0.11 -0.11)">
       <use xlink:href="#ArialMT-37"/>
      </g>
     </g>
    </g>
    <g id="xtick_20">
     <g id="line2d_27">
      <path clip-path="url(#pefd8ac4f8b)" d="M 1061.100579 430.92 
L 1061.100579 241.842857 
" style="fill:none;stroke:#ffffff;stroke-linecap:round;"/>
     </g>
     <g id="text_28">
      <!-- 8 -->
      <g style="fill:#262626;" transform="translate(1058.042063 448.293594)scale(0.11 -0.11)">
       <use xlink:href="#ArialMT-38"/>
      </g>
     </g>
    </g>
    <g id="xtick_21">
     <g id="line2d_28">
      <path clip-path="url(#pefd8ac4f8b)" d="M 1178.122567 430.92 
L 1178.122567 241.842857 
" style="fill:none;stroke:#ffffff;stroke-linecap:round;"/>
     </g>
     <g id="text_29">
      <!-- 9 -->
      <g style="fill:#262626;" transform="translate(1175.064051 448.293594)scale(0.11 -0.11)">
       <use xlink:href="#ArialMT-39"/>
      </g>
     </g>
    </g>
    <g id="xtick_22">
     <g id="line2d_29">
      <path clip-path="url(#pefd8ac4f8b)" d="M 1295.144554 430.92 
L 1295.144554 241.842857 
" style="fill:none;stroke:#ffffff;stroke-linecap:round;"/>
     </g>
     <g id="text_30">
      <!-- 10 -->
      <g style="fill:#262626;" transform="translate(1289.027523 448.293594)scale(0.11 -0.11)">
       <use xlink:href="#ArialMT-31"/>
       <use x="55.615234" xlink:href="#ArialMT-30"/>
      </g>
     </g>
    </g>
   </g>
   <g id="matplotlib.axis_4">
    <g id="ytick_7">
     <g id="line2d_30">
      <path clip-path="url(#pefd8ac4f8b)" d="M 65.828571 427.941203 
L 1365.942857 427.941203 
" style="fill:none;stroke:#ffffff;stroke-linecap:round;"/>
     </g>
     <g id="text_31">
      <!-- 500 -->
      <g style="fill:#262626;" transform="translate(37.977478 431.877999)scale(0.11 -0.11)">
       <use xlink:href="#ArialMT-35"/>
       <use x="55.615234" xlink:href="#ArialMT-30"/>
       <use x="111.230469" xlink:href="#ArialMT-30"/>
      </g>
     </g>
    </g>
    <g id="ytick_8">
     <g id="line2d_31">
      <path clip-path="url(#pefd8ac4f8b)" d="M 65.828571 391.94365 
L 1365.942857 391.94365 
" style="fill:none;stroke:#ffffff;stroke-linecap:round;"/>
     </g>
     <g id="text_32">
      <!-- 600 -->
      <g style="fill:#262626;" transform="translate(37.977478 395.880447)scale(0.11 -0.11)">
       <use xlink:href="#ArialMT-36"/>
       <use x="55.615234" xlink:href="#ArialMT-30"/>
       <use x="111.230469" xlink:href="#ArialMT-30"/>
      </g>
     </g>
    </g>
    <g id="ytick_9">
     <g id="line2d_32">
      <path clip-path="url(#pefd8ac4f8b)" d="M 65.828571 355.946098 
L 1365.942857 355.946098 
" style="fill:none;stroke:#ffffff;stroke-linecap:round;"/>
     </g>
     <g id="text_33">
      <!-- 700 -->
      <g style="fill:#262626;" transform="translate(37.977478 359.882895)scale(0.11 -0.11)">
       <use xlink:href="#ArialMT-37"/>
       <use x="55.615234" xlink:href="#ArialMT-30"/>
       <use x="111.230469" xlink:href="#ArialMT-30"/>
      </g>
     </g>
    </g>
    <g id="ytick_10">
     <g id="line2d_33">
      <path clip-path="url(#pefd8ac4f8b)" d="M 65.828571 319.948546 
L 1365.942857 319.948546 
" style="fill:none;stroke:#ffffff;stroke-linecap:round;"/>
     </g>
     <g id="text_34">
      <!-- 800 -->
      <g style="fill:#262626;" transform="translate(37.977478 323.885343)scale(0.11 -0.11)">
       <use xlink:href="#ArialMT-38"/>
       <use x="55.615234" xlink:href="#ArialMT-30"/>
       <use x="111.230469" xlink:href="#ArialMT-30"/>
      </g>
     </g>
    </g>
    <g id="ytick_11">
     <g id="line2d_34">
      <path clip-path="url(#pefd8ac4f8b)" d="M 65.828571 283.950994 
L 1365.942857 283.950994 
" style="fill:none;stroke:#ffffff;stroke-linecap:round;"/>
     </g>
     <g id="text_35">
      <!-- 900 -->
      <g style="fill:#262626;" transform="translate(37.977478 287.887791)scale(0.11 -0.11)">
       <use xlink:href="#ArialMT-39"/>
       <use x="55.615234" xlink:href="#ArialMT-30"/>
       <use x="111.230469" xlink:href="#ArialMT-30"/>
      </g>
     </g>
    </g>
    <g id="ytick_12">
     <g id="line2d_35">
      <path clip-path="url(#pefd8ac4f8b)" d="M 65.828571 247.953442 
L 1365.942857 247.953442 
" style="fill:none;stroke:#ffffff;stroke-linecap:round;"/>
     </g>
     <g id="text_36">
      <!-- 1000 -->
      <g style="fill:#262626;" transform="translate(31.860446 251.890239)scale(0.11 -0.11)">
       <use xlink:href="#ArialMT-31"/>
       <use x="55.615234" xlink:href="#ArialMT-30"/>
       <use x="111.230469" xlink:href="#ArialMT-30"/>
       <use x="166.845703" xlink:href="#ArialMT-30"/>
      </g>
     </g>
    </g>
    <g id="text_37">
     <!-- T [K] -->
     <g style="fill:#262626;" transform="translate(25.475446 348.943929)rotate(-90)scale(0.12 -0.12)">
      <use xlink:href="#ArialMT-54"/>
      <use x="59.333984" xlink:href="#ArialMT-20"/>
      <use x="87.117188" xlink:href="#ArialMT-5b"/>
      <use x="114.900391" xlink:href="#ArialMT-4b"/>
      <use x="181.599609" xlink:href="#ArialMT-5d"/>
     </g>
    </g>
   </g>
   <g id="line2d_36">
    <path clip-path="url(#pefd8ac4f8b)" d="M 124.924675 250.437273 
L 126.094895 251.877175 
L 127.265115 256.232879 
L 128.435335 264.332328 
L 129.605555 277.435437 
L 130.775775 296.94611 
L 131.945995 322.97234 
L 133.116214 352.09436 
L 134.286434 377.400639 
L 135.456654 392.879587 
L 136.626874 397.235291 
L 137.797094 393.41955 
L 140.137534 377.580627 
L 141.307754 371.389048 
L 142.477974 368.005278 
L 143.648193 366.997347 
L 144.818413 367.177334 
L 145.988633 367.213332 
L 147.158853 366.169403 
L 148.329073 363.901557 
L 150.669513 358.105951 
L 151.839733 355.946098 
L 155.350392 350.582463 
L 156.520612 349.106563 
L 157.690832 348.170627 
L 158.861052 347.774654 
L 161.201492 347.486673 
L 162.371711 347.522671 
L 164.712151 348.026637 
L 165.882371 347.918644 
L 167.052591 347.414678 
L 168.222811 346.694727 
L 171.73347 343.886918 
L 174.07391 342.519011 
L 178.75479 340.071178 
L 179.92501 339.819195 
L 181.09523 339.89119 
L 182.265449 340.215168 
L 183.435669 340.719134 
L 184.605889 341.36709 
L 185.776109 342.195033 
L 188.116549 344.246894 
L 193.967648 350.366478 
L 195.137868 351.266416 
L 196.308088 351.842377 
L 198.648528 352.454336 
L 200.988967 353.030296 
L 202.159187 353.462267 
L 204.499627 354.722181 
L 208.010287 356.990027 
L 210.350727 357.961961 
L 212.691166 358.825902 
L 215.031606 360.049819 
L 220.882705 363.577579 
L 224.393365 365.377457 
L 227.904025 367.429317 
L 231.414684 369.517175 
L 236.095564 372.216992 
L 238.436004 373.980872 
L 241.946663 376.716686 
L 243.116883 377.472634 
L 244.287103 378.084593 
L 245.457323 378.516563 
L 246.627543 378.768546 
L 250.138202 378.984532 
L 253.648862 379.056527 
L 257.159522 379.380505 
L 260.670181 380.100456 
L 265.351061 381.36037 
L 277.05326 385.212108 
L 301.627877 391.907653 
L 303.968317 392.375621 
L 306.308757 393.13157 
L 308.649196 394.283491 
L 312.159856 396.047371 
L 313.330076 396.479342 
L 314.500296 396.767322 
L 316.840736 396.94731 
L 319.181175 396.695327 
L 322.691835 396.011374 
L 325.032275 395.867384 
L 327.372714 396.011374 
L 333.223814 396.839317 
L 347.266452 398.891178 
L 349.606892 399.287151 
L 351.947332 400.151092 
L 356.628211 402.454936 
L 358.968651 403.210884 
L 360.138871 403.42687 
L 361.309091 403.462867 
L 363.649531 403.138889 
L 365.98997 402.814911 
L 367.16019 402.742916 
L 368.33041 402.814911 
L 369.50063 403.066894 
L 371.84107 404.110823 
L 376.521949 406.594654 
L 380.032609 408.214544 
L 381.202829 408.610517 
L 384.713488 409.402463 
L 388.224148 410.48239 
L 389.394368 410.662378 
L 391.734808 410.698375 
L 392.905028 410.590382 
L 395.245467 409.978424 
L 397.585907 409.474458 
L 398.756127 409.402463 
L 399.926347 409.474458 
L 401.096567 409.762439 
L 402.266787 410.3384 
L 403.437007 411.166343 
L 406.947666 414.370125 
L 408.117886 415.162072 
L 409.288106 415.522047 
L 410.458326 415.342059 
L 411.628546 414.550113 
L 412.798766 413.326196 
L 415.139205 410.590382 
L 416.309425 409.726441 
L 417.479645 409.474458 
L 418.649865 409.762439 
L 419.820085 410.518387 
L 420.990305 411.634311 
L 423.330745 414.370125 
L 424.500964 415.558045 
L 425.671184 416.349991 
L 426.841404 416.817959 
L 428.011624 416.889954 
L 429.181844 416.637971 
L 431.522284 415.450052 
L 433.862723 414.046147 
L 435.032943 413.506184 
L 436.203163 413.146209 
L 438.543603 412.786233 
L 439.713823 412.282267 
L 443.224482 409.798436 
L 444.394702 409.222475 
L 445.564922 408.8625 
L 446.735142 408.754507 
L 447.905362 408.970493 
L 449.075582 409.474458 
L 450.245802 410.266404 
L 451.416022 411.274336 
L 453.756461 413.902157 
L 454.926681 414.766098 
L 456.096901 414.694103 
L 458.437341 413.614177 
L 459.607561 413.470187 
L 460.777781 413.686172 
L 463.11822 414.694103 
L 464.28844 414.478118 
L 466.62888 412.39026 
L 467.7991 411.850297 
L 468.96932 411.850297 
L 470.13954 412.174275 
L 471.30976 412.858228 
L 473.650199 414.586111 
L 474.820419 414.694103 
L 478.331079 412.498253 
L 479.501299 412.282267 
L 483.011958 412.282267 
L 484.182178 411.994287 
L 485.352398 411.526319 
L 488.863058 409.690444 
L 490.033278 409.366466 
L 492.373717 409.186478 
L 494.714157 409.474458 
L 497.054597 410.014422 
L 499.395037 410.842365 
L 501.735476 411.814299 
L 504.075916 412.426258 
L 507.586576 412.858228 
L 508.756796 412.858228 
L 511.097235 412.39026 
L 512.267455 412.138277 
L 513.437675 412.030284 
L 514.607895 412.10228 
L 518.118555 412.786233 
L 519.288775 412.822231 
L 521.629214 412.426258 
L 529.820754 410.734373 
L 530.990973 410.878363 
L 532.161193 411.202341 
L 533.331413 411.742304 
L 534.501633 412.498253 
L 538.012293 415.198069 
L 539.182513 415.702035 
L 540.352732 415.810027 
L 541.522952 415.594042 
L 542.693172 415.126074 
L 543.863392 414.406123 
L 546.203832 412.53425 
L 548.544272 410.662378 
L 549.714491 409.870431 
L 550.884711 409.330468 
L 552.054931 409.114483 
L 554.395371 409.078485 
L 559.07625 408.466527 
L 561.41669 409.222475 
L 562.58691 409.222475 
L 564.92735 408.574519 
L 566.09757 408.754507 
L 567.26779 409.546453 
L 568.43801 410.734373 
L 569.608229 411.706307 
L 570.778449 412.066282 
L 571.948669 411.886294 
L 573.118889 411.490321 
L 575.459329 410.194409 
L 577.799769 408.934495 
L 580.140208 408.250542 
L 581.310428 408.178546 
L 582.480648 408.286539 
L 589.501967 409.870431 
L 590.672187 410.410395 
L 593.012627 412.138277 
L 594.182847 412.67824 
L 595.353067 412.606245 
L 596.523287 411.994287 
L 598.863726 410.266404 
L 600.033946 409.690444 
L 601.204166 409.330468 
L 602.374386 409.15048 
L 604.714826 409.258473 
L 607.055266 409.690444 
L 609.395705 410.302402 
L 612.906365 411.454324 
L 615.246805 411.922292 
L 617.587244 411.814299 
L 619.927684 411.238338 
L 622.268124 410.266404 
L 625.778784 408.646515 
L 626.949003 408.322537 
L 628.119223 408.214544 
L 630.459663 408.394532 
L 640.991642 410.374397 
L 645.672522 411.670309 
L 646.842741 411.706307 
L 649.183181 411.310333 
L 651.523621 410.842365 
L 655.034281 410.48239 
L 659.71516 409.726441 
L 662.0556 409.978424 
L 665.566259 410.950358 
L 671.417359 411.922292 
L 673.757799 412.39026 
L 674.928019 412.462255 
L 677.268458 412.24627 
L 681.949338 411.346331 
L 684.289778 411.346331 
L 685.459997 411.454324 
L 687.800437 412.138277 
L 690.140877 413.182206 
L 691.311097 413.506184 
L 692.481317 413.470187 
L 695.991976 412.642243 
L 697.162196 412.606245 
L 703.013296 413.038216 
L 704.183515 412.858228 
L 711.204835 410.91436 
L 712.375055 410.806368 
L 713.545275 410.842365 
L 715.885714 411.274336 
L 720.566594 412.498253 
L 725.247473 413.182206 
L 729.928353 413.398191 
L 733.439012 414.118143 
L 734.609232 414.01015 
L 739.290112 412.67824 
L 741.630552 412.606245 
L 743.970991 413.002218 
L 746.311431 413.86616 
L 748.651871 414.802096 
L 753.33275 416.385988 
L 755.67319 417.645903 
L 756.84341 417.573908 
L 759.18385 416.385988 
L 760.35407 416.026013 
L 762.694509 415.846025 
L 765.034949 415.990015 
L 768.545609 416.529979 
L 769.715829 416.493981 
L 772.056268 415.990015 
L 774.396708 415.378057 
L 776.737148 414.658106 
L 779.077588 414.29813 
L 782.588247 413.974152 
L 788.439347 412.786233 
L 793.120226 412.318265 
L 795.460666 412.282267 
L 797.801106 412.570248 
L 800.141546 413.182206 
L 803.652205 414.262133 
L 805.992645 414.730101 
L 808.333085 414.766098 
L 811.843744 414.514116 
L 813.013964 414.550113 
L 818.865064 415.558045 
L 821.205503 416.026013 
L 822.375723 416.098008 
L 824.716163 415.882023 
L 825.886383 415.91802 
L 829.397043 416.889954 
L 830.567262 416.745964 
L 832.907702 415.954018 
L 834.077922 415.882023 
L 835.248142 416.098008 
L 836.418362 416.529979 
L 838.758802 417.573908 
L 839.929021 417.753895 
L 841.099241 417.501912 
L 844.609901 415.77403 
L 845.780121 415.48605 
L 846.950341 415.48605 
L 849.290781 415.882023 
L 852.80144 416.673969 
L 855.14188 416.745964 
L 862.163199 416.349991 
L 864.503639 416.601974 
L 866.844079 417.177934 
L 870.354738 418.329856 
L 872.695178 419.121802 
L 873.865398 419.30179 
L 875.035618 419.265792 
L 879.716497 417.969881 
L 883.227157 417.609905 
L 884.397377 417.213932 
L 886.737817 415.990015 
L 887.908037 415.558045 
L 889.078256 415.306062 
L 891.418696 415.270064 
L 894.929356 415.77403 
L 896.099576 416.098008 
L 897.269796 416.601974 
L 898.440015 417.24993 
L 900.780455 418.977812 
L 901.950675 419.58977 
L 903.120895 419.733761 
L 904.291115 419.481778 
L 908.971994 417.753895 
L 911.312434 417.321925 
L 912.482654 417.285927 
L 913.652874 417.39392 
L 914.823094 417.645903 
L 915.993314 418.113871 
L 917.163533 418.797824 
L 919.503973 420.453712 
L 920.674193 420.705695 
L 921.844413 420.237726 
L 924.184853 418.545841 
L 925.355073 418.077873 
L 926.525293 417.969881 
L 927.695512 418.185866 
L 930.035952 418.869819 
L 931.206172 418.833822 
L 934.716832 417.645903 
L 937.057271 417.39392 
L 939.397711 417.321925 
L 942.908371 416.889954 
L 944.078591 416.925952 
L 945.248811 417.141937 
L 947.58925 417.82589 
L 948.75947 417.897885 
L 953.44035 417.105939 
L 955.78079 417.105939 
L 956.951009 416.961949 
L 959.291449 416.421986 
L 961.631889 416.170003 
L 963.972329 416.277996 
L 966.312768 416.637971 
L 968.653208 417.069942 
L 970.993648 417.033944 
L 973.334088 416.853956 
L 974.504308 416.997947 
L 975.674527 417.321925 
L 976.844747 417.861888 
L 979.185187 419.229795 
L 980.355407 419.58977 
L 985.036286 420.129734 
L 987.376726 420.885682 
L 988.546946 421.677628 
L 989.717166 422.325584 
L 990.887386 421.893614 
L 993.227826 419.30179 
L 994.398046 418.473846 
L 995.568265 417.969881 
L 996.738485 417.609905 
L 1000.249145 416.889954 
L 1002.589585 416.277996 
L 1003.759805 416.098008 
L 1007.270464 416.06201 
L 1011.951344 415.702035 
L 1014.291783 415.846025 
L 1016.632223 416.206001 
L 1018.972663 416.817959 
L 1021.313103 417.573908 
L 1022.483323 417.861888 
L 1023.653542 418.005878 
L 1024.823762 417.897885 
L 1025.993982 417.53791 
L 1029.504642 415.990015 
L 1030.674862 415.738032 
L 1031.845082 415.666037 
L 1034.185521 416.06201 
L 1037.696181 416.817959 
L 1040.036621 416.889954 
L 1042.377061 416.493981 
L 1047.05794 415.48605 
L 1048.22816 415.414054 
L 1049.39838 415.558045 
L 1051.73882 416.134005 
L 1052.909039 416.170003 
L 1055.249479 415.738032 
L 1056.419699 415.810027 
L 1057.589919 416.241998 
L 1059.930359 417.717898 
L 1063.441018 420.273724 
L 1064.611238 421.029673 
L 1065.781458 421.605633 
L 1066.951678 421.857616 
L 1068.121898 421.785621 
L 1069.292118 421.317653 
L 1070.462338 420.633699 
L 1073.972997 418.185866 
L 1075.143217 417.53791 
L 1076.313437 417.033944 
L 1077.483657 416.709966 
L 1078.653877 416.529979 
L 1080.994317 416.529979 
L 1085.675196 417.069942 
L 1092.696515 416.961949 
L 1095.036955 417.177934 
L 1097.377395 417.789893 
L 1099.717835 418.365854 
L 1100.888055 418.473846 
L 1103.228494 418.221863 
L 1106.739154 417.24993 
L 1109.079594 416.601974 
L 1110.249814 416.385988 
L 1111.420033 416.349991 
L 1112.590253 416.493981 
L 1117.271133 417.753895 
L 1119.611573 417.933883 
L 1121.952012 418.185866 
L 1123.122232 418.437849 
L 1126.632892 419.58977 
L 1127.803112 419.337788 
L 1131.313771 417.357922 
L 1132.483991 417.033944 
L 1134.824431 416.817959 
L 1138.335091 416.889954 
L 1143.01597 417.105939 
L 1146.52663 417.141937 
L 1150.037289 417.501912 
L 1151.207509 417.39392 
L 1152.377729 417.069942 
L 1155.888389 415.702035 
L 1159.399048 414.802096 
L 1160.569268 414.586111 
L 1161.739488 414.514116 
L 1162.909708 414.622108 
L 1165.250148 415.198069 
L 1168.760808 416.313993 
L 1173.441687 417.501912 
L 1175.782127 417.969881 
L 1178.122567 418.149868 
L 1180.463006 418.185866 
L 1181.633226 418.401851 
L 1182.803446 418.797824 
L 1186.314106 420.525707 
L 1187.484326 420.957677 
L 1188.654545 421.173663 
L 1189.824765 421.173663 
L 1192.165205 420.705695 
L 1195.675865 419.517775 
L 1200.356744 417.6819 
L 1201.526964 417.53791 
L 1202.697184 417.609905 
L 1203.867404 417.861888 
L 1212.058943 420.597702 
L 1213.229163 420.705695 
L 1215.569603 420.417714 
L 1220.250482 419.049807 
L 1221.420702 418.653834 
L 1223.761142 417.429917 
L 1224.931362 416.997947 
L 1226.101582 416.817959 
L 1227.271801 416.853956 
L 1229.612241 417.39392 
L 1231.952681 417.969881 
L 1240.14422 419.121802 
L 1241.31444 419.1578 
L 1247.165539 418.725829 
L 1248.335759 418.761827 
L 1249.505979 418.617837 
L 1255.357079 417.033944 
L 1258.867738 416.925952 
L 1262.378398 417.141937 
L 1263.548618 417.357922 
L 1264.718838 417.717898 
L 1265.889057 418.329856 
L 1268.229497 419.949746 
L 1269.399717 420.849685 
L 1270.569937 421.569636 
L 1271.740157 421.965609 
L 1272.910377 421.893614 
L 1276.421036 420.525707 
L 1277.591256 420.345719 
L 1281.101916 420.561704 
L 1284.612576 419.553773 
L 1285.782795 419.409783 
L 1288.123235 419.409783 
L 1289.293455 419.265792 
L 1291.633895 418.365854 
L 1293.974335 417.465915 
L 1295.144554 417.213932 
L 1296.314774 417.141937 
L 1297.484994 417.213932 
L 1298.655214 417.465915 
L 1299.825434 417.897885 
L 1300.995654 418.473846 
L 1304.506313 420.597702 
L 1305.676533 420.885682 
L 1306.846753 420.77769 
L 1306.846753 420.77769 
" style="fill:none;stroke:#4c72b0;stroke-linecap:round;stroke-width:1.5;"/>
   </g>
   <g id="patch_8">
    <path d="M 65.828571 430.92 
L 65.828571 241.842857 
" style="fill:none;stroke:#ffffff;stroke-linecap:square;stroke-linejoin:miter;stroke-width:1.25;"/>
   </g>
   <g id="patch_9">
    <path d="M 1365.942857 430.92 
L 1365.942857 241.842857 
" style="fill:none;stroke:#ffffff;stroke-linecap:square;stroke-linejoin:miter;stroke-width:1.25;"/>
   </g>
   <g id="patch_10">
    <path d="M 65.828571 430.92 
L 1365.942857 430.92 
" style="fill:none;stroke:#ffffff;stroke-linecap:square;stroke-linejoin:miter;stroke-width:1.25;"/>
   </g>
   <g id="patch_11">
    <path d="M 65.828571 241.842857 
L 1365.942857 241.842857 
" style="fill:none;stroke:#ffffff;stroke-linecap:square;stroke-linejoin:miter;stroke-width:1.25;"/>
   </g>
  </g>
  <g id="axes_3">
   <g id="patch_12">
    <path d="M 65.828571 657.812571 
L 1365.942857 657.812571 
L 1365.942857 468.735429 
L 65.828571 468.735429 
z
" style="fill:#eaeaf2;"/>
   </g>
   <g id="matplotlib.axis_5">
    <g id="xtick_23">
     <g id="line2d_37">
      <path clip-path="url(#p09e6082d5c)" d="M 124.924675 657.812571 
L 124.924675 468.735429 
" style="fill:none;stroke:#ffffff;stroke-linecap:round;"/>
     </g>
     <g id="text_38">
      <!-- 0 -->
      <g style="fill:#262626;" transform="translate(121.86616 675.186165)scale(0.11 -0.11)">
       <use xlink:href="#ArialMT-30"/>
      </g>
     </g>
    </g>
    <g id="xtick_24">
     <g id="line2d_38">
      <path clip-path="url(#p09e6082d5c)" d="M 241.946663 657.812571 
L 241.946663 468.735429 
" style="fill:none;stroke:#ffffff;stroke-linecap:round;"/>
     </g>
     <g id="text_39">
      <!-- 1 -->
      <g style="fill:#262626;" transform="translate(238.888148 675.186165)scale(0.11 -0.11)">
       <use xlink:href="#ArialMT-31"/>
      </g>
     </g>
    </g>
    <g id="xtick_25">
     <g id="line2d_39">
      <path clip-path="url(#p09e6082d5c)" d="M 358.968651 657.812571 
L 358.968651 468.735429 
" style="fill:none;stroke:#ffffff;stroke-linecap:round;"/>
     </g>
     <g id="text_40">
      <!-- 2 -->
      <g style="fill:#262626;" transform="translate(355.910136 675.186165)scale(0.11 -0.11)">
       <use xlink:href="#ArialMT-32"/>
      </g>
     </g>
    </g>
    <g id="xtick_26">
     <g id="line2d_40">
      <path clip-path="url(#p09e6082d5c)" d="M 475.990639 657.812571 
L 475.990639 468.735429 
" style="fill:none;stroke:#ffffff;stroke-linecap:round;"/>
     </g>
     <g id="text_41">
      <!-- 3 -->
      <g style="fill:#262626;" transform="translate(472.932123 675.186165)scale(0.11 -0.11)">
       <use xlink:href="#ArialMT-33"/>
      </g>
     </g>
    </g>
    <g id="xtick_27">
     <g id="line2d_41">
      <path clip-path="url(#p09e6082d5c)" d="M 593.012627 657.812571 
L 593.012627 468.735429 
" style="fill:none;stroke:#ffffff;stroke-linecap:round;"/>
     </g>
     <g id="text_42">
      <!-- 4 -->
      <g style="fill:#262626;" transform="translate(589.954111 675.186165)scale(0.11 -0.11)">
       <use xlink:href="#ArialMT-34"/>
      </g>
     </g>
    </g>
    <g id="xtick_28">
     <g id="line2d_42">
      <path clip-path="url(#p09e6082d5c)" d="M 710.034615 657.812571 
L 710.034615 468.735429 
" style="fill:none;stroke:#ffffff;stroke-linecap:round;"/>
     </g>
     <g id="text_43">
      <!-- 5 -->
      <g style="fill:#262626;" transform="translate(706.976099 675.186165)scale(0.11 -0.11)">
       <use xlink:href="#ArialMT-35"/>
      </g>
     </g>
    </g>
    <g id="xtick_29">
     <g id="line2d_43">
      <path clip-path="url(#p09e6082d5c)" d="M 827.056603 657.812571 
L 827.056603 468.735429 
" style="fill:none;stroke:#ffffff;stroke-linecap:round;"/>
     </g>
     <g id="text_44">
      <!-- 6 -->
      <g style="fill:#262626;" transform="translate(823.998087 675.186165)scale(0.11 -0.11)">
       <use xlink:href="#ArialMT-36"/>
      </g>
     </g>
    </g>
    <g id="xtick_30">
     <g id="line2d_44">
      <path clip-path="url(#p09e6082d5c)" d="M 944.078591 657.812571 
L 944.078591 468.735429 
" style="fill:none;stroke:#ffffff;stroke-linecap:round;"/>
     </g>
     <g id="text_45">
      <!-- 7 -->
      <g style="fill:#262626;" transform="translate(941.020075 675.186165)scale(0.11 -0.11)">
       <use xlink:href="#ArialMT-37"/>
      </g>
     </g>
    </g>
    <g id="xtick_31">
     <g id="line2d_45">
      <path clip-path="url(#p09e6082d5c)" d="M 1061.100579 657.812571 
L 1061.100579 468.735429 
" style="fill:none;stroke:#ffffff;stroke-linecap:round;"/>
     </g>
     <g id="text_46">
      <!-- 8 -->
      <g style="fill:#262626;" transform="translate(1058.042063 675.186165)scale(0.11 -0.11)">
       <use xlink:href="#ArialMT-38"/>
      </g>
     </g>
    </g>
    <g id="xtick_32">
     <g id="line2d_46">
      <path clip-path="url(#p09e6082d5c)" d="M 1178.122567 657.812571 
L 1178.122567 468.735429 
" style="fill:none;stroke:#ffffff;stroke-linecap:round;"/>
     </g>
     <g id="text_47">
      <!-- 9 -->
      <g style="fill:#262626;" transform="translate(1175.064051 675.186165)scale(0.11 -0.11)">
       <use xlink:href="#ArialMT-39"/>
      </g>
     </g>
    </g>
    <g id="xtick_33">
     <g id="line2d_47">
      <path clip-path="url(#p09e6082d5c)" d="M 1295.144554 657.812571 
L 1295.144554 468.735429 
" style="fill:none;stroke:#ffffff;stroke-linecap:round;"/>
     </g>
     <g id="text_48">
      <!-- 10 -->
      <g style="fill:#262626;" transform="translate(1289.027523 675.186165)scale(0.11 -0.11)">
       <use xlink:href="#ArialMT-31"/>
       <use x="55.615234" xlink:href="#ArialMT-30"/>
      </g>
     </g>
    </g>
    <g id="text_49">
     <!-- t [ps] -->
     <g style="fill:#262626;" transform="translate(702.881652 689.96179)scale(0.12 -0.12)">
      <defs>
       <path d="M 1650 503 
L 1731 6 
Q 1494 -44 1306 -44 
Q 1000 -44 831 53 
Q 663 150 594 308 
Q 525 466 525 972 
L 525 2881 
L 113 2881 
L 113 3319 
L 525 3319 
L 525 4141 
L 1084 4478 
L 1084 3319 
L 1650 3319 
L 1650 2881 
L 1084 2881 
L 1084 941 
Q 1084 700 1114 631 
Q 1144 563 1211 522 
Q 1278 481 1403 481 
Q 1497 481 1650 503 
z
" id="ArialMT-74" transform="scale(0.015625)"/>
       <path d="M 422 -1272 
L 422 3319 
L 934 3319 
L 934 2888 
Q 1116 3141 1344 3267 
Q 1572 3394 1897 3394 
Q 2322 3394 2647 3175 
Q 2972 2956 3137 2557 
Q 3303 2159 3303 1684 
Q 3303 1175 3120 767 
Q 2938 359 2589 142 
Q 2241 -75 1856 -75 
Q 1575 -75 1351 44 
Q 1128 163 984 344 
L 984 -1272 
L 422 -1272 
z
M 931 1641 
Q 931 1000 1190 694 
Q 1450 388 1819 388 
Q 2194 388 2461 705 
Q 2728 1022 2728 1688 
Q 2728 2322 2467 2637 
Q 2206 2953 1844 2953 
Q 1484 2953 1207 2617 
Q 931 2281 931 1641 
z
" id="ArialMT-70" transform="scale(0.015625)"/>
      </defs>
      <use xlink:href="#ArialMT-74"/>
      <use x="27.783203" xlink:href="#ArialMT-20"/>
      <use x="55.566406" xlink:href="#ArialMT-5b"/>
      <use x="83.349609" xlink:href="#ArialMT-70"/>
      <use x="138.964844" xlink:href="#ArialMT-73"/>
      <use x="188.964844" xlink:href="#ArialMT-5d"/>
     </g>
    </g>
   </g>
   <g id="matplotlib.axis_6">
    <g id="ytick_13">
     <g id="line2d_48">
      <path clip-path="url(#p09e6082d5c)" d="M 65.828571 649.218156 
L 1365.942857 649.218156 
" style="fill:none;stroke:#ffffff;stroke-linecap:round;"/>
     </g>
     <g id="text_50">
      <!-- 0.0 -->
      <g style="fill:#262626;" transform="translate(41.038571 653.154953)scale(0.11 -0.11)">
       <use xlink:href="#ArialMT-30"/>
       <use x="55.615234" xlink:href="#ArialMT-2e"/>
       <use x="83.398438" xlink:href="#ArialMT-30"/>
      </g>
     </g>
    </g>
    <g id="ytick_14">
     <g id="line2d_49">
      <path clip-path="url(#p09e6082d5c)" d="M 65.828571 605.655622 
L 1365.942857 605.655622 
" style="fill:none;stroke:#ffffff;stroke-linecap:round;"/>
     </g>
     <g id="text_51">
      <!-- 0.5 -->
      <g style="fill:#262626;" transform="translate(41.038571 609.592419)scale(0.11 -0.11)">
       <use xlink:href="#ArialMT-30"/>
       <use x="55.615234" xlink:href="#ArialMT-2e"/>
       <use x="83.398438" xlink:href="#ArialMT-35"/>
      </g>
     </g>
    </g>
    <g id="ytick_15">
     <g id="line2d_50">
      <path clip-path="url(#p09e6082d5c)" d="M 65.828571 562.093088 
L 1365.942857 562.093088 
" style="fill:none;stroke:#ffffff;stroke-linecap:round;"/>
     </g>
     <g id="text_52">
      <!-- 1.0 -->
      <g style="fill:#262626;" transform="translate(41.038571 566.029885)scale(0.11 -0.11)">
       <use xlink:href="#ArialMT-31"/>
       <use x="55.615234" xlink:href="#ArialMT-2e"/>
       <use x="83.398438" xlink:href="#ArialMT-30"/>
      </g>
     </g>
    </g>
    <g id="ytick_16">
     <g id="line2d_51">
      <path clip-path="url(#p09e6082d5c)" d="M 65.828571 518.530554 
L 1365.942857 518.530554 
" style="fill:none;stroke:#ffffff;stroke-linecap:round;"/>
     </g>
     <g id="text_53">
      <!-- 1.5 -->
      <g style="fill:#262626;" transform="translate(41.038571 522.467351)scale(0.11 -0.11)">
       <use xlink:href="#ArialMT-31"/>
       <use x="55.615234" xlink:href="#ArialMT-2e"/>
       <use x="83.398438" xlink:href="#ArialMT-35"/>
      </g>
     </g>
    </g>
    <g id="ytick_17">
     <g id="line2d_52">
      <path clip-path="url(#p09e6082d5c)" d="M 65.828571 474.96802 
L 1365.942857 474.96802 
" style="fill:none;stroke:#ffffff;stroke-linecap:round;"/>
     </g>
     <g id="text_54">
      <!-- 2.0 -->
      <g style="fill:#262626;" transform="translate(41.038571 478.904817)scale(0.11 -0.11)">
       <use xlink:href="#ArialMT-32"/>
       <use x="55.615234" xlink:href="#ArialMT-2e"/>
       <use x="83.398438" xlink:href="#ArialMT-30"/>
      </g>
     </g>
    </g>
    <g id="text_55">
     <!-- P [atm] -->
     <g style="fill:#262626;" transform="translate(34.653571 582.173063)rotate(-90)scale(0.12 -0.12)">
      <defs>
       <path d="M 494 0 
L 494 4581 
L 2222 4581 
Q 2678 4581 2919 4538 
Q 3256 4481 3484 4323 
Q 3713 4166 3852 3881 
Q 3991 3597 3991 3256 
Q 3991 2672 3619 2267 
Q 3247 1863 2275 1863 
L 1100 1863 
L 1100 0 
L 494 0 
z
M 1100 2403 
L 2284 2403 
Q 2872 2403 3119 2622 
Q 3366 2841 3366 3238 
Q 3366 3525 3220 3729 
Q 3075 3934 2838 4000 
Q 2684 4041 2272 4041 
L 1100 4041 
L 1100 2403 
z
" id="ArialMT-50" transform="scale(0.015625)"/>
      </defs>
      <use xlink:href="#ArialMT-50"/>
      <use x="64.949219" xlink:href="#ArialMT-20"/>
      <use x="92.732422" xlink:href="#ArialMT-5b"/>
      <use x="120.515625" xlink:href="#ArialMT-61"/>
      <use x="176.130859" xlink:href="#ArialMT-74"/>
      <use x="203.914062" xlink:href="#ArialMT-6d"/>
      <use x="287.214844" xlink:href="#ArialMT-5d"/>
     </g>
    </g>
   </g>
   <g id="line2d_53">
    <path clip-path="url(#p09e6082d5c)" d="M 124.924675 649.218156 
L 234.925344 649.218156 
L 236.095564 646.692054 
L 238.436004 641.093481 
L 240.776443 636.296354 
L 241.946663 634.349161 
L 243.116883 632.769363 
L 244.287103 631.598948 
L 245.457323 630.864158 
L 246.627543 630.591236 
L 247.797763 630.774934 
L 248.967983 631.41525 
L 250.138202 632.50169 
L 251.308422 634.00276 
L 252.478642 635.881722 
L 253.648862 638.086091 
L 255.989302 643.271608 
L 258.329742 649.031309 
L 259.499961 649.218156 
L 300.457657 649.218156 
L 301.627877 648.247184 
L 303.968317 642.269144 
L 305.138537 637.403787 
L 307.478976 626.324207 
L 308.649196 621.574317 
L 309.819416 617.511979 
L 310.989636 614.242165 
L 312.159856 611.838353 
L 313.330076 610.363525 
L 314.500296 609.859669 
L 315.670516 610.332034 
L 316.840736 611.775371 
L 318.010955 614.15294 
L 319.181175 617.401761 
L 320.351395 621.437856 
L 321.521615 626.172001 
L 325.032275 641.896501 
L 327.372714 648.314364 
L 328.542934 649.218156 
L 346.096232 649.218156 
L 347.266452 648.566817 
L 348.436672 645.817654 
L 350.777112 634.081487 
L 353.117552 623.846916 
L 354.287772 619.621875 
L 355.457992 616.131624 
L 356.628211 613.465387 
L 357.798431 611.691395 
L 358.968651 610.856883 
L 360.138871 610.977599 
L 361.309091 612.05879 
L 362.479311 613.759303 
L 363.649531 612.898549 
L 364.819751 610.914617 
L 365.98997 609.89116 
L 367.16019 609.849172 
L 368.33041 610.232312 
L 370.67085 606.878522 
L 371.84107 602.873918 
L 375.351729 578.363432 
L 376.521949 568.233831 
L 377.692169 560.046174 
L 378.862389 554.115371 
L 380.032609 550.493907 
L 381.202829 549.339238 
L 382.373049 549.234268 
L 384.713488 542.988555 
L 385.883708 541.466491 
L 387.053928 539.629516 
L 388.224148 538.632302 
L 389.394368 539.052181 
L 390.564588 541.361521 
L 392.905028 551.806032 
L 394.075248 557.946774 
L 395.245467 560.518539 
L 396.415687 558.209199 
L 397.585907 556.687135 
L 398.756127 552.645791 
L 402.266787 526.193361 
L 403.437007 519.947648 
L 404.607226 516.90352 
L 405.777446 515.486425 
L 406.947666 511.235142 
L 408.117886 508.820833 
L 409.288106 509.975502 
L 410.458326 514.48921 
L 411.628546 520.000133 
L 413.968985 534.643443 
L 415.139205 537.320177 
L 416.309425 537.110237 
L 417.479645 537.897512 
L 418.649865 533.121379 
L 419.820085 523.779052 
L 420.990305 516.221215 
L 422.160525 509.818047 
L 423.330745 502.78506 
L 424.500964 497.589047 
L 425.671184 491.133394 
L 426.841404 483.260647 
L 428.011624 479.534213 
L 429.181844 477.329844 
L 430.352064 478.169604 
L 431.522284 481.633613 
L 432.692504 489.348905 
L 433.862723 500.790631 
L 435.032943 513.491996 
L 437.373383 541.623945 
L 438.543603 550.703847 
L 440.884043 563.300242 
L 442.054263 566.501826 
L 443.224482 566.239401 
L 444.394702 567.236616 
L 445.564922 567.761466 
L 446.735142 569.17856 
L 447.905362 568.391286 
L 449.075582 564.664852 
L 450.245802 558.104229 
L 452.586241 548.866873 
L 453.756461 542.463705 
L 454.926681 537.530117 
L 456.096901 533.541258 
L 457.267121 530.864524 
L 458.437341 530.129735 
L 459.607561 523.779052 
L 460.777781 520.472498 
L 461.948001 520.367528 
L 463.11822 523.044262 
L 464.28844 524.461357 
L 465.45866 525.301116 
L 466.62888 522.991777 
L 467.7991 521.942078 
L 468.96932 519.317829 
L 470.13954 518.320614 
L 471.30976 516.48364 
L 472.479979 513.334541 
L 473.650199 512.389811 
L 474.820419 514.856605 
L 475.990639 520.472498 
L 477.160859 523.306687 
L 478.331079 527.295546 
L 479.501299 532.071679 
L 480.671519 538.684787 
L 481.841738 546.190139 
L 483.011958 550.651362 
L 484.182178 556.21477 
L 485.352398 563.352727 
L 487.692838 580.515316 
L 488.863058 583.769385 
L 490.033278 581.879926 
L 491.203497 580.830226 
L 492.373717 580.252891 
L 493.543937 577.733612 
L 494.714157 575.529243 
L 495.884377 569.755895 
L 497.054597 564.664852 
L 498.224817 561.620723 
L 499.395037 559.573809 
L 500.565257 554.062886 
L 501.735476 550.074027 
L 502.905696 548.551963 
L 504.075916 548.027113 
L 505.246136 546.610019 
L 506.416356 547.659718 
L 507.586576 549.601663 
L 508.756796 553.380581 
L 511.097235 564.035032 
L 512.267455 562.670423 
L 513.437675 561.883148 
L 515.778115 563.772607 
L 516.948335 561.410783 
L 519.288775 553.118156 
L 521.629214 546.819959 
L 522.799434 544.458134 
L 523.969654 542.8311 
L 526.310094 543.35595 
L 527.480314 541.204066 
L 528.650534 534.328533 
L 530.990973 521.574683 
L 533.331413 513.177086 
L 534.501633 506.878888 
L 535.671853 499.478506 
L 536.842073 493.810128 
L 538.012293 492.025639 
L 539.182513 492.288064 
L 540.352732 494.230008 
L 541.522952 497.116682 
L 542.693172 503.257425 
L 545.033612 519.685224 
L 546.203832 531.336889 
L 547.374052 544.563104 
L 548.544272 559.941204 
L 549.714491 573.797239 
L 550.884711 585.501389 
L 553.225151 601.971176 
L 554.395371 607.702536 
L 555.565591 614.473099 
L 556.735811 620.23595 
L 557.906031 621.800002 
L 559.07625 620.424895 
L 561.41669 610.043366 
L 562.58691 605.944289 
L 563.75713 602.926403 
L 564.92735 601.057938 
L 566.09757 600.38613 
L 567.26779 599.100248 
L 568.43801 598.659374 
L 569.608229 599.47814 
L 570.778449 600.87424 
L 571.948669 603.21507 
L 573.118889 606.358921 
L 574.289109 608.98317 
L 575.459329 612.604633 
L 577.799769 621.91022 
L 578.969988 626.990767 
L 580.140208 632.617156 
L 581.310428 636.285857 
L 582.480648 636.364584 
L 585.991308 622.938926 
L 589.501967 609.397801 
L 591.842407 602.658729 
L 594.182847 594.108926 
L 595.353067 591.169767 
L 597.693506 586.970969 
L 598.863726 583.664415 
L 600.033946 579.518102 
L 601.204166 576.054093 
L 602.374386 573.324874 
L 603.544606 571.540384 
L 604.714826 570.33323 
L 605.885046 565.347157 
L 607.055266 561.200843 
L 608.225485 558.051744 
L 609.395705 554.535251 
L 610.565925 550.441422 
L 611.736145 547.239838 
L 612.906365 546.295109 
L 614.076585 547.817173 
L 615.246805 550.598877 
L 616.417025 551.228697 
L 617.587244 553.013186 
L 618.757464 557.107015 
L 619.927684 562.460483 
L 621.097904 568.496256 
L 623.438344 576.473973 
L 625.778784 587.600789 
L 628.119223 595.526021 
L 629.289443 598.517665 
L 630.459663 602.034158 
L 631.629883 604.222782 
L 632.800103 604.905087 
L 633.970323 603.902624 
L 635.140543 603.860636 
L 636.310763 604.920832 
L 637.480982 605.639876 
L 638.651202 604.180794 
L 639.821422 601.115671 
L 640.991642 598.958538 
L 642.161862 598.055797 
L 643.332082 598.417943 
L 644.502302 600.044977 
L 645.672522 600.081717 
L 646.842741 598.969035 
L 648.012961 599.110745 
L 649.183181 597.898342 
L 650.353401 595.9459 
L 651.523621 593.741531 
L 652.693841 592.376922 
L 653.864061 591.379707 
L 655.034281 591.274737 
L 657.37472 592.166982 
L 658.54494 591.904557 
L 659.71516 592.324437 
L 660.88538 588.965398 
L 662.0556 583.40199 
L 663.22582 579.150707 
L 664.39604 576.631428 
L 666.736479 573.797239 
L 667.906699 573.062449 
L 669.076919 570.85808 
L 670.247139 569.91335 
L 671.417359 570.96305 
L 673.757799 570.490685 
L 674.928019 570.96305 
L 676.098238 573.062449 
L 678.438678 579.518102 
L 679.608898 584.45169 
L 680.779118 588.545518 
L 683.119558 595.368566 
L 685.459997 597.242279 
L 686.630217 599.283945 
L 687.800437 602.41205 
L 688.970657 606.479636 
L 690.140877 609.670723 
L 691.311097 609.413547 
L 692.481317 607.476851 
L 693.651537 606.579358 
L 694.821756 605.492918 
L 695.991976 601.734994 
L 697.162196 597.079576 
L 698.332416 593.164196 
L 699.502636 589.700188 
L 701.843076 585.029024 
L 703.013296 583.874355 
L 704.183515 582.247321 
L 706.523955 579.728041 
L 707.694175 579.728041 
L 708.864395 581.040166 
L 710.034615 583.139565 
L 711.204835 584.294235 
L 712.375055 586.026239 
L 713.545275 589.385278 
L 714.715494 591.432192 
L 715.885714 592.271952 
L 717.055934 593.269166 
L 718.226154 593.059227 
L 719.396374 592.586862 
L 720.566594 591.747102 
L 721.736814 590.539947 
L 722.907034 587.548304 
L 724.077253 584.97654 
L 725.247473 582.929625 
L 726.417693 582.56223 
L 729.928353 579.255677 
L 731.098573 579.833011 
L 732.268793 582.142351 
L 733.439012 583.244535 
L 734.609232 583.40199 
L 735.779452 581.932411 
L 738.119892 581.984896 
L 741.630552 572.222689 
L 743.970991 564.192487 
L 745.141211 560.571023 
L 746.311431 557.421925 
L 747.481651 555.060101 
L 748.651871 553.643006 
L 749.822091 553.957916 
L 750.992311 553.695491 
L 752.162531 553.747976 
L 753.33275 553.013186 
L 754.50297 554.325311 
L 755.67319 557.999259 
L 756.84341 562.303028 
L 759.18385 569.650925 
L 761.52429 580.725256 
L 762.694509 584.399205 
L 763.864729 589.017883 
L 765.034949 592.271952 
L 767.375389 597.163552 
L 768.545609 600.984459 
L 769.715829 605.996774 
L 773.226488 624.623694 
L 774.396708 628.255655 
L 775.566928 631.184316 
L 777.907368 632.527932 
L 779.077588 633.540892 
L 780.247808 634.254688 
L 781.418028 632.365229 
L 782.588247 628.958953 
L 783.758467 625.93057 
L 787.269127 618.356987 
L 788.439347 615.48081 
L 789.609567 613.381411 
L 790.779787 612.174256 
L 791.950006 611.890838 
L 793.120226 612.5469 
L 794.290446 612.809325 
L 795.460666 613.302684 
L 796.630886 612.909046 
L 797.801106 610.778156 
L 798.971326 609.413547 
L 800.141546 609.040903 
L 801.311765 609.675971 
L 802.481985 610.956605 
L 803.652205 611.838353 
L 804.822425 610.667938 
L 805.992645 608.94643 
L 807.162865 608.164404 
L 808.333085 606.826037 
L 811.843744 597.62542 
L 813.013964 595.893415 
L 814.184184 595.526021 
L 815.354404 596.523235 
L 816.524624 598.612137 
L 817.694844 599.121242 
L 818.865064 600.144699 
L 821.205503 601.635272 
L 822.375723 601.624775 
L 823.545943 600.968713 
L 824.716163 601.246884 
L 825.886383 602.438293 
L 827.056603 602.721711 
L 828.226823 602.700717 
L 829.397043 600.926725 
L 830.567262 600.023983 
L 831.737482 596.748921 
L 832.907702 592.954257 
L 834.077922 590.015098 
L 835.248142 588.598003 
L 836.418362 588.125638 
L 837.588582 588.965398 
L 838.758802 591.327222 
L 841.099241 598.344464 
L 842.269461 600.218178 
L 843.439681 601.042192 
L 844.609901 601.204896 
L 845.780121 599.131739 
L 846.950341 595.106141 
L 848.120561 592.429407 
L 849.290781 591.169767 
L 850.461 591.379707 
L 851.63122 591.117282 
L 852.80144 590.172553 
L 853.97166 590.434977 
L 855.14188 589.962613 
L 856.3121 590.854857 
L 857.48232 592.534377 
L 858.65254 593.059227 
L 859.822759 594.108926 
L 860.992979 594.948686 
L 862.163199 595.053656 
L 863.333419 596.36578 
L 864.503639 598.948041 
L 865.673859 598.869314 
L 866.844079 598.438937 
L 868.014299 598.444186 
L 871.524958 594.948686 
L 872.695178 595.211111 
L 873.865398 596.880133 
L 875.035618 599.835038 
L 876.205838 604.012842 
L 877.376058 609.130128 
L 878.546277 614.793257 
L 879.716497 621.264655 
L 880.886717 626.213989 
L 883.227157 631.646184 
L 884.397377 632.832345 
L 885.567597 632.433459 
L 887.908037 629.557282 
L 889.078256 627.006512 
L 890.248476 624.896616 
L 891.418696 623.411291 
L 892.588916 622.582028 
L 893.759136 621.238413 
L 894.929356 616.682716 
L 896.099576 611.124557 
L 897.269796 606.374666 
L 898.440015 602.705966 
L 899.610235 600.207681 
L 900.780455 598.454683 
L 901.950675 597.168801 
L 903.120895 596.57572 
L 904.291115 596.47075 
L 905.461335 597.168801 
L 907.801774 596.748921 
L 908.971994 595.840931 
L 910.142214 595.840931 
L 911.312434 596.05087 
L 912.482654 595.053656 
L 913.652874 594.843716 
L 914.823094 595.578506 
L 915.993314 597.672656 
L 917.163533 600.422869 
L 918.333753 599.262951 
L 919.503973 595.840931 
L 920.674193 593.479106 
L 921.844413 592.166982 
L 924.184853 584.924055 
L 925.355073 582.299805 
L 926.525293 581.302591 
L 927.695512 581.932411 
L 928.865732 583.559445 
L 930.035952 584.34672 
L 931.206172 583.61193 
L 932.376392 584.13678 
L 933.546612 585.973754 
L 935.887052 592.114497 
L 937.057271 596.313295 
L 940.567931 611.575928 
L 941.738151 615.207888 
L 942.908371 617.527725 
L 944.078591 620.193962 
L 945.248811 621.516583 
L 947.58925 618.13655 
L 948.75947 617.244306 
L 949.92969 615.433574 
L 952.27013 611.334497 
L 953.44035 609.618238 
L 954.61057 607.251165 
L 955.78079 605.923295 
L 956.951009 604.023339 
L 958.121229 602.763699 
L 959.291449 602.223104 
L 960.461669 602.254595 
L 961.631889 602.989385 
L 962.802109 602.207359 
L 965.142549 603.031373 
L 966.312768 602.9369 
L 967.482988 603.540477 
L 968.653208 602.942148 
L 969.823428 602.947397 
L 970.993648 604.102066 
L 972.163868 606.385163 
L 973.334088 607.30365 
L 974.504308 607.272159 
L 975.674527 604.852602 
L 976.844747 600.942471 
L 978.014967 596.103355 
L 979.185187 592.586862 
L 981.525627 583.82187 
L 982.695847 578.625857 
L 983.866067 574.532028 
L 985.036286 571.802809 
L 986.206506 570.01832 
L 987.376726 570.22826 
L 988.546946 571.697839 
L 989.717166 574.112149 
L 990.887386 578.363432 
L 992.057606 583.82187 
L 993.227826 590.067583 
L 994.398046 597.788123 
L 996.738485 616.268085 
L 997.908705 625.689139 
L 999.078925 632.685387 
L 1000.249145 637.104622 
L 1002.589585 643.565523 
L 1003.759805 646.0066 
L 1004.930024 646.958153 
L 1007.270464 645.20358 
L 1008.440684 643.68099 
L 1009.610904 641.844016 
L 1011.951344 634.601089 
L 1013.121564 631.410002 
L 1014.291783 628.665037 
L 1015.462003 626.423929 
L 1016.632223 624.749658 
L 1017.802443 623.684213 
L 1018.972663 623.248587 
L 1020.142883 623.458527 
L 1021.313103 624.303536 
L 1022.483323 625.767866 
L 1023.653542 627.814781 
L 1024.823762 629.420821 
L 1025.993982 630.365551 
L 1027.164202 629.604519 
L 1028.334422 628.150685 
L 1030.674862 622.85495 
L 1034.185521 609.445037 
L 1035.355741 604.569183 
L 1036.525961 600.433366 
L 1037.696181 597.509953 
L 1038.866401 595.840931 
L 1040.036621 595.526021 
L 1041.206841 596.523235 
L 1042.377061 598.858817 
L 1043.54728 601.635272 
L 1044.7175 605.267233 
L 1045.88772 609.95939 
L 1047.05794 615.559538 
L 1049.39838 625.290253 
L 1050.5686 628.024721 
L 1051.73882 629.468058 
L 1052.909039 628.791001 
L 1054.079259 625.689139 
L 1055.249479 618.960564 
L 1057.589919 604.621668 
L 1059.930359 590.959827 
L 1062.270799 574.951908 
L 1063.441018 568.338801 
L 1064.611238 563.772607 
L 1065.781458 561.305813 
L 1066.951678 560.151144 
L 1068.121898 560.990903 
L 1069.292118 564.087517 
L 1070.462338 568.86365 
L 1071.632558 574.269603 
L 1072.802777 581.355076 
L 1073.972997 589.332793 
L 1076.313437 602.249347 
L 1077.483657 607.917725 
L 1079.824097 611.901335 
L 1082.164536 617.501482 
L 1083.334756 618.677146 
L 1085.675196 614.436359 
L 1086.845416 612.410439 
L 1089.185856 610.300543 
L 1090.356076 608.122416 
L 1091.526295 606.962498 
L 1092.696515 606.847031 
L 1093.866735 607.613312 
L 1095.036955 606.044011 
L 1096.207175 603.629702 
L 1098.547615 601.141914 
L 1099.717835 600.947719 
L 1102.058274 602.454038 
L 1103.228494 603.860636 
L 1104.398714 606.400909 
L 1105.568934 610.006627 
L 1107.909374 615.003197 
L 1109.079594 617.165578 
L 1110.249814 618.367484 
L 1111.420033 617.931859 
L 1112.590253 616.766692 
L 1113.760473 614.651548 
L 1114.930693 613.397157 
L 1116.100913 613.024513 
L 1117.271133 613.307932 
L 1118.441353 610.998593 
L 1120.781792 605.739598 
L 1121.952012 604.096818 
L 1123.122232 601.714 
L 1124.292452 599.808795 
L 1125.462672 598.654125 
L 1126.632892 598.354961 
L 1127.803112 599.304939 
L 1128.973332 601.194399 
L 1131.313771 606.563612 
L 1132.483991 607.434863 
L 1133.654211 607.776015 
L 1134.824431 606.484885 
L 1135.994651 606.190969 
L 1137.164871 606.936255 
L 1138.335091 607.818003 
L 1139.505311 608.232634 
L 1140.67553 609.628735 
L 1141.84575 610.788653 
L 1143.01597 612.662367 
L 1144.18619 615.370592 
L 1145.35641 617.553967 
L 1147.69685 620.204459 
L 1148.86707 622.198888 
L 1150.037289 624.865125 
L 1151.207509 628.134939 
L 1152.377729 631.824633 
L 1153.547949 634.254688 
L 1154.718169 635.708522 
L 1155.888389 636.306851 
L 1157.058609 637.225338 
L 1158.228829 638.442989 
L 1159.399048 639.83909 
L 1160.569268 640.390182 
L 1161.739488 639.167282 
L 1165.250148 627.095736 
L 1166.420368 623.69471 
L 1167.590588 619.56939 
L 1169.931027 609.864917 
L 1172.271467 602.20211 
L 1173.441687 599.131739 
L 1174.611907 596.628205 
L 1175.782127 595.263596 
L 1176.952347 593.426621 
L 1178.122567 592.271952 
L 1179.292786 591.799587 
L 1180.463006 590.382493 
L 1181.633226 587.758243 
L 1186.314106 568.601226 
L 1187.484326 565.137217 
L 1188.654545 559.363869 
L 1189.824765 555.007616 
L 1190.994985 551.491122 
L 1192.165205 549.024328 
L 1193.335425 548.184568 
L 1194.505645 549.234268 
L 1195.675865 551.333667 
L 1198.016304 558.209199 
L 1200.356744 567.341586 
L 1201.526964 570.4382 
L 1202.697184 574.689483 
L 1205.037624 581.197621 
L 1206.207844 581.827441 
L 1207.378064 579.937981 
L 1208.548283 579.255677 
L 1209.718503 579.098222 
L 1210.888723 579.255677 
L 1212.058943 576.736398 
L 1213.229163 575.529243 
L 1214.399383 576.054093 
L 1215.569603 578.205977 
L 1216.739823 582.089866 
L 1217.910042 587.548304 
L 1219.080262 593.846501 
L 1221.420702 604.695147 
L 1222.590922 609.885911 
L 1223.761142 613.87477 
L 1224.931362 614.898227 
L 1226.101582 616.367806 
L 1227.271801 617.396512 
L 1228.442021 619.217741 
L 1229.612241 619.789827 
L 1230.782461 618.099811 
L 1233.122901 615.69075 
L 1235.463341 607.991204 
L 1236.63356 605.109778 
L 1237.80378 603.309543 
L 1238.974 602.627239 
L 1240.14422 603.083858 
L 1241.31444 604.64791 
L 1242.48466 606.631843 
L 1243.65488 605.807828 
L 1244.8251 604.222782 
L 1245.99532 603.734672 
L 1248.335759 603.393519 
L 1249.505979 604.238527 
L 1250.676199 604.102066 
L 1251.846419 604.348746 
L 1253.016639 605.708107 
L 1254.186859 608.138161 
L 1255.357079 611.591673 
L 1256.527298 613.943 
L 1257.697518 612.588888 
L 1258.867738 611.74388 
L 1260.037958 611.098314 
L 1261.208178 609.838675 
L 1262.378398 609.555256 
L 1263.548618 608.017446 
L 1264.718838 604.443219 
L 1265.889057 601.231138 
L 1268.229497 592.744317 
L 1269.399717 589.595218 
L 1270.569937 587.338364 
L 1271.740157 586.551089 
L 1272.910377 585.973754 
L 1274.080597 585.606359 
L 1275.250817 586.656059 
L 1276.421036 589.122853 
L 1277.591256 592.744317 
L 1281.101916 604.89459 
L 1283.442356 614.39962 
L 1284.612576 618.582673 
L 1285.782795 623.490018 
L 1286.953015 625.804606 
L 1288.123235 626.654863 
L 1289.293455 628.056212 
L 1290.463675 629.966665 
L 1291.633895 631.226304 
L 1292.804115 630.890401 
L 1293.974335 629.929925 
L 1295.144554 629.441815 
L 1297.484994 622.828708 
L 1298.655214 620.214956 
L 1299.825434 616.824426 
L 1300.995654 613.848527 
L 1304.506313 600.674797 
L 1305.676533 597.90359 
L 1306.846753 593.741531 
L 1306.846753 593.741531 
" style="fill:none;stroke:#4c72b0;stroke-linecap:round;stroke-width:1.5;"/>
   </g>
   <g id="patch_13">
    <path d="M 65.828571 657.812571 
L 65.828571 468.735429 
" style="fill:none;stroke:#ffffff;stroke-linecap:square;stroke-linejoin:miter;stroke-width:1.25;"/>
   </g>
   <g id="patch_14">
    <path d="M 1365.942857 657.812571 
L 1365.942857 468.735429 
" style="fill:none;stroke:#ffffff;stroke-linecap:square;stroke-linejoin:miter;stroke-width:1.25;"/>
   </g>
   <g id="patch_15">
    <path d="M 65.828571 657.812571 
L 1365.942857 657.812571 
" style="fill:none;stroke:#ffffff;stroke-linecap:square;stroke-linejoin:miter;stroke-width:1.25;"/>
   </g>
   <g id="patch_16">
    <path d="M 65.828571 468.735429 
L 1365.942857 468.735429 
" style="fill:none;stroke:#ffffff;stroke-linecap:square;stroke-linejoin:miter;stroke-width:1.25;"/>
   </g>
  </g>
 </g>
 <defs>
  <clipPath id="p803633bd6d">
   <rect height="189.077143" width="1300.114286" x="65.828571" y="14.950286"/>
  </clipPath>
  <clipPath id="pefd8ac4f8b">
   <rect height="189.077143" width="1300.114286" x="65.828571" y="241.842857"/>
  </clipPath>
  <clipPath id="p09e6082d5c">
   <rect height="189.077143" width="1300.114286" x="65.828571" y="468.735429"/>
  </clipPath>
 </defs>
</svg>
