<?xml version="1.0" encoding="utf-8" standalone="no"?>
<!DOCTYPE svg PUBLIC "-//W3C//DTD SVG 1.1//EN"
  "http://www.w3.org/Graphics/SVG/1.1/DTD/svg11.dtd">
<svg height="542.16pt" version="1.1" viewBox="0 0 1105.92 542.16" width="1105.92pt" xmlns="http://www.w3.org/2000/svg" xmlns:xlink="http://www.w3.org/1999/xlink">
 <metadata>
  <rdf:RDF xmlns:cc="http://creativecommons.org/ns#" xmlns:dc="http://purl.org/dc/elements/1.1/" xmlns:rdf="http://www.w3.org/1999/02/22-rdf-syntax-ns#">
   <cc:Work>
    <dc:type rdf:resource="http://purl.org/dc/dcmitype/StillImage"/>
    <dc:date>2021-11-03T16:53:47.028847</dc:date>
    <dc:format>image/svg+xml</dc:format>
    <dc:creator>
     <cc:Agent>
      <dc:title>Matplotlib v3.4.3, https://matplotlib.org/</dc:title>
     </cc:Agent>
    </dc:creator>
   </cc:Work>
  </rdf:RDF>
 </metadata>
 <defs>
  <style type="text/css">*{stroke-linecap:butt;stroke-linejoin:round;}</style>
 </defs>
 <g id="figure_1">
  <g id="patch_1">
   <path d="M 0 542.16 
L 1105.92 542.16 
L 1105.92 0 
L 0 0 
z
" style="fill:#ffffff;"/>
  </g>
  <g id="axes_1">
   <g id="patch_2">
    <path d="M 65.828571 165.38158 
L 1079.588571 165.38158 
L 1079.588571 24.526286 
L 65.828571 24.526286 
z
" style="fill:#eaeaf2;"/>
   </g>
   <g id="matplotlib.axis_1">
    <g id="xtick_1">
     <g id="line2d_1">
      <path clip-path="url(#p77da23126d)" d="M 111.908571 165.38158 
L 111.908571 24.526286 
" style="fill:none;stroke:#ffffff;stroke-linecap:round;"/>
     </g>
     <g id="text_1">
      <!-- 0 -->
      <g style="fill:#262626;" transform="translate(108.850056 182.755174)scale(0.11 -0.11)">
       <defs>
        <path d="M 266 2259 
Q 266 3072 433 3567 
Q 600 4063 929 4331 
Q 1259 4600 1759 4600 
Q 2128 4600 2406 4451 
Q 2684 4303 2865 4023 
Q 3047 3744 3150 3342 
Q 3253 2941 3253 2259 
Q 3253 1453 3087 958 
Q 2922 463 2592 192 
Q 2263 -78 1759 -78 
Q 1097 -78 719 397 
Q 266 969 266 2259 
z
M 844 2259 
Q 844 1131 1108 757 
Q 1372 384 1759 384 
Q 2147 384 2411 759 
Q 2675 1134 2675 2259 
Q 2675 3391 2411 3762 
Q 2147 4134 1753 4134 
Q 1366 4134 1134 3806 
Q 844 3388 844 2259 
z
" id="ArialMT-30" transform="scale(0.015625)"/>
       </defs>
       <use xlink:href="#ArialMT-30"/>
      </g>
     </g>
    </g>
    <g id="xtick_2">
     <g id="line2d_2">
      <path clip-path="url(#p77da23126d)" d="M 203.156096 165.38158 
L 203.156096 24.526286 
" style="fill:none;stroke:#ffffff;stroke-linecap:round;"/>
     </g>
     <g id="text_2">
      <!-- 1 -->
      <g style="fill:#262626;" transform="translate(200.097581 182.755174)scale(0.11 -0.11)">
       <defs>
        <path d="M 2384 0 
L 1822 0 
L 1822 3584 
Q 1619 3391 1289 3197 
Q 959 3003 697 2906 
L 697 3450 
Q 1169 3672 1522 3987 
Q 1875 4303 2022 4600 
L 2384 4600 
L 2384 0 
z
" id="ArialMT-31" transform="scale(0.015625)"/>
       </defs>
       <use xlink:href="#ArialMT-31"/>
      </g>
     </g>
    </g>
    <g id="xtick_3">
     <g id="line2d_3">
      <path clip-path="url(#p77da23126d)" d="M 294.403621 165.38158 
L 294.403621 24.526286 
" style="fill:none;stroke:#ffffff;stroke-linecap:round;"/>
     </g>
     <g id="text_3">
      <!-- 2 -->
      <g style="fill:#262626;" transform="translate(291.345105 182.755174)scale(0.11 -0.11)">
       <defs>
        <path d="M 3222 541 
L 3222 0 
L 194 0 
Q 188 203 259 391 
Q 375 700 629 1000 
Q 884 1300 1366 1694 
Q 2113 2306 2375 2664 
Q 2638 3022 2638 3341 
Q 2638 3675 2398 3904 
Q 2159 4134 1775 4134 
Q 1369 4134 1125 3890 
Q 881 3647 878 3216 
L 300 3275 
Q 359 3922 746 4261 
Q 1134 4600 1788 4600 
Q 2447 4600 2831 4234 
Q 3216 3869 3216 3328 
Q 3216 3053 3103 2787 
Q 2991 2522 2730 2228 
Q 2469 1934 1863 1422 
Q 1356 997 1212 845 
Q 1069 694 975 541 
L 3222 541 
z
" id="ArialMT-32" transform="scale(0.015625)"/>
       </defs>
       <use xlink:href="#ArialMT-32"/>
      </g>
     </g>
    </g>
    <g id="xtick_4">
     <g id="line2d_4">
      <path clip-path="url(#p77da23126d)" d="M 385.651146 165.38158 
L 385.651146 24.526286 
" style="fill:none;stroke:#ffffff;stroke-linecap:round;"/>
     </g>
     <g id="text_4">
      <!-- 3 -->
      <g style="fill:#262626;" transform="translate(382.59263 182.755174)scale(0.11 -0.11)">
       <defs>
        <path d="M 269 1209 
L 831 1284 
Q 928 806 1161 595 
Q 1394 384 1728 384 
Q 2125 384 2398 659 
Q 2672 934 2672 1341 
Q 2672 1728 2419 1979 
Q 2166 2231 1775 2231 
Q 1616 2231 1378 2169 
L 1441 2663 
Q 1497 2656 1531 2656 
Q 1891 2656 2178 2843 
Q 2466 3031 2466 3422 
Q 2466 3731 2256 3934 
Q 2047 4138 1716 4138 
Q 1388 4138 1169 3931 
Q 950 3725 888 3313 
L 325 3413 
Q 428 3978 793 4289 
Q 1159 4600 1703 4600 
Q 2078 4600 2393 4439 
Q 2709 4278 2876 4000 
Q 3044 3722 3044 3409 
Q 3044 3113 2884 2869 
Q 2725 2625 2413 2481 
Q 2819 2388 3044 2092 
Q 3269 1797 3269 1353 
Q 3269 753 2831 336 
Q 2394 -81 1725 -81 
Q 1122 -81 723 278 
Q 325 638 269 1209 
z
" id="ArialMT-33" transform="scale(0.015625)"/>
       </defs>
       <use xlink:href="#ArialMT-33"/>
      </g>
     </g>
    </g>
    <g id="xtick_5">
     <g id="line2d_5">
      <path clip-path="url(#p77da23126d)" d="M 476.89867 165.38158 
L 476.89867 24.526286 
" style="fill:none;stroke:#ffffff;stroke-linecap:round;"/>
     </g>
     <g id="text_5">
      <!-- 4 -->
      <g style="fill:#262626;" transform="translate(473.840155 182.755174)scale(0.11 -0.11)">
       <defs>
        <path d="M 2069 0 
L 2069 1097 
L 81 1097 
L 81 1613 
L 2172 4581 
L 2631 4581 
L 2631 1613 
L 3250 1613 
L 3250 1097 
L 2631 1097 
L 2631 0 
L 2069 0 
z
M 2069 1613 
L 2069 3678 
L 634 1613 
L 2069 1613 
z
" id="ArialMT-34" transform="scale(0.015625)"/>
       </defs>
       <use xlink:href="#ArialMT-34"/>
      </g>
     </g>
    </g>
    <g id="xtick_6">
     <g id="line2d_6">
      <path clip-path="url(#p77da23126d)" d="M 568.146195 165.38158 
L 568.146195 24.526286 
" style="fill:none;stroke:#ffffff;stroke-linecap:round;"/>
     </g>
     <g id="text_6">
      <!-- 5 -->
      <g style="fill:#262626;" transform="translate(565.08768 182.755174)scale(0.11 -0.11)">
       <defs>
        <path d="M 266 1200 
L 856 1250 
Q 922 819 1161 601 
Q 1400 384 1738 384 
Q 2144 384 2425 690 
Q 2706 997 2706 1503 
Q 2706 1984 2436 2262 
Q 2166 2541 1728 2541 
Q 1456 2541 1237 2417 
Q 1019 2294 894 2097 
L 366 2166 
L 809 4519 
L 3088 4519 
L 3088 3981 
L 1259 3981 
L 1013 2750 
Q 1425 3038 1878 3038 
Q 2478 3038 2890 2622 
Q 3303 2206 3303 1553 
Q 3303 931 2941 478 
Q 2500 -78 1738 -78 
Q 1113 -78 717 272 
Q 322 622 266 1200 
z
" id="ArialMT-35" transform="scale(0.015625)"/>
       </defs>
       <use xlink:href="#ArialMT-35"/>
      </g>
     </g>
    </g>
    <g id="xtick_7">
     <g id="line2d_7">
      <path clip-path="url(#p77da23126d)" d="M 659.39372 165.38158 
L 659.39372 24.526286 
" style="fill:none;stroke:#ffffff;stroke-linecap:round;"/>
     </g>
     <g id="text_7">
      <!-- 6 -->
      <g style="fill:#262626;" transform="translate(656.335204 182.755174)scale(0.11 -0.11)">
       <defs>
        <path d="M 3184 3459 
L 2625 3416 
Q 2550 3747 2413 3897 
Q 2184 4138 1850 4138 
Q 1581 4138 1378 3988 
Q 1113 3794 959 3422 
Q 806 3050 800 2363 
Q 1003 2672 1297 2822 
Q 1591 2972 1913 2972 
Q 2475 2972 2870 2558 
Q 3266 2144 3266 1488 
Q 3266 1056 3080 686 
Q 2894 316 2569 119 
Q 2244 -78 1831 -78 
Q 1128 -78 684 439 
Q 241 956 241 2144 
Q 241 3472 731 4075 
Q 1159 4600 1884 4600 
Q 2425 4600 2770 4297 
Q 3116 3994 3184 3459 
z
M 888 1484 
Q 888 1194 1011 928 
Q 1134 663 1356 523 
Q 1578 384 1822 384 
Q 2178 384 2434 671 
Q 2691 959 2691 1453 
Q 2691 1928 2437 2201 
Q 2184 2475 1800 2475 
Q 1419 2475 1153 2201 
Q 888 1928 888 1484 
z
" id="ArialMT-36" transform="scale(0.015625)"/>
       </defs>
       <use xlink:href="#ArialMT-36"/>
      </g>
     </g>
    </g>
    <g id="xtick_8">
     <g id="line2d_8">
      <path clip-path="url(#p77da23126d)" d="M 750.641245 165.38158 
L 750.641245 24.526286 
" style="fill:none;stroke:#ffffff;stroke-linecap:round;"/>
     </g>
     <g id="text_8">
      <!-- 7 -->
      <g style="fill:#262626;" transform="translate(747.582729 182.755174)scale(0.11 -0.11)">
       <defs>
        <path d="M 303 3981 
L 303 4522 
L 3269 4522 
L 3269 4084 
Q 2831 3619 2401 2847 
Q 1972 2075 1738 1259 
Q 1569 684 1522 0 
L 944 0 
Q 953 541 1156 1306 
Q 1359 2072 1739 2783 
Q 2119 3494 2547 3981 
L 303 3981 
z
" id="ArialMT-37" transform="scale(0.015625)"/>
       </defs>
       <use xlink:href="#ArialMT-37"/>
      </g>
     </g>
    </g>
    <g id="xtick_9">
     <g id="line2d_9">
      <path clip-path="url(#p77da23126d)" d="M 841.888769 165.38158 
L 841.888769 24.526286 
" style="fill:none;stroke:#ffffff;stroke-linecap:round;"/>
     </g>
     <g id="text_9">
      <!-- 8 -->
      <g style="fill:#262626;" transform="translate(838.830254 182.755174)scale(0.11 -0.11)">
       <defs>
        <path d="M 1131 2484 
Q 781 2613 612 2850 
Q 444 3088 444 3419 
Q 444 3919 803 4259 
Q 1163 4600 1759 4600 
Q 2359 4600 2725 4251 
Q 3091 3903 3091 3403 
Q 3091 3084 2923 2848 
Q 2756 2613 2416 2484 
Q 2838 2347 3058 2040 
Q 3278 1734 3278 1309 
Q 3278 722 2862 322 
Q 2447 -78 1769 -78 
Q 1091 -78 675 323 
Q 259 725 259 1325 
Q 259 1772 486 2073 
Q 713 2375 1131 2484 
z
M 1019 3438 
Q 1019 3113 1228 2906 
Q 1438 2700 1772 2700 
Q 2097 2700 2305 2904 
Q 2513 3109 2513 3406 
Q 2513 3716 2298 3927 
Q 2084 4138 1766 4138 
Q 1444 4138 1231 3931 
Q 1019 3725 1019 3438 
z
M 838 1322 
Q 838 1081 952 856 
Q 1066 631 1291 507 
Q 1516 384 1775 384 
Q 2178 384 2440 643 
Q 2703 903 2703 1303 
Q 2703 1709 2433 1975 
Q 2163 2241 1756 2241 
Q 1359 2241 1098 1978 
Q 838 1716 838 1322 
z
" id="ArialMT-38" transform="scale(0.015625)"/>
       </defs>
       <use xlink:href="#ArialMT-38"/>
      </g>
     </g>
    </g>
    <g id="xtick_10">
     <g id="line2d_10">
      <path clip-path="url(#p77da23126d)" d="M 933.136294 165.38158 
L 933.136294 24.526286 
" style="fill:none;stroke:#ffffff;stroke-linecap:round;"/>
     </g>
     <g id="text_10">
      <!-- 9 -->
      <g style="fill:#262626;" transform="translate(930.077779 182.755174)scale(0.11 -0.11)">
       <defs>
        <path d="M 350 1059 
L 891 1109 
Q 959 728 1153 556 
Q 1347 384 1650 384 
Q 1909 384 2104 503 
Q 2300 622 2425 820 
Q 2550 1019 2634 1356 
Q 2719 1694 2719 2044 
Q 2719 2081 2716 2156 
Q 2547 1888 2255 1720 
Q 1963 1553 1622 1553 
Q 1053 1553 659 1965 
Q 266 2378 266 3053 
Q 266 3750 677 4175 
Q 1088 4600 1706 4600 
Q 2153 4600 2523 4359 
Q 2894 4119 3086 3673 
Q 3278 3228 3278 2384 
Q 3278 1506 3087 986 
Q 2897 466 2520 194 
Q 2144 -78 1638 -78 
Q 1100 -78 759 220 
Q 419 519 350 1059 
z
M 2653 3081 
Q 2653 3566 2395 3850 
Q 2138 4134 1775 4134 
Q 1400 4134 1122 3828 
Q 844 3522 844 3034 
Q 844 2597 1108 2323 
Q 1372 2050 1759 2050 
Q 2150 2050 2401 2323 
Q 2653 2597 2653 3081 
z
" id="ArialMT-39" transform="scale(0.015625)"/>
       </defs>
       <use xlink:href="#ArialMT-39"/>
      </g>
     </g>
    </g>
    <g id="xtick_11">
     <g id="line2d_11">
      <path clip-path="url(#p77da23126d)" d="M 1024.383819 165.38158 
L 1024.383819 24.526286 
" style="fill:none;stroke:#ffffff;stroke-linecap:round;"/>
     </g>
     <g id="text_11">
      <!-- 10 -->
      <g style="fill:#262626;" transform="translate(1018.266788 182.755174)scale(0.11 -0.11)">
       <use xlink:href="#ArialMT-31"/>
       <use x="55.615234" xlink:href="#ArialMT-30"/>
      </g>
     </g>
    </g>
   </g>
   <g id="matplotlib.axis_2">
    <g id="ytick_1">
     <g id="line2d_12">
      <path clip-path="url(#p77da23126d)" d="M 65.828571 165.38158 
L 1079.588571 165.38158 
" style="fill:none;stroke:#ffffff;stroke-linecap:round;"/>
     </g>
     <g id="text_12">
      <!-- 919.90 -->
      <g style="fill:#262626;" transform="translate(22.687478 169.318377)scale(0.11 -0.11)">
       <defs>
        <path d="M 581 0 
L 581 641 
L 1222 641 
L 1222 0 
L 581 0 
z
" id="ArialMT-2e" transform="scale(0.015625)"/>
       </defs>
       <use xlink:href="#ArialMT-39"/>
       <use x="55.615234" xlink:href="#ArialMT-31"/>
       <use x="111.230469" xlink:href="#ArialMT-39"/>
       <use x="166.845703" xlink:href="#ArialMT-2e"/>
       <use x="194.628906" xlink:href="#ArialMT-39"/>
       <use x="250.244141" xlink:href="#ArialMT-30"/>
      </g>
     </g>
    </g>
    <g id="ytick_2">
     <g id="line2d_13">
      <path clip-path="url(#p77da23126d)" d="M 65.828571 130.167756 
L 1079.588571 130.167756 
" style="fill:none;stroke:#ffffff;stroke-linecap:round;"/>
     </g>
     <g id="text_13">
      <!-- 919.95 -->
      <g style="fill:#262626;" transform="translate(22.687478 134.104553)scale(0.11 -0.11)">
       <use xlink:href="#ArialMT-39"/>
       <use x="55.615234" xlink:href="#ArialMT-31"/>
       <use x="111.230469" xlink:href="#ArialMT-39"/>
       <use x="166.845703" xlink:href="#ArialMT-2e"/>
       <use x="194.628906" xlink:href="#ArialMT-39"/>
       <use x="250.244141" xlink:href="#ArialMT-35"/>
      </g>
     </g>
    </g>
    <g id="ytick_3">
     <g id="line2d_14">
      <path clip-path="url(#p77da23126d)" d="M 65.828571 94.953933 
L 1079.588571 94.953933 
" style="fill:none;stroke:#ffffff;stroke-linecap:round;"/>
     </g>
     <g id="text_14">
      <!-- 920.00 -->
      <g style="fill:#262626;" transform="translate(22.687478 98.89073)scale(0.11 -0.11)">
       <use xlink:href="#ArialMT-39"/>
       <use x="55.615234" xlink:href="#ArialMT-32"/>
       <use x="111.230469" xlink:href="#ArialMT-30"/>
       <use x="166.845703" xlink:href="#ArialMT-2e"/>
       <use x="194.628906" xlink:href="#ArialMT-30"/>
       <use x="250.244141" xlink:href="#ArialMT-30"/>
      </g>
     </g>
    </g>
    <g id="ytick_4">
     <g id="line2d_15">
      <path clip-path="url(#p77da23126d)" d="M 65.828571 59.740109 
L 1079.588571 59.740109 
" style="fill:none;stroke:#ffffff;stroke-linecap:round;"/>
     </g>
     <g id="text_15">
      <!-- 920.05 -->
      <g style="fill:#262626;" transform="translate(22.687478 63.676906)scale(0.11 -0.11)">
       <use xlink:href="#ArialMT-39"/>
       <use x="55.615234" xlink:href="#ArialMT-32"/>
       <use x="111.230469" xlink:href="#ArialMT-30"/>
       <use x="166.845703" xlink:href="#ArialMT-2e"/>
       <use x="194.628906" xlink:href="#ArialMT-30"/>
       <use x="250.244141" xlink:href="#ArialMT-35"/>
      </g>
     </g>
    </g>
    <g id="ytick_5">
     <g id="line2d_16">
      <path clip-path="url(#p77da23126d)" d="M 65.828571 24.526286 
L 1079.588571 24.526286 
" style="fill:none;stroke:#ffffff;stroke-linecap:round;"/>
     </g>
     <g id="text_16">
      <!-- 920.10 -->
      <g style="fill:#262626;" transform="translate(22.687478 28.463083)scale(0.11 -0.11)">
       <use xlink:href="#ArialMT-39"/>
       <use x="55.615234" xlink:href="#ArialMT-32"/>
       <use x="111.230469" xlink:href="#ArialMT-30"/>
       <use x="166.845703" xlink:href="#ArialMT-2e"/>
       <use x="194.628906" xlink:href="#ArialMT-31"/>
       <use x="250.244141" xlink:href="#ArialMT-30"/>
      </g>
     </g>
    </g>
    <g id="text_17">
     <!-- H [kJ/mol] -->
     <g style="fill:#262626;" transform="translate(16.302478 121.622058)rotate(-90)scale(0.12 -0.12)">
      <defs>
       <path d="M 513 0 
L 513 4581 
L 1119 4581 
L 1119 2700 
L 3500 2700 
L 3500 4581 
L 4106 4581 
L 4106 0 
L 3500 0 
L 3500 2159 
L 1119 2159 
L 1119 0 
L 513 0 
z
" id="ArialMT-48" transform="scale(0.015625)"/>
       <path id="ArialMT-20" transform="scale(0.015625)"/>
       <path d="M 434 -1272 
L 434 4581 
L 1675 4581 
L 1675 4116 
L 997 4116 
L 997 -806 
L 1675 -806 
L 1675 -1272 
L 434 -1272 
z
" id="ArialMT-5b" transform="scale(0.015625)"/>
       <path d="M 425 0 
L 425 4581 
L 988 4581 
L 988 1969 
L 2319 3319 
L 3047 3319 
L 1778 2088 
L 3175 0 
L 2481 0 
L 1384 1697 
L 988 1316 
L 988 0 
L 425 0 
z
" id="ArialMT-6b" transform="scale(0.015625)"/>
       <path d="M 184 1300 
L 731 1375 
Q 753 850 928 656 
Q 1103 463 1413 463 
Q 1641 463 1806 567 
Q 1972 672 2034 851 
Q 2097 1031 2097 1425 
L 2097 4581 
L 2703 4581 
L 2703 1459 
Q 2703 884 2564 568 
Q 2425 253 2123 87 
Q 1822 -78 1416 -78 
Q 813 -78 492 269 
Q 172 616 184 1300 
z
" id="ArialMT-4a" transform="scale(0.015625)"/>
       <path d="M 0 -78 
L 1328 4659 
L 1778 4659 
L 453 -78 
L 0 -78 
z
" id="ArialMT-2f" transform="scale(0.015625)"/>
       <path d="M 422 0 
L 422 3319 
L 925 3319 
L 925 2853 
Q 1081 3097 1340 3245 
Q 1600 3394 1931 3394 
Q 2300 3394 2536 3241 
Q 2772 3088 2869 2813 
Q 3263 3394 3894 3394 
Q 4388 3394 4653 3120 
Q 4919 2847 4919 2278 
L 4919 0 
L 4359 0 
L 4359 2091 
Q 4359 2428 4304 2576 
Q 4250 2725 4106 2815 
Q 3963 2906 3769 2906 
Q 3419 2906 3187 2673 
Q 2956 2441 2956 1928 
L 2956 0 
L 2394 0 
L 2394 2156 
Q 2394 2531 2256 2718 
Q 2119 2906 1806 2906 
Q 1569 2906 1367 2781 
Q 1166 2656 1075 2415 
Q 984 2175 984 1722 
L 984 0 
L 422 0 
z
" id="ArialMT-6d" transform="scale(0.015625)"/>
       <path d="M 213 1659 
Q 213 2581 725 3025 
Q 1153 3394 1769 3394 
Q 2453 3394 2887 2945 
Q 3322 2497 3322 1706 
Q 3322 1066 3130 698 
Q 2938 331 2570 128 
Q 2203 -75 1769 -75 
Q 1072 -75 642 372 
Q 213 819 213 1659 
z
M 791 1659 
Q 791 1022 1069 705 
Q 1347 388 1769 388 
Q 2188 388 2466 706 
Q 2744 1025 2744 1678 
Q 2744 2294 2464 2611 
Q 2184 2928 1769 2928 
Q 1347 2928 1069 2612 
Q 791 2297 791 1659 
z
" id="ArialMT-6f" transform="scale(0.015625)"/>
       <path d="M 409 0 
L 409 4581 
L 972 4581 
L 972 0 
L 409 0 
z
" id="ArialMT-6c" transform="scale(0.015625)"/>
       <path d="M 1363 -1272 
L 122 -1272 
L 122 -806 
L 800 -806 
L 800 4116 
L 122 4116 
L 122 4581 
L 1363 4581 
L 1363 -1272 
z
" id="ArialMT-5d" transform="scale(0.015625)"/>
      </defs>
      <use xlink:href="#ArialMT-48"/>
      <use x="72.216797" xlink:href="#ArialMT-20"/>
      <use x="100" xlink:href="#ArialMT-5b"/>
      <use x="127.783203" xlink:href="#ArialMT-6b"/>
      <use x="177.783203" xlink:href="#ArialMT-4a"/>
      <use x="227.783203" xlink:href="#ArialMT-2f"/>
      <use x="255.566406" xlink:href="#ArialMT-6d"/>
      <use x="338.867188" xlink:href="#ArialMT-6f"/>
      <use x="394.482422" xlink:href="#ArialMT-6c"/>
      <use x="416.699219" xlink:href="#ArialMT-5d"/>
     </g>
    </g>
   </g>
   <g id="line2d_17">
    <path clip-path="url(#p77da23126d)" d="M 111.908571 94.179229 
L 112.821047 94.813077 
L 113.733522 96.785052 
L 114.645997 100.236006 
L 115.558472 104.672948 
L 116.470948 107.771765 
L 117.383423 103.898244 
L 118.295898 90.728274 
L 119.208373 79.389423 
L 120.120849 77.276593 
L 121.033324 82.558667 
L 121.945799 90.798702 
L 122.858274 97.348473 
L 123.77075 100.799427 
L 124.683225 100.024723 
L 125.5957 95.658209 
L 126.508175 92.34811 
L 127.420651 93.334097 
L 128.333126 96.080775 
L 129.245601 96.785052 
L 131.070552 94.390512 
L 131.983027 92.911531 
L 132.895502 90.446563 
L 133.807977 88.685872 
L 134.720453 89.108438 
L 136.545403 92.066399 
L 137.457878 92.62982 
L 138.370354 92.277682 
L 141.107779 88.897155 
L 142.020255 88.545017 
L 147.495106 90.305708 
L 148.407581 90.164853 
L 149.320057 89.531004 
L 150.232532 88.685872 
L 151.145007 88.122451 
L 152.057482 88.052023 
L 154.794908 88.826727 
L 155.707383 88.826727 
L 161.182235 87.981596 
L 163.919661 88.052023 
L 165.744611 88.263306 
L 170.306987 88.192879 
L 175.781839 87.84074 
L 181.25669 87.911168 
L 183.081641 87.981596 
L 201.331146 87.911168 
L 203.156096 87.84074 
L 217.7557 87.911168 
L 219.580651 87.981596 
L 224.143027 87.911168 
L 225.967977 87.84074 
L 227.792928 88.052023 
L 229.617878 88.052023 
L 230.530354 88.615445 
L 232.355304 88.404162 
L 236.005205 87.911168 
L 237.830156 87.911168 
L 238.742631 88.404162 
L 242.392532 88.404162 
L 243.305007 88.826727 
L 244.217482 88.897155 
L 245.129958 88.404162 
L 247.867383 87.277319 
L 248.779859 86.64347 
L 250.604809 86.291332 
L 251.517284 86.291332 
L 252.42976 86.432187 
L 254.25471 87.066036 
L 256.079661 87.911168 
L 256.992136 88.122451 
L 257.904611 89.108438 
L 258.817086 89.319721 
L 259.729562 88.685872 
L 268.854314 87.981596 
L 269.766789 88.897155 
L 271.59174 88.967583 
L 273.41669 89.03801 
L 274.329165 89.03801 
L 275.241641 88.685872 
L 276.154116 89.390149 
L 277.066591 89.460576 
L 277.979066 89.883142 
L 278.891542 90.446563 
L 279.804017 90.305708 
L 281.628967 87.629457 
L 282.541443 86.925181 
L 283.453918 87.418175 
L 285.278868 89.249293 
L 286.191344 89.460576 
L 287.103819 89.108438 
L 288.016294 88.052023 
L 288.928769 87.911168 
L 289.841245 88.404162 
L 290.75372 88.333734 
L 291.666195 87.488602 
L 292.57867 87.488602 
L 293.491146 88.404162 
L 294.403621 88.333734 
L 295.316096 88.967583 
L 296.228571 87.84074 
L 297.141047 88.052023 
L 298.053522 88.404162 
L 299.878472 89.460576 
L 300.790948 88.7563 
L 301.703423 88.192879 
L 302.615898 87.066036 
L 303.528373 86.432187 
L 305.353324 88.897155 
L 306.265799 89.390149 
L 307.178274 89.249293 
L 309.003225 87.488602 
L 310.828175 86.713898 
L 311.740651 86.64347 
L 312.653126 86.925181 
L 313.565601 87.347747 
L 314.478076 87.418175 
L 315.390552 87.699885 
L 316.303027 87.699885 
L 317.215502 87.418175 
L 318.127977 86.995609 
L 319.952928 88.192879 
L 320.865403 88.474589 
L 321.777878 88.122451 
L 322.690354 88.192879 
L 323.602829 88.826727 
L 324.515304 88.967583 
L 325.427779 88.826727 
L 326.340255 88.474589 
L 327.25273 88.263306 
L 328.165205 87.911168 
L 329.07768 87.277319 
L 329.990156 86.784326 
L 330.902631 86.995609 
L 331.815106 87.911168 
L 332.727581 88.545017 
L 333.640057 88.967583 
L 335.465007 88.615445 
L 336.377482 88.967583 
L 337.289958 89.460576 
L 338.202433 89.812715 
L 339.114908 89.531004 
L 340.027383 88.545017 
L 340.939859 87.066036 
L 341.852334 86.502615 
L 342.764809 87.488602 
L 343.677284 88.263306 
L 344.58976 88.615445 
L 345.502235 88.7563 
L 346.41471 89.319721 
L 347.327185 89.671859 
L 348.239661 89.883142 
L 349.152136 88.333734 
L 350.064611 85.16449 
L 350.977086 85.939194 
L 351.889562 88.545017 
L 352.802037 89.601432 
L 353.714512 89.178866 
L 354.626987 89.460576 
L 355.539463 89.108438 
L 356.451938 88.333734 
L 357.364413 88.192879 
L 358.276888 87.629457 
L 359.189364 87.488602 
L 360.101839 87.488602 
L 361.014314 87.206892 
L 361.926789 87.277319 
L 362.839264 87.488602 
L 363.75174 87.066036 
L 364.664215 87.206892 
L 365.57669 87.488602 
L 366.489165 87.981596 
L 367.401641 88.192879 
L 368.314116 87.55903 
L 369.226591 86.502615 
L 370.139066 86.784326 
L 371.051542 88.7563 
L 371.964017 89.249293 
L 372.876492 88.333734 
L 373.788967 88.192879 
L 374.701443 88.333734 
L 375.613918 88.122451 
L 376.526393 87.488602 
L 377.438868 86.995609 
L 378.351344 87.136464 
L 379.263819 87.55903 
L 380.176294 87.770313 
L 381.088769 87.418175 
L 382.91372 87.136464 
L 383.826195 86.854753 
L 384.73867 86.925181 
L 386.563621 87.629457 
L 387.476096 87.699885 
L 388.388571 87.629457 
L 389.301047 86.995609 
L 390.213522 86.854753 
L 391.125997 86.291332 
L 392.038472 86.36176 
L 392.950948 86.220905 
L 393.863423 86.502615 
L 395.688373 86.854753 
L 396.600849 87.206892 
L 397.513324 87.206892 
L 398.425799 87.418175 
L 399.338274 87.206892 
L 400.25075 86.854753 
L 401.163225 86.150477 
L 402.988175 85.939194 
L 403.900651 86.432187 
L 406.638076 86.925181 
L 407.550552 87.418175 
L 409.375502 87.770313 
L 410.287977 87.277319 
L 411.200453 87.277319 
L 412.112928 86.502615 
L 413.025403 85.939194 
L 413.937878 85.868766 
L 415.762829 87.277319 
L 417.587779 87.277319 
L 420.325205 86.925181 
L 421.23768 87.206892 
L 422.150156 86.432187 
L 423.062631 86.502615 
L 423.975106 86.784326 
L 424.887581 86.784326 
L 425.800057 86.64347 
L 427.625007 86.64347 
L 428.537482 86.784326 
L 429.449958 86.713898 
L 430.362433 86.854753 
L 432.187383 86.502615 
L 434.012334 86.713898 
L 435.837284 88.052023 
L 436.74976 88.192879 
L 437.662235 88.192879 
L 438.57471 87.911168 
L 440.399661 85.4462 
L 441.312136 85.234917 
L 443.137086 87.206892 
L 444.049562 87.418175 
L 445.874512 87.206892 
L 447.699463 87.488602 
L 448.611938 87.488602 
L 449.524413 87.629457 
L 450.436888 88.052023 
L 451.349364 87.911168 
L 452.261839 87.488602 
L 453.174314 86.009622 
L 454.086789 84.24893 
L 454.999264 84.812352 
L 455.91174 86.573043 
L 456.824215 87.488602 
L 457.73669 87.347747 
L 459.561641 86.573043 
L 460.474116 86.64347 
L 461.386591 86.854753 
L 462.299066 86.925181 
L 463.211542 86.784326 
L 464.124017 86.432187 
L 465.036492 86.432187 
L 466.861443 86.080049 
L 469.598868 85.939194 
L 470.511344 86.009622 
L 471.423819 86.291332 
L 473.248769 86.64347 
L 474.161245 86.854753 
L 475.07372 87.347747 
L 475.986195 87.347747 
L 477.811146 87.55903 
L 478.723621 87.347747 
L 479.636096 86.713898 
L 480.548571 85.657483 
L 481.461047 85.375773 
L 482.373522 85.868766 
L 483.285997 86.854753 
L 484.198472 87.206892 
L 485.110948 87.277319 
L 486.935898 87.206892 
L 488.760849 87.136464 
L 489.673324 87.066036 
L 490.585799 87.347747 
L 492.41075 87.206892 
L 493.323225 86.995609 
L 494.2357 86.573043 
L 496.060651 86.784326 
L 497.885601 87.206892 
L 498.798076 87.277319 
L 499.710552 86.925181 
L 501.535502 86.432187 
L 502.447977 86.64347 
L 503.360453 87.066036 
L 504.272928 87.347747 
L 505.185403 87.418175 
L 506.097878 87.277319 
L 507.010354 86.995609 
L 507.922829 86.432187 
L 508.835304 86.36176 
L 509.747779 86.64347 
L 511.57273 87.55903 
L 512.485205 87.629457 
L 514.310156 87.347747 
L 516.135106 87.55903 
L 517.047581 86.854753 
L 517.960057 85.375773 
L 518.872532 85.657483 
L 519.785007 87.418175 
L 520.697482 88.192879 
L 521.609958 88.263306 
L 522.522433 87.770313 
L 524.347383 87.136464 
L 525.259859 86.995609 
L 527.084809 86.995609 
L 528.90976 87.277319 
L 529.822235 87.206892 
L 530.73471 86.854753 
L 531.647185 86.291332 
L 532.559661 85.939194 
L 533.472136 86.291332 
L 535.297086 87.699885 
L 536.209562 87.981596 
L 537.122037 87.911168 
L 538.034512 87.418175 
L 539.859463 86.080049 
L 540.771938 86.150477 
L 541.684413 86.784326 
L 542.596888 87.277319 
L 543.509364 87.488602 
L 544.421839 87.488602 
L 546.246789 87.136464 
L 548.07174 86.925181 
L 548.984215 87.066036 
L 549.89669 87.488602 
L 550.809165 88.192879 
L 551.721641 89.108438 
L 552.634116 88.615445 
L 553.546591 85.798339 
L 554.459066 84.319358 
L 555.371542 87.206892 
L 556.284017 89.531004 
L 557.196492 89.883142 
L 559.021443 90.023997 
L 559.933918 89.03801 
L 560.846393 85.727911 
L 561.758868 83.192516 
L 562.671344 86.009622 
L 563.583819 89.319721 
L 564.496294 89.742287 
L 566.321245 88.122451 
L 567.23372 87.699885 
L 568.146195 87.488602 
L 569.971146 87.55903 
L 571.796096 88.192879 
L 572.708571 87.55903 
L 573.621047 86.080049 
L 574.533522 85.727911 
L 576.358472 89.390149 
L 577.270948 90.587419 
L 578.183423 91.15084 
L 579.095898 90.728274 
L 580.008373 88.192879 
L 580.920849 84.24893 
L 581.833324 82.981233 
L 583.658274 90.376136 
L 584.57075 91.362123 
L 585.483225 90.446563 
L 587.308175 86.854753 
L 588.220651 86.291332 
L 590.045601 87.770313 
L 590.958076 87.770313 
L 592.783027 87.136464 
L 594.607977 86.925181 
L 595.520453 86.995609 
L 596.432928 86.925181 
L 598.257878 86.995609 
L 599.170354 86.713898 
L 600.082829 86.291332 
L 600.995304 86.291332 
L 602.820255 87.136464 
L 603.73273 87.347747 
L 604.645205 87.277319 
L 606.470156 86.784326 
L 607.382631 86.573043 
L 611.032532 86.291332 
L 611.945007 86.432187 
L 612.857482 87.066036 
L 613.769958 87.206892 
L 614.682433 87.55903 
L 616.507383 87.629457 
L 617.419859 87.418175 
L 620.157284 87.629457 
L 621.06976 87.347747 
L 622.89471 85.305345 
L 623.807185 85.516628 
L 624.719661 86.784326 
L 625.632136 87.699885 
L 627.457086 88.333734 
L 628.369562 88.474589 
L 629.282037 88.333734 
L 630.194512 87.84074 
L 631.106987 86.925181 
L 632.019463 86.925181 
L 632.931938 87.347747 
L 633.844413 87.629457 
L 634.756888 87.277319 
L 635.669364 87.066036 
L 637.494314 87.981596 
L 638.406789 88.052023 
L 639.319264 87.629457 
L 640.23174 86.995609 
L 641.144215 86.573043 
L 642.05669 86.784326 
L 642.969165 87.347747 
L 644.794116 87.981596 
L 645.706591 88.192879 
L 646.619066 88.545017 
L 647.531542 88.474589 
L 648.444017 87.136464 
L 649.356492 85.305345 
L 650.268967 85.587056 
L 651.181443 87.488602 
L 652.093918 88.404162 
L 653.006393 88.263306 
L 653.918868 87.911168 
L 654.831344 87.770313 
L 656.656294 87.84074 
L 657.568769 87.629457 
L 658.481245 86.995609 
L 659.39372 86.854753 
L 663.043621 87.629457 
L 663.956096 87.55903 
L 664.868571 87.136464 
L 665.781047 86.854753 
L 666.693522 86.995609 
L 667.605997 87.55903 
L 668.518472 87.699885 
L 669.430948 87.699885 
L 670.343423 87.55903 
L 672.168373 88.192879 
L 673.080849 87.770313 
L 674.905799 86.220905 
L 675.818274 85.868766 
L 676.73075 85.868766 
L 677.643225 86.432187 
L 679.468175 86.784326 
L 681.293126 86.995609 
L 684.030552 87.418175 
L 684.943027 87.84074 
L 685.855502 87.136464 
L 686.767977 87.066036 
L 690.417878 86.220905 
L 692.242829 86.713898 
L 693.155304 86.925181 
L 694.067779 86.925181 
L 694.980255 86.573043 
L 695.89273 85.727911 
L 696.805205 85.4462 
L 697.71768 86.925181 
L 698.630156 87.629457 
L 699.542631 87.981596 
L 700.455106 88.122451 
L 701.367581 88.052023 
L 702.280057 87.84074 
L 703.192532 86.925181 
L 704.105007 87.136464 
L 705.929958 86.502615 
L 706.842433 86.009622 
L 707.754908 85.657483 
L 708.667383 85.727911 
L 710.492334 86.573043 
L 711.404809 86.784326 
L 713.22976 86.925181 
L 714.142235 86.854753 
L 715.05471 86.925181 
L 715.967185 86.64347 
L 719.617086 86.36176 
L 721.442037 86.713898 
L 722.354512 86.502615 
L 723.266987 86.713898 
L 727.829364 86.36176 
L 728.741839 86.854753 
L 729.654314 87.699885 
L 730.566789 87.699885 
L 731.479264 87.418175 
L 732.39174 86.925181 
L 735.129165 86.080049 
L 736.041641 85.657483 
L 736.954116 85.798339 
L 737.866591 86.573043 
L 738.779066 87.136464 
L 739.691542 87.206892 
L 741.516492 86.573043 
L 742.428967 86.573043 
L 744.253918 86.784326 
L 745.166393 86.291332 
L 746.078868 86.432187 
L 749.728769 86.432187 
L 750.641245 86.291332 
L 752.466195 86.291332 
L 754.291146 86.080049 
L 757.028571 86.150477 
L 758.853522 86.220905 
L 760.678472 86.291332 
L 764.328373 86.64347 
L 767.978274 87.136464 
L 768.89075 86.784326 
L 770.7157 85.727911 
L 771.628175 85.657483 
L 772.540651 86.150477 
L 773.453126 86.925181 
L 774.365601 87.418175 
L 778.015502 87.699885 
L 778.927977 87.418175 
L 779.840453 86.432187 
L 780.752928 85.094062 
L 781.665403 84.812352 
L 782.577878 85.798339 
L 783.490354 86.995609 
L 784.402829 87.55903 
L 786.227779 87.488602 
L 787.140255 87.206892 
L 788.05273 87.136464 
L 788.965205 86.925181 
L 789.87768 86.854753 
L 792.615106 87.347747 
L 793.527581 87.629457 
L 794.440057 87.418175 
L 795.352532 86.925181 
L 797.177482 85.023635 
L 798.089958 85.094062 
L 799.914908 86.925181 
L 800.827383 87.418175 
L 801.739859 87.55903 
L 802.652334 87.347747 
L 803.564809 86.995609 
L 805.38976 86.784326 
L 807.21471 86.713898 
L 809.039661 86.432187 
L 810.864611 85.868766 
L 811.777086 85.727911 
L 812.689562 85.798339 
L 815.426987 86.995609 
L 816.339463 87.136464 
L 817.251938 87.488602 
L 818.164413 86.995609 
L 819.076888 86.220905 
L 819.989364 85.939194 
L 821.814314 86.64347 
L 822.726789 86.854753 
L 823.639264 86.784326 
L 824.55174 86.925181 
L 826.37669 86.36176 
L 827.289165 86.220905 
L 828.201641 86.573043 
L 830.939066 86.502615 
L 832.764017 86.291332 
L 834.588967 86.009622 
L 835.501443 85.4462 
L 836.413918 85.375773 
L 838.238868 85.727911 
L 839.151344 86.009622 
L 840.063819 86.64347 
L 841.888769 87.136464 
L 845.53867 86.573043 
L 846.451146 85.657483 
L 848.276096 85.4462 
L 851.013522 85.516628 
L 851.925997 85.798339 
L 855.575898 86.432187 
L 856.488373 86.854753 
L 857.400849 86.854753 
L 858.313324 86.36176 
L 861.05075 86.080049 
L 862.8757 85.868766 
L 864.700651 85.798339 
L 869.263027 86.080049 
L 870.175502 85.798339 
L 872.000453 85.868766 
L 873.825403 86.150477 
L 874.737878 85.727911 
L 875.650354 86.502615 
L 876.562829 86.573043 
L 878.387779 86.36176 
L 880.21273 86.150477 
L 881.125205 86.080049 
L 882.03768 86.150477 
L 883.862631 86.64347 
L 884.775106 86.925181 
L 885.687581 86.854753 
L 886.600057 86.080049 
L 887.512532 84.671496 
L 888.425007 84.389786 
L 889.337482 85.516628 
L 890.249958 86.854753 
L 891.162433 87.699885 
L 892.074908 87.84074 
L 892.987383 87.699885 
L 893.899859 86.64347 
L 895.724809 85.516628 
L 896.637284 85.305345 
L 897.54976 85.375773 
L 899.37471 85.868766 
L 903.024611 86.080049 
L 905.762037 86.009622 
L 906.674512 85.868766 
L 908.499463 85.798339 
L 913.974314 85.375773 
L 916.71174 85.727911 
L 920.361641 85.798339 
L 921.274116 85.868766 
L 924.011542 86.573043 
L 924.924017 86.432187 
L 925.836492 86.009622 
L 926.748967 85.16449 
L 927.661443 84.812352 
L 928.573918 85.305345 
L 929.486393 85.939194 
L 930.398868 86.150477 
L 933.136294 85.868766 
L 934.048769 85.657483 
L 935.87372 85.727911 
L 936.786195 85.798339 
L 937.69867 86.291332 
L 940.436096 86.291332 
L 942.261047 85.868766 
L 943.173522 85.516628 
L 944.085997 85.375773 
L 944.998472 84.953207 
L 945.910948 84.671496 
L 946.823423 84.741924 
L 948.648373 85.234917 
L 955.0357 86.220905 
L 955.948175 85.868766 
L 959.598076 85.939194 
L 960.510552 86.36176 
L 962.335502 85.939194 
L 963.247977 85.587056 
L 964.160453 85.587056 
L 965.072928 85.727911 
L 966.897878 85.727911 
L 968.722829 86.080049 
L 971.460255 86.220905 
L 972.37273 86.080049 
L 973.285205 85.798339 
L 976.935106 85.587056 
L 981.497482 86.220905 
L 982.409958 85.939194 
L 983.322433 85.516628 
L 984.234908 85.305345 
L 985.147383 85.4462 
L 986.059859 85.868766 
L 986.972334 86.432187 
L 989.70976 87.699885 
L 990.622235 87.84074 
L 991.53471 86.925181 
L 992.447185 85.4462 
L 993.359661 85.516628 
L 994.272136 87.277319 
L 995.184611 86.995609 
L 996.097086 85.4462 
L 997.009562 85.094062 
L 997.922037 86.291332 
L 998.834512 87.136464 
L 999.746987 87.699885 
L 1000.659463 88.052023 
L 1001.571938 88.685872 
L 1002.484413 88.545017 
L 1004.309364 83.544654 
L 1006.134314 86.150477 
L 1007.046789 86.36176 
L 1007.959264 86.713898 
L 1008.87174 86.854753 
L 1011.609165 85.868766 
L 1017.084017 85.516628 
L 1017.996492 85.094062 
L 1018.908967 85.305345 
L 1019.821443 85.727911 
L 1021.646393 85.798339 
L 1022.558868 85.587056 
L 1023.471344 85.587056 
L 1024.383819 85.798339 
L 1025.296294 85.798339 
L 1026.208769 85.939194 
L 1027.121245 85.727911 
L 1028.946195 85.657483 
L 1029.85867 85.939194 
L 1030.771146 86.080049 
L 1031.683621 85.939194 
L 1032.596096 84.953207 
L 1033.508571 84.460213 
L 1033.508571 84.460213 
" style="fill:none;stroke:#4c72b0;stroke-linecap:round;stroke-width:1.5;"/>
   </g>
   <g id="patch_3">
    <path d="M 65.828571 165.38158 
L 65.828571 24.526286 
" style="fill:none;stroke:#ffffff;stroke-linecap:square;stroke-linejoin:miter;stroke-width:1.25;"/>
   </g>
   <g id="patch_4">
    <path d="M 1079.588571 165.38158 
L 1079.588571 24.526286 
" style="fill:none;stroke:#ffffff;stroke-linecap:square;stroke-linejoin:miter;stroke-width:1.25;"/>
   </g>
   <g id="patch_5">
    <path d="M 65.828571 165.38158 
L 1079.588571 165.38158 
" style="fill:none;stroke:#ffffff;stroke-linecap:square;stroke-linejoin:miter;stroke-width:1.25;"/>
   </g>
   <g id="patch_6">
    <path d="M 65.828571 24.526286 
L 1079.588571 24.526286 
" style="fill:none;stroke:#ffffff;stroke-linecap:square;stroke-linejoin:miter;stroke-width:1.25;"/>
   </g>
   <g id="text_18">
    <!-- Wykresy dla n = 5 i T = 1000K -->
    <g style="fill:#262626;" transform="translate(492.603884 18.526286)scale(0.12 -0.12)">
     <defs>
      <path d="M 1294 0 
L 78 4581 
L 700 4581 
L 1397 1578 
Q 1509 1106 1591 641 
Q 1766 1375 1797 1488 
L 2669 4581 
L 3400 4581 
L 4056 2263 
Q 4303 1400 4413 641 
Q 4500 1075 4641 1638 
L 5359 4581 
L 5969 4581 
L 4713 0 
L 4128 0 
L 3163 3491 
Q 3041 3928 3019 4028 
Q 2947 3713 2884 3491 
L 1913 0 
L 1294 0 
z
" id="ArialMT-57" transform="scale(0.015625)"/>
      <path d="M 397 -1278 
L 334 -750 
Q 519 -800 656 -800 
Q 844 -800 956 -737 
Q 1069 -675 1141 -563 
Q 1194 -478 1313 -144 
Q 1328 -97 1363 -6 
L 103 3319 
L 709 3319 
L 1400 1397 
Q 1534 1031 1641 628 
Q 1738 1016 1872 1384 
L 2581 3319 
L 3144 3319 
L 1881 -56 
Q 1678 -603 1566 -809 
Q 1416 -1088 1222 -1217 
Q 1028 -1347 759 -1347 
Q 597 -1347 397 -1278 
z
" id="ArialMT-79" transform="scale(0.015625)"/>
      <path d="M 416 0 
L 416 3319 
L 922 3319 
L 922 2816 
Q 1116 3169 1280 3281 
Q 1444 3394 1641 3394 
Q 1925 3394 2219 3213 
L 2025 2691 
Q 1819 2813 1613 2813 
Q 1428 2813 1281 2702 
Q 1134 2591 1072 2394 
Q 978 2094 978 1738 
L 978 0 
L 416 0 
z
" id="ArialMT-72" transform="scale(0.015625)"/>
      <path d="M 2694 1069 
L 3275 997 
Q 3138 488 2766 206 
Q 2394 -75 1816 -75 
Q 1088 -75 661 373 
Q 234 822 234 1631 
Q 234 2469 665 2931 
Q 1097 3394 1784 3394 
Q 2450 3394 2872 2941 
Q 3294 2488 3294 1666 
Q 3294 1616 3291 1516 
L 816 1516 
Q 847 969 1125 678 
Q 1403 388 1819 388 
Q 2128 388 2347 550 
Q 2566 713 2694 1069 
z
M 847 1978 
L 2700 1978 
Q 2663 2397 2488 2606 
Q 2219 2931 1791 2931 
Q 1403 2931 1139 2672 
Q 875 2413 847 1978 
z
" id="ArialMT-65" transform="scale(0.015625)"/>
      <path d="M 197 991 
L 753 1078 
Q 800 744 1014 566 
Q 1228 388 1613 388 
Q 2000 388 2187 545 
Q 2375 703 2375 916 
Q 2375 1106 2209 1216 
Q 2094 1291 1634 1406 
Q 1016 1563 777 1677 
Q 538 1791 414 1992 
Q 291 2194 291 2438 
Q 291 2659 392 2848 
Q 494 3038 669 3163 
Q 800 3259 1026 3326 
Q 1253 3394 1513 3394 
Q 1903 3394 2198 3281 
Q 2494 3169 2634 2976 
Q 2775 2784 2828 2463 
L 2278 2388 
Q 2241 2644 2061 2787 
Q 1881 2931 1553 2931 
Q 1166 2931 1000 2803 
Q 834 2675 834 2503 
Q 834 2394 903 2306 
Q 972 2216 1119 2156 
Q 1203 2125 1616 2013 
Q 2213 1853 2448 1751 
Q 2684 1650 2818 1456 
Q 2953 1263 2953 975 
Q 2953 694 2789 445 
Q 2625 197 2315 61 
Q 2006 -75 1616 -75 
Q 969 -75 630 194 
Q 291 463 197 991 
z
" id="ArialMT-73" transform="scale(0.015625)"/>
      <path d="M 2575 0 
L 2575 419 
Q 2259 -75 1647 -75 
Q 1250 -75 917 144 
Q 584 363 401 755 
Q 219 1147 219 1656 
Q 219 2153 384 2558 
Q 550 2963 881 3178 
Q 1213 3394 1622 3394 
Q 1922 3394 2156 3267 
Q 2391 3141 2538 2938 
L 2538 4581 
L 3097 4581 
L 3097 0 
L 2575 0 
z
M 797 1656 
Q 797 1019 1065 703 
Q 1334 388 1700 388 
Q 2069 388 2326 689 
Q 2584 991 2584 1609 
Q 2584 2291 2321 2609 
Q 2059 2928 1675 2928 
Q 1300 2928 1048 2622 
Q 797 2316 797 1656 
z
" id="ArialMT-64" transform="scale(0.015625)"/>
      <path d="M 2588 409 
Q 2275 144 1986 34 
Q 1697 -75 1366 -75 
Q 819 -75 525 192 
Q 231 459 231 875 
Q 231 1119 342 1320 
Q 453 1522 633 1644 
Q 813 1766 1038 1828 
Q 1203 1872 1538 1913 
Q 2219 1994 2541 2106 
Q 2544 2222 2544 2253 
Q 2544 2597 2384 2738 
Q 2169 2928 1744 2928 
Q 1347 2928 1158 2789 
Q 969 2650 878 2297 
L 328 2372 
Q 403 2725 575 2942 
Q 747 3159 1072 3276 
Q 1397 3394 1825 3394 
Q 2250 3394 2515 3294 
Q 2781 3194 2906 3042 
Q 3031 2891 3081 2659 
Q 3109 2516 3109 2141 
L 3109 1391 
Q 3109 606 3145 398 
Q 3181 191 3288 0 
L 2700 0 
Q 2613 175 2588 409 
z
M 2541 1666 
Q 2234 1541 1622 1453 
Q 1275 1403 1131 1340 
Q 988 1278 909 1158 
Q 831 1038 831 891 
Q 831 666 1001 516 
Q 1172 366 1500 366 
Q 1825 366 2078 508 
Q 2331 650 2450 897 
Q 2541 1088 2541 1459 
L 2541 1666 
z
" id="ArialMT-61" transform="scale(0.015625)"/>
      <path d="M 422 0 
L 422 3319 
L 928 3319 
L 928 2847 
Q 1294 3394 1984 3394 
Q 2284 3394 2536 3286 
Q 2788 3178 2913 3003 
Q 3038 2828 3088 2588 
Q 3119 2431 3119 2041 
L 3119 0 
L 2556 0 
L 2556 2019 
Q 2556 2363 2490 2533 
Q 2425 2703 2258 2804 
Q 2091 2906 1866 2906 
Q 1506 2906 1245 2678 
Q 984 2450 984 1813 
L 984 0 
L 422 0 
z
" id="ArialMT-6e" transform="scale(0.015625)"/>
      <path d="M 3381 2694 
L 356 2694 
L 356 3219 
L 3381 3219 
L 3381 2694 
z
M 3381 1303 
L 356 1303 
L 356 1828 
L 3381 1828 
L 3381 1303 
z
" id="ArialMT-3d" transform="scale(0.015625)"/>
      <path d="M 425 3934 
L 425 4581 
L 988 4581 
L 988 3934 
L 425 3934 
z
M 425 0 
L 425 3319 
L 988 3319 
L 988 0 
L 425 0 
z
" id="ArialMT-69" transform="scale(0.015625)"/>
      <path d="M 1659 0 
L 1659 4041 
L 150 4041 
L 150 4581 
L 3781 4581 
L 3781 4041 
L 2266 4041 
L 2266 0 
L 1659 0 
z
" id="ArialMT-54" transform="scale(0.015625)"/>
      <path d="M 469 0 
L 469 4581 
L 1075 4581 
L 1075 2309 
L 3350 4581 
L 4172 4581 
L 2250 2725 
L 4256 0 
L 3456 0 
L 1825 2319 
L 1075 1588 
L 1075 0 
L 469 0 
z
" id="ArialMT-4b" transform="scale(0.015625)"/>
     </defs>
     <use xlink:href="#ArialMT-57"/>
     <use x="93.509766" xlink:href="#ArialMT-79"/>
     <use x="143.509766" xlink:href="#ArialMT-6b"/>
     <use x="193.509766" xlink:href="#ArialMT-72"/>
     <use x="226.810547" xlink:href="#ArialMT-65"/>
     <use x="282.425781" xlink:href="#ArialMT-73"/>
     <use x="332.425781" xlink:href="#ArialMT-79"/>
     <use x="382.425781" xlink:href="#ArialMT-20"/>
     <use x="410.208984" xlink:href="#ArialMT-64"/>
     <use x="465.824219" xlink:href="#ArialMT-6c"/>
     <use x="488.041016" xlink:href="#ArialMT-61"/>
     <use x="543.65625" xlink:href="#ArialMT-20"/>
     <use x="571.439453" xlink:href="#ArialMT-6e"/>
     <use x="627.054688" xlink:href="#ArialMT-20"/>
     <use x="654.837891" xlink:href="#ArialMT-3d"/>
     <use x="713.236328" xlink:href="#ArialMT-20"/>
     <use x="741.019531" xlink:href="#ArialMT-35"/>
     <use x="796.634766" xlink:href="#ArialMT-20"/>
     <use x="824.417969" xlink:href="#ArialMT-69"/>
     <use x="846.634766" xlink:href="#ArialMT-20"/>
     <use x="872.667969" xlink:href="#ArialMT-54"/>
     <use x="932.001953" xlink:href="#ArialMT-20"/>
     <use x="959.785156" xlink:href="#ArialMT-3d"/>
     <use x="1018.183594" xlink:href="#ArialMT-20"/>
     <use x="1045.966797" xlink:href="#ArialMT-31"/>
     <use x="1101.582031" xlink:href="#ArialMT-30"/>
     <use x="1157.197266" xlink:href="#ArialMT-30"/>
     <use x="1212.8125" xlink:href="#ArialMT-30"/>
     <use x="1268.427734" xlink:href="#ArialMT-4b"/>
    </g>
   </g>
  </g>
  <g id="axes_2">
   <g id="patch_7">
    <path d="M 65.828571 334.407933 
L 1079.588571 334.407933 
L 1079.588571 193.552639 
L 65.828571 193.552639 
z
" style="fill:#eaeaf2;"/>
   </g>
   <g id="matplotlib.axis_3">
    <g id="xtick_12">
     <g id="line2d_18">
      <path clip-path="url(#p692a2aea83)" d="M 111.908571 334.407933 
L 111.908571 193.552639 
" style="fill:none;stroke:#ffffff;stroke-linecap:round;"/>
     </g>
     <g id="text_19">
      <!-- 0 -->
      <g style="fill:#262626;" transform="translate(108.850056 351.781527)scale(0.11 -0.11)">
       <use xlink:href="#ArialMT-30"/>
      </g>
     </g>
    </g>
    <g id="xtick_13">
     <g id="line2d_19">
      <path clip-path="url(#p692a2aea83)" d="M 203.156096 334.407933 
L 203.156096 193.552639 
" style="fill:none;stroke:#ffffff;stroke-linecap:round;"/>
     </g>
     <g id="text_20">
      <!-- 1 -->
      <g style="fill:#262626;" transform="translate(200.097581 351.781527)scale(0.11 -0.11)">
       <use xlink:href="#ArialMT-31"/>
      </g>
     </g>
    </g>
    <g id="xtick_14">
     <g id="line2d_20">
      <path clip-path="url(#p692a2aea83)" d="M 294.403621 334.407933 
L 294.403621 193.552639 
" style="fill:none;stroke:#ffffff;stroke-linecap:round;"/>
     </g>
     <g id="text_21">
      <!-- 2 -->
      <g style="fill:#262626;" transform="translate(291.345105 351.781527)scale(0.11 -0.11)">
       <use xlink:href="#ArialMT-32"/>
      </g>
     </g>
    </g>
    <g id="xtick_15">
     <g id="line2d_21">
      <path clip-path="url(#p692a2aea83)" d="M 385.651146 334.407933 
L 385.651146 193.552639 
" style="fill:none;stroke:#ffffff;stroke-linecap:round;"/>
     </g>
     <g id="text_22">
      <!-- 3 -->
      <g style="fill:#262626;" transform="translate(382.59263 351.781527)scale(0.11 -0.11)">
       <use xlink:href="#ArialMT-33"/>
      </g>
     </g>
    </g>
    <g id="xtick_16">
     <g id="line2d_22">
      <path clip-path="url(#p692a2aea83)" d="M 476.89867 334.407933 
L 476.89867 193.552639 
" style="fill:none;stroke:#ffffff;stroke-linecap:round;"/>
     </g>
     <g id="text_23">
      <!-- 4 -->
      <g style="fill:#262626;" transform="translate(473.840155 351.781527)scale(0.11 -0.11)">
       <use xlink:href="#ArialMT-34"/>
      </g>
     </g>
    </g>
    <g id="xtick_17">
     <g id="line2d_23">
      <path clip-path="url(#p692a2aea83)" d="M 568.146195 334.407933 
L 568.146195 193.552639 
" style="fill:none;stroke:#ffffff;stroke-linecap:round;"/>
     </g>
     <g id="text_24">
      <!-- 5 -->
      <g style="fill:#262626;" transform="translate(565.08768 351.781527)scale(0.11 -0.11)">
       <use xlink:href="#ArialMT-35"/>
      </g>
     </g>
    </g>
    <g id="xtick_18">
     <g id="line2d_24">
      <path clip-path="url(#p692a2aea83)" d="M 659.39372 334.407933 
L 659.39372 193.552639 
" style="fill:none;stroke:#ffffff;stroke-linecap:round;"/>
     </g>
     <g id="text_25">
      <!-- 6 -->
      <g style="fill:#262626;" transform="translate(656.335204 351.781527)scale(0.11 -0.11)">
       <use xlink:href="#ArialMT-36"/>
      </g>
     </g>
    </g>
    <g id="xtick_19">
     <g id="line2d_25">
      <path clip-path="url(#p692a2aea83)" d="M 750.641245 334.407933 
L 750.641245 193.552639 
" style="fill:none;stroke:#ffffff;stroke-linecap:round;"/>
     </g>
     <g id="text_26">
      <!-- 7 -->
      <g style="fill:#262626;" transform="translate(747.582729 351.781527)scale(0.11 -0.11)">
       <use xlink:href="#ArialMT-37"/>
      </g>
     </g>
    </g>
    <g id="xtick_20">
     <g id="line2d_26">
      <path clip-path="url(#p692a2aea83)" d="M 841.888769 334.407933 
L 841.888769 193.552639 
" style="fill:none;stroke:#ffffff;stroke-linecap:round;"/>
     </g>
     <g id="text_27">
      <!-- 8 -->
      <g style="fill:#262626;" transform="translate(838.830254 351.781527)scale(0.11 -0.11)">
       <use xlink:href="#ArialMT-38"/>
      </g>
     </g>
    </g>
    <g id="xtick_21">
     <g id="line2d_27">
      <path clip-path="url(#p692a2aea83)" d="M 933.136294 334.407933 
L 933.136294 193.552639 
" style="fill:none;stroke:#ffffff;stroke-linecap:round;"/>
     </g>
     <g id="text_28">
      <!-- 9 -->
      <g style="fill:#262626;" transform="translate(930.077779 351.781527)scale(0.11 -0.11)">
       <use xlink:href="#ArialMT-39"/>
      </g>
     </g>
    </g>
    <g id="xtick_22">
     <g id="line2d_28">
      <path clip-path="url(#p692a2aea83)" d="M 1024.383819 334.407933 
L 1024.383819 193.552639 
" style="fill:none;stroke:#ffffff;stroke-linecap:round;"/>
     </g>
     <g id="text_29">
      <!-- 10 -->
      <g style="fill:#262626;" transform="translate(1018.266788 351.781527)scale(0.11 -0.11)">
       <use xlink:href="#ArialMT-31"/>
       <use x="55.615234" xlink:href="#ArialMT-30"/>
      </g>
     </g>
    </g>
   </g>
   <g id="matplotlib.axis_4">
    <g id="ytick_6">
     <g id="line2d_29">
      <path clip-path="url(#p692a2aea83)" d="M 65.828571 317.432462 
L 1079.588571 317.432462 
" style="fill:none;stroke:#ffffff;stroke-linecap:round;"/>
     </g>
     <g id="text_30">
      <!-- 600 -->
      <g style="fill:#262626;" transform="translate(37.977478 321.369258)scale(0.11 -0.11)">
       <use xlink:href="#ArialMT-36"/>
       <use x="55.615234" xlink:href="#ArialMT-30"/>
       <use x="111.230469" xlink:href="#ArialMT-30"/>
      </g>
     </g>
    </g>
    <g id="ytick_7">
     <g id="line2d_30">
      <path clip-path="url(#p692a2aea83)" d="M 65.828571 289.461674 
L 1079.588571 289.461674 
" style="fill:none;stroke:#ffffff;stroke-linecap:round;"/>
     </g>
     <g id="text_31">
      <!-- 700 -->
      <g style="fill:#262626;" transform="translate(37.977478 293.39847)scale(0.11 -0.11)">
       <use xlink:href="#ArialMT-37"/>
       <use x="55.615234" xlink:href="#ArialMT-30"/>
       <use x="111.230469" xlink:href="#ArialMT-30"/>
      </g>
     </g>
    </g>
    <g id="ytick_8">
     <g id="line2d_31">
      <path clip-path="url(#p692a2aea83)" d="M 65.828571 261.490886 
L 1079.588571 261.490886 
" style="fill:none;stroke:#ffffff;stroke-linecap:round;"/>
     </g>
     <g id="text_32">
      <!-- 800 -->
      <g style="fill:#262626;" transform="translate(37.977478 265.427682)scale(0.11 -0.11)">
       <use xlink:href="#ArialMT-38"/>
       <use x="55.615234" xlink:href="#ArialMT-30"/>
       <use x="111.230469" xlink:href="#ArialMT-30"/>
      </g>
     </g>
    </g>
    <g id="ytick_9">
     <g id="line2d_32">
      <path clip-path="url(#p692a2aea83)" d="M 65.828571 233.520098 
L 1079.588571 233.520098 
" style="fill:none;stroke:#ffffff;stroke-linecap:round;"/>
     </g>
     <g id="text_33">
      <!-- 900 -->
      <g style="fill:#262626;" transform="translate(37.977478 237.456894)scale(0.11 -0.11)">
       <use xlink:href="#ArialMT-39"/>
       <use x="55.615234" xlink:href="#ArialMT-30"/>
       <use x="111.230469" xlink:href="#ArialMT-30"/>
      </g>
     </g>
    </g>
    <g id="ytick_10">
     <g id="line2d_33">
      <path clip-path="url(#p692a2aea83)" d="M 65.828571 205.54931 
L 1079.588571 205.54931 
" style="fill:none;stroke:#ffffff;stroke-linecap:round;"/>
     </g>
     <g id="text_34">
      <!-- 1000 -->
      <g style="fill:#262626;" transform="translate(31.860446 209.486106)scale(0.11 -0.11)">
       <use xlink:href="#ArialMT-31"/>
       <use x="55.615234" xlink:href="#ArialMT-30"/>
       <use x="111.230469" xlink:href="#ArialMT-30"/>
       <use x="166.845703" xlink:href="#ArialMT-30"/>
      </g>
     </g>
    </g>
    <g id="text_35">
     <!-- T [K] -->
     <g style="fill:#262626;" transform="translate(25.475446 276.542786)rotate(-90)scale(0.12 -0.12)">
      <use xlink:href="#ArialMT-54"/>
      <use x="59.333984" xlink:href="#ArialMT-20"/>
      <use x="87.117188" xlink:href="#ArialMT-5b"/>
      <use x="114.900391" xlink:href="#ArialMT-4b"/>
      <use x="181.599609" xlink:href="#ArialMT-5d"/>
     </g>
    </g>
   </g>
   <g id="line2d_34">
    <path clip-path="url(#p692a2aea83)" d="M 111.908571 199.955152 
L 112.821047 201.073984 
L 113.733522 204.15077 
L 114.645997 210.19246 
L 115.558472 219.870353 
L 116.470948 234.30328 
L 117.383423 253.687036 
L 118.295898 275.448309 
L 119.208373 294.104824 
L 120.120849 305.041402 
L 121.033324 307.335007 
L 121.945799 303.19533 
L 123.77075 289.070083 
L 124.683225 283.699691 
L 127.420651 272.371522 
L 128.333126 268.064021 
L 129.245601 264.763468 
L 130.158076 263.05725 
L 131.070552 262.7216 
L 131.983027 263.392899 
L 132.895502 264.48376 
L 133.807977 265.099117 
L 134.720453 264.679555 
L 136.545403 262.022331 
L 137.457878 261.099295 
L 138.370354 261.015382 
L 139.282829 261.65871 
L 141.107779 263.700578 
L 142.020255 264.287964 
L 142.93273 264.343906 
L 143.845205 263.980286 
L 146.582631 262.274068 
L 147.495106 262.022331 
L 148.407581 262.274068 
L 149.320057 263.001308 
L 151.145007 264.931293 
L 152.057482 265.630562 
L 153.882433 266.413744 
L 154.794908 266.749394 
L 156.619859 267.840254 
L 162.09471 272.063843 
L 163.919661 272.930938 
L 166.657086 274.105711 
L 168.482037 275.14063 
L 170.306987 276.427286 
L 173.044413 278.776833 
L 175.781839 281.210291 
L 177.606789 282.58086 
L 179.43174 283.67172 
L 182.169165 284.902435 
L 191.293918 288.650521 
L 204.981047 294.412503 
L 207.718472 295.447422 
L 212.280849 296.734078 
L 220.493126 298.803917 
L 224.143027 300.258398 
L 226.880453 301.237375 
L 230.530354 302.384178 
L 232.355304 303.335184 
L 235.09273 305.013432 
L 236.005205 305.432994 
L 236.91768 305.712701 
L 238.742631 305.880526 
L 242.392532 305.824585 
L 243.305007 306.132263 
L 244.217482 306.859504 
L 245.129958 308.006306 
L 246.954908 311.027151 
L 248.779859 314.075967 
L 249.692334 315.110886 
L 250.604809 315.670302 
L 251.517284 315.698273 
L 252.42976 315.194799 
L 253.342235 314.215821 
L 254.25471 312.873223 
L 256.992136 308.062248 
L 257.904611 306.747621 
L 258.817086 305.908497 
L 259.729562 305.600818 
L 260.642037 305.768643 
L 262.466987 306.71965 
L 266.116888 308.957313 
L 267.029364 309.348904 
L 267.941839 309.600641 
L 268.854314 309.684553 
L 271.59174 309.516729 
L 273.41669 309.712524 
L 275.241641 310.243969 
L 277.066591 310.97121 
L 277.979066 311.614538 
L 278.891542 312.76134 
L 279.804017 314.55147 
L 281.628967 319.278534 
L 282.541443 321.208518 
L 283.453918 322.35532 
L 284.366393 322.942707 
L 285.278868 323.278356 
L 286.191344 323.78183 
L 287.103819 324.537042 
L 288.928769 326.383114 
L 290.75372 327.725712 
L 291.666195 328.005419 
L 292.57867 327.725712 
L 293.491146 326.914559 
L 298.965997 320.537219 
L 299.878472 319.782008 
L 300.790948 319.390417 
L 301.703423 319.222592 
L 302.615898 318.914913 
L 303.528373 318.047819 
L 306.265799 313.348727 
L 307.178274 312.621486 
L 308.09075 312.481632 
L 309.003225 312.733369 
L 310.828175 313.432639 
L 311.740651 313.572493 
L 313.565601 313.264814 
L 315.390552 312.985106 
L 316.303027 313.013077 
L 318.127977 313.292785 
L 319.040453 313.208873 
L 320.865403 312.873223 
L 322.690354 312.565544 
L 323.602829 312.341778 
L 324.515304 312.341778 
L 325.427779 312.677428 
L 326.340255 313.292785 
L 329.07768 315.810156 
L 329.990156 316.229718 
L 330.902631 316.061893 
L 332.727581 314.719295 
L 333.640057 314.047996 
L 334.552532 313.600464 
L 336.377482 313.152931 
L 337.289958 313.292785 
L 338.202433 313.908142 
L 339.114908 315.054945 
L 340.939859 317.935936 
L 341.852334 318.80303 
L 342.764809 318.914913 
L 344.58976 318.131731 
L 345.502235 317.74014 
L 346.41471 317.572315 
L 347.327185 317.796082 
L 348.239661 318.467381 
L 349.152136 319.474329 
L 350.064611 320.089686 
L 350.977086 319.250563 
L 352.802037 315.082915 
L 353.714512 313.432639 
L 354.626987 312.285837 
L 355.539463 311.614538 
L 356.451938 311.362801 
L 357.364413 311.390771 
L 359.189364 311.978158 
L 362.839264 313.320756 
L 367.401641 314.691324 
L 368.314116 315.25074 
L 369.226591 315.61436 
L 370.139066 315.390594 
L 371.964017 314.075967 
L 372.876492 313.852201 
L 373.788967 313.852201 
L 374.701443 314.020025 
L 377.438868 315.138857 
L 378.351344 315.222769 
L 381.088769 314.971032 
L 383.826195 314.803207 
L 385.651146 314.159879 
L 386.563621 313.796259 
L 387.476096 313.628434 
L 388.388571 313.684376 
L 390.213522 314.271763 
L 392.038472 314.775237 
L 392.950948 314.831178 
L 394.775898 314.383646 
L 396.600849 313.880171 
L 397.513324 313.880171 
L 398.425799 314.075967 
L 399.338274 314.495529 
L 401.163225 315.61436 
L 402.0757 316.005951 
L 402.988175 316.145805 
L 403.900651 316.005951 
L 405.725601 315.362623 
L 407.550552 314.775237 
L 408.463027 314.719295 
L 409.375502 314.88712 
L 410.287977 315.334652 
L 413.025403 317.096812 
L 413.937878 317.096812 
L 414.850354 316.621309 
L 417.587779 314.55147 
L 418.500255 314.075967 
L 420.325205 313.544522 
L 422.150156 313.348727 
L 423.975106 313.376697 
L 425.800057 313.684376 
L 428.537482 314.495529 
L 431.274908 315.698273 
L 432.187383 316.173776 
L 433.099859 316.509426 
L 434.012334 316.621309 
L 435.837284 316.537396 
L 436.74976 316.733192 
L 437.662235 317.236666 
L 439.487185 318.775059 
L 440.399661 319.16665 
L 441.312136 318.747089 
L 442.224611 317.488403 
L 444.049562 314.243792 
L 444.962037 312.845252 
L 445.874512 311.69845 
L 446.786987 310.803385 
L 447.699463 310.215998 
L 448.611938 309.992232 
L 449.524413 310.132086 
L 450.436888 310.719472 
L 451.349364 311.810333 
L 453.174314 314.999003 
L 454.086789 316.145805 
L 454.999264 316.201747 
L 455.91174 315.362623 
L 456.824215 314.271763 
L 457.73669 313.404668 
L 459.561641 312.229895 
L 461.386591 311.362801 
L 462.299066 311.111063 
L 463.211542 311.055122 
L 465.036492 311.418742 
L 467.773918 312.145983 
L 468.686393 312.201924 
L 469.598868 312.145983 
L 471.423819 311.642508 
L 473.248769 310.99918 
L 474.161245 310.803385 
L 475.07372 310.831356 
L 475.986195 311.083093 
L 476.89867 311.642508 
L 477.811146 312.481632 
L 480.548571 315.922039 
L 481.461047 316.453484 
L 482.373522 316.257688 
L 483.285997 315.58639 
L 485.110948 313.852201 
L 486.935898 312.39772 
L 488.760849 311.446713 
L 489.673324 311.167005 
L 490.585799 311.027151 
L 491.498274 311.027151 
L 493.323225 311.390771 
L 495.148175 311.670479 
L 499.710552 311.69845 
L 500.623027 311.782362 
L 501.535502 311.754392 
L 503.360453 311.194976 
L 504.272928 310.943239 
L 505.185403 310.831356 
L 506.097878 310.915268 
L 507.922829 311.362801 
L 508.835304 311.446713 
L 512.485205 310.97121 
L 513.39768 311.278888 
L 515.222631 312.341778 
L 517.047581 313.572493 
L 517.960057 313.852201 
L 518.872532 313.264814 
L 520.697482 310.63556 
L 521.609958 309.656582 
L 522.522433 309.125138 
L 523.434908 308.929342 
L 524.347383 308.985284 
L 526.172334 309.460787 
L 527.997284 310.299911 
L 529.822235 311.474684 
L 531.647185 312.733369 
L 532.559661 312.985106 
L 533.472136 312.733369 
L 536.209562 311.083093 
L 537.122037 310.97121 
L 539.859463 311.558596 
L 540.771938 311.278888 
L 541.684413 310.607589 
L 543.509364 309.069196 
L 544.421839 308.565722 
L 545.334314 308.258043 
L 547.159264 308.090218 
L 548.984215 308.286014 
L 549.89669 308.537751 
L 550.809165 309.013254 
L 551.721641 309.90832 
L 553.546591 312.985106 
L 554.459066 313.684376 
L 555.371542 312.929165 
L 556.284017 311.754392 
L 557.196492 311.083093 
L 558.108967 311.278888 
L 559.021443 312.341778 
L 560.846393 316.173776 
L 561.758868 317.0129 
L 562.671344 315.810156 
L 563.583819 313.516551 
L 564.496294 311.558596 
L 565.408769 310.299911 
L 566.321245 309.656582 
L 567.23372 309.432816 
L 568.146195 309.488758 
L 569.05867 309.740495 
L 569.971146 310.132086 
L 570.883621 310.691502 
L 571.796096 311.502654 
L 573.621047 313.376697 
L 574.533522 313.572493 
L 575.445997 312.929165 
L 576.358472 312.06207 
L 577.270948 311.69845 
L 578.183423 312.341778 
L 579.095898 314.131909 
L 580.920849 319.026796 
L 581.833324 319.5023 
L 582.745799 317.712169 
L 583.658274 314.971032 
L 584.57075 312.789311 
L 585.483225 311.754392 
L 586.3957 311.69845 
L 587.308175 312.034099 
L 588.220651 312.173953 
L 590.958076 311.33483 
L 591.870552 311.33483 
L 597.345403 312.285837 
L 600.082829 312.817282 
L 600.995304 312.705398 
L 604.645205 311.33483 
L 606.470156 311.474684 
L 609.207581 312.006129 
L 611.032532 311.978158 
L 614.682433 311.306859 
L 615.594908 311.474684 
L 616.507383 311.866275 
L 617.419859 312.509603 
L 618.332334 313.292785 
L 619.244809 314.271763 
L 621.982235 317.963907 
L 622.89471 318.719118 
L 623.807185 318.579264 
L 624.719661 317.656228 
L 626.544611 315.25074 
L 627.457086 314.411616 
L 628.369562 313.964084 
L 629.282037 313.964084 
L 630.194512 314.355675 
L 631.106987 314.88712 
L 632.019463 315.25074 
L 632.931938 315.362623 
L 634.756888 315.222769 
L 635.669364 314.971032 
L 638.406789 313.796259 
L 641.144215 313.628434 
L 642.05669 313.264814 
L 643.881641 312.173953 
L 644.794116 311.838304 
L 645.706591 311.782362 
L 646.619066 312.118012 
L 647.531542 312.901194 
L 648.444017 313.992055 
L 649.356492 314.831178 
L 650.268967 314.747266 
L 653.006393 312.313807 
L 653.918868 312.06207 
L 654.831344 312.090041 
L 655.743819 312.39772 
L 656.656294 312.929165 
L 659.39372 315.306682 
L 660.306195 315.782185 
L 662.131146 316.173776 
L 664.868571 316.31363 
L 665.781047 316.201747 
L 666.693522 315.866097 
L 667.605997 315.362623 
L 668.518472 315.054945 
L 669.430948 315.054945 
L 670.343423 315.390594 
L 671.255898 316.033922 
L 672.168373 317.068841 
L 674.905799 321.26446 
L 675.818274 322.159525 
L 676.73075 322.467203 
L 677.643225 322.243437 
L 678.5557 321.711992 
L 680.380651 320.089686 
L 683.118076 317.37652 
L 684.030552 316.67725 
L 684.943027 316.173776 
L 685.855502 315.977981 
L 687.680453 316.31363 
L 690.417878 317.37652 
L 695.89273 318.80303 
L 696.805205 318.635205 
L 697.71768 317.963907 
L 699.542631 316.481455 
L 700.455106 316.089864 
L 701.367581 316.117835 
L 702.280057 316.537396 
L 703.192532 317.236666 
L 706.842433 320.788956 
L 707.754908 321.29243 
L 708.667383 321.320401 
L 709.579859 320.92881 
L 711.404809 319.5023 
L 713.22976 318.10376 
L 714.142235 317.600286 
L 715.05471 317.236666 
L 716.879661 316.845075 
L 722.354512 316.229718 
L 723.266987 316.285659 
L 725.091938 316.705221 
L 728.741839 317.907965 
L 729.654314 318.355498 
L 730.566789 319.16665 
L 732.39174 321.488226 
L 733.304215 322.662999 
L 734.21669 323.614006 
L 735.129165 324.201392 
L 736.041641 324.285305 
L 736.954116 323.725889 
L 737.866591 322.607057 
L 739.691542 320.005774 
L 741.516492 317.796082 
L 743.341443 315.866097 
L 745.166393 314.383646 
L 746.991344 313.48858 
L 748.816294 313.12496 
L 750.641245 313.013077 
L 753.37867 312.957135 
L 755.203621 312.789311 
L 757.941047 312.257866 
L 762.503423 311.390771 
L 763.415898 311.33483 
L 764.328373 311.390771 
L 765.240849 311.586567 
L 766.153324 311.950187 
L 767.065799 312.565544 
L 767.978274 313.432639 
L 769.803225 315.61436 
L 770.7157 316.509426 
L 771.628175 316.956958 
L 772.540651 316.956958 
L 774.365601 316.397542 
L 775.278076 316.369572 
L 776.190552 316.621309 
L 777.103027 317.180724 
L 778.015502 318.047819 
L 780.752928 321.26446 
L 781.665403 321.320401 
L 782.577878 320.453307 
L 785.315304 316.145805 
L 786.227779 315.138857 
L 787.140255 314.439587 
L 788.05273 313.992055 
L 788.965205 313.712347 
L 789.87768 313.572493 
L 790.790156 313.600464 
L 791.702631 313.82423 
L 792.615106 314.271763 
L 793.527581 314.999003 
L 794.440057 316.089864 
L 796.265007 318.691147 
L 797.177482 319.5023 
L 798.089958 319.474329 
L 799.002433 318.635205 
L 801.739859 314.915091 
L 802.652334 314.159879 
L 803.564809 313.712347 
L 804.477284 313.516551 
L 805.38976 313.516551 
L 806.302235 313.656405 
L 808.127185 314.439587 
L 809.952136 315.530448 
L 810.864611 315.95001 
L 811.777086 316.117835 
L 812.689562 315.977981 
L 813.602037 315.58639 
L 815.426987 314.607412 
L 816.339463 314.327704 
L 817.251938 314.355675 
L 819.989364 315.222769 
L 820.901839 315.082915 
L 823.639264 314.355675 
L 824.55174 314.327704 
L 826.37669 314.803207 
L 830.026591 315.977981 
L 831.851542 316.873046 
L 833.676492 317.852023 
L 834.588967 318.243614 
L 835.501443 318.495351 
L 836.413918 318.467381 
L 837.326393 318.159702 
L 838.238868 317.628257 
L 840.976294 315.530448 
L 841.888769 315.166828 
L 842.801245 315.138857 
L 843.71372 315.418565 
L 844.626195 315.922039 
L 847.363621 317.852023 
L 848.276096 318.187673 
L 849.188571 318.271585 
L 850.101047 318.07579 
L 851.013522 317.656228 
L 852.838472 316.31363 
L 855.575898 314.047996 
L 856.488373 313.48858 
L 857.400849 313.180902 
L 858.313324 313.152931 
L 859.225799 313.320756 
L 861.05075 314.103938 
L 863.788175 315.446536 
L 865.613126 316.005951 
L 867.438076 316.201747 
L 869.263027 316.173776 
L 870.175502 316.089864 
L 871.087977 315.866097 
L 872.912928 314.999003 
L 876.562829 312.957135 
L 877.475304 312.733369 
L 878.387779 312.705398 
L 880.21273 313.013077 
L 882.03768 313.572493 
L 882.950156 313.908142 
L 883.862631 314.383646 
L 884.775106 314.999003 
L 887.512532 317.544345 
L 888.425007 317.544345 
L 889.337482 316.705221 
L 891.162433 314.243792 
L 892.074908 313.48858 
L 892.987383 313.264814 
L 893.899859 313.516551 
L 895.724809 314.383646 
L 896.637284 314.607412 
L 897.54976 314.495529 
L 898.462235 314.131909 
L 900.287185 313.041048 
L 902.112136 311.950187 
L 903.937086 311.222947 
L 905.762037 310.97121 
L 906.674512 310.97121 
L 908.499463 311.250917 
L 913.061839 312.481632 
L 913.974314 312.537574 
L 915.799264 312.369749 
L 920.361641 311.894246 
L 922.186591 311.922216 
L 923.099066 312.118012 
L 924.011542 312.537574 
L 924.924017 313.180902 
L 926.748967 314.803207 
L 927.661443 315.278711 
L 928.573918 315.222769 
L 930.398868 314.439587 
L 932.223819 313.684376 
L 936.786195 312.118012 
L 937.69867 311.950187 
L 938.611146 311.978158 
L 939.523621 312.257866 
L 940.436096 312.873223 
L 941.348571 313.82423 
L 944.998472 318.43941 
L 945.910948 319.110709 
L 946.823423 319.334475 
L 947.735898 319.16665 
L 948.648373 318.691147 
L 950.473324 317.152754 
L 954.123225 313.600464 
L 955.0357 312.985106 
L 956.860651 312.257866 
L 958.685601 312.090041 
L 959.598076 312.173953 
L 960.510552 312.42569 
L 964.160453 313.964084 
L 965.985403 314.18785 
L 968.722829 314.411616 
L 969.635304 314.663354 
L 970.547779 315.054945 
L 971.460255 315.61436 
L 976.022631 318.970855 
L 976.935106 319.362446 
L 977.847581 319.614183 
L 979.672532 319.698095 
L 981.497482 319.698095 
L 983.322433 319.670125 
L 984.234908 319.390417 
L 985.147383 318.775059 
L 987.884809 316.061893 
L 988.797284 315.474506 
L 989.70976 315.25074 
L 990.622235 315.558419 
L 992.447185 316.956958 
L 993.359661 317.040871 
L 995.184611 316.31363 
L 996.097086 316.005951 
L 997.009562 315.278711 
L 998.834512 312.817282 
L 999.746987 311.950187 
L 1000.659463 311.726421 
L 1001.571938 312.313807 
L 1002.484413 313.796259 
L 1003.396888 315.894068 
L 1004.309364 317.628257 
L 1005.221839 318.047819 
L 1006.134314 317.460432 
L 1008.87174 314.439587 
L 1009.784215 313.82423 
L 1010.69669 313.48858 
L 1011.609165 313.320756 
L 1013.434116 313.320756 
L 1017.996492 313.936113 
L 1021.646393 313.880171 
L 1025.296294 314.355675 
L 1026.208769 314.579441 
L 1029.85867 316.117835 
L 1032.596096 317.516374 
L 1033.508571 317.516374 
L 1033.508571 317.516374 
" style="fill:none;stroke:#4c72b0;stroke-linecap:round;stroke-width:1.5;"/>
   </g>
   <g id="patch_8">
    <path d="M 65.828571 334.407933 
L 65.828571 193.552639 
" style="fill:none;stroke:#ffffff;stroke-linecap:square;stroke-linejoin:miter;stroke-width:1.25;"/>
   </g>
   <g id="patch_9">
    <path d="M 1079.588571 334.407933 
L 1079.588571 193.552639 
" style="fill:none;stroke:#ffffff;stroke-linecap:square;stroke-linejoin:miter;stroke-width:1.25;"/>
   </g>
   <g id="patch_10">
    <path d="M 65.828571 334.407933 
L 1079.588571 334.407933 
" style="fill:none;stroke:#ffffff;stroke-linecap:square;stroke-linejoin:miter;stroke-width:1.25;"/>
   </g>
   <g id="patch_11">
    <path d="M 65.828571 193.552639 
L 1079.588571 193.552639 
" style="fill:none;stroke:#ffffff;stroke-linecap:square;stroke-linejoin:miter;stroke-width:1.25;"/>
   </g>
  </g>
  <g id="axes_3">
   <g id="patch_12">
    <path d="M 65.828571 503.434286 
L 1079.588571 503.434286 
L 1079.588571 362.578992 
L 65.828571 362.578992 
z
" style="fill:#eaeaf2;"/>
   </g>
   <g id="matplotlib.axis_5">
    <g id="xtick_23">
     <g id="line2d_35">
      <path clip-path="url(#p59ef9dc66f)" d="M 111.908571 503.434286 
L 111.908571 362.578992 
" style="fill:none;stroke:#ffffff;stroke-linecap:round;"/>
     </g>
     <g id="text_36">
      <!-- 0 -->
      <g style="fill:#262626;" transform="translate(108.850056 520.807879)scale(0.11 -0.11)">
       <use xlink:href="#ArialMT-30"/>
      </g>
     </g>
    </g>
    <g id="xtick_24">
     <g id="line2d_36">
      <path clip-path="url(#p59ef9dc66f)" d="M 203.156096 503.434286 
L 203.156096 362.578992 
" style="fill:none;stroke:#ffffff;stroke-linecap:round;"/>
     </g>
     <g id="text_37">
      <!-- 1 -->
      <g style="fill:#262626;" transform="translate(200.097581 520.807879)scale(0.11 -0.11)">
       <use xlink:href="#ArialMT-31"/>
      </g>
     </g>
    </g>
    <g id="xtick_25">
     <g id="line2d_37">
      <path clip-path="url(#p59ef9dc66f)" d="M 294.403621 503.434286 
L 294.403621 362.578992 
" style="fill:none;stroke:#ffffff;stroke-linecap:round;"/>
     </g>
     <g id="text_38">
      <!-- 2 -->
      <g style="fill:#262626;" transform="translate(291.345105 520.807879)scale(0.11 -0.11)">
       <use xlink:href="#ArialMT-32"/>
      </g>
     </g>
    </g>
    <g id="xtick_26">
     <g id="line2d_38">
      <path clip-path="url(#p59ef9dc66f)" d="M 385.651146 503.434286 
L 385.651146 362.578992 
" style="fill:none;stroke:#ffffff;stroke-linecap:round;"/>
     </g>
     <g id="text_39">
      <!-- 3 -->
      <g style="fill:#262626;" transform="translate(382.59263 520.807879)scale(0.11 -0.11)">
       <use xlink:href="#ArialMT-33"/>
      </g>
     </g>
    </g>
    <g id="xtick_27">
     <g id="line2d_39">
      <path clip-path="url(#p59ef9dc66f)" d="M 476.89867 503.434286 
L 476.89867 362.578992 
" style="fill:none;stroke:#ffffff;stroke-linecap:round;"/>
     </g>
     <g id="text_40">
      <!-- 4 -->
      <g style="fill:#262626;" transform="translate(473.840155 520.807879)scale(0.11 -0.11)">
       <use xlink:href="#ArialMT-34"/>
      </g>
     </g>
    </g>
    <g id="xtick_28">
     <g id="line2d_40">
      <path clip-path="url(#p59ef9dc66f)" d="M 568.146195 503.434286 
L 568.146195 362.578992 
" style="fill:none;stroke:#ffffff;stroke-linecap:round;"/>
     </g>
     <g id="text_41">
      <!-- 5 -->
      <g style="fill:#262626;" transform="translate(565.08768 520.807879)scale(0.11 -0.11)">
       <use xlink:href="#ArialMT-35"/>
      </g>
     </g>
    </g>
    <g id="xtick_29">
     <g id="line2d_41">
      <path clip-path="url(#p59ef9dc66f)" d="M 659.39372 503.434286 
L 659.39372 362.578992 
" style="fill:none;stroke:#ffffff;stroke-linecap:round;"/>
     </g>
     <g id="text_42">
      <!-- 6 -->
      <g style="fill:#262626;" transform="translate(656.335204 520.807879)scale(0.11 -0.11)">
       <use xlink:href="#ArialMT-36"/>
      </g>
     </g>
    </g>
    <g id="xtick_30">
     <g id="line2d_42">
      <path clip-path="url(#p59ef9dc66f)" d="M 750.641245 503.434286 
L 750.641245 362.578992 
" style="fill:none;stroke:#ffffff;stroke-linecap:round;"/>
     </g>
     <g id="text_43">
      <!-- 7 -->
      <g style="fill:#262626;" transform="translate(747.582729 520.807879)scale(0.11 -0.11)">
       <use xlink:href="#ArialMT-37"/>
      </g>
     </g>
    </g>
    <g id="xtick_31">
     <g id="line2d_43">
      <path clip-path="url(#p59ef9dc66f)" d="M 841.888769 503.434286 
L 841.888769 362.578992 
" style="fill:none;stroke:#ffffff;stroke-linecap:round;"/>
     </g>
     <g id="text_44">
      <!-- 8 -->
      <g style="fill:#262626;" transform="translate(838.830254 520.807879)scale(0.11 -0.11)">
       <use xlink:href="#ArialMT-38"/>
      </g>
     </g>
    </g>
    <g id="xtick_32">
     <g id="line2d_44">
      <path clip-path="url(#p59ef9dc66f)" d="M 933.136294 503.434286 
L 933.136294 362.578992 
" style="fill:none;stroke:#ffffff;stroke-linecap:round;"/>
     </g>
     <g id="text_45">
      <!-- 9 -->
      <g style="fill:#262626;" transform="translate(930.077779 520.807879)scale(0.11 -0.11)">
       <use xlink:href="#ArialMT-39"/>
      </g>
     </g>
    </g>
    <g id="xtick_33">
     <g id="line2d_45">
      <path clip-path="url(#p59ef9dc66f)" d="M 1024.383819 503.434286 
L 1024.383819 362.578992 
" style="fill:none;stroke:#ffffff;stroke-linecap:round;"/>
     </g>
     <g id="text_46">
      <!-- 10 -->
      <g style="fill:#262626;" transform="translate(1018.266788 520.807879)scale(0.11 -0.11)">
       <use xlink:href="#ArialMT-31"/>
       <use x="55.615234" xlink:href="#ArialMT-30"/>
      </g>
     </g>
    </g>
    <g id="text_47">
     <!-- t [ps] -->
     <g style="fill:#262626;" transform="translate(559.704509 535.583504)scale(0.12 -0.12)">
      <defs>
       <path d="M 1650 503 
L 1731 6 
Q 1494 -44 1306 -44 
Q 1000 -44 831 53 
Q 663 150 594 308 
Q 525 466 525 972 
L 525 2881 
L 113 2881 
L 113 3319 
L 525 3319 
L 525 4141 
L 1084 4478 
L 1084 3319 
L 1650 3319 
L 1650 2881 
L 1084 2881 
L 1084 941 
Q 1084 700 1114 631 
Q 1144 563 1211 522 
Q 1278 481 1403 481 
Q 1497 481 1650 503 
z
" id="ArialMT-74" transform="scale(0.015625)"/>
       <path d="M 422 -1272 
L 422 3319 
L 934 3319 
L 934 2888 
Q 1116 3141 1344 3267 
Q 1572 3394 1897 3394 
Q 2322 3394 2647 3175 
Q 2972 2956 3137 2557 
Q 3303 2159 3303 1684 
Q 3303 1175 3120 767 
Q 2938 359 2589 142 
Q 2241 -75 1856 -75 
Q 1575 -75 1351 44 
Q 1128 163 984 344 
L 984 -1272 
L 422 -1272 
z
M 931 1641 
Q 931 1000 1190 694 
Q 1450 388 1819 388 
Q 2194 388 2461 705 
Q 2728 1022 2728 1688 
Q 2728 2322 2467 2637 
Q 2206 2953 1844 2953 
Q 1484 2953 1207 2617 
Q 931 2281 931 1641 
z
" id="ArialMT-70" transform="scale(0.015625)"/>
      </defs>
      <use xlink:href="#ArialMT-74"/>
      <use x="27.783203" xlink:href="#ArialMT-20"/>
      <use x="55.566406" xlink:href="#ArialMT-5b"/>
      <use x="83.349609" xlink:href="#ArialMT-70"/>
      <use x="138.964844" xlink:href="#ArialMT-73"/>
      <use x="188.964844" xlink:href="#ArialMT-5d"/>
     </g>
    </g>
   </g>
   <g id="matplotlib.axis_6">
    <g id="ytick_11">
     <g id="line2d_46">
      <path clip-path="url(#p59ef9dc66f)" d="M 65.828571 497.031772 
L 1079.588571 497.031772 
" style="fill:none;stroke:#ffffff;stroke-linecap:round;"/>
     </g>
     <g id="text_48">
      <!-- 0 -->
      <g style="fill:#262626;" transform="translate(50.21154 500.968569)scale(0.11 -0.11)">
       <use xlink:href="#ArialMT-30"/>
      </g>
     </g>
    </g>
    <g id="ytick_12">
     <g id="line2d_47">
      <path clip-path="url(#p59ef9dc66f)" d="M 65.828571 459.053669 
L 1079.588571 459.053669 
" style="fill:none;stroke:#ffffff;stroke-linecap:round;"/>
     </g>
     <g id="text_49">
      <!-- 1 -->
      <g style="fill:#262626;" transform="translate(50.21154 462.990466)scale(0.11 -0.11)">
       <use xlink:href="#ArialMT-31"/>
      </g>
     </g>
    </g>
    <g id="ytick_13">
     <g id="line2d_48">
      <path clip-path="url(#p59ef9dc66f)" d="M 65.828571 421.075566 
L 1079.588571 421.075566 
" style="fill:none;stroke:#ffffff;stroke-linecap:round;"/>
     </g>
     <g id="text_50">
      <!-- 2 -->
      <g style="fill:#262626;" transform="translate(50.21154 425.012363)scale(0.11 -0.11)">
       <use xlink:href="#ArialMT-32"/>
      </g>
     </g>
    </g>
    <g id="ytick_14">
     <g id="line2d_49">
      <path clip-path="url(#p59ef9dc66f)" d="M 65.828571 383.097463 
L 1079.588571 383.097463 
" style="fill:none;stroke:#ffffff;stroke-linecap:round;"/>
     </g>
     <g id="text_51">
      <!-- 3 -->
      <g style="fill:#262626;" transform="translate(50.21154 387.034259)scale(0.11 -0.11)">
       <use xlink:href="#ArialMT-33"/>
      </g>
     </g>
    </g>
    <g id="text_52">
     <!-- P [atm] -->
     <g style="fill:#262626;" transform="translate(43.82654 451.905701)rotate(-90)scale(0.12 -0.12)">
      <defs>
       <path d="M 494 0 
L 494 4581 
L 2222 4581 
Q 2678 4581 2919 4538 
Q 3256 4481 3484 4323 
Q 3713 4166 3852 3881 
Q 3991 3597 3991 3256 
Q 3991 2672 3619 2267 
Q 3247 1863 2275 1863 
L 1100 1863 
L 1100 0 
L 494 0 
z
M 1100 2403 
L 2284 2403 
Q 2872 2403 3119 2622 
Q 3366 2841 3366 3238 
Q 3366 3525 3220 3729 
Q 3075 3934 2838 4000 
Q 2684 4041 2272 4041 
L 1100 4041 
L 1100 2403 
z
" id="ArialMT-50" transform="scale(0.015625)"/>
      </defs>
      <use xlink:href="#ArialMT-50"/>
      <use x="64.949219" xlink:href="#ArialMT-20"/>
      <use x="92.732422" xlink:href="#ArialMT-5b"/>
      <use x="120.515625" xlink:href="#ArialMT-61"/>
      <use x="176.130859" xlink:href="#ArialMT-74"/>
      <use x="203.914062" xlink:href="#ArialMT-6d"/>
      <use x="287.214844" xlink:href="#ArialMT-5d"/>
     </g>
    </g>
   </g>
   <g id="line2d_50">
    <path clip-path="url(#p59ef9dc66f)" d="M 111.908571 497.031772 
L 225.967977 497.031772 
L 226.880453 495.96564 
L 228.705403 492.922816 
L 229.617878 491.536387 
L 230.530354 488.967145 
L 232.355304 482.449096 
L 233.267779 479.692252 
L 234.180255 477.363233 
L 235.09273 475.523812 
L 236.005205 474.217456 
L 236.91768 473.467046 
L 237.830156 473.329775 
L 238.742631 471.979951 
L 239.655106 470.973303 
L 240.567581 470.607249 
L 241.480057 470.035289 
L 242.392532 468.159263 
L 244.217482 459.305331 
L 246.042433 447.202671 
L 246.954908 442.741387 
L 248.779859 436.518469 
L 249.692334 434.001848 
L 250.604809 433.063835 
L 251.517284 433.704429 
L 252.42976 435.94651 
L 253.342235 439.698563 
L 254.25471 444.869076 
L 255.167185 451.343657 
L 256.079661 458.962156 
L 256.992136 465.482493 
L 259.729562 480.115502 
L 260.642037 483.531243 
L 261.554512 483.519804 
L 262.466987 483.329913 
L 264.291938 476.130089 
L 265.204413 473.26114 
L 266.116888 470.996181 
L 267.029364 469.394695 
L 267.941839 468.456681 
L 268.854314 468.250776 
L 269.766789 468.34229 
L 270.679264 466.672168 
L 271.59174 465.757033 
L 272.504215 465.619763 
L 273.41669 466.283236 
L 274.329165 467.678817 
L 275.241641 469.6006 
L 276.154116 469.211668 
L 277.066591 466.900952 
L 277.979066 462.965871 
L 278.891542 455.736305 
L 279.804017 449.490508 
L 280.716492 444.045455 
L 282.541443 431.256443 
L 283.453918 423.569309 
L 284.366393 417.186242 
L 285.278868 409.567743 
L 287.103819 392.889407 
L 288.928769 381.45022 
L 289.841245 376.600004 
L 290.75372 372.57341 
L 291.666195 369.18741 
L 292.57867 368.981505 
L 293.491146 371.978572 
L 295.316096 381.930665 
L 296.228571 384.195625 
L 297.141047 385.408179 
L 298.053522 389.366137 
L 298.965997 395.977988 
L 303.528373 440.567942 
L 304.440849 446.058752 
L 306.265799 453.906035 
L 307.178274 458.184291 
L 308.09075 460.655155 
L 309.003225 461.501655 
L 309.9157 460.861061 
L 310.828175 460.723791 
L 311.740651 461.044088 
L 312.653126 461.844831 
L 313.565601 463.12602 
L 314.478076 463.469196 
L 315.390552 464.064033 
L 316.303027 465.345222 
L 317.215502 467.289884 
L 318.127977 469.920897 
L 319.040453 471.979951 
L 319.952928 472.231613 
L 320.865403 470.538614 
L 321.777878 469.348938 
L 322.690354 467.930479 
L 323.602829 465.871425 
L 324.515304 463.446317 
L 325.427779 461.387263 
L 327.25273 458.092777 
L 329.07768 456.537048 
L 329.990156 456.720075 
L 330.902631 457.841115 
L 331.815106 458.252926 
L 332.727581 459.007912 
L 333.640057 460.014561 
L 334.552532 460.106074 
L 336.377482 461.43302 
L 337.289958 461.341507 
L 338.202433 458.115656 
L 340.939859 443.221833 
L 341.852334 439.355388 
L 343.677284 433.361253 
L 344.58976 432.034308 
L 345.502235 432.308848 
L 346.41471 432.080064 
L 347.327185 432.034308 
L 348.239661 433.178226 
L 350.064611 438.394496 
L 350.977086 442.055036 
L 352.802037 450.680184 
L 353.714512 456.125237 
L 354.626987 460.334858 
L 355.539463 461.410142 
L 356.451938 461.341507 
L 357.364413 461.799074 
L 358.276888 462.439669 
L 359.189364 462.531182 
L 361.014314 464.521601 
L 361.926789 465.162195 
L 362.839264 466.443384 
L 363.75174 466.92383 
L 364.664215 465.985817 
L 365.57669 465.80279 
L 366.489165 466.397628 
L 367.401641 467.77033 
L 368.314116 469.852262 
L 369.226591 472.597667 
L 370.139066 475.956213 
L 371.051542 478.674164 
L 371.964017 479.587011 
L 372.876492 479.012764 
L 375.613918 464.018277 
L 376.526393 460.289101 
L 377.438868 457.475061 
L 378.351344 455.621913 
L 379.263819 454.798291 
L 380.176294 455.049953 
L 381.088769 455.94221 
L 382.001245 456.07948 
L 383.826195 450.474278 
L 384.73867 448.7584 
L 385.651146 448.255076 
L 386.563621 448.941427 
L 387.476096 450.817454 
L 388.388571 453.8374 
L 389.301047 456.399778 
L 390.213522 458.069899 
L 391.125997 460.403493 
L 392.950948 458.664737 
L 393.863423 457.475061 
L 394.775898 454.844048 
L 395.688373 453.219683 
L 396.600849 451.137751 
L 397.513324 450.131103 
L 398.425799 449.902319 
L 399.338274 449.193089 
L 400.25075 448.827035 
L 401.163225 447.317062 
L 402.0757 444.731806 
L 402.988175 443.450617 
L 403.900651 442.581239 
L 404.813126 440.179009 
L 405.725601 439.195239 
L 406.638076 439.675685 
L 407.550552 440.659455 
L 408.463027 442.306698 
L 409.375502 445.349522 
L 410.287977 447.63736 
L 411.200453 450.611549 
L 412.112928 451.778346 
L 413.025403 451.366535 
L 413.937878 451.57244 
L 414.850354 450.245495 
L 415.762829 448.48386 
L 417.587779 446.058752 
L 418.500255 446.08163 
L 419.41273 447.385698 
L 421.23768 452.533332 
L 422.150156 454.134818 
L 423.062631 452.922264 
L 423.975106 451.366535 
L 425.800057 449.170211 
L 426.712532 448.781279 
L 427.625007 449.6049 
L 428.537482 451.595319 
L 429.449958 454.180575 
L 430.362433 456.033724 
L 431.274908 457.131886 
L 432.187383 457.932629 
L 433.099859 456.65144 
L 434.012334 454.340724 
L 434.924809 453.105291 
L 435.837284 451.549562 
L 436.74976 450.817454 
L 437.662235 451.252143 
L 440.399661 456.07948 
L 441.312136 457.337791 
L 442.224611 458.115656 
L 443.137086 459.442601 
L 444.049562 461.730439 
L 444.962037 464.887655 
L 448.611938 480.538751 
L 449.524413 483.901873 
L 450.436888 486.436797 
L 451.349364 487.814075 
L 452.261839 488.884783 
L 453.174314 490.159108 
L 454.999264 489.902871 
L 455.91174 489.992096 
L 456.824215 490.257485 
L 457.73669 489.360653 
L 460.474116 482.487989 
L 461.386591 480.73093 
L 462.299066 479.381106 
L 463.211542 478.472834 
L 464.124017 477.962646 
L 465.036492 476.67917 
L 465.948967 474.734508 
L 466.861443 473.352654 
L 467.773918 472.551911 
L 468.686393 472.368884 
L 469.598868 472.780694 
L 470.511344 473.810221 
L 471.423819 475.395693 
L 472.336294 476.219314 
L 473.248769 477.564563 
L 474.161245 479.397121 
L 475.07372 480.369452 
L 475.986195 479.49321 
L 476.89867 475.873851 
L 477.811146 472.780694 
L 478.723621 470.286951 
L 479.636096 468.456681 
L 480.548571 467.358519 
L 481.461047 466.626411 
L 482.373522 465.66552 
L 483.285997 464.292817 
L 484.198472 461.753317 
L 485.110948 460.083196 
L 486.023423 458.710493 
L 486.935898 458.275804 
L 487.848373 458.802007 
L 488.760849 460.266223 
L 489.673324 462.233763 
L 490.585799 462.531182 
L 491.498274 463.606466 
L 492.41075 465.482493 
L 494.2357 467.976236 
L 495.148175 468.662587 
L 496.060651 470.035289 
L 496.973126 472.094343 
L 497.885601 474.757386 
L 499.710552 481.046651 
L 500.623027 483.785193 
L 501.535502 485.638341 
L 502.447977 487.15289 
L 505.185403 492.174693 
L 507.922829 497.031772 
L 510.660255 497.031772 
L 511.57273 496.822161 
L 514.310156 494.046144 
L 516.135106 492.549899 
L 517.960057 491.51122 
L 518.872532 491.200074 
L 519.785007 491.037638 
L 520.697482 491.028487 
L 521.609958 490.799703 
L 523.434908 486.681595 
L 524.347383 484.993171 
L 525.259859 483.611317 
L 526.172334 482.570351 
L 527.084809 481.895439 
L 527.997284 481.604884 
L 528.90976 481.705549 
L 530.73471 481.403554 
L 531.647185 481.689534 
L 532.559661 482.35987 
L 533.472136 483.396261 
L 534.384611 484.773539 
L 535.297086 486.457387 
L 537.122037 490.573207 
L 538.946987 495.296905 
L 539.859463 496.227369 
L 542.596888 494.130794 
L 544.421839 493.069238 
L 546.246789 492.405765 
L 547.159264 492.243328 
L 548.07174 492.202147 
L 548.984215 492.282222 
L 549.89669 492.481263 
L 550.809165 492.794697 
L 551.721641 492.815288 
L 553.546591 491.815503 
L 554.459066 491.504357 
L 555.371542 491.335057 
L 557.196492 491.220665 
L 558.108967 490.715053 
L 559.021443 490.367302 
L 559.933918 490.186562 
L 560.846393 490.175123 
L 561.758868 490.332984 
L 562.671344 490.321545 
L 563.583819 489.925749 
L 564.496294 489.703829 
L 565.408769 489.662648 
L 566.321245 489.804494 
L 567.23372 490.124791 
L 568.146195 490.614388 
L 569.05867 491.261846 
L 569.971146 491.52266 
L 570.883621 491.364799 
L 571.796096 491.348784 
L 572.708571 491.472327 
L 573.621047 491.733141 
L 574.533522 492.124361 
L 576.358472 493.259128 
L 577.270948 493.972934 
L 578.183423 494.355002 
L 580.008373 491.589007 
L 580.920849 489.923461 
L 582.745799 486.086758 
L 583.658274 484.556194 
L 584.57075 483.336777 
L 585.483225 482.458247 
L 586.3957 481.945772 
L 587.308175 481.808501 
L 588.220651 481.23883 
L 589.133126 480.843034 
L 591.870552 480.843034 
L 592.783027 481.225103 
L 593.695502 482.005255 
L 594.607977 483.162901 
L 596.432928 485.974653 
L 597.345403 485.665795 
L 598.257878 485.642917 
L 600.995304 483.444305 
L 602.820255 481.991528 
L 603.73273 481.59802 
L 604.645205 481.588869 
L 605.55768 481.817653 
L 606.470156 481.540824 
L 607.382631 481.646065 
L 609.207581 482.501716 
L 610.120057 482.865482 
L 611.945007 484.405197 
L 612.857482 484.810144 
L 613.769958 483.311611 
L 614.682433 481.145028 
L 615.594908 478.598665 
L 616.507383 476.516733 
L 618.332334 471.316478 
L 619.244809 469.531965 
L 620.157284 467.999114 
L 621.06976 466.740803 
L 621.982235 466.214601 
L 622.89471 466.489141 
L 623.807185 467.49579 
L 624.719661 469.280303 
L 625.632136 471.728289 
L 629.282037 484.331986 
L 630.194512 487.807211 
L 631.106987 490.536602 
L 632.019463 491.108561 
L 634.756888 487.855256 
L 635.669364 487.12086 
L 636.581839 486.631263 
L 637.494314 486.397903 
L 638.406789 486.427645 
L 639.319264 486.718201 
L 640.23174 487.264994 
L 641.144215 488.05201 
L 642.05669 489.063234 
L 643.881641 491.646203 
L 644.794116 493.153888 
L 645.706591 494.114779 
L 646.619066 494.74668 
L 649.356492 496.071338 
L 651.181443 495.697963 
L 653.006393 495.343119 
L 654.831344 495.155517 
L 656.656294 495.153687 
L 658.481245 495.338086 
L 659.39372 493.872269 
L 660.306195 491.424283 
L 662.131146 485.700113 
L 663.043621 483.220097 
L 663.956096 481.080969 
L 664.868571 479.321622 
L 667.605997 471.979951 
L 668.518472 466.466263 
L 669.430948 461.684682 
L 670.343423 457.795358 
L 671.255898 453.356954 
L 673.080849 443.427739 
L 673.993324 439.835834 
L 674.905799 437.63951 
L 675.818274 436.884523 
L 676.73075 437.547996 
L 677.643225 437.959807 
L 678.5557 437.204821 
L 679.468175 437.136185 
L 680.380651 438.531766 
L 681.293126 441.368685 
L 682.205601 445.578306 
L 684.943027 462.27952 
L 685.855502 464.887655 
L 686.767977 463.926763 
L 687.680453 463.766614 
L 688.592928 464.430087 
L 689.505403 465.642641 
L 691.330354 463.26329 
L 692.242829 462.851479 
L 693.155304 463.286169 
L 694.067779 464.544479 
L 694.980255 466.626411 
L 695.89273 468.044871 
L 696.805205 468.47956 
L 697.71768 467.838965 
L 699.542631 464.544479 
L 700.455106 463.766614 
L 701.367581 463.812371 
L 703.192532 465.436736 
L 704.105007 462.737088 
L 705.017482 458.916399 
L 705.929958 453.883156 
L 706.842433 449.925197 
L 707.754908 447.134035 
L 708.667383 445.555428 
L 709.579859 445.280887 
L 710.492334 446.241779 
L 711.404809 448.48386 
L 713.22976 455.347372 
L 714.142235 458.184291 
L 715.05471 461.821953 
L 715.967185 462.576939 
L 716.879661 461.044088 
L 717.792136 459.923047 
L 718.704611 459.694264 
L 719.617086 460.403493 
L 720.529562 461.982101 
L 721.442037 464.430087 
L 722.354512 465.80279 
L 723.266987 465.276587 
L 724.179463 462.531182 
L 725.091938 460.632277 
L 726.004413 459.648507 
L 726.916888 459.053669 
L 727.829364 457.383548 
L 728.741839 456.399778 
L 730.566789 451.458048 
L 731.479264 448.506738 
L 732.39174 444.708928 
L 734.21669 438.005564 
L 735.129165 434.207753 
L 736.041641 430.936146 
L 736.954116 428.465281 
L 737.866591 427.710295 
L 738.779066 428.671187 
L 739.691542 431.325078 
L 741.516492 438.508888 
L 742.428967 442.924414 
L 743.341443 448.666887 
L 746.991344 476.024848 
L 748.816294 484.50815 
L 749.728769 488.118357 
L 751.55372 492.396613 
L 752.466195 494.508288 
L 753.37867 496.220505 
L 754.291146 497.031772 
L 769.803225 496.95577 
L 770.7157 494.821721 
L 771.628175 491.783473 
L 773.453126 483.721134 
L 776.190552 467.678817 
L 777.103027 461.478777 
L 778.015502 456.170994 
L 778.927977 451.846981 
L 779.840453 448.666887 
L 780.752928 446.676468 
L 781.665403 445.486792 
L 782.577878 444.594536 
L 783.490354 445.006347 
L 784.402829 446.722225 
L 785.315304 449.673535 
L 786.227779 452.121521 
L 787.140255 455.438886 
L 788.05273 459.808655 
L 788.965205 462.439669 
L 789.87768 464.658871 
L 790.790156 466.557776 
L 791.702631 468.7541 
L 792.615106 470.012411 
L 794.440057 473.467046 
L 795.352532 474.242623 
L 796.265007 475.597022 
L 798.089958 478.898372 
L 799.002433 480.998607 
L 800.827383 483.906448 
L 801.739859 485.700113 
L 802.652334 487.779757 
L 803.564809 488.683453 
L 805.38976 485.892291 
L 807.21471 483.68224 
L 808.127185 482.35987 
L 809.039661 481.398978 
L 809.952136 480.824731 
L 810.864611 480.648568 
L 811.777086 480.877351 
L 812.689562 481.504219 
L 813.602037 482.515443 
L 814.514512 483.88357 
L 815.426987 485.551404 
L 816.339463 486.798275 
L 817.251938 486.251482 
L 818.164413 484.823871 
L 819.076888 483.087403 
L 819.989364 481.696397 
L 820.901839 480.687461 
L 821.814314 478.967007 
L 822.726789 476.688321 
L 823.639264 474.917535 
L 824.55174 471.751167 
L 825.464215 467.518668 
L 826.37669 463.995398 
L 827.289165 460.952574 
L 828.201641 455.187224 
L 829.114116 448.094927 
L 830.026591 442.215185 
L 830.939066 437.731023 
L 831.851542 434.711078 
L 832.764017 433.26974 
L 833.676492 433.40701 
L 834.588967 435.145767 
L 835.501443 436.060902 
L 836.413918 437.63951 
L 837.326393 440.133253 
L 838.238868 444.045455 
L 841.888769 464.864776 
L 842.801245 467.198371 
L 843.71372 468.044871 
L 845.53867 470.698762 
L 846.451146 468.662587 
L 847.363621 465.711276 
L 848.276096 463.492074 
L 849.188571 462.073615 
L 850.101047 461.524534 
L 851.013522 461.844831 
L 851.925997 461.821953 
L 852.838472 462.485425 
L 854.663423 465.619763 
L 856.488373 468.982884 
L 857.400849 468.891371 
L 858.313324 468.250776 
L 859.225799 467.312763 
L 861.05075 463.446317 
L 861.963225 461.112723 
L 862.8757 459.099426 
L 863.788175 458.047021 
L 864.700651 457.978385 
L 865.613126 458.847764 
L 866.525601 460.700912 
L 867.438076 463.446317 
L 869.263027 470.286951 
L 870.175502 472.437519 
L 871.087977 475.166909 
L 872.000453 478.436229 
L 873.825403 483.888146 
L 874.737878 485.972366 
L 875.650354 484.270215 
L 876.562829 481.819941 
L 879.300255 475.80064 
L 880.21273 474.016127 
L 881.125205 472.826451 
L 882.03768 472.231613 
L 882.950156 472.231613 
L 883.862631 472.872208 
L 884.775106 474.10764 
L 885.687581 475.896729 
L 886.600057 478.218884 
L 888.425007 481.609459 
L 889.337482 482.49714 
L 890.249958 483.700543 
L 891.162433 485.23797 
L 892.074908 487.072816 
L 892.987383 489.159323 
L 893.899859 489.378956 
L 894.812334 489.010614 
L 895.724809 488.84589 
L 896.637284 488.889359 
L 898.462235 489.179914 
L 899.37471 489.502499 
L 900.287185 490.012687 
L 901.199661 490.699038 
L 903.024611 492.522445 
L 904.849562 494.783057 
L 905.762037 496.004991 
L 906.674512 496.891802 
L 909.411938 492.497278 
L 910.324413 491.138303 
L 912.149364 487.095694 
L 913.061839 485.418709 
L 913.974314 484.032279 
L 914.886789 482.854043 
L 917.624215 477.068102 
L 918.53669 475.848685 
L 919.449165 475.150894 
L 920.361641 474.990745 
L 921.274116 475.372814 
L 922.186591 476.290237 
L 923.099066 477.717848 
L 924.924017 481.696397 
L 925.836492 482.890648 
L 926.748967 484.434939 
L 928.573918 488.232749 
L 930.398868 491.138303 
L 932.223819 494.620392 
L 933.136294 495.470552 
L 934.048769 495.07018 
L 935.87372 492.989163 
L 936.786195 492.092331 
L 937.69867 489.591725 
L 938.611146 486.622112 
L 942.261047 464.613114 
L 943.173522 460.58652 
L 944.085997 457.337791 
L 944.998472 453.334075 
L 945.910948 450.405643 
L 946.823423 448.62113 
L 947.735898 448.049171 
L 948.648373 448.666887 
L 949.560849 450.497157 
L 951.385799 456.216751 
L 952.298274 460.106074 
L 953.21075 464.910533 
L 955.948175 481.696397 
L 956.860651 485.944912 
L 957.773126 487.553261 
L 958.685601 487.525807 
L 959.598076 487.727137 
L 962.335502 483.252127 
L 963.247977 480.465541 
L 964.160453 478.042721 
L 965.072928 476.084332 
L 965.985403 472.689181 
L 966.897878 469.898019 
L 967.810354 467.77033 
L 968.722829 464.727506 
L 969.635304 462.462547 
L 970.547779 461.044088 
L 971.460255 460.495007 
L 972.37273 460.861061 
L 973.285205 462.119371 
L 974.19768 463.103142 
L 975.110156 461.753317 
L 976.935106 458.092777 
L 977.847581 457.292034 
L 978.760057 455.141467 
L 979.672532 454.020427 
L 980.585007 453.906035 
L 981.497482 454.866926 
L 982.409958 456.834467 
L 983.322433 459.648507 
L 984.234908 463.377682 
L 986.059859 468.685465 
L 986.972334 470.607249 
L 987.884809 473.192505 
L 988.797284 476.349721 
L 990.622235 484.096339 
L 991.53471 488.491275 
L 992.447185 492.039711 
L 993.359661 492.732926 
L 995.184611 492.682593 
L 996.097086 491.563841 
L 997.922037 489.115854 
L 998.834512 488.170978 
L 999.746987 486.800563 
L 1004.309364 473.192505 
L 1005.221839 471.087695 
L 1007.046789 468.227898 
L 1007.959264 466.946709 
L 1008.87174 466.420506 
L 1009.784215 466.64929 
L 1010.69669 467.610182 
L 1011.609165 469.32606 
L 1012.521641 471.728289 
L 1013.434116 474.748235 
L 1015.259066 479.538966 
L 1017.996492 488.315111 
L 1018.908967 489.793054 
L 1019.821443 489.623754 
L 1021.646393 487.461748 
L 1022.558868 485.581145 
L 1023.471344 483.965932 
L 1024.383819 482.652713 
L 1025.296294 481.641489 
L 1026.208769 479.415423 
L 1027.121245 476.539611 
L 1028.03372 474.061883 
L 1028.946195 470.858911 
L 1029.85867 468.319411 
L 1030.771146 466.466263 
L 1031.683621 463.720858 
L 1032.596096 461.524534 
L 1033.508571 460.197588 
L 1033.508571 460.197588 
" style="fill:none;stroke:#4c72b0;stroke-linecap:round;stroke-width:1.5;"/>
   </g>
   <g id="patch_13">
    <path d="M 65.828571 503.434286 
L 65.828571 362.578992 
" style="fill:none;stroke:#ffffff;stroke-linecap:square;stroke-linejoin:miter;stroke-width:1.25;"/>
   </g>
   <g id="patch_14">
    <path d="M 1079.588571 503.434286 
L 1079.588571 362.578992 
" style="fill:none;stroke:#ffffff;stroke-linecap:square;stroke-linejoin:miter;stroke-width:1.25;"/>
   </g>
   <g id="patch_15">
    <path d="M 65.828571 503.434286 
L 1079.588571 503.434286 
" style="fill:none;stroke:#ffffff;stroke-linecap:square;stroke-linejoin:miter;stroke-width:1.25;"/>
   </g>
   <g id="patch_16">
    <path d="M 65.828571 362.578992 
L 1079.588571 362.578992 
" style="fill:none;stroke:#ffffff;stroke-linecap:square;stroke-linejoin:miter;stroke-width:1.25;"/>
   </g>
  </g>
 </g>
 <defs>
  <clipPath id="p77da23126d">
   <rect height="140.855294" width="1013.76" x="65.828571" y="24.526286"/>
  </clipPath>
  <clipPath id="p692a2aea83">
   <rect height="140.855294" width="1013.76" x="65.828571" y="193.552639"/>
  </clipPath>
  <clipPath id="p59ef9dc66f">
   <rect height="140.855294" width="1013.76" x="65.828571" y="362.578992"/>
  </clipPath>
 </defs>
</svg>
