<?xml version="1.0" encoding="utf-8" standalone="no"?>
<!DOCTYPE svg PUBLIC "-//W3C//DTD SVG 1.1//EN"
  "http://www.w3.org/Graphics/SVG/1.1/DTD/svg11.dtd">
<svg height="542.16pt" version="1.1" viewBox="0 0 1105.92 542.16" width="1105.92pt" xmlns="http://www.w3.org/2000/svg" xmlns:xlink="http://www.w3.org/1999/xlink">
 <metadata>
  <rdf:RDF xmlns:cc="http://creativecommons.org/ns#" xmlns:dc="http://purl.org/dc/elements/1.1/" xmlns:rdf="http://www.w3.org/1999/02/22-rdf-syntax-ns#">
   <cc:Work>
    <dc:type rdf:resource="http://purl.org/dc/dcmitype/StillImage"/>
    <dc:date>2021-11-03T16:35:01.971889</dc:date>
    <dc:format>image/svg+xml</dc:format>
    <dc:creator>
     <cc:Agent>
      <dc:title>Matplotlib v3.4.3, https://matplotlib.org/</dc:title>
     </cc:Agent>
    </dc:creator>
   </cc:Work>
  </rdf:RDF>
 </metadata>
 <defs>
  <style type="text/css">*{stroke-linecap:butt;stroke-linejoin:round;}</style>
 </defs>
 <g id="figure_1">
  <g id="patch_1">
   <path d="M 0 542.16 
L 1105.92 542.16 
L 1105.92 0 
L 0 0 
z
" style="fill:#ffffff;"/>
  </g>
  <g id="axes_1">
   <g id="patch_2">
    <path d="M 78.994286 167.963294 
L 1079.588571 167.963294 
L 1079.588571 27.108 
L 78.994286 27.108 
z
" style="fill:#eaeaf2;"/>
   </g>
   <g id="matplotlib.axis_1">
    <g id="xtick_1">
     <g id="line2d_1">
      <path clip-path="url(#p15bf5b2ebf)" d="M 124.475844 167.963294 
L 124.475844 27.108 
" style="fill:none;stroke:#ffffff;stroke-linecap:round;"/>
     </g>
     <g id="text_1">
      <!-- 0 -->
      <g style="fill:#262626;" transform="translate(121.417329 185.336888)scale(0.11 -0.11)">
       <defs>
        <path d="M 266 2259 
Q 266 3072 433 3567 
Q 600 4063 929 4331 
Q 1259 4600 1759 4600 
Q 2128 4600 2406 4451 
Q 2684 4303 2865 4023 
Q 3047 3744 3150 3342 
Q 3253 2941 3253 2259 
Q 3253 1453 3087 958 
Q 2922 463 2592 192 
Q 2263 -78 1759 -78 
Q 1097 -78 719 397 
Q 266 969 266 2259 
z
M 844 2259 
Q 844 1131 1108 757 
Q 1372 384 1759 384 
Q 2147 384 2411 759 
Q 2675 1134 2675 2259 
Q 2675 3391 2411 3762 
Q 2147 4134 1753 4134 
Q 1366 4134 1134 3806 
Q 844 3388 844 2259 
z
" id="ArialMT-30" transform="scale(0.015625)"/>
       </defs>
       <use xlink:href="#ArialMT-30"/>
      </g>
     </g>
    </g>
    <g id="xtick_2">
     <g id="line2d_2">
      <path clip-path="url(#p15bf5b2ebf)" d="M 214.538336 167.963294 
L 214.538336 27.108 
" style="fill:none;stroke:#ffffff;stroke-linecap:round;"/>
     </g>
     <g id="text_2">
      <!-- 1 -->
      <g style="fill:#262626;" transform="translate(211.47982 185.336888)scale(0.11 -0.11)">
       <defs>
        <path d="M 2384 0 
L 1822 0 
L 1822 3584 
Q 1619 3391 1289 3197 
Q 959 3003 697 2906 
L 697 3450 
Q 1169 3672 1522 3987 
Q 1875 4303 2022 4600 
L 2384 4600 
L 2384 0 
z
" id="ArialMT-31" transform="scale(0.015625)"/>
       </defs>
       <use xlink:href="#ArialMT-31"/>
      </g>
     </g>
    </g>
    <g id="xtick_3">
     <g id="line2d_3">
      <path clip-path="url(#p15bf5b2ebf)" d="M 304.600828 167.963294 
L 304.600828 27.108 
" style="fill:none;stroke:#ffffff;stroke-linecap:round;"/>
     </g>
     <g id="text_3">
      <!-- 2 -->
      <g style="fill:#262626;" transform="translate(301.542312 185.336888)scale(0.11 -0.11)">
       <defs>
        <path d="M 3222 541 
L 3222 0 
L 194 0 
Q 188 203 259 391 
Q 375 700 629 1000 
Q 884 1300 1366 1694 
Q 2113 2306 2375 2664 
Q 2638 3022 2638 3341 
Q 2638 3675 2398 3904 
Q 2159 4134 1775 4134 
Q 1369 4134 1125 3890 
Q 881 3647 878 3216 
L 300 3275 
Q 359 3922 746 4261 
Q 1134 4600 1788 4600 
Q 2447 4600 2831 4234 
Q 3216 3869 3216 3328 
Q 3216 3053 3103 2787 
Q 2991 2522 2730 2228 
Q 2469 1934 1863 1422 
Q 1356 997 1212 845 
Q 1069 694 975 541 
L 3222 541 
z
" id="ArialMT-32" transform="scale(0.015625)"/>
       </defs>
       <use xlink:href="#ArialMT-32"/>
      </g>
     </g>
    </g>
    <g id="xtick_4">
     <g id="line2d_4">
      <path clip-path="url(#p15bf5b2ebf)" d="M 394.66332 167.963294 
L 394.66332 27.108 
" style="fill:none;stroke:#ffffff;stroke-linecap:round;"/>
     </g>
     <g id="text_4">
      <!-- 3 -->
      <g style="fill:#262626;" transform="translate(391.604804 185.336888)scale(0.11 -0.11)">
       <defs>
        <path d="M 269 1209 
L 831 1284 
Q 928 806 1161 595 
Q 1394 384 1728 384 
Q 2125 384 2398 659 
Q 2672 934 2672 1341 
Q 2672 1728 2419 1979 
Q 2166 2231 1775 2231 
Q 1616 2231 1378 2169 
L 1441 2663 
Q 1497 2656 1531 2656 
Q 1891 2656 2178 2843 
Q 2466 3031 2466 3422 
Q 2466 3731 2256 3934 
Q 2047 4138 1716 4138 
Q 1388 4138 1169 3931 
Q 950 3725 888 3313 
L 325 3413 
Q 428 3978 793 4289 
Q 1159 4600 1703 4600 
Q 2078 4600 2393 4439 
Q 2709 4278 2876 4000 
Q 3044 3722 3044 3409 
Q 3044 3113 2884 2869 
Q 2725 2625 2413 2481 
Q 2819 2388 3044 2092 
Q 3269 1797 3269 1353 
Q 3269 753 2831 336 
Q 2394 -81 1725 -81 
Q 1122 -81 723 278 
Q 325 638 269 1209 
z
" id="ArialMT-33" transform="scale(0.015625)"/>
       </defs>
       <use xlink:href="#ArialMT-33"/>
      </g>
     </g>
    </g>
    <g id="xtick_5">
     <g id="line2d_5">
      <path clip-path="url(#p15bf5b2ebf)" d="M 484.725812 167.963294 
L 484.725812 27.108 
" style="fill:none;stroke:#ffffff;stroke-linecap:round;"/>
     </g>
     <g id="text_5">
      <!-- 4 -->
      <g style="fill:#262626;" transform="translate(481.667296 185.336888)scale(0.11 -0.11)">
       <defs>
        <path d="M 2069 0 
L 2069 1097 
L 81 1097 
L 81 1613 
L 2172 4581 
L 2631 4581 
L 2631 1613 
L 3250 1613 
L 3250 1097 
L 2631 1097 
L 2631 0 
L 2069 0 
z
M 2069 1613 
L 2069 3678 
L 634 1613 
L 2069 1613 
z
" id="ArialMT-34" transform="scale(0.015625)"/>
       </defs>
       <use xlink:href="#ArialMT-34"/>
      </g>
     </g>
    </g>
    <g id="xtick_6">
     <g id="line2d_6">
      <path clip-path="url(#p15bf5b2ebf)" d="M 574.788304 167.963294 
L 574.788304 27.108 
" style="fill:none;stroke:#ffffff;stroke-linecap:round;"/>
     </g>
     <g id="text_6">
      <!-- 5 -->
      <g style="fill:#262626;" transform="translate(571.729788 185.336888)scale(0.11 -0.11)">
       <defs>
        <path d="M 266 1200 
L 856 1250 
Q 922 819 1161 601 
Q 1400 384 1738 384 
Q 2144 384 2425 690 
Q 2706 997 2706 1503 
Q 2706 1984 2436 2262 
Q 2166 2541 1728 2541 
Q 1456 2541 1237 2417 
Q 1019 2294 894 2097 
L 366 2166 
L 809 4519 
L 3088 4519 
L 3088 3981 
L 1259 3981 
L 1013 2750 
Q 1425 3038 1878 3038 
Q 2478 3038 2890 2622 
Q 3303 2206 3303 1553 
Q 3303 931 2941 478 
Q 2500 -78 1738 -78 
Q 1113 -78 717 272 
Q 322 622 266 1200 
z
" id="ArialMT-35" transform="scale(0.015625)"/>
       </defs>
       <use xlink:href="#ArialMT-35"/>
      </g>
     </g>
    </g>
    <g id="xtick_7">
     <g id="line2d_7">
      <path clip-path="url(#p15bf5b2ebf)" d="M 664.850796 167.963294 
L 664.850796 27.108 
" style="fill:none;stroke:#ffffff;stroke-linecap:round;"/>
     </g>
     <g id="text_7">
      <!-- 6 -->
      <g style="fill:#262626;" transform="translate(661.79228 185.336888)scale(0.11 -0.11)">
       <defs>
        <path d="M 3184 3459 
L 2625 3416 
Q 2550 3747 2413 3897 
Q 2184 4138 1850 4138 
Q 1581 4138 1378 3988 
Q 1113 3794 959 3422 
Q 806 3050 800 2363 
Q 1003 2672 1297 2822 
Q 1591 2972 1913 2972 
Q 2475 2972 2870 2558 
Q 3266 2144 3266 1488 
Q 3266 1056 3080 686 
Q 2894 316 2569 119 
Q 2244 -78 1831 -78 
Q 1128 -78 684 439 
Q 241 956 241 2144 
Q 241 3472 731 4075 
Q 1159 4600 1884 4600 
Q 2425 4600 2770 4297 
Q 3116 3994 3184 3459 
z
M 888 1484 
Q 888 1194 1011 928 
Q 1134 663 1356 523 
Q 1578 384 1822 384 
Q 2178 384 2434 671 
Q 2691 959 2691 1453 
Q 2691 1928 2437 2201 
Q 2184 2475 1800 2475 
Q 1419 2475 1153 2201 
Q 888 1928 888 1484 
z
" id="ArialMT-36" transform="scale(0.015625)"/>
       </defs>
       <use xlink:href="#ArialMT-36"/>
      </g>
     </g>
    </g>
    <g id="xtick_8">
     <g id="line2d_8">
      <path clip-path="url(#p15bf5b2ebf)" d="M 754.913288 167.963294 
L 754.913288 27.108 
" style="fill:none;stroke:#ffffff;stroke-linecap:round;"/>
     </g>
     <g id="text_8">
      <!-- 7 -->
      <g style="fill:#262626;" transform="translate(751.854772 185.336888)scale(0.11 -0.11)">
       <defs>
        <path d="M 303 3981 
L 303 4522 
L 3269 4522 
L 3269 4084 
Q 2831 3619 2401 2847 
Q 1972 2075 1738 1259 
Q 1569 684 1522 0 
L 944 0 
Q 953 541 1156 1306 
Q 1359 2072 1739 2783 
Q 2119 3494 2547 3981 
L 303 3981 
z
" id="ArialMT-37" transform="scale(0.015625)"/>
       </defs>
       <use xlink:href="#ArialMT-37"/>
      </g>
     </g>
    </g>
    <g id="xtick_9">
     <g id="line2d_9">
      <path clip-path="url(#p15bf5b2ebf)" d="M 844.97578 167.963294 
L 844.97578 27.108 
" style="fill:none;stroke:#ffffff;stroke-linecap:round;"/>
     </g>
     <g id="text_9">
      <!-- 8 -->
      <g style="fill:#262626;" transform="translate(841.917264 185.336888)scale(0.11 -0.11)">
       <defs>
        <path d="M 1131 2484 
Q 781 2613 612 2850 
Q 444 3088 444 3419 
Q 444 3919 803 4259 
Q 1163 4600 1759 4600 
Q 2359 4600 2725 4251 
Q 3091 3903 3091 3403 
Q 3091 3084 2923 2848 
Q 2756 2613 2416 2484 
Q 2838 2347 3058 2040 
Q 3278 1734 3278 1309 
Q 3278 722 2862 322 
Q 2447 -78 1769 -78 
Q 1091 -78 675 323 
Q 259 725 259 1325 
Q 259 1772 486 2073 
Q 713 2375 1131 2484 
z
M 1019 3438 
Q 1019 3113 1228 2906 
Q 1438 2700 1772 2700 
Q 2097 2700 2305 2904 
Q 2513 3109 2513 3406 
Q 2513 3716 2298 3927 
Q 2084 4138 1766 4138 
Q 1444 4138 1231 3931 
Q 1019 3725 1019 3438 
z
M 838 1322 
Q 838 1081 952 856 
Q 1066 631 1291 507 
Q 1516 384 1775 384 
Q 2178 384 2440 643 
Q 2703 903 2703 1303 
Q 2703 1709 2433 1975 
Q 2163 2241 1756 2241 
Q 1359 2241 1098 1978 
Q 838 1716 838 1322 
z
" id="ArialMT-38" transform="scale(0.015625)"/>
       </defs>
       <use xlink:href="#ArialMT-38"/>
      </g>
     </g>
    </g>
    <g id="xtick_10">
     <g id="line2d_10">
      <path clip-path="url(#p15bf5b2ebf)" d="M 935.038272 167.963294 
L 935.038272 27.108 
" style="fill:none;stroke:#ffffff;stroke-linecap:round;"/>
     </g>
     <g id="text_10">
      <!-- 9 -->
      <g style="fill:#262626;" transform="translate(931.979756 185.336888)scale(0.11 -0.11)">
       <defs>
        <path d="M 350 1059 
L 891 1109 
Q 959 728 1153 556 
Q 1347 384 1650 384 
Q 1909 384 2104 503 
Q 2300 622 2425 820 
Q 2550 1019 2634 1356 
Q 2719 1694 2719 2044 
Q 2719 2081 2716 2156 
Q 2547 1888 2255 1720 
Q 1963 1553 1622 1553 
Q 1053 1553 659 1965 
Q 266 2378 266 3053 
Q 266 3750 677 4175 
Q 1088 4600 1706 4600 
Q 2153 4600 2523 4359 
Q 2894 4119 3086 3673 
Q 3278 3228 3278 2384 
Q 3278 1506 3087 986 
Q 2897 466 2520 194 
Q 2144 -78 1638 -78 
Q 1100 -78 759 220 
Q 419 519 350 1059 
z
M 2653 3081 
Q 2653 3566 2395 3850 
Q 2138 4134 1775 4134 
Q 1400 4134 1122 3828 
Q 844 3522 844 3034 
Q 844 2597 1108 2323 
Q 1372 2050 1759 2050 
Q 2150 2050 2401 2323 
Q 2653 2597 2653 3081 
z
" id="ArialMT-39" transform="scale(0.015625)"/>
       </defs>
       <use xlink:href="#ArialMT-39"/>
      </g>
     </g>
    </g>
    <g id="xtick_11">
     <g id="line2d_11">
      <path clip-path="url(#p15bf5b2ebf)" d="M 1025.100764 167.963294 
L 1025.100764 27.108 
" style="fill:none;stroke:#ffffff;stroke-linecap:round;"/>
     </g>
     <g id="text_11">
      <!-- 10 -->
      <g style="fill:#262626;" transform="translate(1018.983733 185.336888)scale(0.11 -0.11)">
       <use xlink:href="#ArialMT-31"/>
       <use x="55.615234" xlink:href="#ArialMT-30"/>
      </g>
     </g>
    </g>
   </g>
   <g id="matplotlib.axis_2">
    <g id="ytick_1">
     <g id="line2d_12">
      <path clip-path="url(#p15bf5b2ebf)" d="M 78.994286 167.963294 
L 1079.588571 167.963294 
" style="fill:none;stroke:#ffffff;stroke-linecap:round;"/>
     </g>
     <g id="text_12">
      <!-- −669.35 -->
      <g style="fill:#262626;" transform="translate(29.428504 171.900091)scale(0.11 -0.11)">
       <defs>
        <path d="M 3381 1997 
L 356 1997 
L 356 2522 
L 3381 2522 
L 3381 1997 
z
" id="ArialMT-2212" transform="scale(0.015625)"/>
        <path d="M 581 0 
L 581 641 
L 1222 641 
L 1222 0 
L 581 0 
z
" id="ArialMT-2e" transform="scale(0.015625)"/>
       </defs>
       <use xlink:href="#ArialMT-2212"/>
       <use x="58.398438" xlink:href="#ArialMT-36"/>
       <use x="114.013672" xlink:href="#ArialMT-36"/>
       <use x="169.628906" xlink:href="#ArialMT-39"/>
       <use x="225.244141" xlink:href="#ArialMT-2e"/>
       <use x="253.027344" xlink:href="#ArialMT-33"/>
       <use x="308.642578" xlink:href="#ArialMT-35"/>
      </g>
     </g>
    </g>
    <g id="ytick_2">
     <g id="line2d_13">
      <path clip-path="url(#p15bf5b2ebf)" d="M 78.994286 130.401882 
L 1079.588571 130.401882 
" style="fill:none;stroke:#ffffff;stroke-linecap:round;"/>
     </g>
     <g id="text_13">
      <!-- −669.31 -->
      <g style="fill:#262626;" transform="translate(29.428504 134.338679)scale(0.11 -0.11)">
       <use xlink:href="#ArialMT-2212"/>
       <use x="58.398438" xlink:href="#ArialMT-36"/>
       <use x="114.013672" xlink:href="#ArialMT-36"/>
       <use x="169.628906" xlink:href="#ArialMT-39"/>
       <use x="225.244141" xlink:href="#ArialMT-2e"/>
       <use x="253.027344" xlink:href="#ArialMT-33"/>
       <use x="308.642578" xlink:href="#ArialMT-31"/>
      </g>
     </g>
    </g>
    <g id="ytick_3">
     <g id="line2d_14">
      <path clip-path="url(#p15bf5b2ebf)" d="M 78.994286 92.840471 
L 1079.588571 92.840471 
" style="fill:none;stroke:#ffffff;stroke-linecap:round;"/>
     </g>
     <g id="text_14">
      <!-- −669.27 -->
      <g style="fill:#262626;" transform="translate(29.428504 96.777267)scale(0.11 -0.11)">
       <use xlink:href="#ArialMT-2212"/>
       <use x="58.398438" xlink:href="#ArialMT-36"/>
       <use x="114.013672" xlink:href="#ArialMT-36"/>
       <use x="169.628906" xlink:href="#ArialMT-39"/>
       <use x="225.244141" xlink:href="#ArialMT-2e"/>
       <use x="253.027344" xlink:href="#ArialMT-32"/>
       <use x="308.642578" xlink:href="#ArialMT-37"/>
      </g>
     </g>
    </g>
    <g id="ytick_4">
     <g id="line2d_15">
      <path clip-path="url(#p15bf5b2ebf)" d="M 78.994286 55.279059 
L 1079.588571 55.279059 
" style="fill:none;stroke:#ffffff;stroke-linecap:round;"/>
     </g>
     <g id="text_15">
      <!-- −669.23 -->
      <g style="fill:#262626;" transform="translate(29.428504 59.215856)scale(0.11 -0.11)">
       <use xlink:href="#ArialMT-2212"/>
       <use x="58.398438" xlink:href="#ArialMT-36"/>
       <use x="114.013672" xlink:href="#ArialMT-36"/>
       <use x="169.628906" xlink:href="#ArialMT-39"/>
       <use x="225.244141" xlink:href="#ArialMT-2e"/>
       <use x="253.027344" xlink:href="#ArialMT-32"/>
       <use x="308.642578" xlink:href="#ArialMT-33"/>
      </g>
     </g>
    </g>
    <g id="text_16">
     <!-- H [kJ/mol] -->
     <g style="fill:#262626;" transform="translate(23.043504 124.203772)rotate(-90)scale(0.12 -0.12)">
      <defs>
       <path d="M 513 0 
L 513 4581 
L 1119 4581 
L 1119 2700 
L 3500 2700 
L 3500 4581 
L 4106 4581 
L 4106 0 
L 3500 0 
L 3500 2159 
L 1119 2159 
L 1119 0 
L 513 0 
z
" id="ArialMT-48" transform="scale(0.015625)"/>
       <path id="ArialMT-20" transform="scale(0.015625)"/>
       <path d="M 434 -1272 
L 434 4581 
L 1675 4581 
L 1675 4116 
L 997 4116 
L 997 -806 
L 1675 -806 
L 1675 -1272 
L 434 -1272 
z
" id="ArialMT-5b" transform="scale(0.015625)"/>
       <path d="M 425 0 
L 425 4581 
L 988 4581 
L 988 1969 
L 2319 3319 
L 3047 3319 
L 1778 2088 
L 3175 0 
L 2481 0 
L 1384 1697 
L 988 1316 
L 988 0 
L 425 0 
z
" id="ArialMT-6b" transform="scale(0.015625)"/>
       <path d="M 184 1300 
L 731 1375 
Q 753 850 928 656 
Q 1103 463 1413 463 
Q 1641 463 1806 567 
Q 1972 672 2034 851 
Q 2097 1031 2097 1425 
L 2097 4581 
L 2703 4581 
L 2703 1459 
Q 2703 884 2564 568 
Q 2425 253 2123 87 
Q 1822 -78 1416 -78 
Q 813 -78 492 269 
Q 172 616 184 1300 
z
" id="ArialMT-4a" transform="scale(0.015625)"/>
       <path d="M 0 -78 
L 1328 4659 
L 1778 4659 
L 453 -78 
L 0 -78 
z
" id="ArialMT-2f" transform="scale(0.015625)"/>
       <path d="M 422 0 
L 422 3319 
L 925 3319 
L 925 2853 
Q 1081 3097 1340 3245 
Q 1600 3394 1931 3394 
Q 2300 3394 2536 3241 
Q 2772 3088 2869 2813 
Q 3263 3394 3894 3394 
Q 4388 3394 4653 3120 
Q 4919 2847 4919 2278 
L 4919 0 
L 4359 0 
L 4359 2091 
Q 4359 2428 4304 2576 
Q 4250 2725 4106 2815 
Q 3963 2906 3769 2906 
Q 3419 2906 3187 2673 
Q 2956 2441 2956 1928 
L 2956 0 
L 2394 0 
L 2394 2156 
Q 2394 2531 2256 2718 
Q 2119 2906 1806 2906 
Q 1569 2906 1367 2781 
Q 1166 2656 1075 2415 
Q 984 2175 984 1722 
L 984 0 
L 422 0 
z
" id="ArialMT-6d" transform="scale(0.015625)"/>
       <path d="M 213 1659 
Q 213 2581 725 3025 
Q 1153 3394 1769 3394 
Q 2453 3394 2887 2945 
Q 3322 2497 3322 1706 
Q 3322 1066 3130 698 
Q 2938 331 2570 128 
Q 2203 -75 1769 -75 
Q 1072 -75 642 372 
Q 213 819 213 1659 
z
M 791 1659 
Q 791 1022 1069 705 
Q 1347 388 1769 388 
Q 2188 388 2466 706 
Q 2744 1025 2744 1678 
Q 2744 2294 2464 2611 
Q 2184 2928 1769 2928 
Q 1347 2928 1069 2612 
Q 791 2297 791 1659 
z
" id="ArialMT-6f" transform="scale(0.015625)"/>
       <path d="M 409 0 
L 409 4581 
L 972 4581 
L 972 0 
L 409 0 
z
" id="ArialMT-6c" transform="scale(0.015625)"/>
       <path d="M 1363 -1272 
L 122 -1272 
L 122 -806 
L 800 -806 
L 800 4116 
L 122 4116 
L 122 4581 
L 1363 4581 
L 1363 -1272 
z
" id="ArialMT-5d" transform="scale(0.015625)"/>
      </defs>
      <use xlink:href="#ArialMT-48"/>
      <use x="72.216797" xlink:href="#ArialMT-20"/>
      <use x="100" xlink:href="#ArialMT-5b"/>
      <use x="127.783203" xlink:href="#ArialMT-6b"/>
      <use x="177.783203" xlink:href="#ArialMT-4a"/>
      <use x="227.783203" xlink:href="#ArialMT-2f"/>
      <use x="255.566406" xlink:href="#ArialMT-6d"/>
      <use x="338.867188" xlink:href="#ArialMT-6f"/>
      <use x="394.482422" xlink:href="#ArialMT-6c"/>
      <use x="416.699219" xlink:href="#ArialMT-5d"/>
     </g>
    </g>
   </g>
   <g id="line2d_16">
    <path clip-path="url(#p15bf5b2ebf)" d="M 124.475844 114.626089 
L 1034.107013 114.626089 
L 1034.107013 114.626089 
" style="fill:none;stroke:#4c72b0;stroke-linecap:round;stroke-width:1.5;"/>
   </g>
   <g id="patch_3">
    <path d="M 78.994286 167.963294 
L 78.994286 27.108 
" style="fill:none;stroke:#ffffff;stroke-linecap:square;stroke-linejoin:miter;stroke-width:1.25;"/>
   </g>
   <g id="patch_4">
    <path d="M 1079.588571 167.963294 
L 1079.588571 27.108 
" style="fill:none;stroke:#ffffff;stroke-linecap:square;stroke-linejoin:miter;stroke-width:1.25;"/>
   </g>
   <g id="patch_5">
    <path d="M 78.994286 167.963294 
L 1079.588571 167.963294 
" style="fill:none;stroke:#ffffff;stroke-linecap:square;stroke-linejoin:miter;stroke-width:1.25;"/>
   </g>
   <g id="patch_6">
    <path d="M 78.994286 27.108 
L 1079.588571 27.108 
" style="fill:none;stroke:#ffffff;stroke-linecap:square;stroke-linejoin:miter;stroke-width:1.25;"/>
   </g>
   <g id="text_17">
    <!-- Wykresy dla n = 5 i T = 0K -->
    <g style="fill:#262626;" transform="translate(509.196429 21.108)scale(0.12 -0.12)">
     <defs>
      <path d="M 1294 0 
L 78 4581 
L 700 4581 
L 1397 1578 
Q 1509 1106 1591 641 
Q 1766 1375 1797 1488 
L 2669 4581 
L 3400 4581 
L 4056 2263 
Q 4303 1400 4413 641 
Q 4500 1075 4641 1638 
L 5359 4581 
L 5969 4581 
L 4713 0 
L 4128 0 
L 3163 3491 
Q 3041 3928 3019 4028 
Q 2947 3713 2884 3491 
L 1913 0 
L 1294 0 
z
" id="ArialMT-57" transform="scale(0.015625)"/>
      <path d="M 397 -1278 
L 334 -750 
Q 519 -800 656 -800 
Q 844 -800 956 -737 
Q 1069 -675 1141 -563 
Q 1194 -478 1313 -144 
Q 1328 -97 1363 -6 
L 103 3319 
L 709 3319 
L 1400 1397 
Q 1534 1031 1641 628 
Q 1738 1016 1872 1384 
L 2581 3319 
L 3144 3319 
L 1881 -56 
Q 1678 -603 1566 -809 
Q 1416 -1088 1222 -1217 
Q 1028 -1347 759 -1347 
Q 597 -1347 397 -1278 
z
" id="ArialMT-79" transform="scale(0.015625)"/>
      <path d="M 416 0 
L 416 3319 
L 922 3319 
L 922 2816 
Q 1116 3169 1280 3281 
Q 1444 3394 1641 3394 
Q 1925 3394 2219 3213 
L 2025 2691 
Q 1819 2813 1613 2813 
Q 1428 2813 1281 2702 
Q 1134 2591 1072 2394 
Q 978 2094 978 1738 
L 978 0 
L 416 0 
z
" id="ArialMT-72" transform="scale(0.015625)"/>
      <path d="M 2694 1069 
L 3275 997 
Q 3138 488 2766 206 
Q 2394 -75 1816 -75 
Q 1088 -75 661 373 
Q 234 822 234 1631 
Q 234 2469 665 2931 
Q 1097 3394 1784 3394 
Q 2450 3394 2872 2941 
Q 3294 2488 3294 1666 
Q 3294 1616 3291 1516 
L 816 1516 
Q 847 969 1125 678 
Q 1403 388 1819 388 
Q 2128 388 2347 550 
Q 2566 713 2694 1069 
z
M 847 1978 
L 2700 1978 
Q 2663 2397 2488 2606 
Q 2219 2931 1791 2931 
Q 1403 2931 1139 2672 
Q 875 2413 847 1978 
z
" id="ArialMT-65" transform="scale(0.015625)"/>
      <path d="M 197 991 
L 753 1078 
Q 800 744 1014 566 
Q 1228 388 1613 388 
Q 2000 388 2187 545 
Q 2375 703 2375 916 
Q 2375 1106 2209 1216 
Q 2094 1291 1634 1406 
Q 1016 1563 777 1677 
Q 538 1791 414 1992 
Q 291 2194 291 2438 
Q 291 2659 392 2848 
Q 494 3038 669 3163 
Q 800 3259 1026 3326 
Q 1253 3394 1513 3394 
Q 1903 3394 2198 3281 
Q 2494 3169 2634 2976 
Q 2775 2784 2828 2463 
L 2278 2388 
Q 2241 2644 2061 2787 
Q 1881 2931 1553 2931 
Q 1166 2931 1000 2803 
Q 834 2675 834 2503 
Q 834 2394 903 2306 
Q 972 2216 1119 2156 
Q 1203 2125 1616 2013 
Q 2213 1853 2448 1751 
Q 2684 1650 2818 1456 
Q 2953 1263 2953 975 
Q 2953 694 2789 445 
Q 2625 197 2315 61 
Q 2006 -75 1616 -75 
Q 969 -75 630 194 
Q 291 463 197 991 
z
" id="ArialMT-73" transform="scale(0.015625)"/>
      <path d="M 2575 0 
L 2575 419 
Q 2259 -75 1647 -75 
Q 1250 -75 917 144 
Q 584 363 401 755 
Q 219 1147 219 1656 
Q 219 2153 384 2558 
Q 550 2963 881 3178 
Q 1213 3394 1622 3394 
Q 1922 3394 2156 3267 
Q 2391 3141 2538 2938 
L 2538 4581 
L 3097 4581 
L 3097 0 
L 2575 0 
z
M 797 1656 
Q 797 1019 1065 703 
Q 1334 388 1700 388 
Q 2069 388 2326 689 
Q 2584 991 2584 1609 
Q 2584 2291 2321 2609 
Q 2059 2928 1675 2928 
Q 1300 2928 1048 2622 
Q 797 2316 797 1656 
z
" id="ArialMT-64" transform="scale(0.015625)"/>
      <path d="M 2588 409 
Q 2275 144 1986 34 
Q 1697 -75 1366 -75 
Q 819 -75 525 192 
Q 231 459 231 875 
Q 231 1119 342 1320 
Q 453 1522 633 1644 
Q 813 1766 1038 1828 
Q 1203 1872 1538 1913 
Q 2219 1994 2541 2106 
Q 2544 2222 2544 2253 
Q 2544 2597 2384 2738 
Q 2169 2928 1744 2928 
Q 1347 2928 1158 2789 
Q 969 2650 878 2297 
L 328 2372 
Q 403 2725 575 2942 
Q 747 3159 1072 3276 
Q 1397 3394 1825 3394 
Q 2250 3394 2515 3294 
Q 2781 3194 2906 3042 
Q 3031 2891 3081 2659 
Q 3109 2516 3109 2141 
L 3109 1391 
Q 3109 606 3145 398 
Q 3181 191 3288 0 
L 2700 0 
Q 2613 175 2588 409 
z
M 2541 1666 
Q 2234 1541 1622 1453 
Q 1275 1403 1131 1340 
Q 988 1278 909 1158 
Q 831 1038 831 891 
Q 831 666 1001 516 
Q 1172 366 1500 366 
Q 1825 366 2078 508 
Q 2331 650 2450 897 
Q 2541 1088 2541 1459 
L 2541 1666 
z
" id="ArialMT-61" transform="scale(0.015625)"/>
      <path d="M 422 0 
L 422 3319 
L 928 3319 
L 928 2847 
Q 1294 3394 1984 3394 
Q 2284 3394 2536 3286 
Q 2788 3178 2913 3003 
Q 3038 2828 3088 2588 
Q 3119 2431 3119 2041 
L 3119 0 
L 2556 0 
L 2556 2019 
Q 2556 2363 2490 2533 
Q 2425 2703 2258 2804 
Q 2091 2906 1866 2906 
Q 1506 2906 1245 2678 
Q 984 2450 984 1813 
L 984 0 
L 422 0 
z
" id="ArialMT-6e" transform="scale(0.015625)"/>
      <path d="M 3381 2694 
L 356 2694 
L 356 3219 
L 3381 3219 
L 3381 2694 
z
M 3381 1303 
L 356 1303 
L 356 1828 
L 3381 1828 
L 3381 1303 
z
" id="ArialMT-3d" transform="scale(0.015625)"/>
      <path d="M 425 3934 
L 425 4581 
L 988 4581 
L 988 3934 
L 425 3934 
z
M 425 0 
L 425 3319 
L 988 3319 
L 988 0 
L 425 0 
z
" id="ArialMT-69" transform="scale(0.015625)"/>
      <path d="M 1659 0 
L 1659 4041 
L 150 4041 
L 150 4581 
L 3781 4581 
L 3781 4041 
L 2266 4041 
L 2266 0 
L 1659 0 
z
" id="ArialMT-54" transform="scale(0.015625)"/>
      <path d="M 469 0 
L 469 4581 
L 1075 4581 
L 1075 2309 
L 3350 4581 
L 4172 4581 
L 2250 2725 
L 4256 0 
L 3456 0 
L 1825 2319 
L 1075 1588 
L 1075 0 
L 469 0 
z
" id="ArialMT-4b" transform="scale(0.015625)"/>
     </defs>
     <use xlink:href="#ArialMT-57"/>
     <use x="93.509766" xlink:href="#ArialMT-79"/>
     <use x="143.509766" xlink:href="#ArialMT-6b"/>
     <use x="193.509766" xlink:href="#ArialMT-72"/>
     <use x="226.810547" xlink:href="#ArialMT-65"/>
     <use x="282.425781" xlink:href="#ArialMT-73"/>
     <use x="332.425781" xlink:href="#ArialMT-79"/>
     <use x="382.425781" xlink:href="#ArialMT-20"/>
     <use x="410.208984" xlink:href="#ArialMT-64"/>
     <use x="465.824219" xlink:href="#ArialMT-6c"/>
     <use x="488.041016" xlink:href="#ArialMT-61"/>
     <use x="543.65625" xlink:href="#ArialMT-20"/>
     <use x="571.439453" xlink:href="#ArialMT-6e"/>
     <use x="627.054688" xlink:href="#ArialMT-20"/>
     <use x="654.837891" xlink:href="#ArialMT-3d"/>
     <use x="713.236328" xlink:href="#ArialMT-20"/>
     <use x="741.019531" xlink:href="#ArialMT-35"/>
     <use x="796.634766" xlink:href="#ArialMT-20"/>
     <use x="824.417969" xlink:href="#ArialMT-69"/>
     <use x="846.634766" xlink:href="#ArialMT-20"/>
     <use x="872.667969" xlink:href="#ArialMT-54"/>
     <use x="932.001953" xlink:href="#ArialMT-20"/>
     <use x="959.785156" xlink:href="#ArialMT-3d"/>
     <use x="1018.183594" xlink:href="#ArialMT-20"/>
     <use x="1045.966797" xlink:href="#ArialMT-30"/>
     <use x="1101.582031" xlink:href="#ArialMT-4b"/>
    </g>
   </g>
  </g>
  <g id="axes_2">
   <g id="patch_7">
    <path d="M 78.994286 336.989647 
L 1079.588571 336.989647 
L 1079.588571 196.134353 
L 78.994286 196.134353 
z
" style="fill:#eaeaf2;"/>
   </g>
   <g id="matplotlib.axis_3">
    <g id="xtick_12">
     <g id="line2d_17">
      <path clip-path="url(#pd649f8c0b5)" d="M 124.475844 336.989647 
L 124.475844 196.134353 
" style="fill:none;stroke:#ffffff;stroke-linecap:round;"/>
     </g>
     <g id="text_18">
      <!-- 0 -->
      <g style="fill:#262626;" transform="translate(121.417329 354.363241)scale(0.11 -0.11)">
       <use xlink:href="#ArialMT-30"/>
      </g>
     </g>
    </g>
    <g id="xtick_13">
     <g id="line2d_18">
      <path clip-path="url(#pd649f8c0b5)" d="M 214.538336 336.989647 
L 214.538336 196.134353 
" style="fill:none;stroke:#ffffff;stroke-linecap:round;"/>
     </g>
     <g id="text_19">
      <!-- 1 -->
      <g style="fill:#262626;" transform="translate(211.47982 354.363241)scale(0.11 -0.11)">
       <use xlink:href="#ArialMT-31"/>
      </g>
     </g>
    </g>
    <g id="xtick_14">
     <g id="line2d_19">
      <path clip-path="url(#pd649f8c0b5)" d="M 304.600828 336.989647 
L 304.600828 196.134353 
" style="fill:none;stroke:#ffffff;stroke-linecap:round;"/>
     </g>
     <g id="text_20">
      <!-- 2 -->
      <g style="fill:#262626;" transform="translate(301.542312 354.363241)scale(0.11 -0.11)">
       <use xlink:href="#ArialMT-32"/>
      </g>
     </g>
    </g>
    <g id="xtick_15">
     <g id="line2d_20">
      <path clip-path="url(#pd649f8c0b5)" d="M 394.66332 336.989647 
L 394.66332 196.134353 
" style="fill:none;stroke:#ffffff;stroke-linecap:round;"/>
     </g>
     <g id="text_21">
      <!-- 3 -->
      <g style="fill:#262626;" transform="translate(391.604804 354.363241)scale(0.11 -0.11)">
       <use xlink:href="#ArialMT-33"/>
      </g>
     </g>
    </g>
    <g id="xtick_16">
     <g id="line2d_21">
      <path clip-path="url(#pd649f8c0b5)" d="M 484.725812 336.989647 
L 484.725812 196.134353 
" style="fill:none;stroke:#ffffff;stroke-linecap:round;"/>
     </g>
     <g id="text_22">
      <!-- 4 -->
      <g style="fill:#262626;" transform="translate(481.667296 354.363241)scale(0.11 -0.11)">
       <use xlink:href="#ArialMT-34"/>
      </g>
     </g>
    </g>
    <g id="xtick_17">
     <g id="line2d_22">
      <path clip-path="url(#pd649f8c0b5)" d="M 574.788304 336.989647 
L 574.788304 196.134353 
" style="fill:none;stroke:#ffffff;stroke-linecap:round;"/>
     </g>
     <g id="text_23">
      <!-- 5 -->
      <g style="fill:#262626;" transform="translate(571.729788 354.363241)scale(0.11 -0.11)">
       <use xlink:href="#ArialMT-35"/>
      </g>
     </g>
    </g>
    <g id="xtick_18">
     <g id="line2d_23">
      <path clip-path="url(#pd649f8c0b5)" d="M 664.850796 336.989647 
L 664.850796 196.134353 
" style="fill:none;stroke:#ffffff;stroke-linecap:round;"/>
     </g>
     <g id="text_24">
      <!-- 6 -->
      <g style="fill:#262626;" transform="translate(661.79228 354.363241)scale(0.11 -0.11)">
       <use xlink:href="#ArialMT-36"/>
      </g>
     </g>
    </g>
    <g id="xtick_19">
     <g id="line2d_24">
      <path clip-path="url(#pd649f8c0b5)" d="M 754.913288 336.989647 
L 754.913288 196.134353 
" style="fill:none;stroke:#ffffff;stroke-linecap:round;"/>
     </g>
     <g id="text_25">
      <!-- 7 -->
      <g style="fill:#262626;" transform="translate(751.854772 354.363241)scale(0.11 -0.11)">
       <use xlink:href="#ArialMT-37"/>
      </g>
     </g>
    </g>
    <g id="xtick_20">
     <g id="line2d_25">
      <path clip-path="url(#pd649f8c0b5)" d="M 844.97578 336.989647 
L 844.97578 196.134353 
" style="fill:none;stroke:#ffffff;stroke-linecap:round;"/>
     </g>
     <g id="text_26">
      <!-- 8 -->
      <g style="fill:#262626;" transform="translate(841.917264 354.363241)scale(0.11 -0.11)">
       <use xlink:href="#ArialMT-38"/>
      </g>
     </g>
    </g>
    <g id="xtick_21">
     <g id="line2d_26">
      <path clip-path="url(#pd649f8c0b5)" d="M 935.038272 336.989647 
L 935.038272 196.134353 
" style="fill:none;stroke:#ffffff;stroke-linecap:round;"/>
     </g>
     <g id="text_27">
      <!-- 9 -->
      <g style="fill:#262626;" transform="translate(931.979756 354.363241)scale(0.11 -0.11)">
       <use xlink:href="#ArialMT-39"/>
      </g>
     </g>
    </g>
    <g id="xtick_22">
     <g id="line2d_27">
      <path clip-path="url(#pd649f8c0b5)" d="M 1025.100764 336.989647 
L 1025.100764 196.134353 
" style="fill:none;stroke:#ffffff;stroke-linecap:round;"/>
     </g>
     <g id="text_28">
      <!-- 10 -->
      <g style="fill:#262626;" transform="translate(1018.983733 354.363241)scale(0.11 -0.11)">
       <use xlink:href="#ArialMT-31"/>
       <use x="55.615234" xlink:href="#ArialMT-30"/>
      </g>
     </g>
    </g>
   </g>
   <g id="matplotlib.axis_4">
    <g id="ytick_5">
     <g id="line2d_28">
      <path clip-path="url(#pd649f8c0b5)" d="M 78.994286 330.587134 
L 1079.588571 330.587134 
" style="fill:none;stroke:#ffffff;stroke-linecap:round;"/>
     </g>
     <g id="text_29">
      <!-- 0 -->
      <g style="fill:#262626;" transform="translate(63.377254 334.523931)scale(0.11 -0.11)">
       <use xlink:href="#ArialMT-30"/>
      </g>
     </g>
    </g>
    <g id="ytick_6">
     <g id="line2d_29">
      <path clip-path="url(#pd649f8c0b5)" d="M 78.994286 299.43893 
L 1079.588571 299.43893 
" style="fill:none;stroke:#ffffff;stroke-linecap:round;"/>
     </g>
     <g id="text_30">
      <!-- 1 -->
      <g style="fill:#262626;" transform="translate(63.377254 303.375726)scale(0.11 -0.11)">
       <use xlink:href="#ArialMT-31"/>
      </g>
     </g>
    </g>
    <g id="ytick_7">
     <g id="line2d_30">
      <path clip-path="url(#pd649f8c0b5)" d="M 78.994286 268.290725 
L 1079.588571 268.290725 
" style="fill:none;stroke:#ffffff;stroke-linecap:round;"/>
     </g>
     <g id="text_31">
      <!-- 2 -->
      <g style="fill:#262626;" transform="translate(63.377254 272.227522)scale(0.11 -0.11)">
       <use xlink:href="#ArialMT-32"/>
      </g>
     </g>
    </g>
    <g id="ytick_8">
     <g id="line2d_31">
      <path clip-path="url(#pd649f8c0b5)" d="M 78.994286 237.142521 
L 1079.588571 237.142521 
" style="fill:none;stroke:#ffffff;stroke-linecap:round;"/>
     </g>
     <g id="text_32">
      <!-- 3 -->
      <g style="fill:#262626;" transform="translate(63.377254 241.079318)scale(0.11 -0.11)">
       <use xlink:href="#ArialMT-33"/>
      </g>
     </g>
    </g>
    <g id="ytick_9">
     <g id="line2d_32">
      <path clip-path="url(#pd649f8c0b5)" d="M 78.994286 205.994317 
L 1079.588571 205.994317 
" style="fill:none;stroke:#ffffff;stroke-linecap:round;"/>
     </g>
     <g id="text_33">
      <!-- 4 -->
      <g style="fill:#262626;" transform="translate(63.377254 209.931114)scale(0.11 -0.11)">
       <use xlink:href="#ArialMT-34"/>
      </g>
     </g>
    </g>
    <g id="text_34">
     <!-- T [K] -->
     <g style="fill:#262626;" transform="translate(56.992254 279.1245)rotate(-90)scale(0.12 -0.12)">
      <use xlink:href="#ArialMT-54"/>
      <use x="59.333984" xlink:href="#ArialMT-20"/>
      <use x="87.117188" xlink:href="#ArialMT-5b"/>
      <use x="114.900391" xlink:href="#ArialMT-4b"/>
      <use x="181.599609" xlink:href="#ArialMT-5d"/>
     </g>
    </g>
   </g>
   <g id="line2d_33">
    <path clip-path="url(#pd649f8c0b5)" d="M 124.475844 330.587134 
L 125.376469 330.389311 
L 126.277094 329.797215 
L 127.177719 328.814178 
L 128.078344 327.447395 
L 128.978969 325.703095 
L 129.879594 323.594362 
L 130.780219 321.133654 
L 132.581468 315.21861 
L 134.382718 308.11059 
L 136.183968 299.980908 
L 138.885843 286.325536 
L 143.388967 261.656158 
L 146.991467 242.344271 
L 148.792717 233.498181 
L 150.593967 225.493093 
L 152.395217 218.453599 
L 154.196467 212.597736 
L 155.997716 207.987802 
L 156.898341 206.181206 
L 157.798966 204.748389 
L 158.699591 203.658202 
L 159.600216 202.910645 
L 160.500841 202.536866 
L 161.401466 202.536866 
L 162.302091 202.879497 
L 163.202716 203.564757 
L 164.103341 204.592648 
L 165.003966 205.963169 
L 165.90459 207.645172 
L 166.805215 209.638657 
L 168.606465 214.466629 
L 170.407715 220.322491 
L 172.208965 226.988207 
L 174.91084 237.952374 
L 179.413964 256.703593 
L 182.115839 266.733315 
L 183.917089 272.402288 
L 185.718339 277.043371 
L 186.618964 278.943411 
L 187.519589 280.563118 
L 188.420213 281.840194 
L 189.320838 282.805788 
L 190.221463 283.459901 
L 191.122088 283.802531 
L 192.022713 283.833679 
L 192.923338 283.522197 
L 193.823963 282.930381 
L 194.724588 282.027083 
L 195.625213 280.843452 
L 196.525838 279.410634 
L 197.426463 277.697483 
L 199.227712 273.523624 
L 201.028962 268.508763 
L 202.830212 262.808641 
L 205.532087 253.246143 
L 211.836461 230.103027 
L 213.637711 224.309461 
L 215.438961 219.263452 
L 217.240211 215.183037 
L 218.140836 213.532182 
L 219.041461 212.161661 
L 219.942086 211.102622 
L 220.842711 210.323917 
L 221.743335 209.856694 
L 222.64396 209.700953 
L 223.544585 209.825546 
L 224.44521 210.230473 
L 225.345835 210.915733 
L 226.24646 211.850179 
L 227.147085 213.064959 
L 228.04771 214.466629 
L 229.84896 217.924079 
L 231.65021 222.06679 
L 233.451459 226.707873 
L 236.153334 234.276886 
L 243.358334 254.959294 
L 246.060208 261.96764 
L 247.861458 266.266092 
L 250.563333 272.090806 
L 252.364583 275.517109 
L 255.066458 279.971302 
L 256.867707 282.463158 
L 258.668957 284.581236 
L 260.470207 286.356684 
L 262.271457 287.727205 
L 264.072707 288.723947 
L 265.873957 289.346911 
L 267.675206 289.596097 
L 269.476456 289.440356 
L 271.277706 288.973133 
L 273.078956 288.16328 
L 274.880206 287.041944 
L 277.58208 284.86157 
L 280.283955 282.213973 
L 282.98583 279.286041 
L 293.793329 267.075945 
L 297.395829 263.338161 
L 300.998328 259.974155 
L 303.700203 257.669188 
L 306.402078 255.613406 
L 310.004578 253.214995 
L 315.408327 249.975581 
L 319.010827 247.764059 
L 322.613326 245.303351 
L 328.017076 241.254084 
L 330.718951 239.291747 
L 333.420826 237.609744 
L 335.222075 236.768743 
L 337.023325 236.176927 
L 338.824575 235.896593 
L 340.625825 235.958889 
L 342.427075 236.363816 
L 344.228325 237.049077 
L 346.029574 237.952374 
L 348.731449 239.634377 
L 352.333949 242.095086 
L 359.538948 247.203391 
L 363.141448 249.601803 
L 364.942698 250.598545 
L 366.743948 251.37725 
L 368.545197 251.844474 
L 370.346447 251.969066 
L 372.147697 251.751029 
L 373.948947 251.252658 
L 377.551447 249.664099 
L 380.253321 248.418171 
L 382.054571 247.764059 
L 383.855821 247.359132 
L 385.657071 247.265688 
L 387.458321 247.39028 
L 390.160195 248.044393 
L 395.563945 249.664099 
L 397.365195 249.913285 
L 399.166445 249.913285 
L 400.967694 249.601803 
L 402.768944 248.978839 
L 404.570194 248.137837 
L 409.973944 245.272202 
L 410.874569 244.929572 
L 411.775194 244.711535 
L 412.675818 244.61809 
L 413.576443 244.680387 
L 414.477068 244.867276 
L 415.377693 245.272202 
L 416.278318 245.895167 
L 417.178943 246.70502 
L 418.079568 247.764059 
L 418.980193 249.072283 
L 420.781443 252.405141 
L 422.582693 256.76589 
L 424.383942 262.029936 
L 426.185192 268.072688 
L 429.787692 281.310675 
L 432.489567 290.904322 
L 434.290817 296.448702 
L 436.092066 300.909125 
L 436.992691 302.668998 
L 437.893316 304.095586 
L 438.793941 305.179544 
L 439.694566 305.920871 
L 440.595191 306.325797 
L 441.495816 306.403668 
L 442.396441 306.173171 
L 443.297066 305.646767 
L 444.197691 304.849373 
L 445.098316 303.799678 
L 445.99894 302.519487 
L 447.80019 299.345485 
L 449.60144 295.514256 
L 451.40269 291.122359 
L 454.104565 283.802531 
L 458.607689 270.595692 
L 463.110814 257.606891 
L 465.812689 250.505101 
L 467.613939 246.206649 
L 469.415188 242.250827 
L 471.216438 238.699931 
L 473.017688 235.553963 
L 474.818938 232.781773 
L 476.620188 230.383361 
L 478.421438 228.389876 
L 479.322062 227.517726 
L 481.123312 226.178353 
L 482.924562 225.306204 
L 483.825187 225.057018 
L 484.725812 224.994722 
L 485.626437 225.057018 
L 486.527062 225.275055 
L 487.427687 225.648834 
L 488.328312 226.209501 
L 489.228937 226.92591 
L 491.030186 228.857099 
L 491.930811 230.071879 
L 493.732061 232.968662 
L 495.533311 236.457261 
L 497.334561 240.444231 
L 500.036436 247.234539 
L 507.241435 266.390685 
L 509.042685 270.159618 
L 509.94331 271.654731 
L 510.843935 272.838363 
L 511.74456 273.679365 
L 512.645185 274.177736 
L 513.545809 274.271181 
L 514.446434 273.990847 
L 515.347059 273.274438 
L 516.247684 272.215399 
L 517.148309 270.81373 
L 518.048934 269.06943 
L 519.850184 264.802126 
L 521.651434 259.724969 
L 528.856433 238.419598 
L 530.657683 233.965404 
L 532.458933 230.134175 
L 534.260183 226.92591 
L 536.061432 224.402906 
L 536.962057 223.406163 
L 538.763307 221.911049 
L 540.564557 221.101196 
L 541.465182 220.976603 
L 542.365807 220.976603 
L 543.266432 221.132344 
L 544.167057 221.474974 
L 545.067682 221.942198 
L 545.968307 222.565162 
L 547.769556 224.247165 
L 549.570806 226.396391 
L 551.372056 229.01284 
L 553.173306 232.003067 
L 554.974556 235.273629 
L 557.676431 240.693416 
L 560.378305 246.580427 
L 563.08018 252.965809 
L 565.782055 260.005303 
L 568.48393 267.792354 
L 574.788304 286.823907 
L 576.589554 291.340396 
L 577.490179 293.209289 
L 578.390804 294.766699 
L 579.291429 296.012627 
L 580.192053 296.853629 
L 581.092678 297.289703 
L 581.993303 297.320852 
L 582.893928 296.978221 
L 583.794553 296.230664 
L 584.695178 295.109329 
L 585.595803 293.676512 
L 587.397053 290.06332 
L 592.800802 277.759779 
L 593.701427 276.108925 
L 594.602052 274.707255 
L 595.502677 273.554772 
L 596.403302 272.651474 
L 597.303927 271.966213 
L 598.204552 271.530139 
L 599.105177 271.249805 
L 600.005802 271.125212 
L 604.508926 271.15636 
L 605.409551 271.000619 
L 606.310176 270.720285 
L 607.210801 270.28421 
L 608.111426 269.723543 
L 609.912676 268.134984 
L 611.713926 266.048055 
L 614.4158 262.372567 
L 620.720175 253.588773 
L 626.123924 246.580427 
L 627.925174 244.462349 
L 629.726424 242.624605 
L 630.627049 241.8459 
L 632.428299 240.693416 
L 633.328924 240.350786 
L 634.229549 240.163897 
L 635.130174 240.163897 
L 636.030799 240.28849 
L 636.931423 240.568824 
L 638.732673 241.534418 
L 640.533923 242.842643 
L 644.136423 245.614833 
L 645.937673 246.673872 
L 647.738922 247.359132 
L 649.540172 247.608318 
L 651.341422 247.514873 
L 653.142672 247.203391 
L 657.645797 246.300093 
L 660.347671 246.206649 
L 662.148921 246.424686 
L 664.850796 247.04765 
L 667.552671 247.701762 
L 669.353921 247.950948 
L 670.254545 247.982096 
L 672.055795 247.701762 
L 672.95642 247.421429 
L 673.857045 246.985354 
L 675.658295 245.739426 
L 677.459545 244.057422 
L 680.16142 240.911454 
L 682.863294 237.734337 
L 684.664544 236.11463 
L 685.565169 235.522815 
L 686.465794 235.180184 
L 687.366419 235.024443 
L 688.267044 235.117888 
L 689.167669 235.460518 
L 690.068294 236.021186 
L 690.968919 236.799891 
L 692.770168 238.824524 
L 697.273293 244.586942 
L 698.173918 245.521388 
L 699.074543 246.268945 
L 699.975168 246.860761 
L 700.875793 247.296836 
L 702.677043 247.764059 
L 707.180167 248.137837 
L 708.981417 248.79195 
L 710.782667 249.913285 
L 712.583917 251.470695 
L 717.987666 256.610149 
L 719.788916 257.793781 
L 721.590166 258.634782 
L 723.391416 259.164302 
L 727.89454 260.161044 
L 729.69579 260.846305 
L 731.49704 261.905343 
L 733.29829 263.400457 
L 735.09954 265.331646 
L 736.90079 267.636613 
L 739.602664 271.592435 
L 744.105789 278.413892 
L 745.907039 280.812303 
L 747.708289 282.836937 
L 749.509538 284.394347 
L 751.310788 285.453386 
L 752.211413 285.764868 
L 753.112038 285.951757 
L 754.012663 286.014054 
L 754.913288 285.951757 
L 755.813913 285.764868 
L 757.615163 285.048459 
L 759.416412 283.927124 
L 761.217662 282.463158 
L 763.018912 280.812303 
L 768.422662 275.67285 
L 771.124536 273.461327 
L 777.428911 269.007134 
L 779.230161 267.200538 
L 780.130786 266.079203 
L 781.932035 263.213568 
L 782.83266 261.43812 
L 783.733285 259.413487 
L 785.534535 254.554367 
L 787.335785 248.760801 
L 790.03766 238.73108 
L 793.640159 225.337352 
L 795.441409 219.855268 
L 796.342034 217.674894 
L 797.242659 215.930594 
L 798.143284 214.684666 
L 799.043909 213.999405 
L 799.944534 213.843664 
L 800.845159 214.279739 
L 801.745784 215.276482 
L 802.646409 216.833892 
L 803.547034 218.920822 
L 804.447658 221.474974 
L 806.248908 227.735763 
L 808.950783 238.73108 
L 810.752033 245.957463 
L 812.553283 252.218252 
L 813.453908 254.741257 
L 814.354533 256.828186 
L 815.255158 258.385596 
L 816.155782 259.382339 
L 817.056407 259.911858 
L 817.957032 259.911858 
L 818.857657 259.475784 
L 819.758282 258.66593 
L 820.658907 257.575743 
L 822.460157 254.896998 
L 824.261407 252.155956 
L 825.162032 250.972324 
L 826.062657 250.069026 
L 826.963281 249.414914 
L 827.863906 249.103432 
L 828.764531 249.103432 
L 829.665156 249.47721 
L 830.565781 250.131322 
L 831.466406 251.096917 
L 833.267656 253.619921 
L 836.870156 259.288894 
L 837.770781 260.41023 
L 838.671405 261.251231 
L 839.57203 261.749602 
L 840.472655 261.905343 
L 841.37328 261.62501 
L 842.273905 260.939749 
L 843.17453 259.787266 
L 844.075155 258.229855 
L 844.97578 256.23637 
L 845.876405 253.869107 
L 847.677655 248.168985 
L 850.379529 238.170412 
L 853.081404 228.358728 
L 854.882654 222.907792 
L 855.783279 220.727418 
L 856.683904 218.95197 
L 857.584529 217.643745 
L 858.485154 216.833892 
L 859.385779 216.491262 
L 860.286403 216.615855 
L 861.187028 217.238819 
L 862.087653 218.297858 
L 862.988278 219.761823 
L 863.888903 221.568419 
L 865.690153 226.116057 
L 867.491403 231.4424 
L 872.895152 247.982096 
L 874.696402 252.747771 
L 876.497652 257.015075 
L 879.199527 262.684049 
L 884.603276 273.367883 
L 887.305151 279.223745 
L 892.708901 291.309248 
L 894.51015 294.704402 
L 895.410775 296.13722 
L 896.3114 297.352 
L 897.212025 298.317594 
L 898.11265 299.002855 
L 899.013275 299.407781 
L 899.9139 299.488767 
L 900.814525 299.25204 
L 901.71515 298.691373 
L 902.615775 297.788075 
L 903.5164 296.604443 
L 904.417025 295.109329 
L 906.218274 291.340396 
L 908.019524 286.823907 
L 912.522649 274.676107 
L 914.323899 270.564544 
L 915.224524 268.851393 
L 916.125149 267.418576 
L 917.025773 266.234944 
L 917.926398 265.331646 
L 918.827023 264.708682 
L 919.727648 264.366052 
L 920.628273 264.241459 
L 921.528898 264.272607 
L 923.330148 264.73983 
L 925.131398 265.26935 
L 926.032023 265.393942 
L 926.932648 265.362794 
L 927.833272 265.051312 
L 928.733897 264.459496 
L 929.634522 263.556198 
L 930.535147 262.279122 
L 931.435772 260.628267 
L 932.336397 258.634782 
L 934.137647 253.682218 
L 935.938897 247.732911 
L 939.541396 235.367074 
L 941.342646 230.321064 
L 942.243271 228.358728 
L 943.143896 226.832466 
L 944.044521 225.804575 
L 944.945146 225.243907 
L 945.845771 225.181611 
L 946.746396 225.617686 
L 947.647021 226.489835 
L 948.547646 227.766912 
L 949.448271 229.386618 
L 951.24952 233.34244 
L 955.752645 244.057422 
L 957.553895 247.39028 
L 958.45452 248.667357 
L 959.355145 249.726396 
L 960.25577 250.505101 
L 961.156394 251.096917 
L 962.057019 251.470695 
L 962.957644 251.657584 
L 964.758894 251.719881 
L 967.460769 251.595288 
L 969.262019 251.751029 
L 970.162644 251.969066 
L 971.963894 252.716623 
L 974.665768 254.429774 
L 976.467018 255.582258 
L 977.367643 256.049481 
L 978.268268 256.360963 
L 979.168893 256.485556 
L 980.069518 256.360963 
L 980.970143 255.987185 
L 981.870768 255.301924 
L 982.771393 254.305182 
L 983.672017 253.028105 
L 984.572642 251.439547 
L 986.373892 247.514873 
L 989.075767 240.568824 
L 990.877017 235.958889 
L 992.678267 232.096512 
L 993.578892 230.57025 
L 994.479517 229.35547 
L 995.380141 228.514469 
L 996.280766 228.078394 
L 997.181391 227.984949 
L 998.082016 228.265283 
L 998.982641 228.919395 
L 999.883266 229.822693 
L 1000.783891 231.006325 
L 1002.585141 233.87196 
L 1005.287016 238.54419 
L 1007.088265 241.191788 
L 1007.98889 242.250827 
L 1008.889515 243.06068 
L 1009.79014 243.652496 
L 1010.690765 244.026274 
L 1011.59139 244.150867 
L 1012.492015 244.119719 
L 1013.39264 243.93283 
L 1016.99514 242.655753 
L 1017.895764 242.53116 
L 1018.796389 242.593457 
L 1019.697014 242.873791 
L 1020.597639 243.465607 
L 1021.498264 244.337756 
L 1022.398889 245.552536 
L 1023.299514 247.141095 
L 1024.200139 249.041135 
L 1026.001389 253.869107 
L 1027.802639 259.724969 
L 1034.107013 281.995935 
L 1034.107013 281.995935 
" style="fill:none;stroke:#4c72b0;stroke-linecap:round;stroke-width:1.5;"/>
   </g>
   <g id="patch_8">
    <path d="M 78.994286 336.989647 
L 78.994286 196.134353 
" style="fill:none;stroke:#ffffff;stroke-linecap:square;stroke-linejoin:miter;stroke-width:1.25;"/>
   </g>
   <g id="patch_9">
    <path d="M 1079.588571 336.989647 
L 1079.588571 196.134353 
" style="fill:none;stroke:#ffffff;stroke-linecap:square;stroke-linejoin:miter;stroke-width:1.25;"/>
   </g>
   <g id="patch_10">
    <path d="M 78.994286 336.989647 
L 1079.588571 336.989647 
" style="fill:none;stroke:#ffffff;stroke-linecap:square;stroke-linejoin:miter;stroke-width:1.25;"/>
   </g>
   <g id="patch_11">
    <path d="M 78.994286 196.134353 
L 1079.588571 196.134353 
" style="fill:none;stroke:#ffffff;stroke-linecap:square;stroke-linejoin:miter;stroke-width:1.25;"/>
   </g>
  </g>
  <g id="axes_3">
   <g id="patch_12">
    <path d="M 78.994286 506.016 
L 1079.588571 506.016 
L 1079.588571 365.160706 
L 78.994286 365.160706 
z
" style="fill:#eaeaf2;"/>
   </g>
   <g id="matplotlib.axis_5">
    <g id="xtick_23">
     <g id="line2d_34">
      <path clip-path="url(#p0ed9822186)" d="M 124.475844 506.016 
L 124.475844 365.160706 
" style="fill:none;stroke:#ffffff;stroke-linecap:round;"/>
     </g>
     <g id="text_35">
      <!-- 0 -->
      <g style="fill:#262626;" transform="translate(121.417329 523.389594)scale(0.11 -0.11)">
       <use xlink:href="#ArialMT-30"/>
      </g>
     </g>
    </g>
    <g id="xtick_24">
     <g id="line2d_35">
      <path clip-path="url(#p0ed9822186)" d="M 214.538336 506.016 
L 214.538336 365.160706 
" style="fill:none;stroke:#ffffff;stroke-linecap:round;"/>
     </g>
     <g id="text_36">
      <!-- 1 -->
      <g style="fill:#262626;" transform="translate(211.47982 523.389594)scale(0.11 -0.11)">
       <use xlink:href="#ArialMT-31"/>
      </g>
     </g>
    </g>
    <g id="xtick_25">
     <g id="line2d_36">
      <path clip-path="url(#p0ed9822186)" d="M 304.600828 506.016 
L 304.600828 365.160706 
" style="fill:none;stroke:#ffffff;stroke-linecap:round;"/>
     </g>
     <g id="text_37">
      <!-- 2 -->
      <g style="fill:#262626;" transform="translate(301.542312 523.389594)scale(0.11 -0.11)">
       <use xlink:href="#ArialMT-32"/>
      </g>
     </g>
    </g>
    <g id="xtick_26">
     <g id="line2d_37">
      <path clip-path="url(#p0ed9822186)" d="M 394.66332 506.016 
L 394.66332 365.160706 
" style="fill:none;stroke:#ffffff;stroke-linecap:round;"/>
     </g>
     <g id="text_38">
      <!-- 3 -->
      <g style="fill:#262626;" transform="translate(391.604804 523.389594)scale(0.11 -0.11)">
       <use xlink:href="#ArialMT-33"/>
      </g>
     </g>
    </g>
    <g id="xtick_27">
     <g id="line2d_38">
      <path clip-path="url(#p0ed9822186)" d="M 484.725812 506.016 
L 484.725812 365.160706 
" style="fill:none;stroke:#ffffff;stroke-linecap:round;"/>
     </g>
     <g id="text_39">
      <!-- 4 -->
      <g style="fill:#262626;" transform="translate(481.667296 523.389594)scale(0.11 -0.11)">
       <use xlink:href="#ArialMT-34"/>
      </g>
     </g>
    </g>
    <g id="xtick_28">
     <g id="line2d_39">
      <path clip-path="url(#p0ed9822186)" d="M 574.788304 506.016 
L 574.788304 365.160706 
" style="fill:none;stroke:#ffffff;stroke-linecap:round;"/>
     </g>
     <g id="text_40">
      <!-- 5 -->
      <g style="fill:#262626;" transform="translate(571.729788 523.389594)scale(0.11 -0.11)">
       <use xlink:href="#ArialMT-35"/>
      </g>
     </g>
    </g>
    <g id="xtick_29">
     <g id="line2d_40">
      <path clip-path="url(#p0ed9822186)" d="M 664.850796 506.016 
L 664.850796 365.160706 
" style="fill:none;stroke:#ffffff;stroke-linecap:round;"/>
     </g>
     <g id="text_41">
      <!-- 6 -->
      <g style="fill:#262626;" transform="translate(661.79228 523.389594)scale(0.11 -0.11)">
       <use xlink:href="#ArialMT-36"/>
      </g>
     </g>
    </g>
    <g id="xtick_30">
     <g id="line2d_41">
      <path clip-path="url(#p0ed9822186)" d="M 754.913288 506.016 
L 754.913288 365.160706 
" style="fill:none;stroke:#ffffff;stroke-linecap:round;"/>
     </g>
     <g id="text_42">
      <!-- 7 -->
      <g style="fill:#262626;" transform="translate(751.854772 523.389594)scale(0.11 -0.11)">
       <use xlink:href="#ArialMT-37"/>
      </g>
     </g>
    </g>
    <g id="xtick_31">
     <g id="line2d_42">
      <path clip-path="url(#p0ed9822186)" d="M 844.97578 506.016 
L 844.97578 365.160706 
" style="fill:none;stroke:#ffffff;stroke-linecap:round;"/>
     </g>
     <g id="text_43">
      <!-- 8 -->
      <g style="fill:#262626;" transform="translate(841.917264 523.389594)scale(0.11 -0.11)">
       <use xlink:href="#ArialMT-38"/>
      </g>
     </g>
    </g>
    <g id="xtick_32">
     <g id="line2d_43">
      <path clip-path="url(#p0ed9822186)" d="M 935.038272 506.016 
L 935.038272 365.160706 
" style="fill:none;stroke:#ffffff;stroke-linecap:round;"/>
     </g>
     <g id="text_44">
      <!-- 9 -->
      <g style="fill:#262626;" transform="translate(931.979756 523.389594)scale(0.11 -0.11)">
       <use xlink:href="#ArialMT-39"/>
      </g>
     </g>
    </g>
    <g id="xtick_33">
     <g id="line2d_44">
      <path clip-path="url(#p0ed9822186)" d="M 1025.100764 506.016 
L 1025.100764 365.160706 
" style="fill:none;stroke:#ffffff;stroke-linecap:round;"/>
     </g>
     <g id="text_45">
      <!-- 10 -->
      <g style="fill:#262626;" transform="translate(1018.983733 523.389594)scale(0.11 -0.11)">
       <use xlink:href="#ArialMT-31"/>
       <use x="55.615234" xlink:href="#ArialMT-30"/>
      </g>
     </g>
    </g>
    <g id="text_46">
     <!-- t [ps] -->
     <g style="fill:#262626;" transform="translate(566.287366 538.165219)scale(0.12 -0.12)">
      <defs>
       <path d="M 1650 503 
L 1731 6 
Q 1494 -44 1306 -44 
Q 1000 -44 831 53 
Q 663 150 594 308 
Q 525 466 525 972 
L 525 2881 
L 113 2881 
L 113 3319 
L 525 3319 
L 525 4141 
L 1084 4478 
L 1084 3319 
L 1650 3319 
L 1650 2881 
L 1084 2881 
L 1084 941 
Q 1084 700 1114 631 
Q 1144 563 1211 522 
Q 1278 481 1403 481 
Q 1497 481 1650 503 
z
" id="ArialMT-74" transform="scale(0.015625)"/>
       <path d="M 422 -1272 
L 422 3319 
L 934 3319 
L 934 2888 
Q 1116 3141 1344 3267 
Q 1572 3394 1897 3394 
Q 2322 3394 2647 3175 
Q 2972 2956 3137 2557 
Q 3303 2159 3303 1684 
Q 3303 1175 3120 767 
Q 2938 359 2589 142 
Q 2241 -75 1856 -75 
Q 1575 -75 1351 44 
Q 1128 163 984 344 
L 984 -1272 
L 422 -1272 
z
M 931 1641 
Q 931 1000 1190 694 
Q 1450 388 1819 388 
Q 2194 388 2461 705 
Q 2728 1022 2728 1688 
Q 2728 2322 2467 2637 
Q 2206 2953 1844 2953 
Q 1484 2953 1207 2617 
Q 931 2281 931 1641 
z
" id="ArialMT-70" transform="scale(0.015625)"/>
      </defs>
      <use xlink:href="#ArialMT-74"/>
      <use x="27.783203" xlink:href="#ArialMT-20"/>
      <use x="55.566406" xlink:href="#ArialMT-5b"/>
      <use x="83.349609" xlink:href="#ArialMT-70"/>
      <use x="138.964844" xlink:href="#ArialMT-73"/>
      <use x="188.964844" xlink:href="#ArialMT-5d"/>
     </g>
    </g>
   </g>
   <g id="matplotlib.axis_6">
    <g id="ytick_10">
     <g id="line2d_45">
      <path clip-path="url(#p0ed9822186)" d="M 78.994286 486.80846 
L 1079.588571 486.80846 
" style="fill:none;stroke:#ffffff;stroke-linecap:round;"/>
     </g>
     <g id="text_47">
      <!-- −0.04 -->
      <g style="fill:#262626;" transform="translate(41.662567 490.745257)scale(0.11 -0.11)">
       <use xlink:href="#ArialMT-2212"/>
       <use x="58.398438" xlink:href="#ArialMT-30"/>
       <use x="114.013672" xlink:href="#ArialMT-2e"/>
       <use x="141.796875" xlink:href="#ArialMT-30"/>
       <use x="197.412109" xlink:href="#ArialMT-34"/>
      </g>
     </g>
    </g>
    <g id="ytick_11">
     <g id="line2d_46">
      <path clip-path="url(#p0ed9822186)" d="M 78.994286 461.198406 
L 1079.588571 461.198406 
" style="fill:none;stroke:#ffffff;stroke-linecap:round;"/>
     </g>
     <g id="text_48">
      <!-- −0.02 -->
      <g style="fill:#262626;" transform="translate(41.662567 465.135203)scale(0.11 -0.11)">
       <use xlink:href="#ArialMT-2212"/>
       <use x="58.398438" xlink:href="#ArialMT-30"/>
       <use x="114.013672" xlink:href="#ArialMT-2e"/>
       <use x="141.796875" xlink:href="#ArialMT-30"/>
       <use x="197.412109" xlink:href="#ArialMT-32"/>
      </g>
     </g>
    </g>
    <g id="ytick_12">
     <g id="line2d_47">
      <path clip-path="url(#p0ed9822186)" d="M 78.994286 435.588353 
L 1079.588571 435.588353 
" style="fill:none;stroke:#ffffff;stroke-linecap:round;"/>
     </g>
     <g id="text_49">
      <!-- 0.00 -->
      <g style="fill:#262626;" transform="translate(48.087254 439.52515)scale(0.11 -0.11)">
       <use xlink:href="#ArialMT-30"/>
       <use x="55.615234" xlink:href="#ArialMT-2e"/>
       <use x="83.398438" xlink:href="#ArialMT-30"/>
       <use x="139.013672" xlink:href="#ArialMT-30"/>
      </g>
     </g>
    </g>
    <g id="ytick_13">
     <g id="line2d_48">
      <path clip-path="url(#p0ed9822186)" d="M 78.994286 409.978299 
L 1079.588571 409.978299 
" style="fill:none;stroke:#ffffff;stroke-linecap:round;"/>
     </g>
     <g id="text_50">
      <!-- 0.02 -->
      <g style="fill:#262626;" transform="translate(48.087254 413.915096)scale(0.11 -0.11)">
       <use xlink:href="#ArialMT-30"/>
       <use x="55.615234" xlink:href="#ArialMT-2e"/>
       <use x="83.398438" xlink:href="#ArialMT-30"/>
       <use x="139.013672" xlink:href="#ArialMT-32"/>
      </g>
     </g>
    </g>
    <g id="ytick_14">
     <g id="line2d_49">
      <path clip-path="url(#p0ed9822186)" d="M 78.994286 384.368246 
L 1079.588571 384.368246 
" style="fill:none;stroke:#ffffff;stroke-linecap:round;"/>
     </g>
     <g id="text_51">
      <!-- 0.04 -->
      <g style="fill:#262626;" transform="translate(48.087254 388.305043)scale(0.11 -0.11)">
       <use xlink:href="#ArialMT-30"/>
       <use x="55.615234" xlink:href="#ArialMT-2e"/>
       <use x="83.398438" xlink:href="#ArialMT-30"/>
       <use x="139.013672" xlink:href="#ArialMT-34"/>
      </g>
     </g>
    </g>
    <g id="text_52">
     <!-- P [atm] -->
     <g style="fill:#262626;" transform="translate(35.277567 454.487415)rotate(-90)scale(0.12 -0.12)">
      <defs>
       <path d="M 494 0 
L 494 4581 
L 2222 4581 
Q 2678 4581 2919 4538 
Q 3256 4481 3484 4323 
Q 3713 4166 3852 3881 
Q 3991 3597 3991 3256 
Q 3991 2672 3619 2267 
Q 3247 1863 2275 1863 
L 1100 1863 
L 1100 0 
L 494 0 
z
M 1100 2403 
L 2284 2403 
Q 2872 2403 3119 2622 
Q 3366 2841 3366 3238 
Q 3366 3525 3220 3729 
Q 3075 3934 2838 4000 
Q 2684 4041 2272 4041 
L 1100 4041 
L 1100 2403 
z
" id="ArialMT-50" transform="scale(0.015625)"/>
      </defs>
      <use xlink:href="#ArialMT-50"/>
      <use x="64.949219" xlink:href="#ArialMT-20"/>
      <use x="92.732422" xlink:href="#ArialMT-5b"/>
      <use x="120.515625" xlink:href="#ArialMT-61"/>
      <use x="176.130859" xlink:href="#ArialMT-74"/>
      <use x="203.914062" xlink:href="#ArialMT-6d"/>
      <use x="287.214844" xlink:href="#ArialMT-5d"/>
     </g>
    </g>
   </g>
   <g id="line2d_50">
    <path clip-path="url(#p0ed9822186)" d="M 124.475844 435.588353 
L 1034.107013 435.588353 
L 1034.107013 435.588353 
" style="fill:none;stroke:#4c72b0;stroke-linecap:round;stroke-width:1.5;"/>
   </g>
   <g id="patch_13">
    <path d="M 78.994286 506.016 
L 78.994286 365.160706 
" style="fill:none;stroke:#ffffff;stroke-linecap:square;stroke-linejoin:miter;stroke-width:1.25;"/>
   </g>
   <g id="patch_14">
    <path d="M 1079.588571 506.016 
L 1079.588571 365.160706 
" style="fill:none;stroke:#ffffff;stroke-linecap:square;stroke-linejoin:miter;stroke-width:1.25;"/>
   </g>
   <g id="patch_15">
    <path d="M 78.994286 506.016 
L 1079.588571 506.016 
" style="fill:none;stroke:#ffffff;stroke-linecap:square;stroke-linejoin:miter;stroke-width:1.25;"/>
   </g>
   <g id="patch_16">
    <path d="M 78.994286 365.160706 
L 1079.588571 365.160706 
" style="fill:none;stroke:#ffffff;stroke-linecap:square;stroke-linejoin:miter;stroke-width:1.25;"/>
   </g>
  </g>
 </g>
 <defs>
  <clipPath id="p15bf5b2ebf">
   <rect height="140.855294" width="1000.594286" x="78.994286" y="27.108"/>
  </clipPath>
  <clipPath id="pd649f8c0b5">
   <rect height="140.855294" width="1000.594286" x="78.994286" y="196.134353"/>
  </clipPath>
  <clipPath id="p0ed9822186">
   <rect height="140.855294" width="1000.594286" x="78.994286" y="365.160706"/>
  </clipPath>
 </defs>
</svg>
