<?xml version="1.0" encoding="utf-8" standalone="no"?>
<!DOCTYPE svg PUBLIC "-//W3C//DTD SVG 1.1//EN"
  "http://www.w3.org/Graphics/SVG/1.1/DTD/svg11.dtd">
<svg height="697.68pt" version="1.1" viewBox="0 0 1382.4 697.68" width="1382.4pt" xmlns="http://www.w3.org/2000/svg" xmlns:xlink="http://www.w3.org/1999/xlink">
 <metadata>
  <rdf:RDF xmlns:cc="http://creativecommons.org/ns#" xmlns:dc="http://purl.org/dc/elements/1.1/" xmlns:rdf="http://www.w3.org/1999/02/22-rdf-syntax-ns#">
   <cc:Work>
    <dc:type rdf:resource="http://purl.org/dc/dcmitype/StillImage"/>
    <dc:date>2021-11-03T22:33:09.791888</dc:date>
    <dc:format>image/svg+xml</dc:format>
    <dc:creator>
     <cc:Agent>
      <dc:title>Matplotlib v3.4.3, https://matplotlib.org/</dc:title>
     </cc:Agent>
    </dc:creator>
   </cc:Work>
  </rdf:RDF>
 </metadata>
 <defs>
  <style type="text/css">*{stroke-linecap:butt;stroke-linejoin:round;}</style>
 </defs>
 <g id="figure_1">
  <g id="patch_1">
   <path d="M 0 697.68 
L 1382.4 697.68 
L 1382.4 0 
L 0 0 
z
" style="fill:#ffffff;"/>
  </g>
  <g id="axes_1">
   <g id="patch_2">
    <path d="M 62.537143 208.717714 
L 1372.525714 208.717714 
L 1372.525714 21.594857 
L 62.537143 21.594857 
z
" style="fill:#eaeaf2;"/>
   </g>
   <g id="matplotlib.axis_1">
    <g id="xtick_1">
     <g id="line2d_1">
      <path clip-path="url(#p4db1da1c67)" d="M 122.082078 208.717714 
L 122.082078 21.594857 
" style="fill:none;stroke:#ffffff;stroke-linecap:round;"/>
     </g>
     <g id="text_1">
      <!-- 0 -->
      <g style="fill:#262626;" transform="translate(119.023562 226.091308)scale(0.11 -0.11)">
       <defs>
        <path d="M 266 2259 
Q 266 3072 433 3567 
Q 600 4063 929 4331 
Q 1259 4600 1759 4600 
Q 2128 4600 2406 4451 
Q 2684 4303 2865 4023 
Q 3047 3744 3150 3342 
Q 3253 2941 3253 2259 
Q 3253 1453 3087 958 
Q 2922 463 2592 192 
Q 2263 -78 1759 -78 
Q 1097 -78 719 397 
Q 266 969 266 2259 
z
M 844 2259 
Q 844 1131 1108 757 
Q 1372 384 1759 384 
Q 2147 384 2411 759 
Q 2675 1134 2675 2259 
Q 2675 3391 2411 3762 
Q 2147 4134 1753 4134 
Q 1366 4134 1134 3806 
Q 844 3388 844 2259 
z
" id="ArialMT-30" transform="scale(0.015625)"/>
       </defs>
       <use xlink:href="#ArialMT-30"/>
      </g>
     </g>
    </g>
    <g id="xtick_2">
     <g id="line2d_2">
      <path clip-path="url(#p4db1da1c67)" d="M 239.99284 208.717714 
L 239.99284 21.594857 
" style="fill:none;stroke:#ffffff;stroke-linecap:round;"/>
     </g>
     <g id="text_2">
      <!-- 1 -->
      <g style="fill:#262626;" transform="translate(236.934325 226.091308)scale(0.11 -0.11)">
       <defs>
        <path d="M 2384 0 
L 1822 0 
L 1822 3584 
Q 1619 3391 1289 3197 
Q 959 3003 697 2906 
L 697 3450 
Q 1169 3672 1522 3987 
Q 1875 4303 2022 4600 
L 2384 4600 
L 2384 0 
z
" id="ArialMT-31" transform="scale(0.015625)"/>
       </defs>
       <use xlink:href="#ArialMT-31"/>
      </g>
     </g>
    </g>
    <g id="xtick_3">
     <g id="line2d_3">
      <path clip-path="url(#p4db1da1c67)" d="M 357.903603 208.717714 
L 357.903603 21.594857 
" style="fill:none;stroke:#ffffff;stroke-linecap:round;"/>
     </g>
     <g id="text_3">
      <!-- 2 -->
      <g style="fill:#262626;" transform="translate(354.845087 226.091308)scale(0.11 -0.11)">
       <defs>
        <path d="M 3222 541 
L 3222 0 
L 194 0 
Q 188 203 259 391 
Q 375 700 629 1000 
Q 884 1300 1366 1694 
Q 2113 2306 2375 2664 
Q 2638 3022 2638 3341 
Q 2638 3675 2398 3904 
Q 2159 4134 1775 4134 
Q 1369 4134 1125 3890 
Q 881 3647 878 3216 
L 300 3275 
Q 359 3922 746 4261 
Q 1134 4600 1788 4600 
Q 2447 4600 2831 4234 
Q 3216 3869 3216 3328 
Q 3216 3053 3103 2787 
Q 2991 2522 2730 2228 
Q 2469 1934 1863 1422 
Q 1356 997 1212 845 
Q 1069 694 975 541 
L 3222 541 
z
" id="ArialMT-32" transform="scale(0.015625)"/>
       </defs>
       <use xlink:href="#ArialMT-32"/>
      </g>
     </g>
    </g>
    <g id="xtick_4">
     <g id="line2d_4">
      <path clip-path="url(#p4db1da1c67)" d="M 475.814365 208.717714 
L 475.814365 21.594857 
" style="fill:none;stroke:#ffffff;stroke-linecap:round;"/>
     </g>
     <g id="text_4">
      <!-- 3 -->
      <g style="fill:#262626;" transform="translate(472.75585 226.091308)scale(0.11 -0.11)">
       <defs>
        <path d="M 269 1209 
L 831 1284 
Q 928 806 1161 595 
Q 1394 384 1728 384 
Q 2125 384 2398 659 
Q 2672 934 2672 1341 
Q 2672 1728 2419 1979 
Q 2166 2231 1775 2231 
Q 1616 2231 1378 2169 
L 1441 2663 
Q 1497 2656 1531 2656 
Q 1891 2656 2178 2843 
Q 2466 3031 2466 3422 
Q 2466 3731 2256 3934 
Q 2047 4138 1716 4138 
Q 1388 4138 1169 3931 
Q 950 3725 888 3313 
L 325 3413 
Q 428 3978 793 4289 
Q 1159 4600 1703 4600 
Q 2078 4600 2393 4439 
Q 2709 4278 2876 4000 
Q 3044 3722 3044 3409 
Q 3044 3113 2884 2869 
Q 2725 2625 2413 2481 
Q 2819 2388 3044 2092 
Q 3269 1797 3269 1353 
Q 3269 753 2831 336 
Q 2394 -81 1725 -81 
Q 1122 -81 723 278 
Q 325 638 269 1209 
z
" id="ArialMT-33" transform="scale(0.015625)"/>
       </defs>
       <use xlink:href="#ArialMT-33"/>
      </g>
     </g>
    </g>
    <g id="xtick_5">
     <g id="line2d_5">
      <path clip-path="url(#p4db1da1c67)" d="M 593.725128 208.717714 
L 593.725128 21.594857 
" style="fill:none;stroke:#ffffff;stroke-linecap:round;"/>
     </g>
     <g id="text_5">
      <!-- 4 -->
      <g style="fill:#262626;" transform="translate(590.666612 226.091308)scale(0.11 -0.11)">
       <defs>
        <path d="M 2069 0 
L 2069 1097 
L 81 1097 
L 81 1613 
L 2172 4581 
L 2631 4581 
L 2631 1613 
L 3250 1613 
L 3250 1097 
L 2631 1097 
L 2631 0 
L 2069 0 
z
M 2069 1613 
L 2069 3678 
L 634 1613 
L 2069 1613 
z
" id="ArialMT-34" transform="scale(0.015625)"/>
       </defs>
       <use xlink:href="#ArialMT-34"/>
      </g>
     </g>
    </g>
    <g id="xtick_6">
     <g id="line2d_6">
      <path clip-path="url(#p4db1da1c67)" d="M 711.63589 208.717714 
L 711.63589 21.594857 
" style="fill:none;stroke:#ffffff;stroke-linecap:round;"/>
     </g>
     <g id="text_6">
      <!-- 5 -->
      <g style="fill:#262626;" transform="translate(708.577375 226.091308)scale(0.11 -0.11)">
       <defs>
        <path d="M 266 1200 
L 856 1250 
Q 922 819 1161 601 
Q 1400 384 1738 384 
Q 2144 384 2425 690 
Q 2706 997 2706 1503 
Q 2706 1984 2436 2262 
Q 2166 2541 1728 2541 
Q 1456 2541 1237 2417 
Q 1019 2294 894 2097 
L 366 2166 
L 809 4519 
L 3088 4519 
L 3088 3981 
L 1259 3981 
L 1013 2750 
Q 1425 3038 1878 3038 
Q 2478 3038 2890 2622 
Q 3303 2206 3303 1553 
Q 3303 931 2941 478 
Q 2500 -78 1738 -78 
Q 1113 -78 717 272 
Q 322 622 266 1200 
z
" id="ArialMT-35" transform="scale(0.015625)"/>
       </defs>
       <use xlink:href="#ArialMT-35"/>
      </g>
     </g>
    </g>
    <g id="xtick_7">
     <g id="line2d_7">
      <path clip-path="url(#p4db1da1c67)" d="M 829.546653 208.717714 
L 829.546653 21.594857 
" style="fill:none;stroke:#ffffff;stroke-linecap:round;"/>
     </g>
     <g id="text_7">
      <!-- 6 -->
      <g style="fill:#262626;" transform="translate(826.488137 226.091308)scale(0.11 -0.11)">
       <defs>
        <path d="M 3184 3459 
L 2625 3416 
Q 2550 3747 2413 3897 
Q 2184 4138 1850 4138 
Q 1581 4138 1378 3988 
Q 1113 3794 959 3422 
Q 806 3050 800 2363 
Q 1003 2672 1297 2822 
Q 1591 2972 1913 2972 
Q 2475 2972 2870 2558 
Q 3266 2144 3266 1488 
Q 3266 1056 3080 686 
Q 2894 316 2569 119 
Q 2244 -78 1831 -78 
Q 1128 -78 684 439 
Q 241 956 241 2144 
Q 241 3472 731 4075 
Q 1159 4600 1884 4600 
Q 2425 4600 2770 4297 
Q 3116 3994 3184 3459 
z
M 888 1484 
Q 888 1194 1011 928 
Q 1134 663 1356 523 
Q 1578 384 1822 384 
Q 2178 384 2434 671 
Q 2691 959 2691 1453 
Q 2691 1928 2437 2201 
Q 2184 2475 1800 2475 
Q 1419 2475 1153 2201 
Q 888 1928 888 1484 
z
" id="ArialMT-36" transform="scale(0.015625)"/>
       </defs>
       <use xlink:href="#ArialMT-36"/>
      </g>
     </g>
    </g>
    <g id="xtick_8">
     <g id="line2d_8">
      <path clip-path="url(#p4db1da1c67)" d="M 947.457415 208.717714 
L 947.457415 21.594857 
" style="fill:none;stroke:#ffffff;stroke-linecap:round;"/>
     </g>
     <g id="text_8">
      <!-- 7 -->
      <g style="fill:#262626;" transform="translate(944.3989 226.091308)scale(0.11 -0.11)">
       <defs>
        <path d="M 303 3981 
L 303 4522 
L 3269 4522 
L 3269 4084 
Q 2831 3619 2401 2847 
Q 1972 2075 1738 1259 
Q 1569 684 1522 0 
L 944 0 
Q 953 541 1156 1306 
Q 1359 2072 1739 2783 
Q 2119 3494 2547 3981 
L 303 3981 
z
" id="ArialMT-37" transform="scale(0.015625)"/>
       </defs>
       <use xlink:href="#ArialMT-37"/>
      </g>
     </g>
    </g>
    <g id="xtick_9">
     <g id="line2d_9">
      <path clip-path="url(#p4db1da1c67)" d="M 1065.368178 208.717714 
L 1065.368178 21.594857 
" style="fill:none;stroke:#ffffff;stroke-linecap:round;"/>
     </g>
     <g id="text_9">
      <!-- 8 -->
      <g style="fill:#262626;" transform="translate(1062.309662 226.091308)scale(0.11 -0.11)">
       <defs>
        <path d="M 1131 2484 
Q 781 2613 612 2850 
Q 444 3088 444 3419 
Q 444 3919 803 4259 
Q 1163 4600 1759 4600 
Q 2359 4600 2725 4251 
Q 3091 3903 3091 3403 
Q 3091 3084 2923 2848 
Q 2756 2613 2416 2484 
Q 2838 2347 3058 2040 
Q 3278 1734 3278 1309 
Q 3278 722 2862 322 
Q 2447 -78 1769 -78 
Q 1091 -78 675 323 
Q 259 725 259 1325 
Q 259 1772 486 2073 
Q 713 2375 1131 2484 
z
M 1019 3438 
Q 1019 3113 1228 2906 
Q 1438 2700 1772 2700 
Q 2097 2700 2305 2904 
Q 2513 3109 2513 3406 
Q 2513 3716 2298 3927 
Q 2084 4138 1766 4138 
Q 1444 4138 1231 3931 
Q 1019 3725 1019 3438 
z
M 838 1322 
Q 838 1081 952 856 
Q 1066 631 1291 507 
Q 1516 384 1775 384 
Q 2178 384 2440 643 
Q 2703 903 2703 1303 
Q 2703 1709 2433 1975 
Q 2163 2241 1756 2241 
Q 1359 2241 1098 1978 
Q 838 1716 838 1322 
z
" id="ArialMT-38" transform="scale(0.015625)"/>
       </defs>
       <use xlink:href="#ArialMT-38"/>
      </g>
     </g>
    </g>
    <g id="xtick_10">
     <g id="line2d_10">
      <path clip-path="url(#p4db1da1c67)" d="M 1183.27894 208.717714 
L 1183.27894 21.594857 
" style="fill:none;stroke:#ffffff;stroke-linecap:round;"/>
     </g>
     <g id="text_10">
      <!-- 9 -->
      <g style="fill:#262626;" transform="translate(1180.220425 226.091308)scale(0.11 -0.11)">
       <defs>
        <path d="M 350 1059 
L 891 1109 
Q 959 728 1153 556 
Q 1347 384 1650 384 
Q 1909 384 2104 503 
Q 2300 622 2425 820 
Q 2550 1019 2634 1356 
Q 2719 1694 2719 2044 
Q 2719 2081 2716 2156 
Q 2547 1888 2255 1720 
Q 1963 1553 1622 1553 
Q 1053 1553 659 1965 
Q 266 2378 266 3053 
Q 266 3750 677 4175 
Q 1088 4600 1706 4600 
Q 2153 4600 2523 4359 
Q 2894 4119 3086 3673 
Q 3278 3228 3278 2384 
Q 3278 1506 3087 986 
Q 2897 466 2520 194 
Q 2144 -78 1638 -78 
Q 1100 -78 759 220 
Q 419 519 350 1059 
z
M 2653 3081 
Q 2653 3566 2395 3850 
Q 2138 4134 1775 4134 
Q 1400 4134 1122 3828 
Q 844 3522 844 3034 
Q 844 2597 1108 2323 
Q 1372 2050 1759 2050 
Q 2150 2050 2401 2323 
Q 2653 2597 2653 3081 
z
" id="ArialMT-39" transform="scale(0.015625)"/>
       </defs>
       <use xlink:href="#ArialMT-39"/>
      </g>
     </g>
    </g>
    <g id="xtick_11">
     <g id="line2d_11">
      <path clip-path="url(#p4db1da1c67)" d="M 1301.189703 208.717714 
L 1301.189703 21.594857 
" style="fill:none;stroke:#ffffff;stroke-linecap:round;"/>
     </g>
     <g id="text_11">
      <!-- 10 -->
      <g style="fill:#262626;" transform="translate(1295.072672 226.091308)scale(0.11 -0.11)">
       <use xlink:href="#ArialMT-31"/>
       <use x="55.615234" xlink:href="#ArialMT-30"/>
      </g>
     </g>
    </g>
   </g>
   <g id="matplotlib.axis_2">
    <g id="ytick_1">
     <g id="line2d_12">
      <path clip-path="url(#p4db1da1c67)" d="M 62.537143 208.717714 
L 1372.525714 208.717714 
" style="fill:none;stroke:#ffffff;stroke-linecap:round;"/>
     </g>
     <g id="text_12">
      <!-- 1367.6 -->
      <g style="fill:#262626;" transform="translate(19.396049 212.654511)scale(0.11 -0.11)">
       <defs>
        <path d="M 581 0 
L 581 641 
L 1222 641 
L 1222 0 
L 581 0 
z
" id="ArialMT-2e" transform="scale(0.015625)"/>
       </defs>
       <use xlink:href="#ArialMT-31"/>
       <use x="55.615234" xlink:href="#ArialMT-33"/>
       <use x="111.230469" xlink:href="#ArialMT-36"/>
       <use x="166.845703" xlink:href="#ArialMT-37"/>
       <use x="222.460938" xlink:href="#ArialMT-2e"/>
       <use x="250.244141" xlink:href="#ArialMT-36"/>
      </g>
     </g>
    </g>
    <g id="ytick_2">
     <g id="line2d_13">
      <path clip-path="url(#p4db1da1c67)" d="M 62.537143 168.619959 
L 1372.525714 168.619959 
" style="fill:none;stroke:#ffffff;stroke-linecap:round;"/>
     </g>
     <g id="text_13">
      <!-- 1367.9 -->
      <g style="fill:#262626;" transform="translate(19.396049 172.556756)scale(0.11 -0.11)">
       <use xlink:href="#ArialMT-31"/>
       <use x="55.615234" xlink:href="#ArialMT-33"/>
       <use x="111.230469" xlink:href="#ArialMT-36"/>
       <use x="166.845703" xlink:href="#ArialMT-37"/>
       <use x="222.460938" xlink:href="#ArialMT-2e"/>
       <use x="250.244141" xlink:href="#ArialMT-39"/>
      </g>
     </g>
    </g>
    <g id="ytick_3">
     <g id="line2d_14">
      <path clip-path="url(#p4db1da1c67)" d="M 62.537143 128.522204 
L 1372.525714 128.522204 
" style="fill:none;stroke:#ffffff;stroke-linecap:round;"/>
     </g>
     <g id="text_14">
      <!-- 1368.2 -->
      <g style="fill:#262626;" transform="translate(19.396049 132.459001)scale(0.11 -0.11)">
       <use xlink:href="#ArialMT-31"/>
       <use x="55.615234" xlink:href="#ArialMT-33"/>
       <use x="111.230469" xlink:href="#ArialMT-36"/>
       <use x="166.845703" xlink:href="#ArialMT-38"/>
       <use x="222.460938" xlink:href="#ArialMT-2e"/>
       <use x="250.244141" xlink:href="#ArialMT-32"/>
      </g>
     </g>
    </g>
    <g id="ytick_4">
     <g id="line2d_15">
      <path clip-path="url(#p4db1da1c67)" d="M 62.537143 88.424449 
L 1372.525714 88.424449 
" style="fill:none;stroke:#ffffff;stroke-linecap:round;"/>
     </g>
     <g id="text_15">
      <!-- 1368.5 -->
      <g style="fill:#262626;" transform="translate(19.396049 92.361246)scale(0.11 -0.11)">
       <use xlink:href="#ArialMT-31"/>
       <use x="55.615234" xlink:href="#ArialMT-33"/>
       <use x="111.230469" xlink:href="#ArialMT-36"/>
       <use x="166.845703" xlink:href="#ArialMT-38"/>
       <use x="222.460938" xlink:href="#ArialMT-2e"/>
       <use x="250.244141" xlink:href="#ArialMT-35"/>
      </g>
     </g>
    </g>
    <g id="ytick_5">
     <g id="line2d_16">
      <path clip-path="url(#p4db1da1c67)" d="M 62.537143 48.326694 
L 1372.525714 48.326694 
" style="fill:none;stroke:#ffffff;stroke-linecap:round;"/>
     </g>
     <g id="text_16">
      <!-- 1368.8 -->
      <g style="fill:#262626;" transform="translate(19.396049 52.263491)scale(0.11 -0.11)">
       <use xlink:href="#ArialMT-31"/>
       <use x="55.615234" xlink:href="#ArialMT-33"/>
       <use x="111.230469" xlink:href="#ArialMT-36"/>
       <use x="166.845703" xlink:href="#ArialMT-38"/>
       <use x="222.460938" xlink:href="#ArialMT-2e"/>
       <use x="250.244141" xlink:href="#ArialMT-38"/>
      </g>
     </g>
    </g>
    <g id="text_17">
     <!-- H [kJ/mol] -->
     <g style="fill:#262626;" transform="translate(13.011049 141.824411)rotate(-90)scale(0.12 -0.12)">
      <defs>
       <path d="M 513 0 
L 513 4581 
L 1119 4581 
L 1119 2700 
L 3500 2700 
L 3500 4581 
L 4106 4581 
L 4106 0 
L 3500 0 
L 3500 2159 
L 1119 2159 
L 1119 0 
L 513 0 
z
" id="ArialMT-48" transform="scale(0.015625)"/>
       <path id="ArialMT-20" transform="scale(0.015625)"/>
       <path d="M 434 -1272 
L 434 4581 
L 1675 4581 
L 1675 4116 
L 997 4116 
L 997 -806 
L 1675 -806 
L 1675 -1272 
L 434 -1272 
z
" id="ArialMT-5b" transform="scale(0.015625)"/>
       <path d="M 425 0 
L 425 4581 
L 988 4581 
L 988 1969 
L 2319 3319 
L 3047 3319 
L 1778 2088 
L 3175 0 
L 2481 0 
L 1384 1697 
L 988 1316 
L 988 0 
L 425 0 
z
" id="ArialMT-6b" transform="scale(0.015625)"/>
       <path d="M 184 1300 
L 731 1375 
Q 753 850 928 656 
Q 1103 463 1413 463 
Q 1641 463 1806 567 
Q 1972 672 2034 851 
Q 2097 1031 2097 1425 
L 2097 4581 
L 2703 4581 
L 2703 1459 
Q 2703 884 2564 568 
Q 2425 253 2123 87 
Q 1822 -78 1416 -78 
Q 813 -78 492 269 
Q 172 616 184 1300 
z
" id="ArialMT-4a" transform="scale(0.015625)"/>
       <path d="M 0 -78 
L 1328 4659 
L 1778 4659 
L 453 -78 
L 0 -78 
z
" id="ArialMT-2f" transform="scale(0.015625)"/>
       <path d="M 422 0 
L 422 3319 
L 925 3319 
L 925 2853 
Q 1081 3097 1340 3245 
Q 1600 3394 1931 3394 
Q 2300 3394 2536 3241 
Q 2772 3088 2869 2813 
Q 3263 3394 3894 3394 
Q 4388 3394 4653 3120 
Q 4919 2847 4919 2278 
L 4919 0 
L 4359 0 
L 4359 2091 
Q 4359 2428 4304 2576 
Q 4250 2725 4106 2815 
Q 3963 2906 3769 2906 
Q 3419 2906 3187 2673 
Q 2956 2441 2956 1928 
L 2956 0 
L 2394 0 
L 2394 2156 
Q 2394 2531 2256 2718 
Q 2119 2906 1806 2906 
Q 1569 2906 1367 2781 
Q 1166 2656 1075 2415 
Q 984 2175 984 1722 
L 984 0 
L 422 0 
z
" id="ArialMT-6d" transform="scale(0.015625)"/>
       <path d="M 213 1659 
Q 213 2581 725 3025 
Q 1153 3394 1769 3394 
Q 2453 3394 2887 2945 
Q 3322 2497 3322 1706 
Q 3322 1066 3130 698 
Q 2938 331 2570 128 
Q 2203 -75 1769 -75 
Q 1072 -75 642 372 
Q 213 819 213 1659 
z
M 791 1659 
Q 791 1022 1069 705 
Q 1347 388 1769 388 
Q 2188 388 2466 706 
Q 2744 1025 2744 1678 
Q 2744 2294 2464 2611 
Q 2184 2928 1769 2928 
Q 1347 2928 1069 2612 
Q 791 2297 791 1659 
z
" id="ArialMT-6f" transform="scale(0.015625)"/>
       <path d="M 409 0 
L 409 4581 
L 972 4581 
L 972 0 
L 409 0 
z
" id="ArialMT-6c" transform="scale(0.015625)"/>
       <path d="M 1363 -1272 
L 122 -1272 
L 122 -806 
L 800 -806 
L 800 4116 
L 122 4116 
L 122 4581 
L 1363 4581 
L 1363 -1272 
z
" id="ArialMT-5d" transform="scale(0.015625)"/>
      </defs>
      <use xlink:href="#ArialMT-48"/>
      <use x="72.216797" xlink:href="#ArialMT-20"/>
      <use x="100" xlink:href="#ArialMT-5b"/>
      <use x="127.783203" xlink:href="#ArialMT-6b"/>
      <use x="177.783203" xlink:href="#ArialMT-4a"/>
      <use x="227.783203" xlink:href="#ArialMT-2f"/>
      <use x="255.566406" xlink:href="#ArialMT-6d"/>
      <use x="338.867188" xlink:href="#ArialMT-6f"/>
      <use x="394.482422" xlink:href="#ArialMT-6c"/>
      <use x="416.699219" xlink:href="#ArialMT-5d"/>
     </g>
    </g>
   </g>
   <g id="line2d_17">
    <path clip-path="url(#p4db1da1c67)" d="M 122.082078 126.784635 
L 123.261186 126.918294 
L 124.440293 127.720249 
L 125.619401 129.056841 
L 126.798508 130.79441 
L 127.977616 131.997343 
L 129.156724 130.393433 
L 130.335831 125.98268 
L 131.514939 122.106563 
L 132.694047 121.170949 
L 133.873154 123.042178 
L 135.052262 126.116339 
L 136.231369 128.254886 
L 137.410477 128.789522 
L 138.589585 128.522204 
L 140.9478 126.650976 
L 142.126908 126.517316 
L 143.306015 127.051953 
L 144.485123 127.452931 
L 145.66423 127.452931 
L 146.843338 126.918294 
L 148.022446 126.116339 
L 149.201553 125.84902 
L 150.380661 126.116339 
L 151.559769 126.249998 
L 152.738876 126.116339 
L 155.097091 126.116339 
L 156.276199 125.84902 
L 158.634414 125.581702 
L 159.813522 125.715361 
L 162.171737 125.715361 
L 163.350845 125.581702 
L 164.529952 125.314384 
L 165.70906 125.180724 
L 166.888168 125.180724 
L 168.067275 125.314384 
L 170.425491 125.314384 
L 171.604598 125.180724 
L 172.783706 125.180724 
L 175.141921 124.913406 
L 177.500136 124.913406 
L 179.858352 125.180724 
L 181.037459 125.047065 
L 182.216567 125.047065 
L 184.574782 124.779747 
L 189.291213 124.779747 
L 190.47032 124.913406 
L 194.007643 124.913406 
L 195.186751 124.779747 
L 196.365858 124.779747 
L 198.724074 124.512429 
L 199.903181 124.512429 
L 201.082289 124.646088 
L 203.440504 124.646088 
L 204.619612 124.779747 
L 210.51515 124.779747 
L 211.694257 124.646088 
L 219.948011 124.646088 
L 221.127118 124.512429 
L 223.485334 124.512429 
L 224.664441 124.646088 
L 247.067486 124.646088 
L 248.246594 124.512429 
L 252.963024 124.512429 
L 254.142132 124.646088 
L 277.724284 124.646088 
L 278.903392 124.512429 
L 285.978038 124.512429 
L 287.157145 124.779747 
L 289.515361 124.779747 
L 290.694468 124.646088 
L 294.231791 124.646088 
L 295.410899 124.512429 
L 302.485545 124.512429 
L 303.664652 124.646088 
L 307.201975 124.646088 
L 308.381083 124.913406 
L 315.455728 124.913406 
L 316.634836 124.779747 
L 317.813944 124.779747 
L 318.993051 124.646088 
L 320.172159 124.913406 
L 321.351267 124.913406 
L 322.530374 124.779747 
L 328.425912 124.779747 
L 329.60502 124.913406 
L 330.784128 125.180724 
L 331.963235 125.047065 
L 333.142343 125.047065 
L 334.32145 125.180724 
L 335.500558 125.047065 
L 340.216989 125.047065 
L 341.396096 125.180724 
L 342.575204 125.180724 
L 343.754311 124.779747 
L 346.112527 124.779747 
L 347.291634 124.913406 
L 349.64985 124.913406 
L 352.008065 125.180724 
L 353.187172 125.581702 
L 354.36628 125.448043 
L 355.545388 125.448043 
L 356.724495 125.314384 
L 357.903603 124.913406 
L 359.082711 124.646088 
L 360.261818 124.646088 
L 361.440926 125.047065 
L 363.799141 125.047065 
L 364.978249 124.913406 
L 368.515572 124.913406 
L 369.694679 125.047065 
L 370.873787 125.047065 
L 373.232002 125.314384 
L 374.41111 125.314384 
L 375.590217 125.047065 
L 380.306648 125.047065 
L 381.485755 125.180724 
L 388.560401 125.180724 
L 389.739509 125.314384 
L 390.918616 125.581702 
L 392.097724 125.715361 
L 393.276832 125.715361 
L 394.455939 125.581702 
L 395.635047 125.314384 
L 397.993262 125.047065 
L 402.709693 125.047065 
L 403.8888 125.180724 
L 405.067908 125.180724 
L 408.605231 125.581702 
L 409.784338 125.581702 
L 410.963446 125.448043 
L 412.142554 125.180724 
L 413.321661 125.314384 
L 414.500769 125.180724 
L 416.858984 125.180724 
L 418.038092 125.314384 
L 419.217199 125.314384 
L 420.396307 125.448043 
L 421.575415 125.448043 
L 422.754522 125.180724 
L 423.93363 124.779747 
L 426.291845 125.581702 
L 427.470953 125.715361 
L 428.65006 125.715361 
L 429.829168 125.581702 
L 431.008276 125.581702 
L 432.187383 125.448043 
L 433.366491 125.448043 
L 434.545599 125.581702 
L 435.724706 125.581702 
L 440.441137 125.047065 
L 441.620244 125.180724 
L 442.799352 125.448043 
L 445.157567 125.715361 
L 446.336675 125.715361 
L 447.515782 125.581702 
L 452.232213 125.581702 
L 454.590428 126.116339 
L 455.769536 126.517316 
L 456.948643 125.98268 
L 458.127751 124.646088 
L 459.306859 125.047065 
L 460.485966 126.249998 
L 461.665074 126.249998 
L 462.844182 125.98268 
L 464.023289 125.84902 
L 466.381504 125.84902 
L 468.73972 125.581702 
L 469.918827 125.314384 
L 471.097935 125.314384 
L 472.277043 125.581702 
L 474.635258 125.84902 
L 475.814365 125.715361 
L 476.993473 125.715361 
L 478.172581 125.581702 
L 480.530796 125.581702 
L 481.709904 125.84902 
L 486.426334 125.84902 
L 487.605442 125.715361 
L 489.963657 125.715361 
L 491.142765 125.448043 
L 492.321872 125.448043 
L 493.50098 125.84902 
L 494.680087 126.116339 
L 495.859195 126.249998 
L 497.038303 125.84902 
L 498.21741 125.581702 
L 499.396518 125.715361 
L 500.575626 125.715361 
L 501.754733 125.581702 
L 502.933841 125.98268 
L 505.292056 125.98268 
L 506.471164 125.84902 
L 507.650271 125.581702 
L 508.829379 125.581702 
L 510.008487 125.448043 
L 511.187594 125.448043 
L 512.366702 125.581702 
L 517.083132 125.581702 
L 519.441348 125.84902 
L 521.799563 125.84902 
L 522.97867 125.715361 
L 524.157778 125.448043 
L 525.336886 125.581702 
L 526.515993 125.581702 
L 527.695101 125.715361 
L 538.30707 125.715361 
L 540.665285 126.249998 
L 541.844392 126.116339 
L 543.0235 125.715361 
L 546.560823 126.116339 
L 548.919038 125.84902 
L 550.098146 125.84902 
L 551.277253 125.715361 
L 553.635469 125.715361 
L 555.993684 125.98268 
L 561.889222 125.98268 
L 563.06833 125.84902 
L 564.247437 125.84902 
L 565.426545 125.98268 
L 567.78476 125.98268 
L 568.963868 125.84902 
L 572.501191 125.84902 
L 573.680298 125.98268 
L 578.396729 125.98268 
L 581.934052 125.581702 
L 583.113159 125.581702 
L 586.650482 125.98268 
L 590.187805 125.98268 
L 591.366913 125.84902 
L 592.54602 125.84902 
L 593.725128 125.715361 
L 596.083343 125.715361 
L 597.262451 125.84902 
L 599.620666 125.84902 
L 600.799774 125.715361 
L 603.157989 125.715361 
L 604.337097 125.84902 
L 609.053527 125.84902 
L 610.232635 125.715361 
L 616.128173 125.715361 
L 617.30728 125.84902 
L 619.665496 125.84902 
L 620.844603 125.715361 
L 625.561034 125.715361 
L 626.740141 125.84902 
L 627.919249 125.715361 
L 629.098357 125.715361 
L 630.277464 125.581702 
L 632.63568 125.581702 
L 633.814787 125.715361 
L 634.993895 125.715361 
L 636.173002 125.84902 
L 638.531218 125.84902 
L 639.710325 125.715361 
L 653.859617 125.715361 
L 655.038724 125.84902 
L 658.576047 125.84902 
L 660.934263 125.581702 
L 662.11337 125.581702 
L 663.292478 125.715361 
L 664.471585 125.98268 
L 665.650693 126.383657 
L 666.829801 126.650976 
L 668.008908 125.98268 
L 669.188016 124.646088 
L 671.546231 126.517316 
L 672.725339 126.383657 
L 675.083554 125.84902 
L 676.262662 125.715361 
L 682.1582 125.715361 
L 683.337307 125.581702 
L 685.695523 125.581702 
L 686.87463 125.715361 
L 692.770168 125.715361 
L 693.949276 125.581702 
L 695.128384 125.715361 
L 704.561245 125.715361 
L 705.740352 125.581702 
L 709.277675 125.581702 
L 710.456783 125.715361 
L 712.814998 125.715361 
L 713.994106 125.581702 
L 717.531429 125.581702 
L 718.710536 125.715361 
L 724.606074 125.715361 
L 725.785182 125.581702 
L 726.96429 125.715361 
L 732.859828 125.715361 
L 734.038935 125.581702 
L 747.009119 125.581702 
L 748.188227 125.715361 
L 762.337518 125.715361 
L 763.516626 125.581702 
L 764.695734 125.715361 
L 769.412164 125.715361 
L 770.591272 125.581702 
L 772.949487 125.581702 
L 774.128595 125.715361 
L 775.307702 125.715361 
L 776.48681 125.84902 
L 777.665917 125.84902 
L 780.024133 125.581702 
L 782.382348 125.581702 
L 784.740563 125.84902 
L 787.098778 125.84902 
L 788.277886 125.98268 
L 789.456994 125.98268 
L 790.636101 125.84902 
L 791.815209 125.314384 
L 792.994317 125.314384 
L 794.173424 125.715361 
L 795.352532 125.98268 
L 796.531639 125.84902 
L 798.889855 125.84902 
L 800.068962 125.715361 
L 807.143608 125.715361 
L 808.322716 125.581702 
L 810.680931 125.581702 
L 811.860039 125.715361 
L 814.218254 125.715361 
L 815.397361 125.581702 
L 817.755577 125.581702 
L 818.934684 125.715361 
L 822.472007 125.715361 
L 823.651115 125.84902 
L 826.00933 125.84902 
L 827.188438 125.98268 
L 828.367545 125.98268 
L 830.725761 125.715361 
L 831.904868 125.715361 
L 833.083976 125.581702 
L 834.263083 125.581702 
L 835.442191 125.715361 
L 836.621299 125.715361 
L 837.800406 125.84902 
L 841.337729 125.84902 
L 842.516837 125.715361 
L 848.412375 125.715361 
L 849.591483 125.84902 
L 850.77059 125.84902 
L 851.949698 125.715361 
L 854.307913 125.715361 
L 855.487021 125.84902 
L 856.666128 125.84902 
L 857.845236 125.98268 
L 859.024344 125.98268 
L 860.203451 125.715361 
L 861.382559 125.314384 
L 862.561666 125.581702 
L 863.740774 125.98268 
L 864.919882 126.116339 
L 871.994527 126.116339 
L 873.173635 125.84902 
L 874.352743 125.715361 
L 875.53185 125.715361 
L 876.710958 125.84902 
L 880.248281 125.84902 
L 881.427388 125.98268 
L 889.681142 125.98268 
L 892.039357 125.715361 
L 893.218465 125.715361 
L 894.397572 125.84902 
L 895.57668 125.84902 
L 896.755788 125.98268 
L 897.934895 125.84902 
L 899.114003 125.84902 
L 900.29311 125.715361 
L 908.546864 125.715361 
L 909.725971 125.84902 
L 912.084187 125.84902 
L 913.263294 125.715361 
L 914.442402 125.715361 
L 915.62151 125.581702 
L 916.800617 125.715361 
L 919.158832 125.715361 
L 920.33794 125.84902 
L 922.696155 125.84902 
L 923.875263 125.715361 
L 930.949909 125.715361 
L 932.129016 125.84902 
L 933.308124 125.84902 
L 934.487232 125.98268 
L 936.845447 125.98268 
L 938.024554 126.116339 
L 939.203662 125.98268 
L 940.38277 125.581702 
L 941.561877 125.448043 
L 942.740985 125.98268 
L 943.920093 126.249998 
L 946.278308 125.448043 
L 949.815631 126.249998 
L 950.994738 126.249998 
L 952.173846 126.116339 
L 953.352954 126.116339 
L 955.711169 125.84902 
L 958.069384 125.84902 
L 959.248492 125.98268 
L 960.427599 125.84902 
L 961.606707 125.98268 
L 962.785815 125.98268 
L 963.964922 125.84902 
L 965.14403 125.84902 
L 966.323137 125.98268 
L 967.502245 125.98268 
L 968.681353 126.116339 
L 969.86046 125.98268 
L 972.218676 125.98268 
L 973.397783 125.84902 
L 976.935106 125.84902 
L 979.293321 125.581702 
L 980.472429 125.581702 
L 981.651537 125.84902 
L 982.830644 125.98268 
L 988.726182 125.98268 
L 989.90529 125.715361 
L 993.442613 125.715361 
L 994.62172 125.84902 
L 998.159043 125.84902 
L 1001.696366 125.448043 
L 1005.233689 125.84902 
L 1011.129227 125.84902 
L 1012.308335 125.715361 
L 1015.845658 125.715361 
L 1017.024765 125.84902 
L 1018.203873 125.84902 
L 1020.562088 126.116339 
L 1021.741196 126.116339 
L 1024.099411 125.581702 
L 1026.457626 125.581702 
L 1027.636734 125.84902 
L 1028.815842 125.98268 
L 1029.994949 125.98268 
L 1031.174057 125.84902 
L 1033.532272 125.84902 
L 1034.71138 125.715361 
L 1035.890487 125.84902 
L 1042.965133 125.84902 
L 1044.144241 126.116339 
L 1045.323348 126.249998 
L 1046.502456 126.116339 
L 1050.039779 126.116339 
L 1053.577102 125.715361 
L 1055.935317 125.715361 
L 1057.114425 125.98268 
L 1058.293532 126.116339 
L 1066.547286 126.116339 
L 1067.726393 125.84902 
L 1071.263716 125.84902 
L 1072.442824 125.98268 
L 1078.338362 125.98268 
L 1079.517469 126.249998 
L 1084.2339 126.249998 
L 1085.413008 126.116339 
L 1091.308546 126.116339 
L 1092.487653 126.249998 
L 1094.845869 126.249998 
L 1097.204084 125.98268 
L 1098.383191 126.116339 
L 1100.741407 126.650976 
L 1101.920514 126.650976 
L 1104.27873 126.116339 
L 1106.636945 126.116339 
L 1107.816052 126.249998 
L 1110.174268 126.249998 
L 1111.353375 126.116339 
L 1114.890698 126.116339 
L 1117.248913 125.84902 
L 1118.428021 125.84902 
L 1119.607129 126.116339 
L 1123.144452 126.116339 
L 1124.323559 126.249998 
L 1127.860882 126.249998 
L 1129.03999 126.116339 
L 1131.398205 126.116339 
L 1132.577313 125.98268 
L 1154.980357 125.98268 
L 1156.159465 126.116339 
L 1159.696788 126.116339 
L 1162.055003 125.84902 
L 1167.950541 125.84902 
L 1169.129649 125.98268 
L 1172.666972 125.98268 
L 1173.846079 126.116339 
L 1175.025187 126.116339 
L 1176.204295 125.98268 
L 1177.383402 125.98268 
L 1178.56251 126.116339 
L 1183.27894 126.116339 
L 1185.637156 125.84902 
L 1186.816263 125.98268 
L 1190.353586 125.98268 
L 1192.711801 126.249998 
L 1195.070017 126.249998 
L 1196.249124 126.116339 
L 1197.428232 125.84902 
L 1199.786447 125.84902 
L 1202.144662 126.116339 
L 1203.32377 125.98268 
L 1206.861093 125.98268 
L 1208.040201 126.116339 
L 1209.219308 126.116339 
L 1210.398416 126.249998 
L 1213.935739 126.249998 
L 1215.114846 126.116339 
L 1216.293954 125.715361 
L 1217.473062 125.715361 
L 1218.652169 125.84902 
L 1221.010384 126.383657 
L 1223.3686 126.383657 
L 1225.726815 126.116339 
L 1226.905923 126.116339 
L 1228.08503 125.98268 
L 1242.234322 125.98268 
L 1243.413429 125.84902 
L 1248.12986 125.84902 
L 1249.308967 125.98268 
L 1254.025398 125.98268 
L 1255.204506 126.116339 
L 1257.562721 125.84902 
L 1258.741828 125.84902 
L 1259.920936 125.715361 
L 1261.100044 125.715361 
L 1262.279151 125.84902 
L 1264.637367 125.84902 
L 1265.816474 125.715361 
L 1278.786658 125.715361 
L 1279.965766 125.84902 
L 1281.144873 125.84902 
L 1282.323981 125.98268 
L 1283.503089 125.84902 
L 1287.040411 125.84902 
L 1288.219519 125.715361 
L 1297.65238 125.715361 
L 1298.831488 125.84902 
L 1302.368811 125.84902 
L 1303.547918 125.581702 
L 1304.727026 125.715361 
L 1307.085241 125.715361 
L 1309.443456 125.98268 
L 1310.622564 125.98268 
L 1311.801672 125.84902 
L 1312.980779 125.581702 
L 1312.980779 125.581702 
" style="fill:none;stroke:#4c72b0;stroke-linecap:round;stroke-width:1.5;"/>
   </g>
   <g id="patch_3">
    <path d="M 62.537143 208.717714 
L 62.537143 21.594857 
" style="fill:none;stroke:#ffffff;stroke-linecap:square;stroke-linejoin:miter;stroke-width:1.25;"/>
   </g>
   <g id="patch_4">
    <path d="M 1372.525714 208.717714 
L 1372.525714 21.594857 
" style="fill:none;stroke:#ffffff;stroke-linecap:square;stroke-linejoin:miter;stroke-width:1.25;"/>
   </g>
   <g id="patch_5">
    <path d="M 62.537143 208.717714 
L 1372.525714 208.717714 
" style="fill:none;stroke:#ffffff;stroke-linecap:square;stroke-linejoin:miter;stroke-width:1.25;"/>
   </g>
   <g id="patch_6">
    <path d="M 62.537143 21.594857 
L 1372.525714 21.594857 
" style="fill:none;stroke:#ffffff;stroke-linecap:square;stroke-linejoin:miter;stroke-width:1.25;"/>
   </g>
   <g id="text_18">
    <!-- Wykresy dla n = 6 i T = 1000K -->
    <g style="fill:#262626;" transform="translate(637.426741 15.594857)scale(0.12 -0.12)">
     <defs>
      <path d="M 1294 0 
L 78 4581 
L 700 4581 
L 1397 1578 
Q 1509 1106 1591 641 
Q 1766 1375 1797 1488 
L 2669 4581 
L 3400 4581 
L 4056 2263 
Q 4303 1400 4413 641 
Q 4500 1075 4641 1638 
L 5359 4581 
L 5969 4581 
L 4713 0 
L 4128 0 
L 3163 3491 
Q 3041 3928 3019 4028 
Q 2947 3713 2884 3491 
L 1913 0 
L 1294 0 
z
" id="ArialMT-57" transform="scale(0.015625)"/>
      <path d="M 397 -1278 
L 334 -750 
Q 519 -800 656 -800 
Q 844 -800 956 -737 
Q 1069 -675 1141 -563 
Q 1194 -478 1313 -144 
Q 1328 -97 1363 -6 
L 103 3319 
L 709 3319 
L 1400 1397 
Q 1534 1031 1641 628 
Q 1738 1016 1872 1384 
L 2581 3319 
L 3144 3319 
L 1881 -56 
Q 1678 -603 1566 -809 
Q 1416 -1088 1222 -1217 
Q 1028 -1347 759 -1347 
Q 597 -1347 397 -1278 
z
" id="ArialMT-79" transform="scale(0.015625)"/>
      <path d="M 416 0 
L 416 3319 
L 922 3319 
L 922 2816 
Q 1116 3169 1280 3281 
Q 1444 3394 1641 3394 
Q 1925 3394 2219 3213 
L 2025 2691 
Q 1819 2813 1613 2813 
Q 1428 2813 1281 2702 
Q 1134 2591 1072 2394 
Q 978 2094 978 1738 
L 978 0 
L 416 0 
z
" id="ArialMT-72" transform="scale(0.015625)"/>
      <path d="M 2694 1069 
L 3275 997 
Q 3138 488 2766 206 
Q 2394 -75 1816 -75 
Q 1088 -75 661 373 
Q 234 822 234 1631 
Q 234 2469 665 2931 
Q 1097 3394 1784 3394 
Q 2450 3394 2872 2941 
Q 3294 2488 3294 1666 
Q 3294 1616 3291 1516 
L 816 1516 
Q 847 969 1125 678 
Q 1403 388 1819 388 
Q 2128 388 2347 550 
Q 2566 713 2694 1069 
z
M 847 1978 
L 2700 1978 
Q 2663 2397 2488 2606 
Q 2219 2931 1791 2931 
Q 1403 2931 1139 2672 
Q 875 2413 847 1978 
z
" id="ArialMT-65" transform="scale(0.015625)"/>
      <path d="M 197 991 
L 753 1078 
Q 800 744 1014 566 
Q 1228 388 1613 388 
Q 2000 388 2187 545 
Q 2375 703 2375 916 
Q 2375 1106 2209 1216 
Q 2094 1291 1634 1406 
Q 1016 1563 777 1677 
Q 538 1791 414 1992 
Q 291 2194 291 2438 
Q 291 2659 392 2848 
Q 494 3038 669 3163 
Q 800 3259 1026 3326 
Q 1253 3394 1513 3394 
Q 1903 3394 2198 3281 
Q 2494 3169 2634 2976 
Q 2775 2784 2828 2463 
L 2278 2388 
Q 2241 2644 2061 2787 
Q 1881 2931 1553 2931 
Q 1166 2931 1000 2803 
Q 834 2675 834 2503 
Q 834 2394 903 2306 
Q 972 2216 1119 2156 
Q 1203 2125 1616 2013 
Q 2213 1853 2448 1751 
Q 2684 1650 2818 1456 
Q 2953 1263 2953 975 
Q 2953 694 2789 445 
Q 2625 197 2315 61 
Q 2006 -75 1616 -75 
Q 969 -75 630 194 
Q 291 463 197 991 
z
" id="ArialMT-73" transform="scale(0.015625)"/>
      <path d="M 2575 0 
L 2575 419 
Q 2259 -75 1647 -75 
Q 1250 -75 917 144 
Q 584 363 401 755 
Q 219 1147 219 1656 
Q 219 2153 384 2558 
Q 550 2963 881 3178 
Q 1213 3394 1622 3394 
Q 1922 3394 2156 3267 
Q 2391 3141 2538 2938 
L 2538 4581 
L 3097 4581 
L 3097 0 
L 2575 0 
z
M 797 1656 
Q 797 1019 1065 703 
Q 1334 388 1700 388 
Q 2069 388 2326 689 
Q 2584 991 2584 1609 
Q 2584 2291 2321 2609 
Q 2059 2928 1675 2928 
Q 1300 2928 1048 2622 
Q 797 2316 797 1656 
z
" id="ArialMT-64" transform="scale(0.015625)"/>
      <path d="M 2588 409 
Q 2275 144 1986 34 
Q 1697 -75 1366 -75 
Q 819 -75 525 192 
Q 231 459 231 875 
Q 231 1119 342 1320 
Q 453 1522 633 1644 
Q 813 1766 1038 1828 
Q 1203 1872 1538 1913 
Q 2219 1994 2541 2106 
Q 2544 2222 2544 2253 
Q 2544 2597 2384 2738 
Q 2169 2928 1744 2928 
Q 1347 2928 1158 2789 
Q 969 2650 878 2297 
L 328 2372 
Q 403 2725 575 2942 
Q 747 3159 1072 3276 
Q 1397 3394 1825 3394 
Q 2250 3394 2515 3294 
Q 2781 3194 2906 3042 
Q 3031 2891 3081 2659 
Q 3109 2516 3109 2141 
L 3109 1391 
Q 3109 606 3145 398 
Q 3181 191 3288 0 
L 2700 0 
Q 2613 175 2588 409 
z
M 2541 1666 
Q 2234 1541 1622 1453 
Q 1275 1403 1131 1340 
Q 988 1278 909 1158 
Q 831 1038 831 891 
Q 831 666 1001 516 
Q 1172 366 1500 366 
Q 1825 366 2078 508 
Q 2331 650 2450 897 
Q 2541 1088 2541 1459 
L 2541 1666 
z
" id="ArialMT-61" transform="scale(0.015625)"/>
      <path d="M 422 0 
L 422 3319 
L 928 3319 
L 928 2847 
Q 1294 3394 1984 3394 
Q 2284 3394 2536 3286 
Q 2788 3178 2913 3003 
Q 3038 2828 3088 2588 
Q 3119 2431 3119 2041 
L 3119 0 
L 2556 0 
L 2556 2019 
Q 2556 2363 2490 2533 
Q 2425 2703 2258 2804 
Q 2091 2906 1866 2906 
Q 1506 2906 1245 2678 
Q 984 2450 984 1813 
L 984 0 
L 422 0 
z
" id="ArialMT-6e" transform="scale(0.015625)"/>
      <path d="M 3381 2694 
L 356 2694 
L 356 3219 
L 3381 3219 
L 3381 2694 
z
M 3381 1303 
L 356 1303 
L 356 1828 
L 3381 1828 
L 3381 1303 
z
" id="ArialMT-3d" transform="scale(0.015625)"/>
      <path d="M 425 3934 
L 425 4581 
L 988 4581 
L 988 3934 
L 425 3934 
z
M 425 0 
L 425 3319 
L 988 3319 
L 988 0 
L 425 0 
z
" id="ArialMT-69" transform="scale(0.015625)"/>
      <path d="M 1659 0 
L 1659 4041 
L 150 4041 
L 150 4581 
L 3781 4581 
L 3781 4041 
L 2266 4041 
L 2266 0 
L 1659 0 
z
" id="ArialMT-54" transform="scale(0.015625)"/>
      <path d="M 469 0 
L 469 4581 
L 1075 4581 
L 1075 2309 
L 3350 4581 
L 4172 4581 
L 2250 2725 
L 4256 0 
L 3456 0 
L 1825 2319 
L 1075 1588 
L 1075 0 
L 469 0 
z
" id="ArialMT-4b" transform="scale(0.015625)"/>
     </defs>
     <use xlink:href="#ArialMT-57"/>
     <use x="93.509766" xlink:href="#ArialMT-79"/>
     <use x="143.509766" xlink:href="#ArialMT-6b"/>
     <use x="193.509766" xlink:href="#ArialMT-72"/>
     <use x="226.810547" xlink:href="#ArialMT-65"/>
     <use x="282.425781" xlink:href="#ArialMT-73"/>
     <use x="332.425781" xlink:href="#ArialMT-79"/>
     <use x="382.425781" xlink:href="#ArialMT-20"/>
     <use x="410.208984" xlink:href="#ArialMT-64"/>
     <use x="465.824219" xlink:href="#ArialMT-6c"/>
     <use x="488.041016" xlink:href="#ArialMT-61"/>
     <use x="543.65625" xlink:href="#ArialMT-20"/>
     <use x="571.439453" xlink:href="#ArialMT-6e"/>
     <use x="627.054688" xlink:href="#ArialMT-20"/>
     <use x="654.837891" xlink:href="#ArialMT-3d"/>
     <use x="713.236328" xlink:href="#ArialMT-20"/>
     <use x="741.019531" xlink:href="#ArialMT-36"/>
     <use x="796.634766" xlink:href="#ArialMT-20"/>
     <use x="824.417969" xlink:href="#ArialMT-69"/>
     <use x="846.634766" xlink:href="#ArialMT-20"/>
     <use x="872.667969" xlink:href="#ArialMT-54"/>
     <use x="932.001953" xlink:href="#ArialMT-20"/>
     <use x="959.785156" xlink:href="#ArialMT-3d"/>
     <use x="1018.183594" xlink:href="#ArialMT-20"/>
     <use x="1045.966797" xlink:href="#ArialMT-31"/>
     <use x="1101.582031" xlink:href="#ArialMT-30"/>
     <use x="1157.197266" xlink:href="#ArialMT-30"/>
     <use x="1212.8125" xlink:href="#ArialMT-30"/>
     <use x="1268.427734" xlink:href="#ArialMT-4b"/>
    </g>
   </g>
  </g>
  <g id="axes_2">
   <g id="patch_7">
    <path d="M 62.537143 433.265143 
L 1372.525714 433.265143 
L 1372.525714 246.142286 
L 62.537143 246.142286 
z
" style="fill:#eaeaf2;"/>
   </g>
   <g id="matplotlib.axis_3">
    <g id="xtick_12">
     <g id="line2d_18">
      <path clip-path="url(#p4be310cd61)" d="M 122.082078 433.265143 
L 122.082078 246.142286 
" style="fill:none;stroke:#ffffff;stroke-linecap:round;"/>
     </g>
     <g id="text_19">
      <!-- 0 -->
      <g style="fill:#262626;" transform="translate(119.023562 450.638737)scale(0.11 -0.11)">
       <use xlink:href="#ArialMT-30"/>
      </g>
     </g>
    </g>
    <g id="xtick_13">
     <g id="line2d_19">
      <path clip-path="url(#p4be310cd61)" d="M 239.99284 433.265143 
L 239.99284 246.142286 
" style="fill:none;stroke:#ffffff;stroke-linecap:round;"/>
     </g>
     <g id="text_20">
      <!-- 1 -->
      <g style="fill:#262626;" transform="translate(236.934325 450.638737)scale(0.11 -0.11)">
       <use xlink:href="#ArialMT-31"/>
      </g>
     </g>
    </g>
    <g id="xtick_14">
     <g id="line2d_20">
      <path clip-path="url(#p4be310cd61)" d="M 357.903603 433.265143 
L 357.903603 246.142286 
" style="fill:none;stroke:#ffffff;stroke-linecap:round;"/>
     </g>
     <g id="text_21">
      <!-- 2 -->
      <g style="fill:#262626;" transform="translate(354.845087 450.638737)scale(0.11 -0.11)">
       <use xlink:href="#ArialMT-32"/>
      </g>
     </g>
    </g>
    <g id="xtick_15">
     <g id="line2d_21">
      <path clip-path="url(#p4be310cd61)" d="M 475.814365 433.265143 
L 475.814365 246.142286 
" style="fill:none;stroke:#ffffff;stroke-linecap:round;"/>
     </g>
     <g id="text_22">
      <!-- 3 -->
      <g style="fill:#262626;" transform="translate(472.75585 450.638737)scale(0.11 -0.11)">
       <use xlink:href="#ArialMT-33"/>
      </g>
     </g>
    </g>
    <g id="xtick_16">
     <g id="line2d_22">
      <path clip-path="url(#p4be310cd61)" d="M 593.725128 433.265143 
L 593.725128 246.142286 
" style="fill:none;stroke:#ffffff;stroke-linecap:round;"/>
     </g>
     <g id="text_23">
      <!-- 4 -->
      <g style="fill:#262626;" transform="translate(590.666612 450.638737)scale(0.11 -0.11)">
       <use xlink:href="#ArialMT-34"/>
      </g>
     </g>
    </g>
    <g id="xtick_17">
     <g id="line2d_23">
      <path clip-path="url(#p4be310cd61)" d="M 711.63589 433.265143 
L 711.63589 246.142286 
" style="fill:none;stroke:#ffffff;stroke-linecap:round;"/>
     </g>
     <g id="text_24">
      <!-- 5 -->
      <g style="fill:#262626;" transform="translate(708.577375 450.638737)scale(0.11 -0.11)">
       <use xlink:href="#ArialMT-35"/>
      </g>
     </g>
    </g>
    <g id="xtick_18">
     <g id="line2d_24">
      <path clip-path="url(#p4be310cd61)" d="M 829.546653 433.265143 
L 829.546653 246.142286 
" style="fill:none;stroke:#ffffff;stroke-linecap:round;"/>
     </g>
     <g id="text_25">
      <!-- 6 -->
      <g style="fill:#262626;" transform="translate(826.488137 450.638737)scale(0.11 -0.11)">
       <use xlink:href="#ArialMT-36"/>
      </g>
     </g>
    </g>
    <g id="xtick_19">
     <g id="line2d_25">
      <path clip-path="url(#p4be310cd61)" d="M 947.457415 433.265143 
L 947.457415 246.142286 
" style="fill:none;stroke:#ffffff;stroke-linecap:round;"/>
     </g>
     <g id="text_26">
      <!-- 7 -->
      <g style="fill:#262626;" transform="translate(944.3989 450.638737)scale(0.11 -0.11)">
       <use xlink:href="#ArialMT-37"/>
      </g>
     </g>
    </g>
    <g id="xtick_20">
     <g id="line2d_26">
      <path clip-path="url(#p4be310cd61)" d="M 1065.368178 433.265143 
L 1065.368178 246.142286 
" style="fill:none;stroke:#ffffff;stroke-linecap:round;"/>
     </g>
     <g id="text_27">
      <!-- 8 -->
      <g style="fill:#262626;" transform="translate(1062.309662 450.638737)scale(0.11 -0.11)">
       <use xlink:href="#ArialMT-38"/>
      </g>
     </g>
    </g>
    <g id="xtick_21">
     <g id="line2d_27">
      <path clip-path="url(#p4be310cd61)" d="M 1183.27894 433.265143 
L 1183.27894 246.142286 
" style="fill:none;stroke:#ffffff;stroke-linecap:round;"/>
     </g>
     <g id="text_28">
      <!-- 9 -->
      <g style="fill:#262626;" transform="translate(1180.220425 450.638737)scale(0.11 -0.11)">
       <use xlink:href="#ArialMT-39"/>
      </g>
     </g>
    </g>
    <g id="xtick_22">
     <g id="line2d_28">
      <path clip-path="url(#p4be310cd61)" d="M 1301.189703 433.265143 
L 1301.189703 246.142286 
" style="fill:none;stroke:#ffffff;stroke-linecap:round;"/>
     </g>
     <g id="text_29">
      <!-- 10 -->
      <g style="fill:#262626;" transform="translate(1295.072672 450.638737)scale(0.11 -0.11)">
       <use xlink:href="#ArialMT-31"/>
       <use x="55.615234" xlink:href="#ArialMT-30"/>
      </g>
     </g>
    </g>
   </g>
   <g id="matplotlib.axis_4">
    <g id="ytick_6">
     <g id="line2d_29">
      <path clip-path="url(#p4be310cd61)" d="M 62.537143 431.299441 
L 1372.525714 431.299441 
" style="fill:none;stroke:#ffffff;stroke-linecap:round;"/>
     </g>
     <g id="text_30">
      <!-- 500 -->
      <g style="fill:#262626;" transform="translate(34.686049 435.236238)scale(0.11 -0.11)">
       <use xlink:href="#ArialMT-35"/>
       <use x="55.615234" xlink:href="#ArialMT-30"/>
       <use x="111.230469" xlink:href="#ArialMT-30"/>
      </g>
     </g>
    </g>
    <g id="ytick_7">
     <g id="line2d_30">
      <path clip-path="url(#p4be310cd61)" d="M 62.537143 393.928683 
L 1372.525714 393.928683 
" style="fill:none;stroke:#ffffff;stroke-linecap:round;"/>
     </g>
     <g id="text_31">
      <!-- 600 -->
      <g style="fill:#262626;" transform="translate(34.686049 397.86548)scale(0.11 -0.11)">
       <use xlink:href="#ArialMT-36"/>
       <use x="55.615234" xlink:href="#ArialMT-30"/>
       <use x="111.230469" xlink:href="#ArialMT-30"/>
      </g>
     </g>
    </g>
    <g id="ytick_8">
     <g id="line2d_31">
      <path clip-path="url(#p4be310cd61)" d="M 62.537143 356.557926 
L 1372.525714 356.557926 
" style="fill:none;stroke:#ffffff;stroke-linecap:round;"/>
     </g>
     <g id="text_32">
      <!-- 700 -->
      <g style="fill:#262626;" transform="translate(34.686049 360.494723)scale(0.11 -0.11)">
       <use xlink:href="#ArialMT-37"/>
       <use x="55.615234" xlink:href="#ArialMT-30"/>
       <use x="111.230469" xlink:href="#ArialMT-30"/>
      </g>
     </g>
    </g>
    <g id="ytick_9">
     <g id="line2d_32">
      <path clip-path="url(#p4be310cd61)" d="M 62.537143 319.187168 
L 1372.525714 319.187168 
" style="fill:none;stroke:#ffffff;stroke-linecap:round;"/>
     </g>
     <g id="text_33">
      <!-- 800 -->
      <g style="fill:#262626;" transform="translate(34.686049 323.123965)scale(0.11 -0.11)">
       <use xlink:href="#ArialMT-38"/>
       <use x="55.615234" xlink:href="#ArialMT-30"/>
       <use x="111.230469" xlink:href="#ArialMT-30"/>
      </g>
     </g>
    </g>
    <g id="ytick_10">
     <g id="line2d_33">
      <path clip-path="url(#p4be310cd61)" d="M 62.537143 281.816411 
L 1372.525714 281.816411 
" style="fill:none;stroke:#ffffff;stroke-linecap:round;"/>
     </g>
     <g id="text_34">
      <!-- 900 -->
      <g style="fill:#262626;" transform="translate(34.686049 285.753208)scale(0.11 -0.11)">
       <use xlink:href="#ArialMT-39"/>
       <use x="55.615234" xlink:href="#ArialMT-30"/>
       <use x="111.230469" xlink:href="#ArialMT-30"/>
      </g>
     </g>
    </g>
    <g id="text_35">
     <!-- T [K] -->
     <g style="fill:#262626;" transform="translate(28.301049 352.266214)rotate(-90)scale(0.12 -0.12)">
      <use xlink:href="#ArialMT-54"/>
      <use x="59.333984" xlink:href="#ArialMT-20"/>
      <use x="87.117188" xlink:href="#ArialMT-5b"/>
      <use x="114.900391" xlink:href="#ArialMT-4b"/>
      <use x="181.599609" xlink:href="#ArialMT-5d"/>
     </g>
    </g>
   </g>
   <g id="line2d_34">
    <path clip-path="url(#p4be310cd61)" d="M 122.082078 254.64787 
L 123.261186 255.955847 
L 124.440293 260.328225 
L 125.619401 268.624533 
L 126.798508 282.376972 
L 127.977616 303.341967 
L 129.156724 331.743743 
L 130.335831 363.508887 
L 131.514939 390.826911 
L 132.694047 407.307415 
L 133.873154 411.306086 
L 135.052262 406.186292 
L 137.410477 388.622036 
L 138.589585 382.044783 
L 139.768692 377.560292 
L 142.126908 370.758814 
L 143.306015 367.13385 
L 144.485123 364.14419 
L 145.66423 362.574618 
L 146.843338 362.350393 
L 148.022446 362.68673 
L 149.201553 362.425135 
L 150.380661 361.042417 
L 151.559769 359.061767 
L 155.097091 352.447143 
L 157.455307 349.158516 
L 159.813522 346.206226 
L 160.99263 345.047733 
L 162.171737 344.262947 
L 163.350845 343.851868 
L 165.70906 343.366049 
L 169.246383 342.058072 
L 170.425491 341.98333 
L 171.604598 342.207555 
L 172.783706 342.656004 
L 175.141921 343.92661 
L 176.321029 344.337688 
L 179.858352 345.159845 
L 181.037459 345.832519 
L 182.216567 346.766787 
L 185.75389 350.167526 
L 188.112105 351.84921 
L 192.828535 354.652017 
L 194.007643 355.661028 
L 198.724074 360.295002 
L 199.903181 361.005046 
L 201.082289 361.378754 
L 202.261396 361.565607 
L 205.798719 361.67772 
L 206.977827 361.827203 
L 208.156935 362.088798 
L 209.336042 362.499876 
L 210.51515 363.060438 
L 212.873365 364.555268 
L 215.23158 366.423806 
L 221.127118 371.5436 
L 222.306226 372.403127 
L 224.664441 373.711104 
L 228.201764 375.617012 
L 235.27641 379.765166 
L 237.634625 380.774177 
L 241.171948 381.820558 
L 244.709271 382.792198 
L 247.067486 383.689096 
L 249.425701 384.735477 
L 251.783917 385.557634 
L 255.32124 386.454532 
L 263.574993 388.173587 
L 268.291423 389.182597 
L 271.828746 390.079495 
L 277.724284 391.873292 
L 283.619823 393.629717 
L 288.336253 394.862952 
L 289.515361 395.386143 
L 291.873576 396.843603 
L 295.410899 399.235331 
L 297.769114 400.393825 
L 298.948222 400.730161 
L 300.127329 400.879644 
L 301.306437 400.879644 
L 302.485545 400.730161 
L 308.381083 399.19796 
L 309.56019 399.19796 
L 311.918406 399.908005 
L 313.097513 400.580678 
L 314.276621 401.514947 
L 315.455728 402.598699 
L 318.993051 406.522629 
L 321.351267 408.652762 
L 322.530374 409.587031 
L 323.709482 410.334446 
L 324.888589 410.895007 
L 326.067697 411.156603 
L 327.246805 411.193973 
L 328.425912 410.969749 
L 331.963235 409.811255 
L 334.32145 409.362806 
L 340.216989 408.914357 
L 342.575204 408.764874 
L 343.754311 408.802245 
L 344.933419 408.690133 
L 346.112527 408.391167 
L 347.291634 407.942718 
L 349.64985 406.56 
L 350.828957 405.812584 
L 352.008065 405.214652 
L 353.187172 404.990428 
L 354.36628 405.476248 
L 355.545388 406.634741 
L 356.724495 408.391167 
L 357.903603 410.446558 
L 359.082711 412.277725 
L 360.261818 413.398848 
L 361.440926 413.847297 
L 363.799141 414.108893 
L 364.978249 414.034151 
L 366.157356 413.772556 
L 367.336464 413.286736 
L 368.515572 412.576691 
L 370.873787 410.782895 
L 372.052894 409.848626 
L 373.232002 409.101211 
L 374.41111 408.652762 
L 375.590217 408.465908 
L 377.948433 408.391167 
L 382.664863 407.980088 
L 383.843971 408.129571 
L 386.202186 408.802245 
L 388.560401 409.512289 
L 390.918616 409.811255 
L 392.097724 410.334446 
L 393.276832 411.306086 
L 394.455939 412.688804 
L 396.814155 415.753206 
L 397.993262 416.94907 
L 399.17237 417.696485 
L 400.351477 417.958081 
L 401.530585 417.696485 
L 402.709693 416.94907 
L 403.8888 415.865318 
L 406.247016 413.062511 
L 407.426123 411.642423 
L 408.605231 410.483929 
L 409.784338 409.624402 
L 410.963446 409.138582 
L 412.142554 408.951728 
L 413.321661 408.951728 
L 414.500769 409.138582 
L 416.858984 409.923368 
L 419.217199 411.04449 
L 420.396307 411.791906 
L 422.754522 413.99678 
L 423.93363 414.706825 
L 425.112738 414.370488 
L 426.291845 413.398848 
L 427.470953 412.614062 
L 428.65006 412.240355 
L 429.829168 412.389838 
L 431.008276 412.800916 
L 433.366491 414.146263 
L 434.545599 415.080532 
L 435.724706 416.201655 
L 438.082921 418.780237 
L 439.262029 419.826618 
L 440.441137 420.237697 
L 441.620244 419.90136 
L 442.799352 419.004462 
L 445.157567 416.94907 
L 446.336675 416.239026 
L 447.515782 415.678464 
L 448.69489 415.304757 
L 449.873998 415.080532 
L 452.232213 415.080532 
L 453.411321 415.304757 
L 454.590428 415.865318 
L 455.769536 417.098553 
L 458.127751 421.246707 
L 459.306859 421.022483 
L 461.665074 417.322778 
L 462.844182 416.164284 
L 464.023289 415.491611 
L 465.202397 415.230015 
L 466.381504 415.379498 
L 467.560612 415.902689 
L 468.73972 416.612733 
L 469.918827 417.135924 
L 471.097935 417.098553 
L 474.635258 415.603723 
L 475.814365 415.491611 
L 478.172581 415.603723 
L 479.351688 415.45424 
L 480.530796 415.043161 
L 482.889011 413.922039 
L 484.068119 413.623073 
L 485.247226 413.585702 
L 486.426334 413.735185 
L 487.605442 414.071522 
L 491.142765 415.45424 
L 492.321872 415.45424 
L 494.680087 414.706825 
L 495.859195 414.781566 
L 497.038303 415.416869 
L 498.21741 416.201655 
L 499.396518 416.687475 
L 500.575626 416.836958 
L 501.754733 416.650104 
L 504.112948 416.014801 
L 505.292056 416.126913 
L 506.471164 416.575363 
L 508.829379 417.845968 
L 510.008487 418.294417 
L 511.187594 418.481271 
L 512.366702 418.4439 
L 514.724917 417.958081 
L 519.441348 416.388509 
L 520.620455 416.388509 
L 521.799563 416.762216 
L 524.157778 417.995451 
L 525.336886 418.40653 
L 526.515993 418.593383 
L 528.874209 418.593383 
L 531.232424 418.518642 
L 532.411531 418.4439 
L 535.948854 417.995451 
L 537.127962 417.92071 
L 540.665285 417.43489 
L 541.844392 417.92071 
L 543.0235 418.556013 
L 544.202608 418.780237 
L 546.560823 418.630754 
L 547.739931 418.742866 
L 551.277253 419.340799 
L 552.456361 419.266057 
L 553.635469 418.854979 
L 557.172792 416.836958 
L 558.351899 416.388509 
L 559.531007 416.089543 
L 560.710114 415.94006 
L 561.889222 415.94006 
L 564.247437 416.201655 
L 566.605653 416.313767 
L 568.963868 416.575363 
L 570.142975 416.537992 
L 573.680298 415.865318 
L 574.859406 415.827947 
L 576.038514 416.014801 
L 577.217621 416.388509 
L 579.575836 417.584373 
L 580.754944 418.219676 
L 581.934052 418.630754 
L 583.113159 418.705496 
L 584.292267 418.369159 
L 586.650482 417.210665 
L 587.82959 416.799587 
L 589.008697 416.575363 
L 590.187805 416.537992 
L 591.366913 416.687475 
L 593.725128 417.135924 
L 594.904236 417.210665 
L 598.441558 416.724846 
L 600.799774 416.799587 
L 601.978881 416.836958 
L 604.337097 416.537992 
L 605.516204 416.351138 
L 606.695312 416.313767 
L 607.874419 416.500621 
L 610.232635 417.248036 
L 612.59085 417.958081 
L 613.769958 418.144934 
L 614.949065 418.107564 
L 617.30728 417.621744 
L 619.665496 417.173295 
L 622.023711 417.135924 
L 625.561034 417.322778 
L 627.919249 417.696485 
L 630.277464 418.331788 
L 631.456572 418.4439 
L 632.63568 418.219676 
L 634.993895 417.210665 
L 636.173002 416.724846 
L 637.35211 416.42588 
L 638.531218 416.351138 
L 640.889433 416.650104 
L 645.605863 417.659115 
L 649.143186 418.780237 
L 651.501402 419.079203 
L 653.859617 419.191316 
L 656.217832 419.490282 
L 658.576047 420.162955 
L 659.755155 420.574034 
L 660.934263 420.798258 
L 662.11337 420.686146 
L 664.471585 419.826618 
L 665.650693 419.714506 
L 666.829801 420.38718 
L 668.008908 421.956752 
L 669.188016 423.003133 
L 670.367124 421.807269 
L 671.546231 419.602394 
L 672.725339 417.995451 
L 673.904446 417.173295 
L 675.083554 416.836958 
L 677.441769 416.650104 
L 679.799985 416.762216 
L 682.1582 416.94907 
L 684.516415 416.874329 
L 686.87463 416.351138 
L 691.591061 415.080532 
L 697.486599 413.884668 
L 698.665707 413.772556 
L 701.023922 413.922039 
L 703.382137 414.4826 
L 705.740352 415.45424 
L 708.098568 416.388509 
L 710.456783 416.874329 
L 715.173213 417.509631 
L 716.352321 417.509631 
L 718.710536 417.210665 
L 722.247859 416.612733 
L 726.96429 416.239026 
L 729.322505 416.089543 
L 731.68072 416.313767 
L 734.038935 416.911699 
L 736.397151 417.509631 
L 738.755366 417.808598 
L 742.292689 418.070193 
L 744.650904 417.958081 
L 749.367334 417.135924 
L 754.083765 416.612733 
L 755.262873 416.537992 
L 756.44198 416.575363 
L 757.621088 416.724846 
L 759.979303 417.360148 
L 767.053949 420.162955 
L 770.591272 421.059853 
L 771.770379 421.134595 
L 772.949487 420.947741 
L 774.128595 420.536663 
L 776.48681 419.452911 
L 778.845025 418.742866 
L 780.024133 418.40653 
L 781.20324 417.883339 
L 782.382348 417.173295 
L 784.740563 415.528981 
L 785.919671 414.931049 
L 787.098778 414.669454 
L 788.277886 414.744195 
L 789.456994 415.192645 
L 790.636101 416.052172 
L 791.815209 416.762216 
L 792.994317 416.724846 
L 796.531639 414.258376 
L 797.710747 413.884668 
L 798.889855 413.735185 
L 800.068962 413.772556 
L 802.427178 414.183634 
L 804.785393 414.856308 
L 810.680931 416.612733 
L 813.039146 416.836958 
L 815.397361 416.762216 
L 816.576469 416.612733 
L 822.472007 415.342128 
L 823.651115 415.267386 
L 824.830222 415.342128 
L 826.00933 415.641094 
L 827.188438 416.126913 
L 828.367545 416.911699 
L 830.725761 418.780237 
L 831.904868 419.527652 
L 833.083976 419.976101 
L 834.263083 420.013472 
L 835.442191 419.602394 
L 837.800406 418.070193 
L 840.158622 416.612733 
L 842.516837 415.528981 
L 844.875052 414.744195 
L 847.233267 414.295746 
L 848.412375 414.183634 
L 849.591483 414.183634 
L 851.949698 414.557342 
L 854.307913 415.342128 
L 856.666128 416.42588 
L 857.845236 417.173295 
L 860.203451 419.153945 
L 861.382559 419.714506 
L 862.561666 419.378169 
L 864.919882 417.584373 
L 866.098989 417.098553 
L 867.278097 417.023812 
L 868.457205 417.322778 
L 869.636312 417.995451 
L 870.81542 419.004462 
L 874.352743 422.85365 
L 875.53185 423.488953 
L 876.710958 423.638436 
L 877.890066 423.37684 
L 879.069173 422.741538 
L 880.248281 421.807269 
L 883.785604 418.705496 
L 884.964711 417.883339 
L 886.143819 417.285407 
L 887.322927 416.911699 
L 888.502034 416.799587 
L 889.681142 416.94907 
L 892.039357 417.472261 
L 893.218465 417.472261 
L 895.57668 417.023812 
L 896.755788 416.986441 
L 897.934895 417.173295 
L 902.651326 418.481271 
L 905.009541 418.854979 
L 907.367756 418.967091 
L 913.263294 418.854979 
L 915.62151 418.780237 
L 916.800617 418.518642 
L 921.517048 416.986441 
L 922.696155 416.762216 
L 925.054371 416.687475 
L 926.233478 416.799587 
L 929.770801 417.397519 
L 930.949909 417.509631 
L 933.308124 417.584373 
L 934.487232 417.845968 
L 935.666339 418.40653 
L 936.845447 419.303428 
L 938.024554 420.499292 
L 940.38277 423.488953 
L 941.561877 424.198997 
L 942.740985 424.161626 
L 943.920093 423.974773 
L 945.0992 423.974773 
L 946.278308 423.675806 
L 947.457415 422.629425 
L 949.815631 419.639765 
L 950.994738 418.630754 
L 952.173846 418.107564 
L 953.352954 418.032822 
L 954.532061 418.294417 
L 956.890276 419.116574 
L 966.323137 420.499292 
L 967.502245 420.424551 
L 968.681353 420.499292 
L 969.86046 420.835629 
L 971.039568 421.35882 
L 975.755998 424.012143 
L 976.935106 424.497963 
L 978.114214 424.759558 
L 979.293321 424.610075 
L 980.472429 423.86266 
L 981.651537 422.629425 
L 984.009752 419.863989 
L 985.188859 418.705496 
L 986.367967 417.771227 
L 987.547075 417.061182 
L 988.726182 416.650104 
L 989.90529 416.500621 
L 993.442613 416.42588 
L 994.62172 416.500621 
L 995.800828 416.724846 
L 996.979936 417.098553 
L 998.159043 417.733856 
L 1000.517259 419.303428 
L 1001.696366 419.714506 
L 1002.875474 419.565023 
L 1005.233689 418.40653 
L 1006.412797 417.845968 
L 1007.591904 417.472261 
L 1008.771012 417.285407 
L 1009.95012 417.248036 
L 1011.129227 417.322778 
L 1015.845658 417.958081 
L 1018.203873 418.107564 
L 1019.382981 418.40653 
L 1020.562088 419.004462 
L 1021.741196 419.976101 
L 1024.099411 422.442571 
L 1025.278519 423.152616 
L 1026.457626 423.264728 
L 1027.636734 422.891021 
L 1029.994949 421.807269 
L 1032.353164 421.097224 
L 1034.71138 420.536663 
L 1039.42781 419.116574 
L 1041.786025 418.89235 
L 1044.144241 419.041833 
L 1045.323348 419.303428 
L 1046.502456 419.826618 
L 1048.860671 421.35882 
L 1052.397994 424.012143 
L 1053.577102 424.647446 
L 1054.756209 424.759558 
L 1055.935317 424.273739 
L 1057.114425 423.414211 
L 1058.293532 422.405201 
L 1059.47264 421.545673 
L 1060.651747 420.873 
L 1061.830855 420.38718 
L 1063.009963 420.162955 
L 1064.18907 420.162955 
L 1065.368178 420.349809 
L 1066.547286 420.723517 
L 1068.905501 421.657786 
L 1070.084608 421.844639 
L 1071.263716 421.769898 
L 1073.621931 421.134595 
L 1079.517469 418.967091 
L 1080.696577 418.817608 
L 1081.875685 418.92972 
L 1083.054792 419.228686 
L 1087.771223 420.91037 
L 1088.95033 421.022483 
L 1091.308546 420.873 
L 1093.666761 420.648775 
L 1096.024976 420.723517 
L 1097.204084 420.574034 
L 1098.383191 420.088214 
L 1099.562299 419.452911 
L 1100.741407 419.041833 
L 1101.920514 419.153945 
L 1103.099622 419.863989 
L 1104.27873 420.723517 
L 1105.457837 421.39619 
L 1106.636945 421.807269 
L 1110.174268 422.442571 
L 1112.532483 423.189987 
L 1116.069806 424.535334 
L 1117.248913 424.684817 
L 1118.428021 424.423222 
L 1119.607129 423.787919 
L 1121.965344 422.031493 
L 1124.323559 420.275068 
L 1125.502667 419.490282 
L 1126.681774 418.89235 
L 1127.860882 418.556013 
L 1130.219097 418.294417 
L 1134.935528 418.219676 
L 1140.831066 417.509631 
L 1143.189281 417.43489 
L 1147.905712 417.360148 
L 1154.980357 417.173295 
L 1156.159465 417.285407 
L 1157.338573 417.547002 
L 1158.51768 417.995451 
L 1160.875896 419.378169 
L 1162.055003 420.050843 
L 1163.234111 420.499292 
L 1164.413218 420.686146 
L 1165.592326 420.648775 
L 1166.771434 420.461921 
L 1167.950541 420.125585 
L 1173.846079 417.659115 
L 1175.025187 417.397519 
L 1176.204295 417.285407 
L 1177.383402 417.285407 
L 1178.56251 417.397519 
L 1179.741618 417.659115 
L 1180.920725 418.070193 
L 1182.099833 418.630754 
L 1184.458048 420.013472 
L 1185.637156 420.38718 
L 1186.816263 420.38718 
L 1187.995371 420.125585 
L 1189.174479 419.714506 
L 1191.532694 418.593383 
L 1192.711801 418.219676 
L 1193.890909 418.144934 
L 1195.070017 418.4439 
L 1198.60734 420.275068 
L 1199.786447 420.424551 
L 1206.861093 419.938731 
L 1209.219308 419.714506 
L 1210.398416 419.789248 
L 1211.577523 420.162955 
L 1212.756631 420.798258 
L 1213.935739 421.657786 
L 1215.114846 422.666796 
L 1216.293954 423.451582 
L 1217.473062 423.563694 
L 1218.652169 422.85365 
L 1221.010384 420.574034 
L 1222.189492 419.863989 
L 1223.3686 419.565023 
L 1224.547707 419.677135 
L 1225.726815 420.088214 
L 1229.264138 421.732527 
L 1230.443245 422.031493 
L 1231.622353 422.068864 
L 1233.980568 421.657786 
L 1237.517891 420.835629 
L 1238.696999 420.760887 
L 1241.055214 420.91037 
L 1243.413429 421.246707 
L 1244.592537 421.321449 
L 1245.771645 421.209336 
L 1248.12986 420.686146 
L 1251.667183 419.677135 
L 1254.025398 419.340799 
L 1255.204506 419.490282 
L 1257.562721 420.499292 
L 1259.920936 421.545673 
L 1263.458259 422.554684 
L 1265.816474 423.003133 
L 1268.174689 423.152616 
L 1270.532905 422.965762 
L 1272.89112 422.479942 
L 1275.249335 421.732527 
L 1277.60755 420.760887 
L 1281.144873 418.854979 
L 1282.323981 418.518642 
L 1283.503089 418.4439 
L 1284.682196 418.593383 
L 1287.040411 419.228686 
L 1289.398627 420.162955 
L 1292.93595 421.209336 
L 1295.294165 421.620415 
L 1296.473272 421.695156 
L 1300.010595 421.657786 
L 1302.368811 422.293088 
L 1303.547918 422.666796 
L 1304.727026 422.816279 
L 1305.906133 422.741538 
L 1309.443456 421.994122 
L 1310.622564 421.994122 
L 1312.980779 422.330459 
L 1312.980779 422.330459 
" style="fill:none;stroke:#4c72b0;stroke-linecap:round;stroke-width:1.5;"/>
   </g>
   <g id="patch_8">
    <path d="M 62.537143 433.265143 
L 62.537143 246.142286 
" style="fill:none;stroke:#ffffff;stroke-linecap:square;stroke-linejoin:miter;stroke-width:1.25;"/>
   </g>
   <g id="patch_9">
    <path d="M 1372.525714 433.265143 
L 1372.525714 246.142286 
" style="fill:none;stroke:#ffffff;stroke-linecap:square;stroke-linejoin:miter;stroke-width:1.25;"/>
   </g>
   <g id="patch_10">
    <path d="M 62.537143 433.265143 
L 1372.525714 433.265143 
" style="fill:none;stroke:#ffffff;stroke-linecap:square;stroke-linejoin:miter;stroke-width:1.25;"/>
   </g>
   <g id="patch_11">
    <path d="M 62.537143 246.142286 
L 1372.525714 246.142286 
" style="fill:none;stroke:#ffffff;stroke-linecap:square;stroke-linejoin:miter;stroke-width:1.25;"/>
   </g>
  </g>
  <g id="axes_3">
   <g id="patch_12">
    <path d="M 62.537143 657.812571 
L 1372.525714 657.812571 
L 1372.525714 470.689714 
L 62.537143 470.689714 
z
" style="fill:#eaeaf2;"/>
   </g>
   <g id="matplotlib.axis_5">
    <g id="xtick_23">
     <g id="line2d_35">
      <path clip-path="url(#pda61e5f4fe)" d="M 122.082078 657.812571 
L 122.082078 470.689714 
" style="fill:none;stroke:#ffffff;stroke-linecap:round;"/>
     </g>
     <g id="text_36">
      <!-- 0 -->
      <g style="fill:#262626;" transform="translate(119.023562 675.186165)scale(0.11 -0.11)">
       <use xlink:href="#ArialMT-30"/>
      </g>
     </g>
    </g>
    <g id="xtick_24">
     <g id="line2d_36">
      <path clip-path="url(#pda61e5f4fe)" d="M 239.99284 657.812571 
L 239.99284 470.689714 
" style="fill:none;stroke:#ffffff;stroke-linecap:round;"/>
     </g>
     <g id="text_37">
      <!-- 1 -->
      <g style="fill:#262626;" transform="translate(236.934325 675.186165)scale(0.11 -0.11)">
       <use xlink:href="#ArialMT-31"/>
      </g>
     </g>
    </g>
    <g id="xtick_25">
     <g id="line2d_37">
      <path clip-path="url(#pda61e5f4fe)" d="M 357.903603 657.812571 
L 357.903603 470.689714 
" style="fill:none;stroke:#ffffff;stroke-linecap:round;"/>
     </g>
     <g id="text_38">
      <!-- 2 -->
      <g style="fill:#262626;" transform="translate(354.845087 675.186165)scale(0.11 -0.11)">
       <use xlink:href="#ArialMT-32"/>
      </g>
     </g>
    </g>
    <g id="xtick_26">
     <g id="line2d_38">
      <path clip-path="url(#pda61e5f4fe)" d="M 475.814365 657.812571 
L 475.814365 470.689714 
" style="fill:none;stroke:#ffffff;stroke-linecap:round;"/>
     </g>
     <g id="text_39">
      <!-- 3 -->
      <g style="fill:#262626;" transform="translate(472.75585 675.186165)scale(0.11 -0.11)">
       <use xlink:href="#ArialMT-33"/>
      </g>
     </g>
    </g>
    <g id="xtick_27">
     <g id="line2d_39">
      <path clip-path="url(#pda61e5f4fe)" d="M 593.725128 657.812571 
L 593.725128 470.689714 
" style="fill:none;stroke:#ffffff;stroke-linecap:round;"/>
     </g>
     <g id="text_40">
      <!-- 4 -->
      <g style="fill:#262626;" transform="translate(590.666612 675.186165)scale(0.11 -0.11)">
       <use xlink:href="#ArialMT-34"/>
      </g>
     </g>
    </g>
    <g id="xtick_28">
     <g id="line2d_40">
      <path clip-path="url(#pda61e5f4fe)" d="M 711.63589 657.812571 
L 711.63589 470.689714 
" style="fill:none;stroke:#ffffff;stroke-linecap:round;"/>
     </g>
     <g id="text_41">
      <!-- 5 -->
      <g style="fill:#262626;" transform="translate(708.577375 675.186165)scale(0.11 -0.11)">
       <use xlink:href="#ArialMT-35"/>
      </g>
     </g>
    </g>
    <g id="xtick_29">
     <g id="line2d_41">
      <path clip-path="url(#pda61e5f4fe)" d="M 829.546653 657.812571 
L 829.546653 470.689714 
" style="fill:none;stroke:#ffffff;stroke-linecap:round;"/>
     </g>
     <g id="text_42">
      <!-- 6 -->
      <g style="fill:#262626;" transform="translate(826.488137 675.186165)scale(0.11 -0.11)">
       <use xlink:href="#ArialMT-36"/>
      </g>
     </g>
    </g>
    <g id="xtick_30">
     <g id="line2d_42">
      <path clip-path="url(#pda61e5f4fe)" d="M 947.457415 657.812571 
L 947.457415 470.689714 
" style="fill:none;stroke:#ffffff;stroke-linecap:round;"/>
     </g>
     <g id="text_43">
      <!-- 7 -->
      <g style="fill:#262626;" transform="translate(944.3989 675.186165)scale(0.11 -0.11)">
       <use xlink:href="#ArialMT-37"/>
      </g>
     </g>
    </g>
    <g id="xtick_31">
     <g id="line2d_43">
      <path clip-path="url(#pda61e5f4fe)" d="M 1065.368178 657.812571 
L 1065.368178 470.689714 
" style="fill:none;stroke:#ffffff;stroke-linecap:round;"/>
     </g>
     <g id="text_44">
      <!-- 8 -->
      <g style="fill:#262626;" transform="translate(1062.309662 675.186165)scale(0.11 -0.11)">
       <use xlink:href="#ArialMT-38"/>
      </g>
     </g>
    </g>
    <g id="xtick_32">
     <g id="line2d_44">
      <path clip-path="url(#pda61e5f4fe)" d="M 1183.27894 657.812571 
L 1183.27894 470.689714 
" style="fill:none;stroke:#ffffff;stroke-linecap:round;"/>
     </g>
     <g id="text_45">
      <!-- 9 -->
      <g style="fill:#262626;" transform="translate(1180.220425 675.186165)scale(0.11 -0.11)">
       <use xlink:href="#ArialMT-39"/>
      </g>
     </g>
    </g>
    <g id="xtick_33">
     <g id="line2d_45">
      <path clip-path="url(#pda61e5f4fe)" d="M 1301.189703 657.812571 
L 1301.189703 470.689714 
" style="fill:none;stroke:#ffffff;stroke-linecap:round;"/>
     </g>
     <g id="text_46">
      <!-- 10 -->
      <g style="fill:#262626;" transform="translate(1295.072672 675.186165)scale(0.11 -0.11)">
       <use xlink:href="#ArialMT-31"/>
       <use x="55.615234" xlink:href="#ArialMT-30"/>
      </g>
     </g>
    </g>
    <g id="text_47">
     <!-- t [ps] -->
     <g style="fill:#262626;" transform="translate(704.527366 689.96179)scale(0.12 -0.12)">
      <defs>
       <path d="M 1650 503 
L 1731 6 
Q 1494 -44 1306 -44 
Q 1000 -44 831 53 
Q 663 150 594 308 
Q 525 466 525 972 
L 525 2881 
L 113 2881 
L 113 3319 
L 525 3319 
L 525 4141 
L 1084 4478 
L 1084 3319 
L 1650 3319 
L 1650 2881 
L 1084 2881 
L 1084 941 
Q 1084 700 1114 631 
Q 1144 563 1211 522 
Q 1278 481 1403 481 
Q 1497 481 1650 503 
z
" id="ArialMT-74" transform="scale(0.015625)"/>
       <path d="M 422 -1272 
L 422 3319 
L 934 3319 
L 934 2888 
Q 1116 3141 1344 3267 
Q 1572 3394 1897 3394 
Q 2322 3394 2647 3175 
Q 2972 2956 3137 2557 
Q 3303 2159 3303 1684 
Q 3303 1175 3120 767 
Q 2938 359 2589 142 
Q 2241 -75 1856 -75 
Q 1575 -75 1351 44 
Q 1128 163 984 344 
L 984 -1272 
L 422 -1272 
z
M 931 1641 
Q 931 1000 1190 694 
Q 1450 388 1819 388 
Q 2194 388 2461 705 
Q 2728 1022 2728 1688 
Q 2728 2322 2467 2637 
Q 2206 2953 1844 2953 
Q 1484 2953 1207 2617 
Q 931 2281 931 1641 
z
" id="ArialMT-70" transform="scale(0.015625)"/>
      </defs>
      <use xlink:href="#ArialMT-74"/>
      <use x="27.783203" xlink:href="#ArialMT-20"/>
      <use x="55.566406" xlink:href="#ArialMT-5b"/>
      <use x="83.349609" xlink:href="#ArialMT-70"/>
      <use x="138.964844" xlink:href="#ArialMT-73"/>
      <use x="188.964844" xlink:href="#ArialMT-5d"/>
     </g>
    </g>
   </g>
   <g id="matplotlib.axis_6">
    <g id="ytick_11">
     <g id="line2d_46">
      <path clip-path="url(#pda61e5f4fe)" d="M 62.537143 649.306987 
L 1372.525714 649.306987 
" style="fill:none;stroke:#ffffff;stroke-linecap:round;"/>
     </g>
     <g id="text_48">
      <!-- 0.00 -->
      <g style="fill:#262626;" transform="translate(31.630112 653.243784)scale(0.11 -0.11)">
       <use xlink:href="#ArialMT-30"/>
       <use x="55.615234" xlink:href="#ArialMT-2e"/>
       <use x="83.398438" xlink:href="#ArialMT-30"/>
       <use x="139.013672" xlink:href="#ArialMT-30"/>
      </g>
     </g>
    </g>
    <g id="ytick_12">
     <g id="line2d_47">
      <path clip-path="url(#pda61e5f4fe)" d="M 62.537143 625.38413 
L 1372.525714 625.38413 
" style="fill:none;stroke:#ffffff;stroke-linecap:round;"/>
     </g>
     <g id="text_49">
      <!-- 0.25 -->
      <g style="fill:#262626;" transform="translate(31.630112 629.320927)scale(0.11 -0.11)">
       <use xlink:href="#ArialMT-30"/>
       <use x="55.615234" xlink:href="#ArialMT-2e"/>
       <use x="83.398438" xlink:href="#ArialMT-32"/>
       <use x="139.013672" xlink:href="#ArialMT-35"/>
      </g>
     </g>
    </g>
    <g id="ytick_13">
     <g id="line2d_48">
      <path clip-path="url(#pda61e5f4fe)" d="M 62.537143 601.461273 
L 1372.525714 601.461273 
" style="fill:none;stroke:#ffffff;stroke-linecap:round;"/>
     </g>
     <g id="text_50">
      <!-- 0.50 -->
      <g style="fill:#262626;" transform="translate(31.630112 605.39807)scale(0.11 -0.11)">
       <use xlink:href="#ArialMT-30"/>
       <use x="55.615234" xlink:href="#ArialMT-2e"/>
       <use x="83.398438" xlink:href="#ArialMT-35"/>
       <use x="139.013672" xlink:href="#ArialMT-30"/>
      </g>
     </g>
    </g>
    <g id="ytick_14">
     <g id="line2d_49">
      <path clip-path="url(#pda61e5f4fe)" d="M 62.537143 577.538416 
L 1372.525714 577.538416 
" style="fill:none;stroke:#ffffff;stroke-linecap:round;"/>
     </g>
     <g id="text_51">
      <!-- 0.75 -->
      <g style="fill:#262626;" transform="translate(31.630112 581.475213)scale(0.11 -0.11)">
       <use xlink:href="#ArialMT-30"/>
       <use x="55.615234" xlink:href="#ArialMT-2e"/>
       <use x="83.398438" xlink:href="#ArialMT-37"/>
       <use x="139.013672" xlink:href="#ArialMT-35"/>
      </g>
     </g>
    </g>
    <g id="ytick_15">
     <g id="line2d_50">
      <path clip-path="url(#pda61e5f4fe)" d="M 62.537143 553.615559 
L 1372.525714 553.615559 
" style="fill:none;stroke:#ffffff;stroke-linecap:round;"/>
     </g>
     <g id="text_52">
      <!-- 1.00 -->
      <g style="fill:#262626;" transform="translate(31.630112 557.552356)scale(0.11 -0.11)">
       <use xlink:href="#ArialMT-31"/>
       <use x="55.615234" xlink:href="#ArialMT-2e"/>
       <use x="83.398438" xlink:href="#ArialMT-30"/>
       <use x="139.013672" xlink:href="#ArialMT-30"/>
      </g>
     </g>
    </g>
    <g id="ytick_16">
     <g id="line2d_51">
      <path clip-path="url(#pda61e5f4fe)" d="M 62.537143 529.692703 
L 1372.525714 529.692703 
" style="fill:none;stroke:#ffffff;stroke-linecap:round;"/>
     </g>
     <g id="text_53">
      <!-- 1.25 -->
      <g style="fill:#262626;" transform="translate(31.630112 533.629499)scale(0.11 -0.11)">
       <use xlink:href="#ArialMT-31"/>
       <use x="55.615234" xlink:href="#ArialMT-2e"/>
       <use x="83.398438" xlink:href="#ArialMT-32"/>
       <use x="139.013672" xlink:href="#ArialMT-35"/>
      </g>
     </g>
    </g>
    <g id="ytick_17">
     <g id="line2d_52">
      <path clip-path="url(#pda61e5f4fe)" d="M 62.537143 505.769846 
L 1372.525714 505.769846 
" style="fill:none;stroke:#ffffff;stroke-linecap:round;"/>
     </g>
     <g id="text_54">
      <!-- 1.50 -->
      <g style="fill:#262626;" transform="translate(31.630112 509.706643)scale(0.11 -0.11)">
       <use xlink:href="#ArialMT-31"/>
       <use x="55.615234" xlink:href="#ArialMT-2e"/>
       <use x="83.398438" xlink:href="#ArialMT-35"/>
       <use x="139.013672" xlink:href="#ArialMT-30"/>
      </g>
     </g>
    </g>
    <g id="ytick_18">
     <g id="line2d_53">
      <path clip-path="url(#pda61e5f4fe)" d="M 62.537143 481.846989 
L 1372.525714 481.846989 
" style="fill:none;stroke:#ffffff;stroke-linecap:round;"/>
     </g>
     <g id="text_55">
      <!-- 1.75 -->
      <g style="fill:#262626;" transform="translate(31.630112 485.783786)scale(0.11 -0.11)">
       <use xlink:href="#ArialMT-31"/>
       <use x="55.615234" xlink:href="#ArialMT-2e"/>
       <use x="83.398438" xlink:href="#ArialMT-37"/>
       <use x="139.013672" xlink:href="#ArialMT-35"/>
      </g>
     </g>
    </g>
    <g id="text_56">
     <!-- P [atm] -->
     <g style="fill:#262626;" transform="translate(25.245112 583.150205)rotate(-90)scale(0.12 -0.12)">
      <defs>
       <path d="M 494 0 
L 494 4581 
L 2222 4581 
Q 2678 4581 2919 4538 
Q 3256 4481 3484 4323 
Q 3713 4166 3852 3881 
Q 3991 3597 3991 3256 
Q 3991 2672 3619 2267 
Q 3247 1863 2275 1863 
L 1100 1863 
L 1100 0 
L 494 0 
z
M 1100 2403 
L 2284 2403 
Q 2872 2403 3119 2622 
Q 3366 2841 3366 3238 
Q 3366 3525 3220 3729 
Q 3075 3934 2838 4000 
Q 2684 4041 2272 4041 
L 1100 4041 
L 1100 2403 
z
" id="ArialMT-50" transform="scale(0.015625)"/>
      </defs>
      <use xlink:href="#ArialMT-50"/>
      <use x="64.949219" xlink:href="#ArialMT-20"/>
      <use x="92.732422" xlink:href="#ArialMT-5b"/>
      <use x="120.515625" xlink:href="#ArialMT-61"/>
      <use x="176.130859" xlink:href="#ArialMT-74"/>
      <use x="203.914062" xlink:href="#ArialMT-6d"/>
      <use x="287.214844" xlink:href="#ArialMT-5d"/>
     </g>
    </g>
   </g>
   <g id="line2d_54">
    <path clip-path="url(#pda61e5f4fe)" d="M 122.082078 649.306987 
L 223.485334 649.306987 
L 224.664441 647.654869 
L 227.022657 638.982689 
L 229.380872 631.327375 
L 230.559979 628.122288 
L 231.739087 625.44754 
L 232.918195 623.360775 
L 234.097302 621.925404 
L 235.27641 621.164484 
L 236.455518 621.106839 
L 237.634625 621.752468 
L 238.813733 623.084077 
L 239.99284 625.061316 
L 241.171948 627.649596 
L 242.351056 630.773979 
L 243.530163 634.35376 
L 245.888379 642.539413 
L 247.067486 646.933148 
L 248.246594 649.306987 
L 285.978038 649.306987 
L 287.157145 646.638003 
L 289.515361 635.673841 
L 291.873576 626.058582 
L 293.052684 622.063753 
L 294.231791 618.74914 
L 295.410899 616.195447 
L 296.590006 614.471849 
L 297.769114 613.612932 
L 298.948222 613.641754 
L 300.127329 614.564081 
L 301.306437 616.35109 
L 302.485545 618.956664 
L 303.664652 622.323157 
L 304.84376 626.364103 
L 306.022867 630.975738 
L 307.201975 636.042772 
L 308.381083 639.080686 
L 309.56019 639.570672 
L 310.739298 636.918982 
L 311.918406 629.119555 
L 315.455728 589.759249 
L 316.634836 575.34789 
L 317.813944 562.723539 
L 318.993051 552.289714 
L 320.172159 543.239381 
L 321.351267 530.787966 
L 322.530374 521.276469 
L 323.709482 514.93547 
L 324.888589 511.880262 
L 326.067697 512.28378 
L 327.246805 516.030734 
L 328.425912 523.005832 
L 329.60502 533.093783 
L 331.963235 547.216916 
L 333.142343 553.903787 
L 334.32145 562.492957 
L 336.679666 567.796337 
L 337.858773 571.773873 
L 339.037881 572.235036 
L 340.216989 573.676172 
L 341.396096 576.961962 
L 343.754311 586.704041 
L 344.933419 587.741659 
L 346.112527 590.220413 
L 347.291634 594.059599 
L 348.470742 599.16122 
L 349.64985 605.421515 
L 350.828957 612.696369 
L 352.008065 617.786461 
L 353.187172 617.290711 
L 354.36628 610.909361 
L 355.545388 600.700353 
L 357.903603 582.841797 
L 359.082711 572.6962 
L 360.261818 564.395256 
L 362.620033 546.179298 
L 363.799141 539.723009 
L 364.978249 535.976055 
L 366.157356 535.053728 
L 367.336464 537.013673 
L 368.515572 541.740599 
L 369.694679 549.176861 
L 370.873787 559.091876 
L 374.41111 592.099654 
L 375.590217 601.536212 
L 376.769325 605.28893 
L 377.948433 605.496454 
L 379.12754 606.793476 
L 380.306648 609.14541 
L 381.485755 612.500375 
L 382.664863 616.771902 
L 383.843971 621.856229 
L 385.023078 623.914171 
L 386.202186 624.663562 
L 387.381294 620.570736 
L 388.560401 613.607167 
L 389.739509 599.945198 
L 395.635047 523.928159 
L 396.814155 510.323835 
L 397.993262 500.120593 
L 399.17237 493.664304 
L 400.351477 491.070259 
L 401.530585 492.45375 
L 402.709693 497.12303 
L 403.8888 504.444001 
L 405.067908 515.281343 
L 408.605231 557.708386 
L 409.784338 574.829081 
L 410.963446 588.202822 
L 412.142554 598.884522 
L 413.321661 602.297132 
L 414.500769 600.867525 
L 415.679877 599.230395 
L 416.858984 596.619056 
L 418.038092 593.166095 
L 419.217199 591.027449 
L 420.396307 590.278058 
L 421.575415 590.969803 
L 422.754522 590.393349 
L 423.93363 587.626368 
L 425.112738 584.109996 
L 426.291845 582.207697 
L 427.470953 581.227724 
L 428.65006 577.596062 
L 429.829168 570.678609 
L 431.008276 561.801212 
L 432.187383 555.114341 
L 433.366491 549.176861 
L 434.545599 539.550073 
L 435.724706 532.056166 
L 438.082921 511.822617 
L 439.262029 505.481619 
L 440.441137 502.714638 
L 441.620244 503.636965 
L 442.799352 506.461591 
L 443.97846 509.920317 
L 445.157567 513.782562 
L 446.336675 513.667271 
L 448.69489 505.193391 
L 449.873998 504.616937 
L 451.053105 506.403946 
L 452.232213 507.326273 
L 453.411321 505.481619 
L 454.590428 507.038045 
L 455.769536 509.63209 
L 456.948643 511.303808 
L 458.127751 510.784999 
L 459.306859 512.860235 
L 461.665074 514.589598 
L 462.844182 515.857797 
L 467.560612 534.01611 
L 468.73972 534.361983 
L 469.918827 534.01611 
L 471.097935 532.978493 
L 472.277043 532.805556 
L 474.635258 538.108937 
L 475.814365 542.547635 
L 476.993473 545.948716 
L 478.172581 551.021515 
L 479.351688 552.520296 
L 480.530796 555.229632 
L 481.709904 560.244785 
L 484.068119 574.886726 
L 486.426334 579.786588 
L 487.605442 583.533542 
L 488.784549 585.378196 
L 489.963657 588.606341 
L 491.142765 590.220413 
L 492.321872 584.974678 
L 493.50098 581.343015 
L 494.680087 579.38307 
L 497.038303 576.961962 
L 498.21741 574.194981 
L 499.396518 569.698637 
L 500.575626 562.320021 
L 501.754733 552.520296 
L 502.933841 540.126527 
L 505.292056 510.496772 
L 506.471164 499.77472 
L 507.650271 491.127904 
L 508.829379 483.749288 
L 510.008487 479.368235 
L 511.187594 479.195299 
L 512.366702 483.115189 
L 513.545809 490.897323 
L 514.724917 499.544138 
L 515.904025 509.055636 
L 518.26224 530.499739 
L 519.441348 535.28431 
L 521.799563 541.510017 
L 522.97867 540.645336 
L 524.157778 534.823147 
L 525.336886 527.675112 
L 526.515993 518.85536 
L 527.695101 507.672145 
L 528.874209 498.564166 
L 530.053316 493.145495 
L 531.232424 489.571478 
L 532.411531 487.669178 
L 533.590639 487.669178 
L 534.769747 490.378514 
L 535.948854 495.393667 
L 537.127962 502.195829 
L 538.30707 511.476744 
L 539.486177 517.529515 
L 540.665285 522.717605 
L 541.844392 526.233976 
L 543.0235 526.637494 
L 548.919038 498.679457 
L 550.098146 494.240758 
L 551.277253 493.376077 
L 552.456361 496.143058 
L 553.635469 502.022892 
L 554.814576 506.519236 
L 555.993684 512.744944 
L 557.172792 521.50705 
L 558.351899 531.306775 
L 561.889222 565.144647 
L 563.06833 571.370354 
L 564.247437 575.290244 
L 565.426545 581.054788 
L 566.605653 586.069941 
L 568.963868 583.418251 
L 570.142975 583.30296 
L 571.322083 583.764124 
L 572.501191 581.28537 
L 573.680298 575.924344 
L 576.038514 566.701074 
L 577.217621 563.645866 
L 579.575836 548.254534 
L 580.754944 543.066444 
L 581.934052 540.530045 
L 583.113159 539.377136 
L 584.292267 538.627746 
L 585.471375 535.630183 
L 586.650482 531.99852 
L 587.82959 531.249129 
L 589.008697 533.439656 
L 590.187805 538.5701 
L 591.366913 538.685391 
L 592.54602 541.394727 
L 593.725128 546.467525 
L 594.904236 552.577942 
L 596.083343 557.535449 
L 597.262451 561.916503 
L 598.441558 564.279966 
L 600.799774 571.024482 
L 601.978881 573.215009 
L 603.157989 577.192544 
L 604.337097 582.899442 
L 607.874419 604.528011 
L 609.053527 608.580485 
L 610.232635 610.373258 
L 611.411742 609.226114 
L 613.769958 598.579001 
L 614.949065 591.944011 
L 616.128173 586.415814 
L 617.30728 582.265342 
L 618.486388 579.613652 
L 619.665496 576.673735 
L 622.023711 567.335174 
L 623.202819 564.568193 
L 624.381926 563.876448 
L 625.561034 563.876448 
L 626.740141 565.087002 
L 627.919249 568.315146 
L 629.098357 573.676172 
L 630.277464 580.881852 
L 633.814787 607.369931 
L 634.993895 611.503109 
L 636.173002 611.578048 
L 637.35211 610.211851 
L 638.531218 609.151175 
L 639.710325 605.623274 
L 640.889433 601.576564 
L 642.068541 598.71735 
L 643.247648 594.232535 
L 644.426756 588.202822 
L 645.605863 583.764124 
L 646.784971 580.881852 
L 647.964079 578.864261 
L 649.143186 575.059663 
L 650.322294 570.102155 
L 651.501402 567.104592 
L 652.680509 562.723539 
L 653.859617 559.610685 
L 655.038724 558.400131 
L 656.217832 558.573067 
L 657.39694 560.763594 
L 658.576047 561.628275 
L 659.755155 562.781184 
L 660.934263 563.761157 
L 662.11337 563.58822 
L 663.292478 563.184702 
L 664.471585 562.608248 
L 665.650693 563.645866 
L 666.829801 565.721102 
L 668.008908 566.585783 
L 669.188016 568.199855 
L 670.367124 570.332737 
L 671.546231 571.543291 
L 672.725339 572.580909 
L 673.904446 573.964399 
L 675.083554 577.134898 
L 676.262662 577.826644 
L 677.441769 578.345453 
L 678.620877 580.420688 
L 679.799985 583.30296 
L 680.979092 587.799304 
L 682.1582 591.430967 
L 683.337307 596.457649 
L 684.516415 602.625711 
L 685.695523 606.032557 
L 689.232846 619.354417 
L 690.411953 624.882615 
L 691.591061 629.540366 
L 692.770168 632.901095 
L 693.949276 634.077062 
L 695.128384 633.760012 
L 696.307491 633.829187 
L 697.486599 634.273057 
L 698.665707 635.080093 
L 699.844814 635.131974 
L 701.023922 634.319173 
L 703.382137 629.442369 
L 706.91946 616.322267 
L 712.814998 592.341765 
L 713.994106 589.759249 
L 715.173213 588.721631 
L 716.352321 589.182795 
L 717.531429 587.972241 
L 718.710536 587.338141 
L 719.889644 587.568723 
L 721.068751 587.511077 
L 722.247859 588.952213 
L 723.426967 591.707665 
L 724.606074 595.114511 
L 725.785182 596.642115 
L 726.96429 596.884225 
L 728.143397 595.033807 
L 729.322505 593.719491 
L 730.501612 591.488612 
L 731.68072 590.50864 
L 732.859828 590.566285 
L 735.218043 585.147614 
L 736.397151 583.821769 
L 737.576258 583.764124 
L 738.755366 585.089969 
L 739.934473 587.453432 
L 741.113581 588.433404 
L 742.292689 590.393349 
L 743.471796 593.258327 
L 744.650904 594.785932 
L 745.830012 593.517732 
L 747.009119 593.114214 
L 748.188227 591.822956 
L 749.367334 590.220413 
L 750.546442 589.701604 
L 751.72555 590.50864 
L 754.083765 594.99922 
L 755.262873 591.603903 
L 756.44198 586.358168 
L 757.621088 577.99958 
L 758.800195 568.603373 
L 759.979303 561.051821 
L 761.158411 555.690795 
L 762.337518 552.635587 
L 763.516626 551.886196 
L 764.695734 551.425033 
L 765.874841 549.638024 
L 767.053949 549.580379 
L 768.233056 551.540324 
L 769.412164 552.693232 
L 771.770379 559.034231 
L 772.949487 563.357639 
L 774.128595 566.931656 
L 775.307702 572.580909 
L 777.665917 587.914595 
L 778.845025 589.989831 
L 780.024133 591.488612 
L 781.20324 594.411236 
L 782.382348 597.916079 
L 785.919671 611.595341 
L 787.098778 616.962132 
L 788.277886 620.213334 
L 789.456994 620.90508 
L 790.636101 620.196041 
L 791.815209 620.213334 
L 792.994317 620.951196 
L 794.173424 622.392332 
L 795.352532 624.507919 
L 796.531639 625.303427 
L 797.710747 623.084077 
L 800.068962 611.163001 
L 801.24807 606.326548 
L 802.427178 602.550772 
L 803.606285 599.92214 
L 804.785393 597.910314 
L 805.9645 596.486472 
L 808.322716 596.250126 
L 809.501823 595.915782 
L 810.680931 596.00225 
L 811.860039 597.403034 
L 813.039146 599.962492 
L 814.218254 602.049257 
L 815.397361 605.311989 
L 816.576469 609.508576 
L 817.755577 614.633256 
L 821.2929 632.411109 
L 822.472007 634.215411 
L 823.651115 635.587373 
L 824.830222 637.299442 
L 827.188438 641.490266 
L 828.367545 641.905313 
L 829.546653 640.106775 
L 830.725761 638.533055 
L 831.904868 637.230268 
L 833.083976 635.604666 
L 834.263083 632.924153 
L 835.442191 629.229081 
L 836.621299 626.041288 
L 837.800406 623.42995 
L 838.979514 621.470005 
L 840.158622 619.861697 
L 841.337729 618.708788 
L 842.516837 618.207273 
L 843.695944 618.316799 
L 844.875052 618.063159 
L 846.05416 616.333796 
L 847.233267 615.007951 
L 848.412375 614.552552 
L 849.591483 613.733987 
L 850.77059 612.142973 
L 851.949698 609.007061 
L 853.128805 605.536806 
L 855.487021 600.850232 
L 856.666128 599.47827 
L 860.203451 596.820815 
L 861.382559 597.379976 
L 862.561666 599.241924 
L 863.740774 601.830204 
L 864.919882 605.623274 
L 866.098989 610.344435 
L 867.278097 611.877804 
L 868.457205 611.843217 
L 869.636312 610.909361 
L 870.81542 610.390552 
L 871.994527 607.929091 
L 873.173635 602.608417 
L 874.352743 596.048367 
L 875.53185 587.799304 
L 876.710958 581.054788 
L 877.890066 575.463181 
L 879.069173 570.678609 
L 880.248281 567.104592 
L 881.427388 564.625838 
L 882.606496 562.665893 
L 883.785604 561.801212 
L 884.964711 563.069411 
L 886.143819 566.412847 
L 887.322927 571.773873 
L 889.681142 585.897005 
L 890.860249 591.603903 
L 894.397572 611.889333 
L 895.57668 614.679372 
L 896.755788 614.581375 
L 897.934895 613.912688 
L 901.472218 607.583219 
L 902.651326 606.211257 
L 903.830433 603.686387 
L 906.188649 596.06566 
L 907.367756 593.6042 
L 908.546864 592.266826 
L 909.725971 592.203416 
L 910.905079 593.437028 
L 912.084187 594.503469 
L 914.442402 592.860574 
L 915.62151 593.460086 
L 916.800617 594.647582 
L 920.33794 593.148801 
L 921.517048 593.98466 
L 922.696155 596.163657 
L 923.875263 599.535916 
L 925.054371 601.818675 
L 926.233478 604.683653 
L 927.412586 606.511014 
L 928.591693 606.920296 
L 929.770801 606.539836 
L 930.949909 607.225817 
L 932.129016 606.551365 
L 933.308124 601.818675 
L 935.666339 593.973131 
L 938.024554 585.724069 
L 939.203662 583.360606 
L 941.561877 581.054788 
L 942.740985 581.573597 
L 943.920093 583.821769 
L 945.0992 587.395786 
L 946.278308 591.71343 
L 947.457415 597.477973 
L 948.636523 603.991908 
L 949.815631 611.266762 
L 950.994738 619.487002 
L 952.173846 625.424482 
L 954.532061 634.232705 
L 955.711169 634.889863 
L 956.890276 630.912328 
L 958.069384 627.384427 
L 959.248492 624.404158 
L 960.427599 622.03493 
L 961.606707 620.345919 
L 962.785815 619.371711 
L 963.964922 619.146894 
L 965.14403 617.890223 
L 966.323137 615.301943 
L 969.86046 594.762873 
L 971.039568 589.182795 
L 972.218676 584.859387 
L 973.397783 581.28537 
L 974.576891 578.63368 
L 975.755998 576.673735 
L 976.935106 575.751408 
L 978.114214 575.520826 
L 979.293321 575.866699 
L 980.472429 576.73138 
L 981.651537 579.325425 
L 982.830644 583.706478 
L 984.009752 589.643958 
L 985.188859 597.097514 
L 986.367967 605.830797 
L 988.726182 625.758825 
L 989.90529 632.895331 
L 991.084398 632.722394 
L 992.263505 632.952976 
L 993.442613 633.587076 
L 994.62172 633.938713 
L 995.800828 633.218145 
L 996.979936 631.483018 
L 998.159043 628.969676 
L 999.338151 626.957851 
L 1000.517259 625.493656 
L 1002.875474 622.870789 
L 1004.054581 622.144457 
L 1005.233689 622.086811 
L 1006.412797 622.709382 
L 1007.591904 622.980315 
L 1008.771012 622.692088 
L 1009.95012 622.755498 
L 1012.308335 624.098637 
L 1013.487442 624.542507 
L 1014.66655 625.476363 
L 1015.845658 627.009731 
L 1018.203873 631.19479 
L 1019.382981 632.122882 
L 1021.741196 624.438745 
L 1022.920303 621.152955 
L 1025.278519 615.46335 
L 1026.457626 613.468818 
L 1027.636734 611.041945 
L 1028.815842 609.243407 
L 1029.994949 608.251906 
L 1031.174057 606.983706 
L 1032.353164 605.329282 
L 1033.532272 604.453072 
L 1034.71138 604.216725 
L 1035.890487 604.764357 
L 1037.069595 606.165141 
L 1038.248703 608.424842 
L 1039.42781 611.220646 
L 1040.606918 612.546491 
L 1042.965133 616.656611 
L 1044.144241 613.653283 
L 1045.323348 605.784681 
L 1046.502456 598.97099 
L 1047.681564 592.987394 
L 1048.860671 586.415814 
L 1050.039779 580.997143 
L 1051.218886 576.500798 
L 1052.397994 573.157363 
L 1053.577102 571.139773 
L 1054.756209 569.929219 
L 1055.935317 570.620964 
L 1057.114425 571.716227 
L 1058.293532 569.698637 
L 1059.47264 566.931656 
L 1060.651747 566.182265 
L 1061.830855 565.778747 
L 1063.009963 565.202293 
L 1064.18907 565.144647 
L 1065.368178 567.104592 
L 1067.726393 573.849108 
L 1068.905501 573.906754 
L 1070.084608 575.866699 
L 1072.442824 583.360606 
L 1073.621931 588.375759 
L 1074.801039 594.071128 
L 1075.980147 601.121165 
L 1078.338362 616.754608 
L 1079.517469 622.611385 
L 1080.696577 624.646269 
L 1081.875685 622.651736 
L 1083.054792 617.440589 
L 1084.2339 610.309848 
L 1086.592115 591.200385 
L 1087.771223 583.475897 
L 1088.95033 577.423126 
L 1090.129438 573.099718 
L 1091.308546 570.7939 
L 1092.487653 570.390382 
L 1093.666761 572.004454 
L 1094.845869 575.520826 
L 1096.024976 580.824206 
L 1097.204084 585.378196 
L 1098.383191 590.796867 
L 1099.562299 597.679733 
L 1100.741407 603.415454 
L 1101.920514 608.102028 
L 1103.099622 610.488549 
L 1104.27873 610.315613 
L 1105.457837 605.594451 
L 1106.636945 599.028636 
L 1107.816052 591.258031 
L 1110.174268 571.024482 
L 1111.353375 563.299993 
L 1112.532483 557.65074 
L 1113.711591 554.307305 
L 1114.890698 553.384978 
L 1116.069806 553.903787 
L 1117.248913 556.151959 
L 1118.428021 560.648303 
L 1119.607129 563.58822 
L 1120.786236 563.415284 
L 1121.965344 565.317583 
L 1123.144452 569.352764 
L 1124.323559 571.600936 
L 1125.502667 573.272654 
L 1126.681774 575.636117 
L 1127.860882 578.460743 
L 1129.03999 579.556007 
L 1130.219097 581.227724 
L 1131.398205 584.513514 
L 1132.577313 585.724069 
L 1136.114635 591.603903 
L 1137.293743 593.978895 
L 1139.651958 600.740705 
L 1140.831066 604.637537 
L 1142.010174 609.012826 
L 1143.189281 610.79407 
L 1144.368389 610.494313 
L 1145.547496 611.076532 
L 1146.726604 612.534962 
L 1147.905712 614.852309 
L 1149.084819 617.982456 
L 1150.263927 621.850465 
L 1151.443035 626.369867 
L 1152.622142 631.431137 
L 1153.80125 635.189619 
L 1156.159465 641.847667 
L 1157.338573 643.363742 
L 1158.51768 642.135894 
L 1159.696788 640.003013 
L 1160.875896 636.867101 
L 1162.055003 633.252732 
L 1163.234111 628.387457 
L 1164.413218 624.052521 
L 1165.592326 620.345919 
L 1166.771434 617.359885 
L 1167.950541 615.175123 
L 1169.129649 613.837749 
L 1170.308757 613.388114 
L 1171.487864 613.837749 
L 1172.666972 614.898425 
L 1173.846079 615.290414 
L 1175.025187 616.529791 
L 1176.204295 618.587733 
L 1177.383402 621.412359 
L 1178.56251 624.928731 
L 1179.741618 629.061909 
L 1180.920725 631.108322 
L 1182.099833 632.532164 
L 1183.27894 634.376819 
L 1184.458048 636.590403 
L 1185.637156 638.077656 
L 1186.816263 638.556113 
L 1187.995371 638.440822 
L 1189.174479 636.498171 
L 1190.353586 632.601339 
L 1191.532694 627.649596 
L 1192.711801 623.228191 
L 1193.890909 619.44665 
L 1195.070017 616.408735 
L 1196.249124 613.722458 
L 1197.428232 610.575017 
L 1198.60734 608.38449 
L 1199.786447 607.208523 
L 1200.965555 607.075939 
L 1202.144662 607.877211 
L 1203.32377 607.623571 
L 1204.502878 608.349903 
L 1205.681985 610.108089 
L 1206.861093 612.840483 
L 1208.040201 616.495204 
L 1209.219308 620.96849 
L 1210.398416 622.507623 
L 1211.577523 622.761263 
L 1212.756631 622.000343 
L 1213.935739 619.7637 
L 1215.114846 616.696963 
L 1216.293954 613.976098 
L 1217.473062 611.756749 
L 1218.652169 610.47702 
L 1219.831277 609.600809 
L 1222.189492 600.965522 
L 1223.3686 597.84114 
L 1225.726815 594.284416 
L 1226.905923 592.900926 
L 1228.08503 589.643958 
L 1229.264138 586.992268 
L 1230.443245 585.897005 
L 1231.622353 586.358168 
L 1232.801461 586.242878 
L 1233.980568 579.556007 
L 1235.159676 574.425563 
L 1236.338784 571.197418 
L 1237.517891 569.929219 
L 1238.696999 570.678609 
L 1239.876106 573.099718 
L 1241.055214 576.846671 
L 1242.234322 582.380633 
L 1243.413429 588.49105 
L 1244.592537 591.719194 
L 1245.771645 595.777433 
L 1246.950752 601.173046 
L 1248.12986 604.84506 
L 1249.308967 609.450931 
L 1250.488075 615.059832 
L 1251.667183 618.080453 
L 1254.025398 623.055254 
L 1255.204506 620.90508 
L 1256.383613 611.964272 
L 1258.741828 590.796867 
L 1259.920936 577.480771 
L 1261.100044 565.548165 
L 1262.279151 555.402568 
L 1263.458259 547.389852 
L 1264.637367 541.452372 
L 1265.816474 536.898382 
L 1266.995582 535.111374 
L 1268.174689 536.091346 
L 1269.353797 539.780654 
L 1271.712012 551.828551 
L 1272.89112 560.071849 
L 1274.070228 570.505673 
L 1276.428443 596.048367 
L 1277.60755 610.131147 
L 1278.786658 617.642348 
L 1279.965766 621.268246 
L 1281.144873 622.311628 
L 1282.323981 621.833171 
L 1283.503089 615.814987 
L 1285.861304 598.728879 
L 1287.040411 588.952213 
L 1288.219519 580.478334 
L 1289.398627 570.966836 
L 1290.577734 562.781184 
L 1292.93595 542.317054 
L 1294.115057 534.534919 
L 1295.294165 529.635057 
L 1296.473272 527.675112 
L 1297.65238 528.482148 
L 1298.831488 531.133839 
L 1300.010595 535.399601 
L 1301.189703 541.740599 
L 1303.547918 556.497831 
L 1307.085241 579.440716 
L 1309.443456 595.30474 
L 1310.622564 602.833235 
L 1312.980779 619.417827 
L 1312.980779 619.417827 
" style="fill:none;stroke:#4c72b0;stroke-linecap:round;stroke-width:1.5;"/>
   </g>
   <g id="patch_13">
    <path d="M 62.537143 657.812571 
L 62.537143 470.689714 
" style="fill:none;stroke:#ffffff;stroke-linecap:square;stroke-linejoin:miter;stroke-width:1.25;"/>
   </g>
   <g id="patch_14">
    <path d="M 1372.525714 657.812571 
L 1372.525714 470.689714 
" style="fill:none;stroke:#ffffff;stroke-linecap:square;stroke-linejoin:miter;stroke-width:1.25;"/>
   </g>
   <g id="patch_15">
    <path d="M 62.537143 657.812571 
L 1372.525714 657.812571 
" style="fill:none;stroke:#ffffff;stroke-linecap:square;stroke-linejoin:miter;stroke-width:1.25;"/>
   </g>
   <g id="patch_16">
    <path d="M 62.537143 470.689714 
L 1372.525714 470.689714 
" style="fill:none;stroke:#ffffff;stroke-linecap:square;stroke-linejoin:miter;stroke-width:1.25;"/>
   </g>
  </g>
 </g>
 <defs>
  <clipPath id="p4db1da1c67">
   <rect height="187.122857" width="1309.988571" x="62.537143" y="21.594857"/>
  </clipPath>
  <clipPath id="p4be310cd61">
   <rect height="187.122857" width="1309.988571" x="62.537143" y="246.142286"/>
  </clipPath>
  <clipPath id="pda61e5f4fe">
   <rect height="187.122857" width="1309.988571" x="62.537143" y="470.689714"/>
  </clipPath>
 </defs>
</svg>
