<?xml version="1.0" encoding="utf-8" standalone="no"?>
<!DOCTYPE svg PUBLIC "-//W3C//DTD SVG 1.1//EN"
  "http://www.w3.org/Graphics/SVG/1.1/DTD/svg11.dtd">
<svg height="697.68pt" version="1.1" viewBox="0 0 1382.4 697.68" width="1382.4pt" xmlns="http://www.w3.org/2000/svg" xmlns:xlink="http://www.w3.org/1999/xlink">
 <metadata>
  <rdf:RDF xmlns:cc="http://creativecommons.org/ns#" xmlns:dc="http://purl.org/dc/elements/1.1/" xmlns:rdf="http://www.w3.org/1999/02/22-rdf-syntax-ns#">
   <cc:Work>
    <dc:type rdf:resource="http://purl.org/dc/dcmitype/StillImage"/>
    <dc:date>2021-11-05T23:01:14.611308</dc:date>
    <dc:format>image/svg+xml</dc:format>
    <dc:creator>
     <cc:Agent>
      <dc:title>Matplotlib v3.4.3, https://matplotlib.org/</dc:title>
     </cc:Agent>
    </dc:creator>
   </cc:Work>
  </rdf:RDF>
 </metadata>
 <defs>
  <style type="text/css">*{stroke-linecap:butt;stroke-linejoin:round;}</style>
 </defs>
 <g id="figure_1">
  <g id="patch_1">
   <path d="M 0 697.68 
L 1382.4 697.68 
L 1382.4 0 
L 0 0 
z
" style="fill:#ffffff;"/>
  </g>
  <g id="axes_1">
   <g id="patch_2">
    <path d="M 82.285714 207.056571 
L 1362.651429 207.056571 
L 1362.651429 19.933714 
L 82.285714 19.933714 
z
" style="fill:#eaeaf2;"/>
   </g>
   <g id="matplotlib.axis_1">
    <g id="xtick_1">
     <g id="line2d_1">
      <path clip-path="url(#p5ff0947975)" d="M 140.484156 207.056571 
L 140.484156 19.933714 
" style="fill:none;stroke:#ffffff;stroke-linecap:round;"/>
     </g>
     <g id="text_1">
      <!-- 0 -->
      <g style="fill:#262626;" transform="translate(137.42564 224.430165)scale(0.11 -0.11)">
       <defs>
        <path d="M 266 2259 
Q 266 3072 433 3567 
Q 600 4063 929 4331 
Q 1259 4600 1759 4600 
Q 2128 4600 2406 4451 
Q 2684 4303 2865 4023 
Q 3047 3744 3150 3342 
Q 3253 2941 3253 2259 
Q 3253 1453 3087 958 
Q 2922 463 2592 192 
Q 2263 -78 1759 -78 
Q 1097 -78 719 397 
Q 266 969 266 2259 
z
M 844 2259 
Q 844 1131 1108 757 
Q 1372 384 1759 384 
Q 2147 384 2411 759 
Q 2675 1134 2675 2259 
Q 2675 3391 2411 3762 
Q 2147 4134 1753 4134 
Q 1366 4134 1134 3806 
Q 844 3388 844 2259 
z
" id="ArialMT-30" transform="scale(0.015625)"/>
       </defs>
       <use xlink:href="#ArialMT-30"/>
      </g>
     </g>
    </g>
    <g id="xtick_2">
     <g id="line2d_2">
      <path clip-path="url(#p5ff0947975)" d="M 255.728595 207.056571 
L 255.728595 19.933714 
" style="fill:none;stroke:#ffffff;stroke-linecap:round;"/>
     </g>
     <g id="text_2">
      <!-- 1 -->
      <g style="fill:#262626;" transform="translate(252.670079 224.430165)scale(0.11 -0.11)">
       <defs>
        <path d="M 2384 0 
L 1822 0 
L 1822 3584 
Q 1619 3391 1289 3197 
Q 959 3003 697 2906 
L 697 3450 
Q 1169 3672 1522 3987 
Q 1875 4303 2022 4600 
L 2384 4600 
L 2384 0 
z
" id="ArialMT-31" transform="scale(0.015625)"/>
       </defs>
       <use xlink:href="#ArialMT-31"/>
      </g>
     </g>
    </g>
    <g id="xtick_3">
     <g id="line2d_3">
      <path clip-path="url(#p5ff0947975)" d="M 370.973033 207.056571 
L 370.973033 19.933714 
" style="fill:none;stroke:#ffffff;stroke-linecap:round;"/>
     </g>
     <g id="text_3">
      <!-- 2 -->
      <g style="fill:#262626;" transform="translate(367.914518 224.430165)scale(0.11 -0.11)">
       <defs>
        <path d="M 3222 541 
L 3222 0 
L 194 0 
Q 188 203 259 391 
Q 375 700 629 1000 
Q 884 1300 1366 1694 
Q 2113 2306 2375 2664 
Q 2638 3022 2638 3341 
Q 2638 3675 2398 3904 
Q 2159 4134 1775 4134 
Q 1369 4134 1125 3890 
Q 881 3647 878 3216 
L 300 3275 
Q 359 3922 746 4261 
Q 1134 4600 1788 4600 
Q 2447 4600 2831 4234 
Q 3216 3869 3216 3328 
Q 3216 3053 3103 2787 
Q 2991 2522 2730 2228 
Q 2469 1934 1863 1422 
Q 1356 997 1212 845 
Q 1069 694 975 541 
L 3222 541 
z
" id="ArialMT-32" transform="scale(0.015625)"/>
       </defs>
       <use xlink:href="#ArialMT-32"/>
      </g>
     </g>
    </g>
    <g id="xtick_4">
     <g id="line2d_4">
      <path clip-path="url(#p5ff0947975)" d="M 486.217472 207.056571 
L 486.217472 19.933714 
" style="fill:none;stroke:#ffffff;stroke-linecap:round;"/>
     </g>
     <g id="text_4">
      <!-- 3 -->
      <g style="fill:#262626;" transform="translate(483.158956 224.430165)scale(0.11 -0.11)">
       <defs>
        <path d="M 269 1209 
L 831 1284 
Q 928 806 1161 595 
Q 1394 384 1728 384 
Q 2125 384 2398 659 
Q 2672 934 2672 1341 
Q 2672 1728 2419 1979 
Q 2166 2231 1775 2231 
Q 1616 2231 1378 2169 
L 1441 2663 
Q 1497 2656 1531 2656 
Q 1891 2656 2178 2843 
Q 2466 3031 2466 3422 
Q 2466 3731 2256 3934 
Q 2047 4138 1716 4138 
Q 1388 4138 1169 3931 
Q 950 3725 888 3313 
L 325 3413 
Q 428 3978 793 4289 
Q 1159 4600 1703 4600 
Q 2078 4600 2393 4439 
Q 2709 4278 2876 4000 
Q 3044 3722 3044 3409 
Q 3044 3113 2884 2869 
Q 2725 2625 2413 2481 
Q 2819 2388 3044 2092 
Q 3269 1797 3269 1353 
Q 3269 753 2831 336 
Q 2394 -81 1725 -81 
Q 1122 -81 723 278 
Q 325 638 269 1209 
z
" id="ArialMT-33" transform="scale(0.015625)"/>
       </defs>
       <use xlink:href="#ArialMT-33"/>
      </g>
     </g>
    </g>
    <g id="xtick_5">
     <g id="line2d_5">
      <path clip-path="url(#p5ff0947975)" d="M 601.461911 207.056571 
L 601.461911 19.933714 
" style="fill:none;stroke:#ffffff;stroke-linecap:round;"/>
     </g>
     <g id="text_5">
      <!-- 4 -->
      <g style="fill:#262626;" transform="translate(598.403395 224.430165)scale(0.11 -0.11)">
       <defs>
        <path d="M 2069 0 
L 2069 1097 
L 81 1097 
L 81 1613 
L 2172 4581 
L 2631 4581 
L 2631 1613 
L 3250 1613 
L 3250 1097 
L 2631 1097 
L 2631 0 
L 2069 0 
z
M 2069 1613 
L 2069 3678 
L 634 1613 
L 2069 1613 
z
" id="ArialMT-34" transform="scale(0.015625)"/>
       </defs>
       <use xlink:href="#ArialMT-34"/>
      </g>
     </g>
    </g>
    <g id="xtick_6">
     <g id="line2d_6">
      <path clip-path="url(#p5ff0947975)" d="M 716.706349 207.056571 
L 716.706349 19.933714 
" style="fill:none;stroke:#ffffff;stroke-linecap:round;"/>
     </g>
     <g id="text_6">
      <!-- 5 -->
      <g style="fill:#262626;" transform="translate(713.647834 224.430165)scale(0.11 -0.11)">
       <defs>
        <path d="M 266 1200 
L 856 1250 
Q 922 819 1161 601 
Q 1400 384 1738 384 
Q 2144 384 2425 690 
Q 2706 997 2706 1503 
Q 2706 1984 2436 2262 
Q 2166 2541 1728 2541 
Q 1456 2541 1237 2417 
Q 1019 2294 894 2097 
L 366 2166 
L 809 4519 
L 3088 4519 
L 3088 3981 
L 1259 3981 
L 1013 2750 
Q 1425 3038 1878 3038 
Q 2478 3038 2890 2622 
Q 3303 2206 3303 1553 
Q 3303 931 2941 478 
Q 2500 -78 1738 -78 
Q 1113 -78 717 272 
Q 322 622 266 1200 
z
" id="ArialMT-35" transform="scale(0.015625)"/>
       </defs>
       <use xlink:href="#ArialMT-35"/>
      </g>
     </g>
    </g>
    <g id="xtick_7">
     <g id="line2d_7">
      <path clip-path="url(#p5ff0947975)" d="M 831.950788 207.056571 
L 831.950788 19.933714 
" style="fill:none;stroke:#ffffff;stroke-linecap:round;"/>
     </g>
     <g id="text_7">
      <!-- 6 -->
      <g style="fill:#262626;" transform="translate(828.892273 224.430165)scale(0.11 -0.11)">
       <defs>
        <path d="M 3184 3459 
L 2625 3416 
Q 2550 3747 2413 3897 
Q 2184 4138 1850 4138 
Q 1581 4138 1378 3988 
Q 1113 3794 959 3422 
Q 806 3050 800 2363 
Q 1003 2672 1297 2822 
Q 1591 2972 1913 2972 
Q 2475 2972 2870 2558 
Q 3266 2144 3266 1488 
Q 3266 1056 3080 686 
Q 2894 316 2569 119 
Q 2244 -78 1831 -78 
Q 1128 -78 684 439 
Q 241 956 241 2144 
Q 241 3472 731 4075 
Q 1159 4600 1884 4600 
Q 2425 4600 2770 4297 
Q 3116 3994 3184 3459 
z
M 888 1484 
Q 888 1194 1011 928 
Q 1134 663 1356 523 
Q 1578 384 1822 384 
Q 2178 384 2434 671 
Q 2691 959 2691 1453 
Q 2691 1928 2437 2201 
Q 2184 2475 1800 2475 
Q 1419 2475 1153 2201 
Q 888 1928 888 1484 
z
" id="ArialMT-36" transform="scale(0.015625)"/>
       </defs>
       <use xlink:href="#ArialMT-36"/>
      </g>
     </g>
    </g>
    <g id="xtick_8">
     <g id="line2d_8">
      <path clip-path="url(#p5ff0947975)" d="M 947.195227 207.056571 
L 947.195227 19.933714 
" style="fill:none;stroke:#ffffff;stroke-linecap:round;"/>
     </g>
     <g id="text_8">
      <!-- 7 -->
      <g style="fill:#262626;" transform="translate(944.136711 224.430165)scale(0.11 -0.11)">
       <defs>
        <path d="M 303 3981 
L 303 4522 
L 3269 4522 
L 3269 4084 
Q 2831 3619 2401 2847 
Q 1972 2075 1738 1259 
Q 1569 684 1522 0 
L 944 0 
Q 953 541 1156 1306 
Q 1359 2072 1739 2783 
Q 2119 3494 2547 3981 
L 303 3981 
z
" id="ArialMT-37" transform="scale(0.015625)"/>
       </defs>
       <use xlink:href="#ArialMT-37"/>
      </g>
     </g>
    </g>
    <g id="xtick_9">
     <g id="line2d_9">
      <path clip-path="url(#p5ff0947975)" d="M 1062.439666 207.056571 
L 1062.439666 19.933714 
" style="fill:none;stroke:#ffffff;stroke-linecap:round;"/>
     </g>
     <g id="text_9">
      <!-- 8 -->
      <g style="fill:#262626;" transform="translate(1059.38115 224.430165)scale(0.11 -0.11)">
       <defs>
        <path d="M 1131 2484 
Q 781 2613 612 2850 
Q 444 3088 444 3419 
Q 444 3919 803 4259 
Q 1163 4600 1759 4600 
Q 2359 4600 2725 4251 
Q 3091 3903 3091 3403 
Q 3091 3084 2923 2848 
Q 2756 2613 2416 2484 
Q 2838 2347 3058 2040 
Q 3278 1734 3278 1309 
Q 3278 722 2862 322 
Q 2447 -78 1769 -78 
Q 1091 -78 675 323 
Q 259 725 259 1325 
Q 259 1772 486 2073 
Q 713 2375 1131 2484 
z
M 1019 3438 
Q 1019 3113 1228 2906 
Q 1438 2700 1772 2700 
Q 2097 2700 2305 2904 
Q 2513 3109 2513 3406 
Q 2513 3716 2298 3927 
Q 2084 4138 1766 4138 
Q 1444 4138 1231 3931 
Q 1019 3725 1019 3438 
z
M 838 1322 
Q 838 1081 952 856 
Q 1066 631 1291 507 
Q 1516 384 1775 384 
Q 2178 384 2440 643 
Q 2703 903 2703 1303 
Q 2703 1709 2433 1975 
Q 2163 2241 1756 2241 
Q 1359 2241 1098 1978 
Q 838 1716 838 1322 
z
" id="ArialMT-38" transform="scale(0.015625)"/>
       </defs>
       <use xlink:href="#ArialMT-38"/>
      </g>
     </g>
    </g>
    <g id="xtick_10">
     <g id="line2d_10">
      <path clip-path="url(#p5ff0947975)" d="M 1177.684104 207.056571 
L 1177.684104 19.933714 
" style="fill:none;stroke:#ffffff;stroke-linecap:round;"/>
     </g>
     <g id="text_10">
      <!-- 9 -->
      <g style="fill:#262626;" transform="translate(1174.625589 224.430165)scale(0.11 -0.11)">
       <defs>
        <path d="M 350 1059 
L 891 1109 
Q 959 728 1153 556 
Q 1347 384 1650 384 
Q 1909 384 2104 503 
Q 2300 622 2425 820 
Q 2550 1019 2634 1356 
Q 2719 1694 2719 2044 
Q 2719 2081 2716 2156 
Q 2547 1888 2255 1720 
Q 1963 1553 1622 1553 
Q 1053 1553 659 1965 
Q 266 2378 266 3053 
Q 266 3750 677 4175 
Q 1088 4600 1706 4600 
Q 2153 4600 2523 4359 
Q 2894 4119 3086 3673 
Q 3278 3228 3278 2384 
Q 3278 1506 3087 986 
Q 2897 466 2520 194 
Q 2144 -78 1638 -78 
Q 1100 -78 759 220 
Q 419 519 350 1059 
z
M 2653 3081 
Q 2653 3566 2395 3850 
Q 2138 4134 1775 4134 
Q 1400 4134 1122 3828 
Q 844 3522 844 3034 
Q 844 2597 1108 2323 
Q 1372 2050 1759 2050 
Q 2150 2050 2401 2323 
Q 2653 2597 2653 3081 
z
" id="ArialMT-39" transform="scale(0.015625)"/>
       </defs>
       <use xlink:href="#ArialMT-39"/>
      </g>
     </g>
    </g>
    <g id="xtick_11">
     <g id="line2d_11">
      <path clip-path="url(#p5ff0947975)" d="M 1292.928543 207.056571 
L 1292.928543 19.933714 
" style="fill:none;stroke:#ffffff;stroke-linecap:round;"/>
     </g>
     <g id="text_11">
      <!-- 10 -->
      <g style="fill:#262626;" transform="translate(1286.811512 224.430165)scale(0.11 -0.11)">
       <use xlink:href="#ArialMT-31"/>
       <use x="55.615234" xlink:href="#ArialMT-30"/>
      </g>
     </g>
    </g>
   </g>
   <g id="matplotlib.axis_2">
    <g id="ytick_1">
     <g id="line2d_12">
      <path clip-path="url(#p5ff0947975)" d="M 82.285714 207.056571 
L 1362.651429 207.056571 
" style="fill:none;stroke:#ffffff;stroke-linecap:round;"/>
     </g>
     <g id="text_12">
      <!-- −1015.10 -->
      <g style="fill:#262626;" transform="translate(26.602902 210.993368)scale(0.11 -0.11)">
       <defs>
        <path d="M 3381 1997 
L 356 1997 
L 356 2522 
L 3381 2522 
L 3381 1997 
z
" id="ArialMT-2212" transform="scale(0.015625)"/>
        <path d="M 581 0 
L 581 641 
L 1222 641 
L 1222 0 
L 581 0 
z
" id="ArialMT-2e" transform="scale(0.015625)"/>
       </defs>
       <use xlink:href="#ArialMT-2212"/>
       <use x="58.398438" xlink:href="#ArialMT-31"/>
       <use x="114.013672" xlink:href="#ArialMT-30"/>
       <use x="169.628906" xlink:href="#ArialMT-31"/>
       <use x="225.244141" xlink:href="#ArialMT-35"/>
       <use x="280.859375" xlink:href="#ArialMT-2e"/>
       <use x="308.642578" xlink:href="#ArialMT-31"/>
       <use x="364.257812" xlink:href="#ArialMT-30"/>
      </g>
     </g>
    </g>
    <g id="ytick_2">
     <g id="line2d_13">
      <path clip-path="url(#p5ff0947975)" d="M 82.285714 175.869429 
L 1362.651429 175.869429 
" style="fill:none;stroke:#ffffff;stroke-linecap:round;"/>
     </g>
     <g id="text_13">
      <!-- −1015.05 -->
      <g style="fill:#262626;" transform="translate(26.602902 179.806225)scale(0.11 -0.11)">
       <use xlink:href="#ArialMT-2212"/>
       <use x="58.398438" xlink:href="#ArialMT-31"/>
       <use x="114.013672" xlink:href="#ArialMT-30"/>
       <use x="169.628906" xlink:href="#ArialMT-31"/>
       <use x="225.244141" xlink:href="#ArialMT-35"/>
       <use x="280.859375" xlink:href="#ArialMT-2e"/>
       <use x="308.642578" xlink:href="#ArialMT-30"/>
       <use x="364.257812" xlink:href="#ArialMT-35"/>
      </g>
     </g>
    </g>
    <g id="ytick_3">
     <g id="line2d_14">
      <path clip-path="url(#p5ff0947975)" d="M 82.285714 144.682286 
L 1362.651429 144.682286 
" style="fill:none;stroke:#ffffff;stroke-linecap:round;"/>
     </g>
     <g id="text_14">
      <!-- −1015.00 -->
      <g style="fill:#262626;" transform="translate(26.602902 148.619083)scale(0.11 -0.11)">
       <use xlink:href="#ArialMT-2212"/>
       <use x="58.398438" xlink:href="#ArialMT-31"/>
       <use x="114.013672" xlink:href="#ArialMT-30"/>
       <use x="169.628906" xlink:href="#ArialMT-31"/>
       <use x="225.244141" xlink:href="#ArialMT-35"/>
       <use x="280.859375" xlink:href="#ArialMT-2e"/>
       <use x="308.642578" xlink:href="#ArialMT-30"/>
       <use x="364.257812" xlink:href="#ArialMT-30"/>
      </g>
     </g>
    </g>
    <g id="ytick_4">
     <g id="line2d_15">
      <path clip-path="url(#p5ff0947975)" d="M 82.285714 113.495143 
L 1362.651429 113.495143 
" style="fill:none;stroke:#ffffff;stroke-linecap:round;"/>
     </g>
     <g id="text_15">
      <!-- −1014.95 -->
      <g style="fill:#262626;" transform="translate(26.602902 117.43194)scale(0.11 -0.11)">
       <use xlink:href="#ArialMT-2212"/>
       <use x="58.398438" xlink:href="#ArialMT-31"/>
       <use x="114.013672" xlink:href="#ArialMT-30"/>
       <use x="169.628906" xlink:href="#ArialMT-31"/>
       <use x="225.244141" xlink:href="#ArialMT-34"/>
       <use x="280.859375" xlink:href="#ArialMT-2e"/>
       <use x="308.642578" xlink:href="#ArialMT-39"/>
       <use x="364.257812" xlink:href="#ArialMT-35"/>
      </g>
     </g>
    </g>
    <g id="ytick_5">
     <g id="line2d_16">
      <path clip-path="url(#p5ff0947975)" d="M 82.285714 82.308 
L 1362.651429 82.308 
" style="fill:none;stroke:#ffffff;stroke-linecap:round;"/>
     </g>
     <g id="text_16">
      <!-- −1014.90 -->
      <g style="fill:#262626;" transform="translate(26.602902 86.244797)scale(0.11 -0.11)">
       <use xlink:href="#ArialMT-2212"/>
       <use x="58.398438" xlink:href="#ArialMT-31"/>
       <use x="114.013672" xlink:href="#ArialMT-30"/>
       <use x="169.628906" xlink:href="#ArialMT-31"/>
       <use x="225.244141" xlink:href="#ArialMT-34"/>
       <use x="280.859375" xlink:href="#ArialMT-2e"/>
       <use x="308.642578" xlink:href="#ArialMT-39"/>
       <use x="364.257812" xlink:href="#ArialMT-30"/>
      </g>
     </g>
    </g>
    <g id="ytick_6">
     <g id="line2d_17">
      <path clip-path="url(#p5ff0947975)" d="M 82.285714 51.120857 
L 1362.651429 51.120857 
" style="fill:none;stroke:#ffffff;stroke-linecap:round;"/>
     </g>
     <g id="text_17">
      <!-- −1014.85 -->
      <g style="fill:#262626;" transform="translate(26.602902 55.057654)scale(0.11 -0.11)">
       <use xlink:href="#ArialMT-2212"/>
       <use x="58.398438" xlink:href="#ArialMT-31"/>
       <use x="114.013672" xlink:href="#ArialMT-30"/>
       <use x="169.628906" xlink:href="#ArialMT-31"/>
       <use x="225.244141" xlink:href="#ArialMT-34"/>
       <use x="280.859375" xlink:href="#ArialMT-2e"/>
       <use x="308.642578" xlink:href="#ArialMT-38"/>
       <use x="364.257812" xlink:href="#ArialMT-35"/>
      </g>
     </g>
    </g>
    <g id="ytick_7">
     <g id="line2d_18">
      <path clip-path="url(#p5ff0947975)" d="M 82.285714 19.933714 
L 1362.651429 19.933714 
" style="fill:none;stroke:#ffffff;stroke-linecap:round;"/>
     </g>
     <g id="text_18">
      <!-- −1014.80 -->
      <g style="fill:#262626;" transform="translate(26.602902 23.870511)scale(0.11 -0.11)">
       <use xlink:href="#ArialMT-2212"/>
       <use x="58.398438" xlink:href="#ArialMT-31"/>
       <use x="114.013672" xlink:href="#ArialMT-30"/>
       <use x="169.628906" xlink:href="#ArialMT-31"/>
       <use x="225.244141" xlink:href="#ArialMT-34"/>
       <use x="280.859375" xlink:href="#ArialMT-2e"/>
       <use x="308.642578" xlink:href="#ArialMT-38"/>
       <use x="364.257812" xlink:href="#ArialMT-30"/>
      </g>
     </g>
    </g>
    <g id="text_19">
     <!-- H [kJ/mol] -->
     <g style="fill:#262626;" transform="translate(20.217902 140.163268)rotate(-90)scale(0.12 -0.12)">
      <defs>
       <path d="M 513 0 
L 513 4581 
L 1119 4581 
L 1119 2700 
L 3500 2700 
L 3500 4581 
L 4106 4581 
L 4106 0 
L 3500 0 
L 3500 2159 
L 1119 2159 
L 1119 0 
L 513 0 
z
" id="ArialMT-48" transform="scale(0.015625)"/>
       <path id="ArialMT-20" transform="scale(0.015625)"/>
       <path d="M 434 -1272 
L 434 4581 
L 1675 4581 
L 1675 4116 
L 997 4116 
L 997 -806 
L 1675 -806 
L 1675 -1272 
L 434 -1272 
z
" id="ArialMT-5b" transform="scale(0.015625)"/>
       <path d="M 425 0 
L 425 4581 
L 988 4581 
L 988 1969 
L 2319 3319 
L 3047 3319 
L 1778 2088 
L 3175 0 
L 2481 0 
L 1384 1697 
L 988 1316 
L 988 0 
L 425 0 
z
" id="ArialMT-6b" transform="scale(0.015625)"/>
       <path d="M 184 1300 
L 731 1375 
Q 753 850 928 656 
Q 1103 463 1413 463 
Q 1641 463 1806 567 
Q 1972 672 2034 851 
Q 2097 1031 2097 1425 
L 2097 4581 
L 2703 4581 
L 2703 1459 
Q 2703 884 2564 568 
Q 2425 253 2123 87 
Q 1822 -78 1416 -78 
Q 813 -78 492 269 
Q 172 616 184 1300 
z
" id="ArialMT-4a" transform="scale(0.015625)"/>
       <path d="M 0 -78 
L 1328 4659 
L 1778 4659 
L 453 -78 
L 0 -78 
z
" id="ArialMT-2f" transform="scale(0.015625)"/>
       <path d="M 422 0 
L 422 3319 
L 925 3319 
L 925 2853 
Q 1081 3097 1340 3245 
Q 1600 3394 1931 3394 
Q 2300 3394 2536 3241 
Q 2772 3088 2869 2813 
Q 3263 3394 3894 3394 
Q 4388 3394 4653 3120 
Q 4919 2847 4919 2278 
L 4919 0 
L 4359 0 
L 4359 2091 
Q 4359 2428 4304 2576 
Q 4250 2725 4106 2815 
Q 3963 2906 3769 2906 
Q 3419 2906 3187 2673 
Q 2956 2441 2956 1928 
L 2956 0 
L 2394 0 
L 2394 2156 
Q 2394 2531 2256 2718 
Q 2119 2906 1806 2906 
Q 1569 2906 1367 2781 
Q 1166 2656 1075 2415 
Q 984 2175 984 1722 
L 984 0 
L 422 0 
z
" id="ArialMT-6d" transform="scale(0.015625)"/>
       <path d="M 213 1659 
Q 213 2581 725 3025 
Q 1153 3394 1769 3394 
Q 2453 3394 2887 2945 
Q 3322 2497 3322 1706 
Q 3322 1066 3130 698 
Q 2938 331 2570 128 
Q 2203 -75 1769 -75 
Q 1072 -75 642 372 
Q 213 819 213 1659 
z
M 791 1659 
Q 791 1022 1069 705 
Q 1347 388 1769 388 
Q 2188 388 2466 706 
Q 2744 1025 2744 1678 
Q 2744 2294 2464 2611 
Q 2184 2928 1769 2928 
Q 1347 2928 1069 2612 
Q 791 2297 791 1659 
z
" id="ArialMT-6f" transform="scale(0.015625)"/>
       <path d="M 409 0 
L 409 4581 
L 972 4581 
L 972 0 
L 409 0 
z
" id="ArialMT-6c" transform="scale(0.015625)"/>
       <path d="M 1363 -1272 
L 122 -1272 
L 122 -806 
L 800 -806 
L 800 4116 
L 122 4116 
L 122 4581 
L 1363 4581 
L 1363 -1272 
z
" id="ArialMT-5d" transform="scale(0.015625)"/>
      </defs>
      <use xlink:href="#ArialMT-48"/>
      <use x="72.216797" xlink:href="#ArialMT-20"/>
      <use x="100" xlink:href="#ArialMT-5b"/>
      <use x="127.783203" xlink:href="#ArialMT-6b"/>
      <use x="177.783203" xlink:href="#ArialMT-4a"/>
      <use x="227.783203" xlink:href="#ArialMT-2f"/>
      <use x="255.566406" xlink:href="#ArialMT-6d"/>
      <use x="338.867188" xlink:href="#ArialMT-6f"/>
      <use x="394.482422" xlink:href="#ArialMT-6c"/>
      <use x="416.699219" xlink:href="#ArialMT-5d"/>
     </g>
    </g>
   </g>
   <g id="line2d_19">
    <path clip-path="url(#p5ff0947975)" d="M 140.484156 120.980057 
L 147.398822 120.980057 
L 148.551267 120.356314 
L 152.0086 120.356314 
L 153.161044 119.732571 
L 155.465933 119.732571 
L 156.618377 119.108829 
L 161.228155 119.108829 
L 162.380599 119.732571 
L 164.685488 119.732571 
L 165.837932 120.356314 
L 180.819709 120.356314 
L 181.972154 119.732571 
L 187.734376 119.732571 
L 188.88682 120.356314 
L 214.240597 120.356314 
L 215.393041 119.732571 
L 223.460152 119.732571 
L 224.612596 120.356314 
L 231.527262 120.356314 
L 232.679707 119.732571 
L 239.594373 119.732571 
L 240.746818 120.356314 
L 246.509039 120.356314 
L 247.661484 119.732571 
L 332.942369 119.732571 
L 334.094813 120.356314 
L 339.857035 120.356314 
L 341.009479 119.732571 
L 352.533923 119.732571 
L 353.686367 120.356314 
L 400.936587 120.356314 
L 402.089032 119.732571 
L 404.393921 119.732571 
L 405.546365 120.356314 
L 432.052586 120.356314 
L 433.20503 119.732571 
L 438.967252 119.732571 
L 440.119697 120.356314 
L 453.949029 120.356314 
L 455.101474 119.732571 
L 456.253918 120.356314 
L 465.473473 120.356314 
L 466.625917 119.732571 
L 486.217472 119.732571 
L 487.369916 120.356314 
L 503.504138 120.356314 
L 504.656582 119.732571 
L 520.790804 119.732571 
L 521.943248 120.356314 
L 532.315248 120.356314 
L 533.467692 119.732571 
L 543.839691 119.732571 
L 544.992136 120.356314 
L 546.14458 120.356314 
L 547.297025 119.732571 
L 555.364135 119.732571 
L 556.51658 120.356314 
L 561.126357 120.356314 
L 562.278802 119.732571 
L 563.431246 119.732571 
L 564.58369 120.356314 
L 573.803245 120.356314 
L 574.95569 119.732571 
L 584.175245 119.732571 
L 585.327689 120.356314 
L 606.071688 120.356314 
L 607.224133 119.732571 
L 608.376577 120.356314 
L 645.254797 120.356314 
L 646.407242 119.732571 
L 648.712131 119.732571 
L 649.864575 120.356314 
L 685.590351 120.356314 
L 686.742795 119.732571 
L 692.505017 119.732571 
L 693.657462 120.356314 
L 715.553905 120.356314 
L 716.706349 119.732571 
L 722.468571 119.732571 
L 723.621016 120.356314 
L 729.383238 120.356314 
L 730.535682 119.732571 
L 738.602793 119.732571 
L 739.755237 120.356314 
L 751.279681 120.356314 
L 752.432125 119.732571 
L 767.413903 119.732571 
L 768.566347 120.356314 
L 775.481013 120.356314 
L 776.633458 119.732571 
L 783.548124 119.732571 
L 784.700568 120.356314 
L 792.767679 120.356314 
L 793.920123 119.732571 
L 801.987234 119.732571 
L 803.139679 120.356314 
L 819.2739 120.356314 
L 820.426344 119.732571 
L 828.493455 119.732571 
L 829.645899 120.356314 
L 846.932565 120.356314 
L 848.08501 119.732571 
L 854.999676 119.732571 
L 856.15212 120.356314 
L 868.829009 120.356314 
L 869.981453 119.732571 
L 872.286342 119.732571 
L 873.438786 120.356314 
L 932.21345 120.356314 
L 933.365894 119.732571 
L 940.280561 119.732571 
L 941.433005 120.356314 
L 944.890338 120.356314 
L 946.042783 119.732571 
L 966.786782 119.732571 
L 967.939226 120.356314 
L 980.616114 120.356314 
L 981.768559 119.732571 
L 997.90278 119.732571 
L 999.055224 120.356314 
L 1000.207669 120.356314 
L 1001.360113 119.732571 
L 1022.104112 119.732571 
L 1023.256557 120.356314 
L 1030.171223 120.356314 
L 1031.323667 119.732571 
L 1041.695667 119.732571 
L 1042.848111 120.356314 
L 1137.348551 120.356314 
L 1138.500995 119.732571 
L 1151.177884 119.732571 
L 1152.330328 120.356314 
L 1169.616994 120.356314 
L 1170.769438 119.732571 
L 1184.598771 119.732571 
L 1185.751215 120.356314 
L 1191.513437 120.356314 
L 1192.665881 119.732571 
L 1244.525879 119.732571 
L 1245.678323 120.356314 
L 1252.59299 120.356314 
L 1253.745434 119.732571 
L 1266.422322 119.732571 
L 1267.574767 120.356314 
L 1284.861432 120.356314 
L 1286.013877 119.732571 
L 1292.928543 119.732571 
L 1294.080988 120.356314 
L 1304.452987 120.356314 
L 1304.452987 120.356314 
" style="fill:none;stroke:#4c72b0;stroke-linecap:round;stroke-width:1.5;"/>
   </g>
   <g id="patch_3">
    <path d="M 82.285714 207.056571 
L 82.285714 19.933714 
" style="fill:none;stroke:#ffffff;stroke-linecap:square;stroke-linejoin:miter;stroke-width:1.25;"/>
   </g>
   <g id="patch_4">
    <path d="M 1362.651429 207.056571 
L 1362.651429 19.933714 
" style="fill:none;stroke:#ffffff;stroke-linecap:square;stroke-linejoin:miter;stroke-width:1.25;"/>
   </g>
   <g id="patch_5">
    <path d="M 82.285714 207.056571 
L 1362.651429 207.056571 
" style="fill:none;stroke:#ffffff;stroke-linecap:square;stroke-linejoin:miter;stroke-width:1.25;"/>
   </g>
   <g id="patch_6">
    <path d="M 82.285714 19.933714 
L 1362.651429 19.933714 
" style="fill:none;stroke:#ffffff;stroke-linecap:square;stroke-linejoin:miter;stroke-width:1.25;"/>
   </g>
   <g id="text_20">
    <!-- Wykresy dla n = 6 i T = 90K -->
    <g style="fill:#262626;" transform="translate(649.037009 13.933714)scale(0.12 -0.12)">
     <defs>
      <path d="M 1294 0 
L 78 4581 
L 700 4581 
L 1397 1578 
Q 1509 1106 1591 641 
Q 1766 1375 1797 1488 
L 2669 4581 
L 3400 4581 
L 4056 2263 
Q 4303 1400 4413 641 
Q 4500 1075 4641 1638 
L 5359 4581 
L 5969 4581 
L 4713 0 
L 4128 0 
L 3163 3491 
Q 3041 3928 3019 4028 
Q 2947 3713 2884 3491 
L 1913 0 
L 1294 0 
z
" id="ArialMT-57" transform="scale(0.015625)"/>
      <path d="M 397 -1278 
L 334 -750 
Q 519 -800 656 -800 
Q 844 -800 956 -737 
Q 1069 -675 1141 -563 
Q 1194 -478 1313 -144 
Q 1328 -97 1363 -6 
L 103 3319 
L 709 3319 
L 1400 1397 
Q 1534 1031 1641 628 
Q 1738 1016 1872 1384 
L 2581 3319 
L 3144 3319 
L 1881 -56 
Q 1678 -603 1566 -809 
Q 1416 -1088 1222 -1217 
Q 1028 -1347 759 -1347 
Q 597 -1347 397 -1278 
z
" id="ArialMT-79" transform="scale(0.015625)"/>
      <path d="M 416 0 
L 416 3319 
L 922 3319 
L 922 2816 
Q 1116 3169 1280 3281 
Q 1444 3394 1641 3394 
Q 1925 3394 2219 3213 
L 2025 2691 
Q 1819 2813 1613 2813 
Q 1428 2813 1281 2702 
Q 1134 2591 1072 2394 
Q 978 2094 978 1738 
L 978 0 
L 416 0 
z
" id="ArialMT-72" transform="scale(0.015625)"/>
      <path d="M 2694 1069 
L 3275 997 
Q 3138 488 2766 206 
Q 2394 -75 1816 -75 
Q 1088 -75 661 373 
Q 234 822 234 1631 
Q 234 2469 665 2931 
Q 1097 3394 1784 3394 
Q 2450 3394 2872 2941 
Q 3294 2488 3294 1666 
Q 3294 1616 3291 1516 
L 816 1516 
Q 847 969 1125 678 
Q 1403 388 1819 388 
Q 2128 388 2347 550 
Q 2566 713 2694 1069 
z
M 847 1978 
L 2700 1978 
Q 2663 2397 2488 2606 
Q 2219 2931 1791 2931 
Q 1403 2931 1139 2672 
Q 875 2413 847 1978 
z
" id="ArialMT-65" transform="scale(0.015625)"/>
      <path d="M 197 991 
L 753 1078 
Q 800 744 1014 566 
Q 1228 388 1613 388 
Q 2000 388 2187 545 
Q 2375 703 2375 916 
Q 2375 1106 2209 1216 
Q 2094 1291 1634 1406 
Q 1016 1563 777 1677 
Q 538 1791 414 1992 
Q 291 2194 291 2438 
Q 291 2659 392 2848 
Q 494 3038 669 3163 
Q 800 3259 1026 3326 
Q 1253 3394 1513 3394 
Q 1903 3394 2198 3281 
Q 2494 3169 2634 2976 
Q 2775 2784 2828 2463 
L 2278 2388 
Q 2241 2644 2061 2787 
Q 1881 2931 1553 2931 
Q 1166 2931 1000 2803 
Q 834 2675 834 2503 
Q 834 2394 903 2306 
Q 972 2216 1119 2156 
Q 1203 2125 1616 2013 
Q 2213 1853 2448 1751 
Q 2684 1650 2818 1456 
Q 2953 1263 2953 975 
Q 2953 694 2789 445 
Q 2625 197 2315 61 
Q 2006 -75 1616 -75 
Q 969 -75 630 194 
Q 291 463 197 991 
z
" id="ArialMT-73" transform="scale(0.015625)"/>
      <path d="M 2575 0 
L 2575 419 
Q 2259 -75 1647 -75 
Q 1250 -75 917 144 
Q 584 363 401 755 
Q 219 1147 219 1656 
Q 219 2153 384 2558 
Q 550 2963 881 3178 
Q 1213 3394 1622 3394 
Q 1922 3394 2156 3267 
Q 2391 3141 2538 2938 
L 2538 4581 
L 3097 4581 
L 3097 0 
L 2575 0 
z
M 797 1656 
Q 797 1019 1065 703 
Q 1334 388 1700 388 
Q 2069 388 2326 689 
Q 2584 991 2584 1609 
Q 2584 2291 2321 2609 
Q 2059 2928 1675 2928 
Q 1300 2928 1048 2622 
Q 797 2316 797 1656 
z
" id="ArialMT-64" transform="scale(0.015625)"/>
      <path d="M 2588 409 
Q 2275 144 1986 34 
Q 1697 -75 1366 -75 
Q 819 -75 525 192 
Q 231 459 231 875 
Q 231 1119 342 1320 
Q 453 1522 633 1644 
Q 813 1766 1038 1828 
Q 1203 1872 1538 1913 
Q 2219 1994 2541 2106 
Q 2544 2222 2544 2253 
Q 2544 2597 2384 2738 
Q 2169 2928 1744 2928 
Q 1347 2928 1158 2789 
Q 969 2650 878 2297 
L 328 2372 
Q 403 2725 575 2942 
Q 747 3159 1072 3276 
Q 1397 3394 1825 3394 
Q 2250 3394 2515 3294 
Q 2781 3194 2906 3042 
Q 3031 2891 3081 2659 
Q 3109 2516 3109 2141 
L 3109 1391 
Q 3109 606 3145 398 
Q 3181 191 3288 0 
L 2700 0 
Q 2613 175 2588 409 
z
M 2541 1666 
Q 2234 1541 1622 1453 
Q 1275 1403 1131 1340 
Q 988 1278 909 1158 
Q 831 1038 831 891 
Q 831 666 1001 516 
Q 1172 366 1500 366 
Q 1825 366 2078 508 
Q 2331 650 2450 897 
Q 2541 1088 2541 1459 
L 2541 1666 
z
" id="ArialMT-61" transform="scale(0.015625)"/>
      <path d="M 422 0 
L 422 3319 
L 928 3319 
L 928 2847 
Q 1294 3394 1984 3394 
Q 2284 3394 2536 3286 
Q 2788 3178 2913 3003 
Q 3038 2828 3088 2588 
Q 3119 2431 3119 2041 
L 3119 0 
L 2556 0 
L 2556 2019 
Q 2556 2363 2490 2533 
Q 2425 2703 2258 2804 
Q 2091 2906 1866 2906 
Q 1506 2906 1245 2678 
Q 984 2450 984 1813 
L 984 0 
L 422 0 
z
" id="ArialMT-6e" transform="scale(0.015625)"/>
      <path d="M 3381 2694 
L 356 2694 
L 356 3219 
L 3381 3219 
L 3381 2694 
z
M 3381 1303 
L 356 1303 
L 356 1828 
L 3381 1828 
L 3381 1303 
z
" id="ArialMT-3d" transform="scale(0.015625)"/>
      <path d="M 425 3934 
L 425 4581 
L 988 4581 
L 988 3934 
L 425 3934 
z
M 425 0 
L 425 3319 
L 988 3319 
L 988 0 
L 425 0 
z
" id="ArialMT-69" transform="scale(0.015625)"/>
      <path d="M 1659 0 
L 1659 4041 
L 150 4041 
L 150 4581 
L 3781 4581 
L 3781 4041 
L 2266 4041 
L 2266 0 
L 1659 0 
z
" id="ArialMT-54" transform="scale(0.015625)"/>
      <path d="M 469 0 
L 469 4581 
L 1075 4581 
L 1075 2309 
L 3350 4581 
L 4172 4581 
L 2250 2725 
L 4256 0 
L 3456 0 
L 1825 2319 
L 1075 1588 
L 1075 0 
L 469 0 
z
" id="ArialMT-4b" transform="scale(0.015625)"/>
     </defs>
     <use xlink:href="#ArialMT-57"/>
     <use x="93.509766" xlink:href="#ArialMT-79"/>
     <use x="143.509766" xlink:href="#ArialMT-6b"/>
     <use x="193.509766" xlink:href="#ArialMT-72"/>
     <use x="226.810547" xlink:href="#ArialMT-65"/>
     <use x="282.425781" xlink:href="#ArialMT-73"/>
     <use x="332.425781" xlink:href="#ArialMT-79"/>
     <use x="382.425781" xlink:href="#ArialMT-20"/>
     <use x="410.208984" xlink:href="#ArialMT-64"/>
     <use x="465.824219" xlink:href="#ArialMT-6c"/>
     <use x="488.041016" xlink:href="#ArialMT-61"/>
     <use x="543.65625" xlink:href="#ArialMT-20"/>
     <use x="571.439453" xlink:href="#ArialMT-6e"/>
     <use x="627.054688" xlink:href="#ArialMT-20"/>
     <use x="654.837891" xlink:href="#ArialMT-3d"/>
     <use x="713.236328" xlink:href="#ArialMT-20"/>
     <use x="741.019531" xlink:href="#ArialMT-36"/>
     <use x="796.634766" xlink:href="#ArialMT-20"/>
     <use x="824.417969" xlink:href="#ArialMT-69"/>
     <use x="846.634766" xlink:href="#ArialMT-20"/>
     <use x="872.667969" xlink:href="#ArialMT-54"/>
     <use x="932.001953" xlink:href="#ArialMT-20"/>
     <use x="959.785156" xlink:href="#ArialMT-3d"/>
     <use x="1018.183594" xlink:href="#ArialMT-20"/>
     <use x="1045.966797" xlink:href="#ArialMT-39"/>
     <use x="1101.582031" xlink:href="#ArialMT-30"/>
     <use x="1157.197266" xlink:href="#ArialMT-4b"/>
    </g>
   </g>
  </g>
  <g id="axes_2">
   <g id="patch_7">
    <path d="M 82.285714 431.604 
L 1362.651429 431.604 
L 1362.651429 244.481143 
L 82.285714 244.481143 
z
" style="fill:#eaeaf2;"/>
   </g>
   <g id="matplotlib.axis_3">
    <g id="xtick_12">
     <g id="line2d_20">
      <path clip-path="url(#p3fb5f02787)" d="M 140.484156 431.604 
L 140.484156 244.481143 
" style="fill:none;stroke:#ffffff;stroke-linecap:round;"/>
     </g>
     <g id="text_21">
      <!-- 0 -->
      <g style="fill:#262626;" transform="translate(137.42564 448.977594)scale(0.11 -0.11)">
       <use xlink:href="#ArialMT-30"/>
      </g>
     </g>
    </g>
    <g id="xtick_13">
     <g id="line2d_21">
      <path clip-path="url(#p3fb5f02787)" d="M 255.728595 431.604 
L 255.728595 244.481143 
" style="fill:none;stroke:#ffffff;stroke-linecap:round;"/>
     </g>
     <g id="text_22">
      <!-- 1 -->
      <g style="fill:#262626;" transform="translate(252.670079 448.977594)scale(0.11 -0.11)">
       <use xlink:href="#ArialMT-31"/>
      </g>
     </g>
    </g>
    <g id="xtick_14">
     <g id="line2d_22">
      <path clip-path="url(#p3fb5f02787)" d="M 370.973033 431.604 
L 370.973033 244.481143 
" style="fill:none;stroke:#ffffff;stroke-linecap:round;"/>
     </g>
     <g id="text_23">
      <!-- 2 -->
      <g style="fill:#262626;" transform="translate(367.914518 448.977594)scale(0.11 -0.11)">
       <use xlink:href="#ArialMT-32"/>
      </g>
     </g>
    </g>
    <g id="xtick_15">
     <g id="line2d_23">
      <path clip-path="url(#p3fb5f02787)" d="M 486.217472 431.604 
L 486.217472 244.481143 
" style="fill:none;stroke:#ffffff;stroke-linecap:round;"/>
     </g>
     <g id="text_24">
      <!-- 3 -->
      <g style="fill:#262626;" transform="translate(483.158956 448.977594)scale(0.11 -0.11)">
       <use xlink:href="#ArialMT-33"/>
      </g>
     </g>
    </g>
    <g id="xtick_16">
     <g id="line2d_24">
      <path clip-path="url(#p3fb5f02787)" d="M 601.461911 431.604 
L 601.461911 244.481143 
" style="fill:none;stroke:#ffffff;stroke-linecap:round;"/>
     </g>
     <g id="text_25">
      <!-- 4 -->
      <g style="fill:#262626;" transform="translate(598.403395 448.977594)scale(0.11 -0.11)">
       <use xlink:href="#ArialMT-34"/>
      </g>
     </g>
    </g>
    <g id="xtick_17">
     <g id="line2d_25">
      <path clip-path="url(#p3fb5f02787)" d="M 716.706349 431.604 
L 716.706349 244.481143 
" style="fill:none;stroke:#ffffff;stroke-linecap:round;"/>
     </g>
     <g id="text_26">
      <!-- 5 -->
      <g style="fill:#262626;" transform="translate(713.647834 448.977594)scale(0.11 -0.11)">
       <use xlink:href="#ArialMT-35"/>
      </g>
     </g>
    </g>
    <g id="xtick_18">
     <g id="line2d_26">
      <path clip-path="url(#p3fb5f02787)" d="M 831.950788 431.604 
L 831.950788 244.481143 
" style="fill:none;stroke:#ffffff;stroke-linecap:round;"/>
     </g>
     <g id="text_27">
      <!-- 6 -->
      <g style="fill:#262626;" transform="translate(828.892273 448.977594)scale(0.11 -0.11)">
       <use xlink:href="#ArialMT-36"/>
      </g>
     </g>
    </g>
    <g id="xtick_19">
     <g id="line2d_27">
      <path clip-path="url(#p3fb5f02787)" d="M 947.195227 431.604 
L 947.195227 244.481143 
" style="fill:none;stroke:#ffffff;stroke-linecap:round;"/>
     </g>
     <g id="text_28">
      <!-- 7 -->
      <g style="fill:#262626;" transform="translate(944.136711 448.977594)scale(0.11 -0.11)">
       <use xlink:href="#ArialMT-37"/>
      </g>
     </g>
    </g>
    <g id="xtick_20">
     <g id="line2d_28">
      <path clip-path="url(#p3fb5f02787)" d="M 1062.439666 431.604 
L 1062.439666 244.481143 
" style="fill:none;stroke:#ffffff;stroke-linecap:round;"/>
     </g>
     <g id="text_29">
      <!-- 8 -->
      <g style="fill:#262626;" transform="translate(1059.38115 448.977594)scale(0.11 -0.11)">
       <use xlink:href="#ArialMT-38"/>
      </g>
     </g>
    </g>
    <g id="xtick_21">
     <g id="line2d_29">
      <path clip-path="url(#p3fb5f02787)" d="M 1177.684104 431.604 
L 1177.684104 244.481143 
" style="fill:none;stroke:#ffffff;stroke-linecap:round;"/>
     </g>
     <g id="text_30">
      <!-- 9 -->
      <g style="fill:#262626;" transform="translate(1174.625589 448.977594)scale(0.11 -0.11)">
       <use xlink:href="#ArialMT-39"/>
      </g>
     </g>
    </g>
    <g id="xtick_22">
     <g id="line2d_30">
      <path clip-path="url(#p3fb5f02787)" d="M 1292.928543 431.604 
L 1292.928543 244.481143 
" style="fill:none;stroke:#ffffff;stroke-linecap:round;"/>
     </g>
     <g id="text_31">
      <!-- 10 -->
      <g style="fill:#262626;" transform="translate(1286.811512 448.977594)scale(0.11 -0.11)">
       <use xlink:href="#ArialMT-31"/>
       <use x="55.615234" xlink:href="#ArialMT-30"/>
      </g>
     </g>
    </g>
   </g>
   <g id="matplotlib.axis_4">
    <g id="ytick_8">
     <g id="line2d_31">
      <path clip-path="url(#p3fb5f02787)" d="M 82.285714 426.321711 
L 1362.651429 426.321711 
" style="fill:none;stroke:#ffffff;stroke-linecap:round;"/>
     </g>
     <g id="text_32">
      <!-- 30 -->
      <g style="fill:#262626;" transform="translate(60.551652 430.258508)scale(0.11 -0.11)">
       <use xlink:href="#ArialMT-33"/>
       <use x="55.615234" xlink:href="#ArialMT-30"/>
      </g>
     </g>
    </g>
    <g id="ytick_9">
     <g id="line2d_32">
      <path clip-path="url(#p3fb5f02787)" d="M 82.285714 396.197453 
L 1362.651429 396.197453 
" style="fill:none;stroke:#ffffff;stroke-linecap:round;"/>
     </g>
     <g id="text_33">
      <!-- 40 -->
      <g style="fill:#262626;" transform="translate(60.551652 400.13425)scale(0.11 -0.11)">
       <use xlink:href="#ArialMT-34"/>
       <use x="55.615234" xlink:href="#ArialMT-30"/>
      </g>
     </g>
    </g>
    <g id="ytick_10">
     <g id="line2d_33">
      <path clip-path="url(#p3fb5f02787)" d="M 82.285714 366.073194 
L 1362.651429 366.073194 
" style="fill:none;stroke:#ffffff;stroke-linecap:round;"/>
     </g>
     <g id="text_34">
      <!-- 50 -->
      <g style="fill:#262626;" transform="translate(60.551652 370.009991)scale(0.11 -0.11)">
       <use xlink:href="#ArialMT-35"/>
       <use x="55.615234" xlink:href="#ArialMT-30"/>
      </g>
     </g>
    </g>
    <g id="ytick_11">
     <g id="line2d_34">
      <path clip-path="url(#p3fb5f02787)" d="M 82.285714 335.948935 
L 1362.651429 335.948935 
" style="fill:none;stroke:#ffffff;stroke-linecap:round;"/>
     </g>
     <g id="text_35">
      <!-- 60 -->
      <g style="fill:#262626;" transform="translate(60.551652 339.885732)scale(0.11 -0.11)">
       <use xlink:href="#ArialMT-36"/>
       <use x="55.615234" xlink:href="#ArialMT-30"/>
      </g>
     </g>
    </g>
    <g id="ytick_12">
     <g id="line2d_35">
      <path clip-path="url(#p3fb5f02787)" d="M 82.285714 305.824677 
L 1362.651429 305.824677 
" style="fill:none;stroke:#ffffff;stroke-linecap:round;"/>
     </g>
     <g id="text_36">
      <!-- 70 -->
      <g style="fill:#262626;" transform="translate(60.551652 309.761474)scale(0.11 -0.11)">
       <use xlink:href="#ArialMT-37"/>
       <use x="55.615234" xlink:href="#ArialMT-30"/>
      </g>
     </g>
    </g>
    <g id="ytick_13">
     <g id="line2d_36">
      <path clip-path="url(#p3fb5f02787)" d="M 82.285714 275.700418 
L 1362.651429 275.700418 
" style="fill:none;stroke:#ffffff;stroke-linecap:round;"/>
     </g>
     <g id="text_37">
      <!-- 80 -->
      <g style="fill:#262626;" transform="translate(60.551652 279.637215)scale(0.11 -0.11)">
       <use xlink:href="#ArialMT-38"/>
       <use x="55.615234" xlink:href="#ArialMT-30"/>
      </g>
     </g>
    </g>
    <g id="ytick_14">
     <g id="line2d_37">
      <path clip-path="url(#p3fb5f02787)" d="M 82.285714 245.57616 
L 1362.651429 245.57616 
" style="fill:none;stroke:#ffffff;stroke-linecap:round;"/>
     </g>
     <g id="text_38">
      <!-- 90 -->
      <g style="fill:#262626;" transform="translate(60.551652 249.512957)scale(0.11 -0.11)">
       <use xlink:href="#ArialMT-39"/>
       <use x="55.615234" xlink:href="#ArialMT-30"/>
      </g>
     </g>
    </g>
    <g id="text_39">
     <!-- T [K] -->
     <g style="fill:#262626;" transform="translate(54.166652 350.605071)rotate(-90)scale(0.12 -0.12)">
      <use xlink:href="#ArialMT-54"/>
      <use x="59.333984" xlink:href="#ArialMT-20"/>
      <use x="87.117188" xlink:href="#ArialMT-5b"/>
      <use x="114.900391" xlink:href="#ArialMT-4b"/>
      <use x="181.599609" xlink:href="#ArialMT-5d"/>
     </g>
    </g>
   </g>
   <g id="line2d_38">
    <path clip-path="url(#p3fb5f02787)" d="M 140.484156 252.986727 
L 141.6366 253.830207 
L 142.789045 256.571514 
L 143.941489 261.240774 
L 145.093933 267.837987 
L 146.246378 276.333028 
L 147.398822 286.695773 
L 148.551267 298.805725 
L 150.856155 327.273149 
L 154.313488 373.935626 
L 155.465933 388.033779 
L 156.618377 400.294352 
L 157.770822 410.144984 
L 158.923266 417.254309 
L 160.07571 421.531954 
L 161.228155 423.098416 
L 162.380599 422.315185 
L 163.533044 419.604002 
L 164.685488 415.507102 
L 166.990377 405.325103 
L 169.295266 395.444346 
L 170.44771 391.407696 
L 171.600154 388.244648 
L 172.752599 386.015453 
L 173.905043 384.72011 
L 175.057487 384.298371 
L 176.209932 384.689986 
L 177.362376 385.684086 
L 178.514821 387.130051 
L 181.972154 392.251175 
L 183.124598 393.576642 
L 184.277043 394.450246 
L 185.429487 394.871985 
L 186.581931 394.781613 
L 187.734376 394.299624 
L 188.88682 393.546518 
L 191.191709 391.799311 
L 192.344153 391.106453 
L 193.496598 390.684713 
L 194.649042 390.564216 
L 195.801486 390.744962 
L 196.953931 391.196826 
L 198.106375 391.859559 
L 200.411264 393.576642 
L 203.868597 396.257701 
L 206.173486 397.673541 
L 208.478375 398.697766 
L 214.240597 400.595594 
L 216.545485 401.167955 
L 217.69793 401.288452 
L 218.850374 401.288452 
L 220.002819 401.137831 
L 221.155263 400.866713 
L 223.460152 399.962985 
L 226.917485 398.517021 
L 228.069929 398.185654 
L 230.374818 397.914535 
L 232.679707 398.004908 
L 234.984596 398.125405 
L 237.289484 398.035032 
L 240.746818 397.703666 
L 241.899262 397.73379 
L 243.051706 397.914535 
L 244.204151 398.276026 
L 245.356595 398.818263 
L 247.661484 400.444973 
L 253.423706 405.174482 
L 254.57615 405.86734 
L 256.881039 406.771067 
L 259.185928 407.253056 
L 266.100594 408.247156 
L 270.710372 409.030387 
L 275.320149 409.572623 
L 277.625038 409.693121 
L 281.082371 409.602748 
L 283.38726 409.361754 
L 285.692149 409.000263 
L 287.997037 408.458026 
L 290.301926 407.584422 
L 291.454371 407.042186 
L 293.759259 405.596221 
L 296.064148 403.849014 
L 299.521481 401.137831 
L 301.82637 399.691867 
L 304.131259 398.788139 
L 305.283703 398.547145 
L 306.436148 398.486896 
L 307.588592 398.547145 
L 308.741036 398.818263 
L 309.893481 399.209879 
L 312.19837 400.535346 
L 314.503258 402.463298 
L 320.26548 408.066411 
L 321.417925 408.90989 
L 322.570369 409.572623 
L 323.722813 409.964239 
L 324.875258 410.084736 
L 326.027702 409.90399 
L 327.180147 409.422002 
L 328.332591 408.668896 
L 329.485035 407.644671 
L 331.789924 405.144357 
L 334.094813 402.493423 
L 336.399702 400.264228 
L 337.552146 399.390624 
L 339.857035 398.095281 
L 345.619257 395.68534 
L 347.924146 394.329749 
L 354.838812 389.750861 
L 357.143701 388.545891 
L 360.601034 387.009554 
L 365.210811 385.171974 
L 367.5157 384.418868 
L 368.668145 384.117625 
L 370.973033 383.786258 
L 380.192588 382.972903 
L 383.649922 382.310169 
L 385.95481 382.008927 
L 388.259699 382.0993 
L 390.564588 382.611412 
L 392.869477 383.485016 
L 398.631699 385.864832 
L 399.784143 386.13595 
L 400.936587 386.286572 
L 402.089032 386.286572 
L 403.241476 386.075702 
L 404.393921 385.684086 
L 405.546365 385.111725 
L 407.851254 383.545264 
L 410.156142 381.918554 
L 411.308587 381.25582 
L 412.461031 380.773832 
L 413.613476 380.442465 
L 415.918364 380.291844 
L 418.223253 380.382217 
L 420.528142 380.171347 
L 422.833031 379.62911 
L 425.13792 379.116998 
L 426.290364 379.026625 
L 427.442808 379.05675 
L 428.595253 379.237495 
L 430.900141 379.900229 
L 433.20503 380.623211 
L 434.357475 380.834081 
L 435.509919 380.894329 
L 436.662363 380.743708 
L 437.814808 380.352093 
L 440.119697 379.147122 
L 442.424585 377.731282 
L 443.57703 377.189045 
L 444.729474 376.857679 
L 445.881918 376.79743 
L 447.034363 377.068548 
L 448.186807 377.640909 
L 449.339252 378.484389 
L 450.491696 379.538738 
L 457.406362 386.738435 
L 462.01614 391.076329 
L 467.778362 397.10118 
L 468.930806 398.004908 
L 470.083251 398.637518 
L 471.235695 399.059257 
L 472.388139 399.209879 
L 473.540584 399.14963 
L 474.693028 398.908636 
L 475.845473 398.547145 
L 478.150361 397.372299 
L 479.302806 396.619192 
L 481.607694 394.630991 
L 483.912583 392.040305 
L 489.674805 384.870731 
L 490.82725 383.846507 
L 491.979694 383.0934 
L 493.132138 382.641536 
L 494.284583 382.521039 
L 495.437027 382.762033 
L 496.589472 383.334394 
L 497.741916 384.207998 
L 498.89436 385.35272 
L 500.046805 386.708311 
L 502.351693 389.991855 
L 506.961471 397.10118 
L 509.26636 400.053358 
L 510.418804 401.19808 
L 511.571249 402.101807 
L 512.723693 402.734417 
L 513.876137 403.065784 
L 515.028582 403.156156 
L 516.181026 403.065784 
L 517.33347 402.764541 
L 519.638359 401.860813 
L 525.400581 398.878512 
L 528.857914 397.131305 
L 532.315248 395.715465 
L 535.772581 394.69124 
L 541.534803 393.426021 
L 543.839691 393.06453 
L 546.14458 392.913908 
L 548.449469 392.944033 
L 551.906802 393.2754 
L 556.51658 393.938133 
L 559.973913 394.721364 
L 564.58369 395.835962 
L 569.193468 396.860186 
L 571.498357 397.703666 
L 576.108134 399.631618 
L 577.260579 399.812364 
L 578.413023 399.782239 
L 579.565467 399.450873 
L 580.717912 398.788139 
L 581.870356 397.794038 
L 583.022801 396.558944 
L 585.327689 393.456145 
L 588.785023 388.425394 
L 591.089911 385.593714 
L 592.242356 384.479116 
L 593.3948 383.635637 
L 594.547244 383.063276 
L 595.699689 382.762033 
L 596.852133 382.762033 
L 598.004578 383.033152 
L 599.157022 383.545264 
L 600.309466 384.268246 
L 602.614355 386.166075 
L 606.071688 389.268873 
L 608.376577 390.895583 
L 610.681466 392.040305 
L 611.83391 392.462045 
L 614.138799 393.004281 
L 616.443688 393.215151 
L 617.596132 393.124778 
L 618.748577 392.913908 
L 619.901021 392.492169 
L 621.053465 391.889684 
L 622.20591 391.076329 
L 624.510799 388.907382 
L 630.27302 382.521039 
L 631.425465 381.496814 
L 632.577909 380.653335 
L 633.730354 380.05085 
L 634.882798 379.689359 
L 636.035242 379.62911 
L 637.187687 379.900229 
L 638.340131 380.502714 
L 639.492576 381.406442 
L 640.64502 382.611412 
L 642.949909 385.503341 
L 645.254797 388.274773 
L 646.407242 389.329122 
L 647.559686 390.052104 
L 648.712131 390.413595 
L 649.864575 390.413595 
L 651.017019 390.082228 
L 652.169464 389.509867 
L 653.321908 388.726637 
L 655.626797 386.798684 
L 659.08413 383.816382 
L 660.236575 382.972903 
L 661.389019 382.280045 
L 663.693908 381.376317 
L 665.998796 380.894329 
L 668.303685 380.623211 
L 670.608574 380.593087 
L 672.913463 380.924454 
L 675.218352 381.617311 
L 677.52324 382.762033 
L 678.675685 383.454891 
L 680.980573 385.202098 
L 685.590351 388.997755 
L 686.742795 389.720737 
L 687.89524 390.232849 
L 689.047684 390.503968 
L 690.200129 390.503968 
L 691.352573 390.232849 
L 692.505017 389.720737 
L 693.657462 388.997755 
L 695.962351 387.190299 
L 698.267239 385.322595 
L 699.419684 384.539365 
L 700.572128 383.936879 
L 701.724572 383.51514 
L 702.877017 383.274146 
L 704.029461 383.274146 
L 705.181906 383.424767 
L 707.486794 384.177873 
L 709.791683 385.322595 
L 716.706349 389.479743 
L 717.858794 390.02198 
L 720.163683 390.744962 
L 722.468571 391.106453 
L 730.535682 392.010181 
L 732.840571 392.341548 
L 736.297904 392.522293 
L 740.907682 392.522293 
L 742.060126 392.64279 
L 743.21257 392.883784 
L 744.365015 393.245275 
L 745.517459 393.757388 
L 746.669904 394.420121 
L 748.974792 396.167328 
L 751.279681 398.336275 
L 753.58457 400.595594 
L 754.737014 401.559571 
L 755.889459 402.372926 
L 757.041903 402.975411 
L 758.194347 403.336902 
L 759.346792 403.427275 
L 760.499236 403.276653 
L 761.651681 402.915162 
L 763.956569 401.710192 
L 769.718791 398.035032 
L 772.02368 396.980683 
L 774.328569 396.257701 
L 776.633458 395.835962 
L 780.090791 395.625092 
L 788.157902 395.504595 
L 790.46279 395.745589 
L 793.920123 396.227577 
L 795.072568 396.287825 
L 796.225012 396.197453 
L 797.377457 395.89621 
L 798.529901 395.414222 
L 799.682345 394.69124 
L 800.83479 393.757388 
L 803.139679 391.43782 
L 806.597012 387.792785 
L 807.749456 386.798684 
L 808.9019 385.985329 
L 810.054345 385.35272 
L 811.206789 384.961104 
L 812.359234 384.810483 
L 813.511678 384.870731 
L 814.664122 385.171974 
L 815.816567 385.653962 
L 818.121456 387.069802 
L 820.426344 388.606139 
L 821.578789 389.238749 
L 822.731233 389.690613 
L 823.883678 389.841234 
L 825.036122 389.690613 
L 826.188566 389.238749 
L 827.341011 388.485642 
L 828.493455 387.491542 
L 833.103233 382.88253 
L 834.255677 382.0993 
L 835.408121 381.647436 
L 836.560566 381.496814 
L 837.71301 381.737809 
L 838.865455 382.249921 
L 840.017899 383.063276 
L 841.170343 384.057376 
L 843.475232 386.527566 
L 846.932565 390.413595 
L 849.237454 392.492169 
L 850.389898 393.215151 
L 851.542343 393.636891 
L 852.694787 393.757388 
L 853.847232 393.576642 
L 854.999676 393.124778 
L 856.15212 392.43192 
L 860.761898 389.148376 
L 861.914342 388.636264 
L 863.066787 388.365145 
L 864.219231 388.335021 
L 865.371675 388.515767 
L 868.829009 389.60024 
L 869.981453 389.841234 
L 871.133897 389.901483 
L 872.286342 389.780986 
L 873.438786 389.479743 
L 874.591231 389.027879 
L 878.048564 387.190299 
L 880.353452 386.075702 
L 881.505897 385.684086 
L 882.658341 385.443092 
L 883.810786 385.322595 
L 884.96323 385.382844 
L 887.268119 385.894956 
L 894.182785 388.365145 
L 898.792563 389.630364 
L 901.097451 390.082228 
L 903.40234 390.323222 
L 905.707229 390.262974 
L 909.164562 389.841234 
L 912.621895 389.298997 
L 914.926784 389.058003 
L 917.231673 388.967631 
L 919.536562 389.088128 
L 921.84145 389.449619 
L 924.146339 390.082228 
L 926.451228 391.046204 
L 928.756117 392.311423 
L 935.670783 396.408322 
L 937.975672 397.372299 
L 940.280561 398.095281 
L 946.042783 399.842488 
L 949.500116 400.896837 
L 952.957449 401.619819 
L 955.262338 401.800565 
L 957.567226 401.649943 
L 958.719671 401.378825 
L 959.872115 400.98721 
L 961.02456 400.444973 
L 962.177004 399.691867 
L 963.329448 398.788139 
L 965.634337 396.558944 
L 969.09167 393.094654 
L 970.244115 392.160802 
L 971.396559 391.467944 
L 972.549003 391.01608 
L 973.701448 390.835335 
L 974.853892 390.955832 
L 976.006337 391.377571 
L 977.158781 392.070429 
L 978.311225 393.004281 
L 980.616114 395.504595 
L 985.225892 401.137831 
L 986.378336 402.342801 
L 987.530781 403.306778 
L 988.683225 404.02976 
L 989.835669 404.481624 
L 990.988114 404.632245 
L 992.140558 404.511748 
L 993.293002 404.150257 
L 994.445447 403.577896 
L 996.750336 402.011435 
L 1001.360113 398.697766 
L 1008.274779 394.48037 
L 1010.579668 393.245275 
L 1012.884557 392.251175 
L 1015.189446 391.528193 
L 1017.494335 391.01608 
L 1019.799223 390.684713 
L 1022.104112 390.594341 
L 1023.256557 390.624465 
L 1025.561445 391.046204 
L 1027.866334 391.919808 
L 1030.171223 393.215151 
L 1034.781 396.167328 
L 1035.933445 396.769814 
L 1037.085889 397.221677 
L 1038.238334 397.52292 
L 1039.390778 397.673541 
L 1040.543222 397.703666 
L 1042.848111 397.432547 
L 1046.305444 396.709565 
L 1061.287221 393.667015 
L 1064.744554 392.944033 
L 1067.049443 392.221051 
L 1071.659221 390.443719 
L 1075.116554 389.1785 
L 1083.183665 386.527566 
L 1085.488553 385.864832 
L 1090.098331 384.177873 
L 1091.250775 383.906755 
L 1092.40322 383.756134 
L 1098.165442 383.635637 
L 1101.622775 382.912655 
L 1103.927664 382.460791 
L 1106.232552 382.280045 
L 1108.537441 382.460791 
L 1110.84233 382.972903 
L 1113.147219 383.756134 
L 1118.909441 385.955205 
L 1120.061885 386.286572 
L 1122.366774 386.587814 
L 1124.671663 386.467317 
L 1128.128996 386.015453 
L 1129.28144 385.985329 
L 1130.433885 386.13595 
L 1131.586329 386.467317 
L 1132.738773 387.009554 
L 1133.891218 387.76266 
L 1136.196106 389.660489 
L 1138.500995 391.678814 
L 1139.65344 392.522293 
L 1140.805884 393.185027 
L 1141.958328 393.606766 
L 1143.110773 393.817636 
L 1144.263217 393.787512 
L 1145.415662 393.576642 
L 1146.568106 393.154903 
L 1147.72055 392.582542 
L 1150.025439 390.985956 
L 1152.330328 389.027879 
L 1155.787661 385.955205 
L 1156.940105 385.081601 
L 1158.09255 384.358619 
L 1159.244994 383.816382 
L 1160.397439 383.545264 
L 1161.549883 383.545264 
L 1162.702327 383.876631 
L 1163.854772 384.50924 
L 1165.007216 385.473217 
L 1166.159661 386.708311 
L 1168.464549 389.901483 
L 1173.074327 396.709565 
L 1174.226771 398.095281 
L 1175.379216 399.270127 
L 1176.53166 400.173855 
L 1177.684104 400.866713 
L 1178.836549 401.288452 
L 1179.988993 401.529446 
L 1181.141438 401.589695 
L 1183.446326 401.348701 
L 1186.90366 400.806464 
L 1189.208548 400.77634 
L 1191.513437 401.137831 
L 1193.818326 401.800565 
L 1197.275659 402.82479 
L 1199.580548 403.186281 
L 1201.885437 403.186281 
L 1204.190325 402.885038 
L 1208.800103 402.19218 
L 1214.562325 401.710192 
L 1216.867214 401.167955 
L 1220.324547 399.902736 
L 1222.629436 399.059257 
L 1224.934324 398.396524 
L 1227.239213 397.914535 
L 1237.611213 396.197453 
L 1242.22099 395.022607 
L 1244.525879 394.450246 
L 1245.678323 394.239376 
L 1246.830768 394.179127 
L 1247.983212 394.2695 
L 1249.135656 394.540618 
L 1250.288101 395.022607 
L 1251.440545 395.715465 
L 1254.897878 398.366399 
L 1256.050323 399.059257 
L 1257.202767 399.511121 
L 1258.355212 399.661742 
L 1259.507656 399.450873 
L 1260.6601 398.93876 
L 1261.812545 398.215778 
L 1264.117433 396.287825 
L 1269.879655 390.925707 
L 1271.0321 390.112352 
L 1272.184544 389.449619 
L 1273.336989 388.967631 
L 1274.489433 388.696512 
L 1275.641877 388.636264 
L 1276.794322 388.696512 
L 1279.09921 389.118252 
L 1281.404099 389.750861 
L 1286.013877 391.257074 
L 1287.166321 391.528193 
L 1288.318766 391.64869 
L 1289.47121 391.618565 
L 1290.623654 391.467944 
L 1291.776099 391.166701 
L 1294.080988 390.232849 
L 1297.538321 388.214524 
L 1302.148098 385.412968 
L 1304.452987 384.207998 
L 1304.452987 384.207998 
" style="fill:none;stroke:#4c72b0;stroke-linecap:round;stroke-width:1.5;"/>
   </g>
   <g id="patch_8">
    <path d="M 82.285714 431.604 
L 82.285714 244.481143 
" style="fill:none;stroke:#ffffff;stroke-linecap:square;stroke-linejoin:miter;stroke-width:1.25;"/>
   </g>
   <g id="patch_9">
    <path d="M 1362.651429 431.604 
L 1362.651429 244.481143 
" style="fill:none;stroke:#ffffff;stroke-linecap:square;stroke-linejoin:miter;stroke-width:1.25;"/>
   </g>
   <g id="patch_10">
    <path d="M 82.285714 431.604 
L 1362.651429 431.604 
" style="fill:none;stroke:#ffffff;stroke-linecap:square;stroke-linejoin:miter;stroke-width:1.25;"/>
   </g>
   <g id="patch_11">
    <path d="M 82.285714 244.481143 
L 1362.651429 244.481143 
" style="fill:none;stroke:#ffffff;stroke-linecap:square;stroke-linejoin:miter;stroke-width:1.25;"/>
   </g>
  </g>
  <g id="axes_3">
   <g id="patch_12">
    <path d="M 82.285714 656.151429 
L 1362.651429 656.151429 
L 1362.651429 469.028571 
L 82.285714 469.028571 
z
" style="fill:#eaeaf2;"/>
   </g>
   <g id="matplotlib.axis_5">
    <g id="xtick_23">
     <g id="line2d_39">
      <path clip-path="url(#p50666d0f30)" d="M 140.484156 656.151429 
L 140.484156 469.028571 
" style="fill:none;stroke:#ffffff;stroke-linecap:round;"/>
     </g>
     <g id="text_40">
      <!-- 0 -->
      <g style="fill:#262626;" transform="translate(137.42564 673.525022)scale(0.11 -0.11)">
       <use xlink:href="#ArialMT-30"/>
      </g>
     </g>
    </g>
    <g id="xtick_24">
     <g id="line2d_40">
      <path clip-path="url(#p50666d0f30)" d="M 255.728595 656.151429 
L 255.728595 469.028571 
" style="fill:none;stroke:#ffffff;stroke-linecap:round;"/>
     </g>
     <g id="text_41">
      <!-- 1 -->
      <g style="fill:#262626;" transform="translate(252.670079 673.525022)scale(0.11 -0.11)">
       <use xlink:href="#ArialMT-31"/>
      </g>
     </g>
    </g>
    <g id="xtick_25">
     <g id="line2d_41">
      <path clip-path="url(#p50666d0f30)" d="M 370.973033 656.151429 
L 370.973033 469.028571 
" style="fill:none;stroke:#ffffff;stroke-linecap:round;"/>
     </g>
     <g id="text_42">
      <!-- 2 -->
      <g style="fill:#262626;" transform="translate(367.914518 673.525022)scale(0.11 -0.11)">
       <use xlink:href="#ArialMT-32"/>
      </g>
     </g>
    </g>
    <g id="xtick_26">
     <g id="line2d_42">
      <path clip-path="url(#p50666d0f30)" d="M 486.217472 656.151429 
L 486.217472 469.028571 
" style="fill:none;stroke:#ffffff;stroke-linecap:round;"/>
     </g>
     <g id="text_43">
      <!-- 3 -->
      <g style="fill:#262626;" transform="translate(483.158956 673.525022)scale(0.11 -0.11)">
       <use xlink:href="#ArialMT-33"/>
      </g>
     </g>
    </g>
    <g id="xtick_27">
     <g id="line2d_43">
      <path clip-path="url(#p50666d0f30)" d="M 601.461911 656.151429 
L 601.461911 469.028571 
" style="fill:none;stroke:#ffffff;stroke-linecap:round;"/>
     </g>
     <g id="text_44">
      <!-- 4 -->
      <g style="fill:#262626;" transform="translate(598.403395 673.525022)scale(0.11 -0.11)">
       <use xlink:href="#ArialMT-34"/>
      </g>
     </g>
    </g>
    <g id="xtick_28">
     <g id="line2d_44">
      <path clip-path="url(#p50666d0f30)" d="M 716.706349 656.151429 
L 716.706349 469.028571 
" style="fill:none;stroke:#ffffff;stroke-linecap:round;"/>
     </g>
     <g id="text_45">
      <!-- 5 -->
      <g style="fill:#262626;" transform="translate(713.647834 673.525022)scale(0.11 -0.11)">
       <use xlink:href="#ArialMT-35"/>
      </g>
     </g>
    </g>
    <g id="xtick_29">
     <g id="line2d_45">
      <path clip-path="url(#p50666d0f30)" d="M 831.950788 656.151429 
L 831.950788 469.028571 
" style="fill:none;stroke:#ffffff;stroke-linecap:round;"/>
     </g>
     <g id="text_46">
      <!-- 6 -->
      <g style="fill:#262626;" transform="translate(828.892273 673.525022)scale(0.11 -0.11)">
       <use xlink:href="#ArialMT-36"/>
      </g>
     </g>
    </g>
    <g id="xtick_30">
     <g id="line2d_46">
      <path clip-path="url(#p50666d0f30)" d="M 947.195227 656.151429 
L 947.195227 469.028571 
" style="fill:none;stroke:#ffffff;stroke-linecap:round;"/>
     </g>
     <g id="text_47">
      <!-- 7 -->
      <g style="fill:#262626;" transform="translate(944.136711 673.525022)scale(0.11 -0.11)">
       <use xlink:href="#ArialMT-37"/>
      </g>
     </g>
    </g>
    <g id="xtick_31">
     <g id="line2d_47">
      <path clip-path="url(#p50666d0f30)" d="M 1062.439666 656.151429 
L 1062.439666 469.028571 
" style="fill:none;stroke:#ffffff;stroke-linecap:round;"/>
     </g>
     <g id="text_48">
      <!-- 8 -->
      <g style="fill:#262626;" transform="translate(1059.38115 673.525022)scale(0.11 -0.11)">
       <use xlink:href="#ArialMT-38"/>
      </g>
     </g>
    </g>
    <g id="xtick_32">
     <g id="line2d_48">
      <path clip-path="url(#p50666d0f30)" d="M 1177.684104 656.151429 
L 1177.684104 469.028571 
" style="fill:none;stroke:#ffffff;stroke-linecap:round;"/>
     </g>
     <g id="text_49">
      <!-- 9 -->
      <g style="fill:#262626;" transform="translate(1174.625589 673.525022)scale(0.11 -0.11)">
       <use xlink:href="#ArialMT-39"/>
      </g>
     </g>
    </g>
    <g id="xtick_33">
     <g id="line2d_49">
      <path clip-path="url(#p50666d0f30)" d="M 1292.928543 656.151429 
L 1292.928543 469.028571 
" style="fill:none;stroke:#ffffff;stroke-linecap:round;"/>
     </g>
     <g id="text_50">
      <!-- 10 -->
      <g style="fill:#262626;" transform="translate(1286.811512 673.525022)scale(0.11 -0.11)">
       <use xlink:href="#ArialMT-31"/>
       <use x="55.615234" xlink:href="#ArialMT-30"/>
      </g>
     </g>
    </g>
    <g id="text_51">
     <!-- t [ps] -->
     <g style="fill:#262626;" transform="translate(709.464509 688.300647)scale(0.12 -0.12)">
      <defs>
       <path d="M 1650 503 
L 1731 6 
Q 1494 -44 1306 -44 
Q 1000 -44 831 53 
Q 663 150 594 308 
Q 525 466 525 972 
L 525 2881 
L 113 2881 
L 113 3319 
L 525 3319 
L 525 4141 
L 1084 4478 
L 1084 3319 
L 1650 3319 
L 1650 2881 
L 1084 2881 
L 1084 941 
Q 1084 700 1114 631 
Q 1144 563 1211 522 
Q 1278 481 1403 481 
Q 1497 481 1650 503 
z
" id="ArialMT-74" transform="scale(0.015625)"/>
       <path d="M 422 -1272 
L 422 3319 
L 934 3319 
L 934 2888 
Q 1116 3141 1344 3267 
Q 1572 3394 1897 3394 
Q 2322 3394 2647 3175 
Q 2972 2956 3137 2557 
Q 3303 2159 3303 1684 
Q 3303 1175 3120 767 
Q 2938 359 2589 142 
Q 2241 -75 1856 -75 
Q 1575 -75 1351 44 
Q 1128 163 984 344 
L 984 -1272 
L 422 -1272 
z
M 931 1641 
Q 931 1000 1190 694 
Q 1450 388 1819 388 
Q 2194 388 2461 705 
Q 2728 1022 2728 1688 
Q 2728 2322 2467 2637 
Q 2206 2953 1844 2953 
Q 1484 2953 1207 2617 
Q 931 2281 931 1641 
z
" id="ArialMT-70" transform="scale(0.015625)"/>
      </defs>
      <use xlink:href="#ArialMT-74"/>
      <use x="27.783203" xlink:href="#ArialMT-20"/>
      <use x="55.566406" xlink:href="#ArialMT-5b"/>
      <use x="83.349609" xlink:href="#ArialMT-70"/>
      <use x="138.964844" xlink:href="#ArialMT-73"/>
      <use x="188.964844" xlink:href="#ArialMT-5d"/>
     </g>
    </g>
   </g>
   <g id="matplotlib.axis_6">
    <g id="ytick_15">
     <g id="line2d_50">
      <path clip-path="url(#p50666d0f30)" d="M 82.285714 630.634675 
L 1362.651429 630.634675 
" style="fill:none;stroke:#ffffff;stroke-linecap:round;"/>
     </g>
     <g id="text_52">
      <!-- −0.04 -->
      <g style="fill:#262626;" transform="translate(44.953996 634.571472)scale(0.11 -0.11)">
       <use xlink:href="#ArialMT-2212"/>
       <use x="58.398438" xlink:href="#ArialMT-30"/>
       <use x="114.013672" xlink:href="#ArialMT-2e"/>
       <use x="141.796875" xlink:href="#ArialMT-30"/>
       <use x="197.412109" xlink:href="#ArialMT-34"/>
      </g>
     </g>
    </g>
    <g id="ytick_16">
     <g id="line2d_51">
      <path clip-path="url(#p50666d0f30)" d="M 82.285714 596.612338 
L 1362.651429 596.612338 
" style="fill:none;stroke:#ffffff;stroke-linecap:round;"/>
     </g>
     <g id="text_53">
      <!-- −0.02 -->
      <g style="fill:#262626;" transform="translate(44.953996 600.549135)scale(0.11 -0.11)">
       <use xlink:href="#ArialMT-2212"/>
       <use x="58.398438" xlink:href="#ArialMT-30"/>
       <use x="114.013672" xlink:href="#ArialMT-2e"/>
       <use x="141.796875" xlink:href="#ArialMT-30"/>
       <use x="197.412109" xlink:href="#ArialMT-32"/>
      </g>
     </g>
    </g>
    <g id="ytick_17">
     <g id="line2d_52">
      <path clip-path="url(#p50666d0f30)" d="M 82.285714 562.59 
L 1362.651429 562.59 
" style="fill:none;stroke:#ffffff;stroke-linecap:round;"/>
     </g>
     <g id="text_54">
      <!-- 0.00 -->
      <g style="fill:#262626;" transform="translate(51.378683 566.526797)scale(0.11 -0.11)">
       <use xlink:href="#ArialMT-30"/>
       <use x="55.615234" xlink:href="#ArialMT-2e"/>
       <use x="83.398438" xlink:href="#ArialMT-30"/>
       <use x="139.013672" xlink:href="#ArialMT-30"/>
      </g>
     </g>
    </g>
    <g id="ytick_18">
     <g id="line2d_53">
      <path clip-path="url(#p50666d0f30)" d="M 82.285714 528.567662 
L 1362.651429 528.567662 
" style="fill:none;stroke:#ffffff;stroke-linecap:round;"/>
     </g>
     <g id="text_55">
      <!-- 0.02 -->
      <g style="fill:#262626;" transform="translate(51.378683 532.504459)scale(0.11 -0.11)">
       <use xlink:href="#ArialMT-30"/>
       <use x="55.615234" xlink:href="#ArialMT-2e"/>
       <use x="83.398438" xlink:href="#ArialMT-30"/>
       <use x="139.013672" xlink:href="#ArialMT-32"/>
      </g>
     </g>
    </g>
    <g id="ytick_19">
     <g id="line2d_54">
      <path clip-path="url(#p50666d0f30)" d="M 82.285714 494.545325 
L 1362.651429 494.545325 
" style="fill:none;stroke:#ffffff;stroke-linecap:round;"/>
     </g>
     <g id="text_56">
      <!-- 0.04 -->
      <g style="fill:#262626;" transform="translate(51.378683 498.482122)scale(0.11 -0.11)">
       <use xlink:href="#ArialMT-30"/>
       <use x="55.615234" xlink:href="#ArialMT-2e"/>
       <use x="83.398438" xlink:href="#ArialMT-30"/>
       <use x="139.013672" xlink:href="#ArialMT-34"/>
      </g>
     </g>
    </g>
    <g id="text_57">
     <!-- P [atm] -->
     <g style="fill:#262626;" transform="translate(38.568996 581.489063)rotate(-90)scale(0.12 -0.12)">
      <defs>
       <path d="M 494 0 
L 494 4581 
L 2222 4581 
Q 2678 4581 2919 4538 
Q 3256 4481 3484 4323 
Q 3713 4166 3852 3881 
Q 3991 3597 3991 3256 
Q 3991 2672 3619 2267 
Q 3247 1863 2275 1863 
L 1100 1863 
L 1100 0 
L 494 0 
z
M 1100 2403 
L 2284 2403 
Q 2872 2403 3119 2622 
Q 3366 2841 3366 3238 
Q 3366 3525 3220 3729 
Q 3075 3934 2838 4000 
Q 2684 4041 2272 4041 
L 1100 4041 
L 1100 2403 
z
" id="ArialMT-50" transform="scale(0.015625)"/>
      </defs>
      <use xlink:href="#ArialMT-50"/>
      <use x="64.949219" xlink:href="#ArialMT-20"/>
      <use x="92.732422" xlink:href="#ArialMT-5b"/>
      <use x="120.515625" xlink:href="#ArialMT-61"/>
      <use x="176.130859" xlink:href="#ArialMT-74"/>
      <use x="203.914062" xlink:href="#ArialMT-6d"/>
      <use x="287.214844" xlink:href="#ArialMT-5d"/>
     </g>
    </g>
   </g>
   <g id="line2d_55">
    <path clip-path="url(#p50666d0f30)" d="M 140.484156 562.59 
L 1304.452987 562.59 
L 1304.452987 562.59 
" style="fill:none;stroke:#4c72b0;stroke-linecap:round;stroke-width:1.5;"/>
   </g>
   <g id="patch_13">
    <path d="M 82.285714 656.151429 
L 82.285714 469.028571 
" style="fill:none;stroke:#ffffff;stroke-linecap:square;stroke-linejoin:miter;stroke-width:1.25;"/>
   </g>
   <g id="patch_14">
    <path d="M 1362.651429 656.151429 
L 1362.651429 469.028571 
" style="fill:none;stroke:#ffffff;stroke-linecap:square;stroke-linejoin:miter;stroke-width:1.25;"/>
   </g>
   <g id="patch_15">
    <path d="M 82.285714 656.151429 
L 1362.651429 656.151429 
" style="fill:none;stroke:#ffffff;stroke-linecap:square;stroke-linejoin:miter;stroke-width:1.25;"/>
   </g>
   <g id="patch_16">
    <path d="M 82.285714 469.028571 
L 1362.651429 469.028571 
" style="fill:none;stroke:#ffffff;stroke-linecap:square;stroke-linejoin:miter;stroke-width:1.25;"/>
   </g>
  </g>
 </g>
 <defs>
  <clipPath id="p5ff0947975">
   <rect height="187.122857" width="1280.365714" x="82.285714" y="19.933714"/>
  </clipPath>
  <clipPath id="p3fb5f02787">
   <rect height="187.122857" width="1280.365714" x="82.285714" y="244.481143"/>
  </clipPath>
  <clipPath id="p50666d0f30">
   <rect height="187.122857" width="1280.365714" x="82.285714" y="469.028571"/>
  </clipPath>
 </defs>
</svg>
